<?xml version="1.0" encoding="UTF-8"?>
<svg id="Layer_2" data-name="Layer 2" xmlns="http://www.w3.org/2000/svg" viewBox="0 0 380.2 241.7">
  <defs>
    <style>
      .cls-1 {
        fill: #fff;
      }
    </style>
  </defs>
  <g id="Layer_1-2" data-name="Layer 1">
    <g>
      <path class="cls-1" d="M365.16,227.43l-17.55.12-3.91.44-57.48.15c-9.83.03-18.97.88-28.94,2.93l-.17-9.76c6.12,1.63,11.94,2.62,18.32,2.8l49.07,1.39,40.68.99-.02.94Z"/>
      <path class="cls-1" d="M53.02,228.07c-2.62.07-4.67-.42-6.93-.44l-18.63-.23-.02-.86,31.88-.93,27.67-.5,16.68-.4,11.56-.5c6.58-.29,12.82-.91,19.54-2.96v9.97c-9.6-2.2-19.01-3.01-28.92-3.09l-43.21-.33-9.62.27Z"/>
      <path class="cls-1" d="M235.78,211.09c-.48,1.41-1.88,1.44-2.67.96-.97-.58-1.25-1.61-.92-2.59.36-1.07,1.65-1.84,2.85-1.12.75.45,1.09,1.69.73,2.74Z"/>
      <path class="cls-1" d="M367.33,226.39c.69.08.48.81-.12.66-1.23.2-.91-1.12.12-.66Z"/>
      <rect class="cls-1" x="25.35" y="226.5" width=".39" height=".39" transform="translate(-152.81 84.46) rotate(-45)"/>
      <g>
        <g>
          <path class="cls-1" d="M203.22,86.97c-17.52,3.38-42.48,5-59.07-.33-3.4-1.09-6.58-2.75-8.77-5.38-2.33-2.8-3.4-6.88-.82-9.67,2.26-2.45,5.47-3.83,8.96-4.53-.96,2.03-2.16,3.03-1.92,4.76,1.38,10.05,45.01,7.32,57.94,6.12,5.46-.51,14.16-2.58,14.82-6.13.45-2.41-2.85-3.64-2.38-4.78.19-.47,2.31.75,3.28-.02,1.42-1.14.46-6.37,8.93-10.64,6.45-3.26,13.3-2.63,18.87,2.45,3.81,3.48,6.65,8.9,6.59,14.37-.05,4.46-3.14,7.99-6.48,10.34l-8.05,5.66c-2.21,1.55-2.53,4.16-1.98,7.25-2-.62-3.47-4.09-2.37-6.06,1.76-3.17,4.89-5.07,6.87-7.94l3.1-4.49c2.47-4.72.34-8.66-3.63-11.19-5.66-3.61-12.58-3.29-16.41,2.58,2.42,3.85.98,8.44-2.63,11.2-4.25,3.23-9.35,5.38-14.83,6.44Z"/>
          <path class="cls-1" d="M172.17,68.1c-6.31-3.54-8.01-10.34-6.08-16.66,1.67-5.48,5.01-9.91,8.78-14.24,10.34-10.46,9.37-23.18,5.12-37.2,12.29,10.8,19.01,28.59,7.81,40.84-6.89,7.55-16.27,17.42-15.63,27.25Z"/>
          <path class="cls-1" d="M186.3,66.89c-4.4-3.3-4.94-8.82-2.81-13.44,2.88-6.23,9.78-9.26,11.73-14.03,2.57-6.28,2.16-12.67,1.37-19.88,8.65,8.57,11.19,22.36,1.71,30.16-5.67,4.66-11.44,9.65-12,17.18Z"/>
        </g>
        <path class="cls-1" d="M76.5,202.29c0-7.04-5.71-12.75-12.75-12.75s-12.75,5.71-12.75,12.75,5.71,12.75,12.75,12.75,12.75-5.71,12.75-12.75ZM63.72,209.89c-4.24,0-7.68-3.44-7.68-7.68s3.44-7.68,7.68-7.68,7.68,3.44,7.68,7.68-3.44,7.68-7.68,7.68Z"/>
        <g>
          <path class="cls-1" d="M306.38,182.3l41.23-.05c5.98-.18,12.42-4.55,12.44-10.82l.09-26.24c.03-7.93-4.76-14.41-11.45-18.22-5.93-3.26-12.27-4.76-18.98-5.77l-17.7-1.05-.02-20c19.61-.2,44.85,2.55,58.35,17.33,6.23,6.82,9.9,16.03,9.85,25.46l-.15,31.25c-1.5,16.6-16.68,28.44-32.96,28.11h-40.7s0-19.99,0-19.99Z"/>
          <g>
            <path class="cls-1" d="M255.55,201.94c-.61.06-1.55-.67-1.84.34l-177.2.03c0-4.56-2.42-8.77-6.36-11.05s-8.81-2.29-12.75-.01-6.38,6.48-6.38,11.04l-6.47.06c-.71-.9-1.92-.48-2.87-.5l-3.19-.08c-.08-.55-.82-.65-1.24-.39C17.89,197.82,2.71,182.08.08,162.23l-.08-43.44,19.76.02.05,38.34c.93,14.18,12.05,25.09,26.38,25.09h61.43s-.03-82.1-.03-82.1l20.08-.02-.02,82.05,31.49.13.27-24.4c1.33-14.57,11.1-26.45,25.11-30.17,2.68-4.85,5.57-8.82,9.81-12.38,16.19-13.62,38.29-18.55,58.8-13.02,8.08,2.18,14.96,6.28,20.42,12.6,6.31,7.3,10.56,16.56,10.56,26.44l.02,31.79c-1,15.45-14,27.36-28.6,28.79ZM253.17,182.11c5.23-.07,10.77-4.89,10.77-10.05v-29.02c-.65-11.56-9.33-20.37-20.43-22.29-9.83-1.7-19.6.01-28.45,4.41-2.93,1.45-5.62,3.07-7.66,5.72,10.21,5.72,17.12,16.29,17.24,27.95l.24,23.67,28.28-.4ZM204.78,182.29l-.06-23.78c-.69-4.17-2.85-7.56-5.86-9.51-3.54-2.29-7.74-2.82-11.63-1.04-4.31,1.97-7.58,6.55-7.6,11.44l-.1,23.02,25.25-.13Z"/>
            <path class="cls-1" d="M44.53,202.34c-.5,0-1.06.81-1.96.52-.43-.14-.97-.23-.91-1.03.95.02,2.16-.4,2.87.5Z"/>
            <path class="cls-1" d="M255.55,201.94c0,.46-.34.99-1,.88-.3-.05-.63-.24-.84-.55.29-1.01,1.23-.28,1.84-.34Z"/>
            <path class="cls-1" d="M38.47,201.76c-.17.16-.52.57-.8.45-.42-.17-.47-.63-.45-.85.43-.25,1.16-.16,1.24.39Z"/>
          </g>
        </g>
        <circle class="cls-1" cx="63.72" cy="202.22" r="7.68"/>
      </g>
      <g>
        <path class="cls-1" d="M239.8,225.61c-.19,3.08.1,5.81-2.31,7.73-.97.77-2.65,1.15-4.14,1.16l-45,.02c-.9,3.51-3.12,6.44-6.62,7.04l-7.7.14c-.28-1.26-.04-2.34.09-3.95l5.49.04c2.06.02,3.99-1.08,4.49-3.33l-8.57-.19c-4-1.07-4.4-4.89-4.48-8.33-.13-5.17,2.41-9.59,7.3-10.29s9.93,2.63,9.97,8.01l.05,6.73c1.7.22,3.26.4,5.09.09,1.54-.26-1.55-7.82,5.05-9.77,2.06-3.69,5.6-4.97,9.64-5.17,4.96-.25,8.87,3.01,9.03,8.2l.2,6.58c1.76.41,3.43.43,5.31.05l.17-7.5c.12-5.15,4.96-7.84,9.67-7.25s7.63,4.64,7.29,9.99ZM184.51,230.74l-.13-7.54c-.04-2.1-2.28-3.64-4.07-3.88s-4.09.95-4.81,3.02-.54,4.91-.12,7.14c.18.93,1.8,1.21,2.5,1.21l6.63.03ZM206.26,230.7l7.01-.14-.05-6.9c-.02-2.61-2.03-4.29-4.61-4.36-2-.06-3.8.56-5.8,1.64,4.27,3.09,2.74,5.61,3.46,9.76ZM234.38,230.42c2.14-.58,1.41-3.13,1.54-4.45.31-3.06-.42-5.44-3.13-6.42-2.2-.8-5.84.31-5.89,3.08l-.14,8.08,7.62-.3ZM202.38,230.54c.07-1.98.18-3.31-.26-4.69-.37-1.17-1.51-1.69-2.47-1.57-1.01.13-1.88.94-1.89,2.22l-.03,4.11c1.68.18,3.09.32,4.64-.08Z"/>
        <path class="cls-1" d="M166.65,231.33c-1.88,4.29-11.47,4.15-14.59,1.46-1.84-1.58-1.69-3.83-1.86-6.37-.32-4.67,1.52-9.03,5.95-10.44s9.35.57,10.72,5.45c.8,2.82,1,7.08-.23,9.89ZM162.18,230.26c2.25-.91,2.26-8.14-.79-10.13-1.71-1.12-3.79-1.05-5.22.19-3.04,2.64-2.21,9.16-1.08,9.81,1.66.96,5.24.89,7.09.13Z"/>
        <path class="cls-1" d="M160.94,208.2c1.52-.53,2.39.6,2.57,1.56.21,1.15-.21,2.12-1.51,2.51-.79.24-2.08-.22-2.35-1.19s.07-2.45,1.29-2.88Z"/>
        <circle class="cls-1" cx="156.09" cy="210.21" r="2.09"/>
        <path class="cls-1" d="M228.11,208.14c1.39-.33,2.17.59,2.31,1.63.16,1.17-.18,2.13-1.45,2.5-.94.28-1.99-.27-2.32-1.28-.38-1.12.12-2.54,1.46-2.86Z"/>
      </g>
    </g>
  </g>
</svg>