<?xml version="1.0" encoding="UTF-8"?>
<svg id="Layer_2" data-name="Layer 2" xmlns="http://www.w3.org/2000/svg" viewBox="0 0 378.14 225.99">
  <defs>
    <style>
      .cls-1 {
        fill: #fff;
      }
    </style>
  </defs>
  <g id="Layer_1-2" data-name="Layer 1">
    <g id="Layer_2-2" data-name="Layer 2">
      <g id="uuid-646a687f-0b64-4bf6-a014-7c1f57b761d6" data-name="Layer 1-2">
        <path class="cls-1" d="M112.14,60.26V11.03C112.14,3.57,115.47-.08,123.38.06c16.69.29,33.3.13,50.04,0,3.45,0,6.85,0,8.46,3.8s-.29,6.87-3.02,9.6c-17.53,17.49-35.03,34.99-52.52,52.48-2.66,2.66-5.39,4.97-9.51,3.17-4.12-1.8-4.72-4.98-4.69-8.84Z"/>
        <path class="cls-1" d="M192.05,139.72c5.06,8.7,2.53,12.87-7.51,12.91h-30.87c-10.28,0-20.62-.27-30.89.08-7.74.28-10.54-3.66-10.66-10.66,0-8.07.13-16.16-.08-24.2-.19-4.76,1.7-9.36,5.17-12.63,8.48-8.42,16.82-17.01,25.41-25.31,6.57-6.41,10.58-5.99,15.13,1.65,11.58,19.32,23.01,38.71,34.3,58.15Z"/>
        <path class="cls-1" d="M266,76.48v64.41c0,9.7-2.08,11.69-11.73,11.73-6.66,0-13.41-.39-20.06.11-7.18.56-11.4-2.74-14.78-8.56-15.64-26.96-31.33-53.9-47.36-80.64-3.76-6.26-2.78-10.52,2.13-15.33,14.16-13.85,28.09-27.89,42-41.98,4.13-4.18,8.6-6.53,14.76-6.19,7.99.45,16.17.36,24.24,0s10.91,3.66,10.87,11.2c-.12,21.79-.05,43.53-.05,65.25Z"/>
        <path class="cls-1" d="M266,76.48v64.41c0,9.7-2.08,11.69-11.73,11.73-6.66,0-13.41-.39-20.06.11-7.18.56-11.4-2.74-14.78-8.56-15.64-26.96-31.33-53.9-47.36-80.64-3.76-6.26-2.78-10.52,2.13-15.33,14.16-13.85,28.09-27.89,42-41.98,4.13-4.18,8.6-6.53,14.76-6.19,7.99.45,16.17.36,24.24,0s10.91,3.66,10.87,11.2c-.12,21.79-.05,43.53-.05,65.25Z"/>
        <path class="cls-1" d="M184.54,152.63h-30.87c-10.28,0-20.62-.27-30.89.08-7.74.28-10.54-3.66-10.66-10.66,0-8.07.13-16.16-.08-24.2-.19-4.76,1.7-9.36,5.17-12.63,8.48-8.42,16.82-17.01,25.41-25.31,6.57-6.41,10.58-5.99,15.13,1.65,11.54,19.34,22.96,38.73,34.26,58.18,5.11,8.67,2.57,12.84-7.47,12.88Z"/>
        <path class="cls-1" d="M178.88,13.52c-17.53,17.49-35.03,34.99-52.52,52.48-2.66,2.66-5.39,4.97-9.51,3.17s-4.74-5.05-4.72-8.91V11.03C112.14,3.57,115.47-.08,123.38.06c16.69.29,33.3.13,50.04,0,3.45,0,6.85,0,8.46,3.8s-.27,6.94-3,9.67Z"/>
        <path class="cls-1" d="M30.21,225.98l-19.47-23.84v23.84H0v-53.5h10.74v23.97l19.47-23.97h12.95l-22.07,26.52,22.64,26.99h-13.52Z"/>
        <path class="cls-1" d="M104.4,172.48v53.5h-10.66v-22.76h-22.99v22.76h-10.74v-53.5h10.74v21.99h22.92v-21.99h10.72Z"/>
        <path class="cls-1" d="M157,215.78h-21.31l-3.53,10.2h-11.27l19.23-53.58h12.49l19.21,53.58h-11.35l-3.48-10.2ZM154.08,207.2l-7.74-22.39-7.75,22.39h15.49Z"/>
        <path class="cls-1" d="M226.06,203.06c1.92,2.39,2.95,5.37,2.9,8.43.06,2.67-.67,5.3-2.1,7.55-1.5,2.25-3.61,4.02-6.09,5.1-2.97,1.29-6.19,1.91-9.43,1.84h-23.08v-53.5h22.08c3.22-.08,6.42.52,9.39,1.76,2.43,1.01,4.52,2.71,5.98,4.9,1.36,2.13,2.06,4.61,2.02,7.14.1,2.82-.78,5.58-2.49,7.82-1.71,2.13-4.04,3.68-6.66,4.44,2.97.53,5.63,2.14,7.47,4.53ZM198.99,194.55h9.82c2.11.14,4.2-.47,5.9-1.72,1.42-1.24,2.18-3.07,2.06-4.95.11-1.89-.65-3.72-2.06-4.98-1.69-1.27-3.79-1.9-5.9-1.76h-9.82v13.41ZM215.89,215.41c1.49-1.31,2.3-3.24,2.18-5.22.1-2.06-.74-4.05-2.29-5.41-1.77-1.38-3.98-2.07-6.22-1.94h-10.58v14.41h10.82c2.18.13,4.34-.52,6.09-1.84Z"/>
        <path class="cls-1" d="M257.48,172.48v53.5h-10.72v-53.5h10.72Z"/>
        <path class="cls-1" d="M304.85,225.98l-11.83-20.86h-5.06v20.86h-10.74v-53.5h20.09c3.65-.11,7.27.64,10.58,2.18,2.72,1.28,5,3.33,6.55,5.9,3.2,5.62,2.86,12.58-.88,17.86-2.25,2.98-5.48,5.05-9.12,5.86l12.8,21.7h-12.39ZM287.99,197.13h9.03c2.36.19,4.71-.57,6.51-2.1,1.5-1.57,2.28-3.69,2.16-5.86.13-2.13-.65-4.21-2.16-5.71-1.83-1.5-4.16-2.23-6.51-2.04h-8.96l-.07,15.72Z"/>
        <path class="cls-1" d="M378.14,172.48l-18.09,34.87v18.65h-10.74v-18.65l-18.17-34.87h12.11l11.51,24.44,11.41-24.44h11.96Z"/>
      </g>
    </g>
  </g>
</svg>