<?xml version="1.0" encoding="UTF-8"?>
<svg id="Layer_2" data-name="Layer 2" xmlns="http://www.w3.org/2000/svg" viewBox="0 0 915.72 250.9">
  <defs>
    <style>
      .cls-1 {
        fill: #fff;
      }
    </style>
  </defs>
  <g id="Layer_1-2" data-name="Layer 1">
    <g>
      <g>
        <path class="cls-1" d="M461.41,38.85c2.03.31,4,.98,6.28,1.58,14.88,7.31,28.16,17.87,35.68,32.9,8.04,16.06,5.13,34.48-6.92,47.7-4.14,4.55-8.61,8.25-13.97,11.55-21.91,13.18-48.77,16.72-74.8,15.52,13.12,6.93,27.13,11.04,41.78,13.48,20.25,3.38,40.42,2.91,60.66-.35,2.17-.35,4.18-1.29,6.32-.43-36.42,11.27-79.78,11.4-115.08-2.71-9.41-3.76-17.78-8.46-25.74-14.48-8.13-1.81-15.66-3.8-23.16-6.87l18.55,2.83c-20.55-18.81-27.18-43.58-16.35-69.54,11.88-27.68,42.29-48.54,71.32-56.53-17.81,9.55-33.32,21.54-44.75,37.97-5.75,8.26-10.01,16.93-12.07,26.76-5.61,26.14,7,48.43,28.05,63.38,28.36.15,65.65-6.76,85.47-27.46,10.46-10.92,14.17-25.68,9.71-40.22-4.8-15.67-17.23-26.9-30.97-35.08Z"/>
        <path class="cls-1" d="M467.69,40.43c-2.28-.6-4.25-1.27-6.28-1.58-8.84-1.34-17.63-3.59-26.97-4.1l-8.45-.46c-2.85-.72-5.33.23-8.08.3-6.03.15-11.7-.11-17.8.56,1.77-.74,3.67-1.33,5.54-1.69l7.9-1.53c4.02-.78,8.04-.55,12.16-1.21l5.92.07c4.81-.69,9.4-.09,14.22-.02l6.84.1c9.2,1.3,18.04,2.42,27.13,4.77,22.45,5.81,44.9,16.42,61.46,32.68,5.59,5.49,10.26,10.99,14.11,17.88s7,15.12,7.7,23.46l-.07,12.69c-1.78,15.84-10.65,30.64-22.37,41.32-6.91,6.3-13.91,11.58-22.37,15.99-12.84,6.69-26.7,11.69-41.75,13.78,8.95-4.61,17.85-7.98,26.11-13.24,6.93-4.41,12.94-8.97,18.94-14.5,21.61-19.89,30.29-49.49,16.04-76.1-4.92-9.2-11.4-16.98-19.5-23.69-14.73-12.19-31.98-20.61-50.43-25.48Z"/>
      </g>
      <path class="cls-1" d="M871.82,149.98l-1.41-5.93c-2.48.08-4.38,1.98-5.33,4.24l-5.52,13.02c-2.21,5.23-6.77,8.05-12.5,8.19-4.14.1-7.76,1.66-11.5,4.23-.96-3.86.4-7.92,3.25-10.5,5.19-4.71,14.11.26,18.25-8.33l6.02-12.51c2.39-4.97,7.64-8.52,10.65-6.62,2.63,1.65.35,7.83,4.57,9.44,4.53,1.73,12.41-.48,12.87-6.28l1.51-18.95-1.58-14.74c.03-2.39,2.33-4.79,4.35-6.72,1.27,5.44,2.79,10.89,2.65,16.57l-2.33,19.64c-.35,2.96-.61,7.12,1.92,9.32,3.18,2.77,9.15,2.08,12.31-.29,1.19-1.27.79-3.71.48-5.11l-3.48-15.71c-2.11-9.53-2.67-15.31,4.96-23.43-.88,6.94-.8,12.81.71,19.17,1.24,5.19,2.61,10.17,2.98,15.54.45,6.52-1.3,13.29-6.06,17.76-2.37,2.23-5.95,2.06-8.95,2.16-4.39.15-7.84-1.72-9.33-6.39-1.63,2.9-3.43,4.82-6.37,5.6-5.32,1.41-11.98,1.44-13.12-3.36Z"/>
      <path class="cls-1" d="M811.95,153.74c-1.56-.41-1.5-1.19-3.28-.48-3.51,1.41-8.16,1.2-11.88.26-2.6-.66-3.77-3.24-4.19-5.59-.92-5.12,1.43-10.28-1.2-13.26-3.98-4.52-18.72,1.89-16.63,4.45s12.07-4.03,15.63-1.01c1.52,1.28-.42,5.93-2.77,8.49-1.18-.81-2.53-1.35-4.08-.88l-7.96,2.4c-1.55.47-3.22.14-4.36-.68-4.52-3.23-1.16-17.56,11.3-21.22,3.33-.98,6.58-1.54,9.91-.74,3.78.9,5.84,3.94,5.48,7.81l-.67,7.33c-.24,2.6,1.46,4.81,4.11,5.07,2.89.28,5.92.45,8.8-.17,4.11-.89,6.24-7.77,7.03-5.52.63,1.81-.67,3.64-1.39,5.83,6.99.36,18.16-.33,15.55-5.11l-3.06-5.63c.81-2.76,2.33-5.26,4.57-7.37,4.45,5.12,4.56,11.82,1.75,17.63-2.24,4.62-5.85,7.83-11.26,8.43-3.53.39-7.76.96-11.41,0Z"/>
      <path class="cls-1" d="M410.79,12.03c-.49,9.8-17.07,15.19-29.23,8.44-3.21-1.79-5.38-4.83-5.52-8.15-.15-3.58,1.77-6.73,4.92-8.72,7.18-4.53,16.42-4.82,23.88-.62,3.3,1.86,6.14,5.2,5.94,9.06Z"/>
      <path class="cls-1" d="M725.85,167.14c-.65-7.23,4.11-12.69,10.88-14.68s17.35-3.99,14.69-9.44c-1.71,1.44-3.31,1.63-5.12.91-4.72-1.87-1.95-8.45,1.43-13.26.93-1.32,2.3-2.04,3.77-1.84,5.41.71,8.68,17.12-1.45,26.12-5.58,4.96-15.02,3.88-21.45,11.02-.54.6-1.43,1.21-2.74,1.16Z"/>
      <path class="cls-1" d="M751.24,71.35l1.17-10.7c.04-13.11-5.01-27.44-2.63-35.55.73-2.5,5.07-8.77,6.63-8.89.39-.03.9.64.72,1.28-3.38,12.21,1.59,25.58,1.01,38.71-.05,5.78-1.51,11.37-6.9,15.15Z"/>
      <path class="cls-1" d="M726.05,131.77c.8,8.1.73,19.4-7.11,22.82,1.53-6.59,1.98-12.73,1.14-19.4l-2.11-16.67c-1.14-9.02-.2-12.15,5.67-18.77.39-.44,1.08-.46,1.35-.28s.5.88.35,1.39c-1.36,4.57-1.43,9.03-.97,13.74l1.69,17.16Z"/>
      <path class="cls-1" d="M609.16,32.31c-3.49,3.3-9.45,3.22-13.35,1.17l2.7-7.99c5.78,2.12,9.13-1.11,13.19-.73-.12,2.28-.46,5.59-2.54,7.56Z"/>
      <g>
        <path class="cls-1" d="M792.8,62.02l-11.03,3.01c-1.5.41-3.07.28-4.41-.64-3.94-2.7-2.31-13.59,5.87-18.51,5.09-3.06,11.13-4.87,16.96-4.18,4.71.55,7.43,4.1,7.02,8.65l-.57,6.35c-.55,6.17,8.38,6.87,14.82,5.43,5.13-1.15,5.45-6.16,7.69-5.73.79,2.09-.49,4.13-1.39,6.32l13.03-.4c5.96-.18,6.78-6.83,9.48-6.33.03,2.45-.69,4.37-1.76,6.69,5.4.29,10.75-.07,15.3-2.95.51-.33.98-1.11,1.61-.91,2.08.65,2.27,5.68.92,10.34-.86,2.95-2.63,5.47-2.48,8.93,4.82-7.53,10.32-15.77,19.55-15.5,2.96.09,5.87-.34,8.65-1.09,2.08-.56,2.67-2.26,2.55-4.32-1-17.14-12.25-28.67,1.39-40.7-.88,5.52-1.28,10.21.01,15.37l3.64,14.54c1.77,7.08.54,14.63-4.39,20.24-2.88,3.28-7.65,4.57-11.97,4.45-4.87-.13-8.99.99-12.38,4.61-5.11,5.46-6.79,11.65-8.9,11.8-.9.06-1.87-.75-2.27-1.81-2.2-5.87,2.56-12.04,3.02-18.24-4.17,3.89-14.3,4.37-18.58,2.91-1.75-.6-1.9-1.06-3.93-.35-4.59,1.61-9.88.87-14.76.9-1.48.01-2.54-.49-3.54-1.55-7.81,3.17-20.42,2.32-20.31-4.99l.13-8.56c.05-3.19-2.07-5.87-5.28-6.01-8.16-.37-16.67,3.78-15.49,5.77.71,1.19,2.85,1.01,4.09.64,4.62-1.4,12.07-3.26,14-1.27,1.49,1.52-1.02,5.95-3.41,8.8-.53-1.4-1.4-2.11-2.89-1.71Z"/>
        <path class="cls-1" d="M914.77,42c.93,10.7,3.22,23.3-6.38,29.36l1.4-12.15-2.34-20.1c-.52-4.45-1.55-9.07-.46-13.45.73-2.92,5.61-9.65,7.07-9.48.4.05.72.57.61,1.3l-1.32,8.33,1.41,16.19Z"/>
        <path class="cls-1" d="M831.75,32.98c1.91,1.07,1.28,7.91-4.82,11.48-3.03,1.77-6.23,3-9.94,3.56.02-2.62,1.38-5.4,3.75-6.18,2.15-.71,4.37-.59,6.06-2.28-1.84-.46-3.07.11-4.37-.58-.97-.52-2.07-1.73-1.93-3.38.63-7.45,8.73-11.38,9.69-9.11.62,1.45-.28,4.43-1.92,4.96-1.02.06-3.59-.46-3.63,1.09,2,2.23,5.16-.65,7.1.43Z"/>
        <path class="cls-1" d="M849.48,87.75c-5.09-3.23-8.69.69-13.23.07.38-2.62,1.43-6.06,3.72-7.76,4.33-3.23,14.12-2.41,12.53,1.08l-3.02,6.61Z"/>
        <path class="cls-1" d="M799.32,32.38c-3.58,3.23-9.35,3.08-13.19,1.09l2.71-7.87c3.4.81,6.54.72,9.83-.56,1.06-.41,2.13-.82,3.41-.12-.41,2.33-.67,5.58-2.76,7.46Z"/>
      </g>
      <path class="cls-1" d="M876.49,118.87c-2.87,3.54-8.7,3.42-12.23,1.15.3-2.97,1.51-5.24,2.5-7.89,5.99,2.15,9.18-2.03,12.1-.76-.11,2.31-.59,5.32-2.36,7.49Z"/>
      <path class="cls-1" d="M626.21,170.95c-4.87-3.06-8.91,1.47-12.16.1.77-2.44,1.23-5.33,3.03-7.16,4.04-4.11,12.7-2.66,12.21-.31-.56,2.72-1.7,5.03-3.07,7.36Z"/>
      <path class="cls-1" d="M790.29,116.4c-3.38,2.61-8.23,2.19-11.45.14l2.65-7.75c6.06,2.49,9.7-2.46,11.93-.42-.11,2.59-.84,6.27-3.14,8.04Z"/>
      <path class="cls-1" d="M600.46,115.77c-3.15,3.25-8.68,3.03-12.07.81l2.58-7.83c6.18,2.63,9.92-2.47,11.87-.36.2,2.19-.58,5.52-2.38,7.38Z"/>
      <path class="cls-1" d="M816.72,170.87c-5.11-2.79-8.63,1.34-12.21.26.88-2.52,1.29-5.4,3.08-7.24,3.56-3.69,13.08-3.45,11.91.61l-2.78,6.38Z"/>
      <g>
        <path class="cls-1" d="M597.35,146.7c-1.57-1.26-2.84-1.44-4.38-.97l-7.91,2.41c-1.49.45-3.19.04-4.28-.8-3.8-2.93-1.44-11.99,3.49-16.66,4.61-4.36,11.04-6.24,17.27-5.34,3.15.45,6.09,2.82,5.85,5.9l-.65,8.34c-.25,3.21,1.34,6.13,4.6,6.13l7.45-.02c3.48,0,5.07-4.76,7.93-6.5.68,2.4-.38,4.23-1.37,6.57,6.42.23,10.88.37,14.52-4.64l5.58-7.68c1.53-2.1,5.02-2.89,7.24-1.3,4.26,3.05.53,11.93,5.41,13.28,3.08.85,6.86.69,9.89-.2,2.84-.84,3.98-5.45,6.32-5.71.81,2.03-.42,4-1.39,6.24l10.13.02c5.88.01,6.21-5.32,9.48-6.33.56,2.3-.41,3.95-1.46,6.37,7.57.02,17.13.71,15.7-5.73l-3.85-17.34c-2.56-11.52-1.63-13.53,3.95-22.55.19-.3.81-.31,1.18.06-1.09,5.41-1.03,10.68.17,16.15l3.1,14.02c2.12,9.62-2.13,23.48-11.03,23.54l-12.94.09-1.93-1.4c-2.33,1.07-4.67,1.53-7.27,1.51l-7.76-.04c-1.23,0-2.16-.37-3.08-1.33-3.24,1.57-6.68,1.47-10.15,1.33s-5.67-2.07-6.24-5.49l-1.11-6.64c-.29-1.77-1.76-2.79-3.52-2.28-.94.28-1.96.66-2.57,1.3,1.56,1.17,3.98,1.97,4.49,3.92.76,2.89-.09,6.41-1.38,8.95-1.32,2.61-3.99,3.57-6.51,2.42-1.79-.81-2.92-2.15-3.96-3.96-3.74,1.88-7.66,1.74-11.76,1.86-1.88.05-3.57-.19-5.01-1.3-3.93,1.42-8.71,1.79-12.9.75-2.92-.73-4.77-3.3-4.69-6.14l.27-8.87c.08-2.64-1.4-5.15-4.36-5.4-4.66-.38-10.68,1.01-13.77,4.98-.94,1.21,2.03,1.96,3.09,1.55,4.21-1.63,10.82-3.44,12.69-1.71,1.52,1.4-.47,5.35-2.58,8.66Z"/>
        <path class="cls-1" d="M694.33,122.88c-3.47,3.06-12.51,2.22-11.2-1.29l2.33-6.26c6.09,2.73,9.5-2.16,11.71-.54.11,2.61-.74,6.24-2.84,8.08Z"/>
      </g>
      <path class="cls-1" d="M711.74,37.65l-6.71-5.2c1.07-2.52,2.72-4.55,4.65-6.74,2.5,1.45,4.57,3.22,6.44,5.48-1.17,2.4-2.65,4.25-4.38,6.47Z"/>
      <g>
        <path class="cls-1" d="M661.95,80.51c5.29-4.69,13.44-.6,19.22-6.54l4.9-6.86c5.53-7.74,12.01-2.87,20.37-5.76-1.02-2-2.28-3.05-4.02-4.21.56-2.78,1.54-5.4,3.53-7.58,3.11-3.42,9.7-3.04,11.93,1.24,1.65,3.17.18,6.93-1.61,9.76,4.73,2.62,10.16,2.55,15,.66l1.44-4.43c.84-2.58.7-5.37.09-7.99l-2.79-11.94c-2.02-8.65-2.09-14.33,5.13-21.08-1.17,8-.15,15.14,2.15,22.52,1.65,5.27,2.2,10.63.65,16.04,1.63-.11,4.51-.46,5.26,1.19,2.2,4.81-.64,10.57-5.48,12.63-7.82,3.34-20.36,4.66-27.1-.41-2.78,1.43-5.55,2.78-8.72,2.94l-8.34.41c-2.58.13-4.66,1.21-6.05,3.36l-4.39,6.8c-5.11,7.91-12.63,3.06-17.28,5.33l-6.02,2.94c-.8-3.2-.44-6.74,2.13-9.02Z"/>
        <path class="cls-1" d="M647.28,70.58c-4.99.56-14.02,1.29-16.02-1.16-7.93,2.97-20.14,2.42-20.02-5.28l.13-8.37c.05-3.35-2.09-5.9-5.41-6.02-8.41-.28-16.72,4.14-15.2,5.93,2.13,2.51,8.25-2.12,16.15-1.47,1.47.12,2.65,1.31,2.17,2.69-.83,2.43-1.94,4.43-3.65,6.8-1.02-1.69-2.19-2.01-3.81-1.55l-10.37,2.91c-1.51.42-3.05.11-4.31-.79-3.79-2.72-2.15-14.41,7.38-19.17,4.71-2.35,9.72-3.98,14.98-3.45,3.51.35,6.65,2.37,7.23,5.85.84,5.04-2.01,12.43,1.94,13.91,4.89,1.83,10.94,1.9,15.52-.64l4.54-4.97c1.17,2.39-.25,4.52-1.4,6.87,6.13.18,16.49.14,18.69-2.62.59-.74.28-2.06-.12-2.95l-2.64-5.83c.1-2.72,2.34-5.22,4.37-7.08,5.09,5.53,4.91,13.09,1.19,18.99-2.64,4.19-6.26,6.85-11.34,7.41Z"/>
        <path class="cls-1" d="M638.26,87.71c-4.96-3.22-8.66.93-13.06.08.6-2.61,1.4-5.92,3.71-7.66,4.27-3.21,13.13-2.28,12.61.09-.59,2.67-1.99,4.86-3.26,7.49Z"/>
        <path class="cls-1" d="M656.67,80.73c-1.05,2.67-2.8,4.46-4.54,6.73l-6.92-4.93,4.49-6.55c2.66,1,4.47,2.74,6.97,4.75Z"/>
      </g>
      <path class="cls-1" d="M674.18,126.55c-2.74-1.19-4.58-3.18-6.81-4.96l4.5-6.55c2.32,1.43,4.38,3.06,6.26,5.16-.84,2.28-2.33,3.81-3.95,6.36Z"/>
      <path class="cls-1" d="M828.7,171.01l-6.5-4.75,4.28-6.74c2.42,1.28,4.57,2.83,6.11,4.97l-3.89,6.52Z"/>
      <path class="cls-1" d="M636.33,214.96c-.63.86-2.39.47-3.35.05l4.22-6.5c.59-.91,2.73-.57,4.06-.21l-4.93,6.66Z"/>
      <g>
        <path class="cls-1" d="M191.61,241.87l-.14-24.08-5.1,11.89c-.91.71-3.51.66-4.29-.18l-5.3-11.74-.05,23.87c-.87.76-2.48.68-3.6.04l.09-31.39c1.42-.73,2.85-.65,4.38-.3l6.62,16.13,6.46-15.79c.72-1.03,3.2-.79,4.43-.1l.08,31.57c-1.24.47-2.33.42-3.58.08Z"/>
        <path class="cls-1" d="M782.74,241.51c-.01.9-2.53.86-3.22.26l-.2-16.82c-.02-1.33-.33-2.71-1.73-3.33s-4.65.46-4.67,2.35l-.24,17.84c-1.11.48-2.28.45-3.46-.03v-23.33c.85-.4,1.63-.39,2.44-.29.5.06.93.79,1.17,1.61,2.81-2.57,6.4-2.76,8.96-.01,2.36-1.77,5.39-2.67,8.05-1.38,2.41,1.18,3.2,3.97,3.19,6.55l-.03,16.97c-1.21.33-2.15.34-3.4.01l-.14-16.7c-.01-1.24-.17-2.5-1.32-3.32-1.22-.86-4.23-.43-5.09.91l-.31,18.69Z"/>
        <path class="cls-1" d="M623.27,218.87c1.15,10.4,1.25,23.41-9.58,23.44-2.84,0-5.52.13-8.47-.6v-31.4c3.54-.6,7.24-1.06,10.84-.25,4.09.93,6.75,4.72,7.21,8.81ZM619.53,232.81c.97-7.1,1.26-17.71-4.31-19.05-2.11-.51-4.16-.48-6.29-.15v24.83c5.61.66,9.86-.21,10.6-5.63Z"/>
        <path class="cls-1" d="M426.1,242.17c-6.49-1.07-6.86-10.66-5.76-17.68.39-2.47,1.94-4.6,3.58-5.62,2.41-1.49,4.98-1.25,7.85-.58l.07-8.75c1.22-.43,2.31-.44,3.62-.06v31.74c-2.91,1.1-6.18,1.48-9.38.95ZM426.21,238.38c1.96.77,3.88.57,5.7.08v-16.68c-1.86-.52-3.7-.63-5.52-.03-1.36.45-2.28,1.87-2.52,3.29-.78,4.68-.88,12.08,2.34,13.34Z"/>
        <path class="cls-1" d="M132.06,241.79l-.29,8.8c-1.17.32-2.19.31-3.53,0l-.04-31.54c3-.99,6.16-1.55,9.38-1.01,6.54,1.11,6.66,10.53,5.73,17.64-.33,2.5-1.75,4.7-3.5,5.68-2.31,1.3-4.61,1.27-7.75.43ZM139.7,225.12c-.21-1.38-1.06-2.93-2.4-3.42-1.79-.65-3.64-.32-5.52.15l-.02,16.05c1.89.95,3.99,1.27,5.9.47,2.95-1.24,2.78-8.43,2.04-13.25Z"/>
        <path class="cls-1" d="M405.14,227.24l.03,8.92c0,1.31,1.02,2.27,2.35,2.29h9.06c.34,1.2.33,2.27.05,3.57l-9.21.21c-3.25.07-5.92-2.32-5.92-5.78l-.03-20.6c0-3.19,2.52-5.98,5.63-5.93l9.41.15c.47.98.53,2.81-.19,3.46l-8.27.06c-1.68-.1-2.88,1.02-2.89,2.6l-.05,7.34,11.15.09c.54,1.19.53,2.45.03,3.6l-11.14.02Z"/>
        <path class="cls-1" d="M325.55,241.78l-.35,8.75c-1.13.38-2.16.39-3.53.06l.03-31.72,7.29-1.05c3.71-.53,6.62,2.33,7.53,6.01,1.4,5.68,1.24,14.89-3.23,17.52-2.3,1.35-4.63,1.25-7.74.42ZM333.3,225.53c-.22-1.57-1.04-3.19-2.55-3.75-1.84-.69-3.87-.52-5.55.23l.06,15.92c1.88.97,3.96,1.24,5.9.45,2.83-1.15,2.8-8.1,2.14-12.84Z"/>
        <path class="cls-1" d="M734.53,241.71l-.26,8.84c-1.13.38-2.14.36-3.56.04l.06-31.73,7.72-1.03c3.48-.46,6.27,2.51,7.07,6.01,1.35,5.86,1.19,15.32-3.51,17.69-2.35,1.18-4.39,1.07-7.52.18ZM742.33,225.53c-.22-1.53-1.02-3.2-2.51-3.75-1.84-.69-3.92-.56-5.58.19l.04,15.96c1.91.96,4.02,1.25,5.92.42,2.81-1.24,2.8-8.14,2.14-12.82Z"/>
        <path class="cls-1" d="M715.37,241.8l-.51,8.56c-.39.72-2.64.72-3.33-.02l-.07-31.36c6.56-2.03,13.33-1.99,14.86,4.46,1.31,5.54,1.37,15.27-3.12,17.91-2.28,1.34-4.57,1.31-7.83.45ZM723.04,225.22c-.23-1.39-1.05-2.92-2.38-3.47-1.82-.75-3.89-.44-5.56.23l-.02,16.04c1.6.65,3.13.95,4.81.73,4.08-.52,4.06-8.13,3.15-13.54Z"/>
        <path class="cls-1" d="M531.08,224.24c1.65,7.96.64,18.09-7.41,18.18-3.81.05-7.06-2.23-7.87-6.41-.76-3.93-.8-8.33.13-12.22s4.16-6.16,7.75-6.08c3.66.08,6.58,2.58,7.4,6.52ZM527.51,224.88c-.49-2.2-2.27-3.59-4.3-3.47-4.82.27-5,8.04-3.85,13.93.43,2.23,2.33,3.57,4.32,3.49,4.77-.2,5.1-8.3,3.83-13.95Z"/>
        <path class="cls-1" d="M672.96,238.86l5.8-.68c.38.66.53,2.42-.03,3.12-6.27,2.26-13.06,1.5-14.54-4.87-.96-4.09-.95-8.59,0-12.67s4.22-6.09,7.79-6,6.55,2.73,7.24,6.62c.4,2.25.44,4.48.23,6.94l-12.21.08c-.31,1.96.03,4.03,1.18,5.7.93,1.36,2.67,1.98,4.55,1.76ZM676.02,228.33c.11-4-1.14-6.87-4.02-6.99-1.65-.07-3.21.65-4.03,2.28-.73,1.46-.94,3.08-.69,4.69l8.74.02Z"/>
        <path class="cls-1" d="M474.81,235.52c-.23-3.99,1.75-7.33,5.49-7.55l5.6-.33c.7-1.71.43-4.82-1.52-5.81-2.36-1.2-5.01.04-7.65,0-.87-.02-1.05-2.65-.28-3.02,2.11-.99,4.38-1.03,6.69-1.01,3.67.02,6.54,2.83,6.55,6.6l.06,17.27c-1.19,1.01-3.49.48-3.84-1.01-2.55,2.01-5.81,2.42-8.43.79-1.97-1.22-2.51-3.45-2.65-5.93ZM485.91,237.04c.86-2.24.12-4.22.28-6.46-2,.03-4.72-.29-6.58,1.18-1.76,1.38-1.78,5.07.02,6.6,1.58,1.35,5.56.57,6.28-1.32Z"/>
        <path class="cls-1" d="M245.16,223.79c1.87,7.61.99,18.51-7.31,18.65-3.62.06-6.84-2.1-7.75-6.02s-.82-8.22-.07-12.2c.73-3.9,3.78-6.34,7.41-6.49s6.77,2.18,7.72,6.05ZM241.83,225.25c-.42-2.22-2.01-3.73-3.96-3.8-5.17-.18-5.44,7.18-4.45,13.52.37,2.39,2.23,3.87,4.45,3.8,4.76-.14,5.04-7.73,3.96-13.53Z"/>
        <path class="cls-1" d="M578.36,238.18c.8.35.73,2.4.3,3.24-6.33,2.07-13.22,1.28-14.63-4.98-1.49-6.64-1.23-16.34,5.03-18.25,2.91-.89,6.25-.41,8.13,2.13,2.36,3.17,2.47,7.34,2,11.01l-12.03.03c-.47,2.81.26,6.15,3.09,7.16,2.55.91,5.04-.1,8.11-.33ZM575.89,228.31c.17-3.94-1.12-6.68-4.09-6.94-1.66-.14-3.16.68-3.97,2.31-.72,1.45-.9,3.02-.7,4.61h8.76Z"/>
        <path class="cls-1" d="M199.06,235.04c-.13-3.91,2.06-6.6,5.67-7.16l5.21-.17c.87-1.75.62-5.02-1.44-5.97-2.33-1.08-5.21.12-7.66.06-.74-.05-.9-2.61-.22-2.92,2.51-1.14,5.48-1.37,8.25-.88s4.97,3.17,4.96,6.1l-.05,17.48c0,1.05-3.41.8-3.75-.8-2.77,1.89-6.11,2.39-8.74.38-1.8-1.37-2.15-3.78-2.23-6.12ZM210.18,237.05c.72-2.45.05-4.39.2-6.51-2.08.08-4.62-.28-6.45,1.07-1.89,1.39-1.92,5.36.06,6.86,1.58,1.2,5.68.31,6.19-1.42Z"/>
        <path class="cls-1" d="M802.59,237.97c4.21,2.73,10.64-2.25,9.71,2.37-.21,1.03-.9,1.41-2.18,1.63-5.89,1-11.13.56-12.6-5.31-1.95-7.76-1.08-18.55,7.12-18.91,3.58-.16,6.62,2.03,7.55,5.74.63,2.52.79,5.11.44,7.77l-12.21.13c-.21,2.29.1,5.24,2.16,6.58ZM809.24,228.29c.31-3.98-1.29-6.93-4.16-6.93-1.57,0-3.19.75-3.95,2.34-.69,1.44-.78,3.02-.7,4.59h8.81Z"/>
        <path class="cls-1" d="M265.01,233.98c.17-3.02,1.7-4.97,4.29-5.83l6.3-.81c1.45-.75.51-4.99-1.2-5.6-2.68-.96-5.01-.11-7.75.24-.58-.96-.55-2.09-.25-3.26,2.67-.78,5.41-1.21,8.29-.74s5,3.09,5.02,6.05l.12,17.78c-.98.36-1.77.37-2.61.29-.5-.05-.88-.77-1.06-1.45-2.77,1.99-6.37,2.56-9.01.44-2.03-1.63-2.29-4.46-2.14-7.12ZM276.01,237.04c.74-2.31.02-4.14.23-6.28-1.95-.16-4.65-.58-6.44.89s-1.86,5.59.31,6.96c1.57.99,5.41,0,5.91-1.57Z"/>
        <path class="cls-1" d="M545.26,221.85c-1.46-.83-5.47-.13-6.01,1.69l-.4,18.24c-1.01.49-2.23.52-3.49.01l.06-23.52c1.03-.16,1.82-.21,2.44-.13.51.07.87.8,1.22,1.55,2.5-1.94,5.78-2.69,8.45-1.09,2.15,1.29,3.11,4.02,3.12,6.47l.07,16.71c-1.18.53-2.28.52-3.52,0l-.1-15.88c0-1.45-.15-3.09-1.84-4.06Z"/>
        <path class="cls-1" d="M636.13,238.86l5.81-.69c.59.53.77,2.58.06,3.19-2.9,1.17-6.31,1.43-9.41.59-6.14-1.67-6.39-10.9-5.16-17.63.57-3.11,2.72-5.51,5.33-6.21,3.14-.83,6.5-.16,8.31,2.66,2,3.11,2.17,6.88,1.74,10.57l-12.22.04c-.12,1.25-.02,2.34.19,3.52.45,2.5,2.53,4.29,5.34,3.96ZM639.4,228.34c.32-3.99-1.28-6.94-4.23-6.97-3.35-.03-4.87,2.99-4.58,6.93l8.81.04Z"/>
        <path class="cls-1" d="M763.94,238.28c1.24-.04,1.23,2.95.14,3.29-6.35,1.95-12.88,1-14.26-5.32-.9-4.1-.9-8.61.12-12.63.95-3.74,4.1-5.89,7.5-5.9,3.74,0,6.62,2.58,7.4,6.47.47,2.32.66,4.73.3,7.06l-12.26.11c-.23,2.5.13,5.51,2.41,6.77,2.61,1.45,5.45.26,8.65.14ZM761.68,228.28c.21-2.43-.17-4.33-1.51-5.81-1.12-1.24-2.8-1.38-4.41-.78-2.31.86-3.08,3.62-2.86,6.63l8.78-.05Z"/>
        <path class="cls-1" d="M826.93,222.01c-1.54-1.11-6.31-.34-6.35,1.91l-.34,17.86c-.99.55-2.24.56-3.44-.01l-.03-23.31c.98-.4,1.69-.39,2.53-.28.51.07.92.81,1.17,1.61,2.27-1.92,5.01-2.48,7.56-1.58,2.3.81,3.91,3.4,3.93,6.16l.13,17.41c-1.18.47-2.26.48-3.48.02l-.08-15.89c0-1.36-.09-2.81-1.6-3.9Z"/>
        <path class="cls-1" d="M111.46,236.05c-.82,4.16-3.99,6.43-7.64,6.42s-6.74-2.4-7.57-6.29c-1.77-8.25-.54-18.39,7.58-18.44,8.01-.05,9.28,9.88,7.63,18.31ZM108.05,234.98c.87-6.42.67-13.76-4.22-13.53-1.75.08-3.57,1.16-4.04,3.23-1.35,6.01-1.06,14.11,4.02,14.14,2.06.01,3.88-1.28,4.23-3.84Z"/>
        <path class="cls-1" d="M356.02,236.06c-.78,4.15-4.03,6.35-7.62,6.38-3.87.03-6.91-2.55-7.7-6.65-1.58-8.3-.34-18.06,7.68-18.05s9.26,9.69,7.63,18.32ZM352.53,225.07c-.45-2.25-2.14-3.72-4.14-3.66s-3.81,1.35-4.19,3.6c-1.05,6.19-.91,13.75,4.19,13.81s5.3-7.95,4.15-13.74Z"/>
        <path class="cls-1" d="M372.04,218.56c.82-.69,2.31-.61,3.45-.15l-.05,23.09c0,.67-1.54.67-2.03.63-.69-.06-1.27-.6-1.61-1.63-2.59,2.07-5.98,2.62-8.69.87-1.94-1.25-2.74-3.8-2.75-6.1l-.12-16.8c1.12-.48,2.26-.4,3.56-.13l.14,16.39c.01,1.52.49,3.2,2.12,3.84,1.55.6,5-.15,5.73-1.82l.26-18.19Z"/>
        <path class="cls-1" d="M707.18,224.4c1.56,7.96.62,17.77-7.23,18.04-3.81.13-7.2-2.21-8.04-6.24s-.86-8.22.01-12.18c.85-3.84,4.02-6.19,7.59-6.24,3.78-.06,6.88,2.64,7.66,6.63ZM703.79,225.36c-.37-2.45-2.05-3.95-4.29-3.93-4.97.05-5.1,7.18-4.27,13.36.33,2.44,2.09,4,4.27,4,5.02.01,5.22-7.31,4.28-13.43Z"/>
        <path class="cls-1" d="M87.13,238.65l5.81-.63c.44,1.11.39,2.17.08,3.55-3.47.94-7.38,1.44-10.85-.23-2.95-1.42-4.75-4.73-5.12-8.02-.55-4.95-.56-9.8.04-14.73.46-3.77,2.64-7.22,6.19-8.44,3.18-1.1,6.55-.56,9.65.26.35,1.31.34,2.27-.01,3.52l-5.06-.55c-3.47-.38-6.45,1.63-6.97,5.24-.71,4.93-.76,10.09.07,15,.52,3.1,2.94,5.37,6.16,5.02Z"/>
        <path class="cls-1" d="M451.67,218.61c.47-.71,2.43-.65,3.36-.19v23.11c0,.68-1.56.66-2.04.6-.72-.1-1.24-.6-1.67-1.62-2.67,2.09-6.22,2.65-8.88.6-1.68-1.29-2.5-3.7-2.51-5.84l-.1-16.77c1.2-.56,2.51-.53,3.62.02l.09,16.65c0,1.4.55,2.87,2.05,3.42,1.68.62,4.87-.21,5.81-1.87l.28-18.1Z"/>
        <path class="cls-1" d="M302.81,221.76c-1.72-.78-5.13.24-5.98,1.84l-.22,18.11c-.94.53-2.17.5-3.44.16l-.03-23.49c1.04-.31,1.83-.31,2.6-.16.52.1.91.99,1.13,1.53,2.6-2.13,6.18-2.77,8.77-.9,2.02,1.45,2.75,4.12,2.75,6.6l-.02,16.18c-.44.83-3,.81-3.39-.02l-.2-16.05c-.02-1.4-.29-3.03-1.97-3.79Z"/>
        <path class="cls-1" d="M658.15,218.7c.24-.97,2.73-.76,3.62-.17l-5.28,21.06c-.47,1.86-1.47,2.81-3.21,2.87-1.63.06-2.77-.92-3.22-2.74l-5.25-21.16c1.14-.59,2.38-.57,3.76-.24l4.7,20.16,4.89-19.77Z"/>
        <path class="cls-1" d="M155.8,242.09c-3.04.62-6.05.17-8.77-.52-.27-1.24-.28-2.15-.05-3.21l6.22.52c1.26.11,2.64-.26,3.18-1.17.64-1.09.42-2.67-.52-3.71-2.81-3.11-8.89-4.29-9.09-10.01-.11-3.09,1.64-5.6,4.79-6.01,2.6-.34,5.41-.22,7.92.7.6.61.49,2.47-.06,3.16-2.73-.23-5.36-.96-7.94-.07-.97.33-1.21,1.57-1.03,2.42.15.7.51,1.56,1.37,2.14l5.5,3.76c2.27,1.55,3.2,3.78,3.01,6.51s-1.56,4.87-4.53,5.48Z"/>
        <path class="cls-1" d="M845.37,238.88c1.62-.21,1.51,1.57,1.25,2.45-.45,1.51-4.94,1.45-6.55.21-.98-.76-1.66-2.24-1.67-3.85l-.06-16.16-3.63-.42c-.6-.3-.66-2.41-.11-2.78l3.72-.26.23-4.75c.44-.84,2.32-.97,3.28-.78l.19,5.53,3.98.25c.75.05.76,2.89,0,2.94l-4.05.27.18,16.63c.01.96,2.41.83,3.24.72Z"/>
        <path class="cls-1" d="M503.02,238.92c1.59-.21,1.37,1.61,1.17,2.39-.42,1.62-5.07,1.4-6.44.26-.84-.69-1.59-1.98-1.6-3.44l-.1-16.57-3.35-.36c-.92-.1-.79-2.09-.39-2.91l3.72-.22.26-4.73c.04-.82,3.1-1.17,3.16-.36l.35,5.08,3.88.29c.72.05.7,2.84-.02,2.9l-4.04.32.16,16.65c.01,1.03,2.43.82,3.25.71Z"/>
        <path class="cls-1" d="M592.66,238.98c.94.22.75,2.14.42,2.7-.4.67-1.41.6-2.39.71-2.83.31-5.49-.99-5.52-4.03l-.13-16.79c-1.27-.41-2.84.05-3.63-.5-.74-.52-.52-2.06-.23-2.79l3.8-.23.28-4.53c.07-1.06,2.47-1.13,3.29-.73l.14,5.32,4.25.13c.26,1.11.28,2.06.07,3.14l-4.39.15.22,16.65c.26,1.2,2.92.59,3.82.8Z"/>
        <path class="cls-1" d="M467.75,238.8c1.32-.09,2.96-.76,3.99-.36.7.29.64,2.6.02,3.07-2.13.98-4.95,1.23-7.3.59-6-1.62-6.31-11.3-5.06-17.91.5-2.65,2.19-5.07,4.73-5.94,2.6-.89,5.24-.49,7.84.24.25,1.1.21,2.03.02,3.31l-4.53-.43c-5.42-.52-5.73,7.33-4.67,13.58.41,2.42,2.12,4.03,4.96,3.85Z"/>
        <path class="cls-1" d="M258.03,238.81c1.39-.18,2.93-.83,3.92-.31.62.33.52,2.4,0,2.99-2.66,1.12-6.19,1.39-8.92-.06-4.63-2.45-4.55-10.66-3.72-16.67.35-2.52,1.76-5.02,4.06-6.13,2.75-1.33,5.92-.95,8.65,0,.34,1.21.31,2.17-.02,3.23l-4.21-.48c-2.49-.29-4.51,1.16-4.89,3.69-1.02,6.62-.88,14.52,5.13,13.75Z"/>
        <rect class="cls-1" x="683.73" y="209.17" width="3.58" height="33"/>
        <path class="cls-1" d="M221.95,241.57c-.02.87-3.23.8-3.28-.03l-.07-23.27,2.52-.08c.52-.02.84.89.98,1.89,1.23-1.43,3.5-2.74,5.33-2.09.81.39.83,3.18-.17,3.46-1.47.41-4.85.5-4.9,2.5l-.43,17.61Z"/>
        <path class="cls-1" d="M119.25,241.51c-.02.91-2.5.85-3.34.34l-.11-23.48c1.1-.31,1.84-.31,2.65-.16.52.1.92,1.01,1.14,1.61,1.54-1.41,3.47-2.51,5.23-1.77.75.5.75,2.84-.15,3.56-1.67-.1-5.01.56-5.05,2.5l-.37,17.41Z"/>
        <path class="cls-1" d="M383.44,241.51c-.11.85-2.48.74-3.33.32v-23.51c1.07-.17,1.89-.28,2.9-.04.43.1.55,1.16.64,1.76,1.34-1.44,3.41-2.76,5.42-2.08.67.52.68,2.55.04,3.48-1.5.13-4.7.49-5.24,2.34l-.43,17.73Z"/>
        <path class="cls-1" d="M288.09,241.42c0,1-3.17,1.06-3.38.22l-.09-22.84c0-.96,3.35-1.02,3.41-.12l.05,22.75Z"/>
        <path class="cls-1" d="M511.07,241.44c0,1-3.08,1-3.37.17l-.11-23.09c1.11-.55,2.15-.51,3.51-.12l-.02,23.04Z"/>
        <path class="cls-1" d="M410.48,207.3c-.61.8-2.55.51-3.43.1l3.95-6.07c.64-.98,3.09-.67,4.06-.09l-4.58,6.06Z"/>
        <path class="cls-1" d="M288.17,214.19c-1.06.59-2.35.62-3.59.12-.12-1.46-.4-3.42.11-4.81.35-.78,2.88-.85,3.29-.09.63,1.34.31,3.22.19,4.79Z"/>
        <path class="cls-1" d="M511.12,214.23c-.71.56-2.77.68-3.42,0-.54-1.44-.22-3.18-.16-4.82.71-.5,2.86-.76,3.36,0,.75,1.43.38,3.17.23,4.82Z"/>
      </g>
      <g>
        <path class="cls-1" d="M251.18,169.02c-3.54,4.04-8.94,4.1-12.54.44-2.66-2.69-4.34-5.96-5.44-9.75-3.27-11.22-3.3-23.16-.1-34.43,1.16-4.1,3.03-7.82,5.96-10.65,3.45-3.32,8.24-3.04,11.55.31,3.01,3.04,4.86,6.86,5.99,11.16,3.36,12.83,3.3,32.98-5.42,42.91ZM254.03,138.16c-.55-5.64-1.7-10.26-4.39-14.41-1.4-2.06-3.4-3.61-5.95-3.15-5.92,2.31-7.68,11.18-8.36,17.7l18.7-.14ZM254.16,146.23l-18.89.08c.57,5.56,1.75,10.61,4.74,14.9,1.31,1.72,3.15,2.88,5.11,2.7,5.69-.53,8.47-11.01,9.04-17.68Z"/>
        <path class="cls-1" d="M64.73,169.13c-3.67,4.05-9.05,3.94-12.57.19-8.7-9.29-8.94-29.11-5.86-41.74,1.12-4.58,2.99-8.72,6.16-11.97,3.43-3.52,8.38-3.41,11.8.05,10.45,10.56,10.8,42.07.47,53.47ZM66.84,133.14c-1.1-5.26-4.21-12.14-8.69-11.91-10.21.54-12.64,32.05-3.49,41.21,7.01,7.01,16.34-9.41,12.17-29.3Z"/>
        <path class="cls-1" d="M218.93,169.67c-3.31,3.32-7.9,3.23-11.26.29-2.5-2.19-4.24-5.05-5.36-8.36-4.02-11.83-4.05-24.63-.41-36.59,1.1-3.63,2.87-6.71,5.36-9.34,3.33-3.54,8.32-3.51,11.7-.03,2.99,3.07,4.87,6.84,6,11.15,2.85,10.88,2.73,22.24-.43,33.04-1.09,3.72-2.82,7.04-5.6,9.83ZM209.32,162.18c2.41,2.63,5.88,2.25,7.93-.3,9.61-11.97,4.88-41.13-4.34-40.69-9.66.46-13.09,30.6-3.59,41Z"/>
        <path class="cls-1" d="M91.31,172.41l-5.13-14.4-4.81,14.31h-5.26s7.4-22.34,7.4-22.34c-2.57-7.61-4.86-14.82-6.57-22.51-.65-2.92-1.07-5.75-.51-8.64.44-2.26,1.74-4.08,3.92-4.89,6.3-2.33,15.4-1.18,15.79,5.55.28,2.6-.07,5.1-.69,7.64-1.88,7.77-4.08,15.14-6.49,22.76l7.5,22.26-5.15.24ZM90.34,127.65c.59-2.05.95-3.99.73-5.96-4.66-1.82-10.48-1.22-9.79,2.24,1.27,6.35,2.89,12.32,4.85,18.33l4.21-14.61Z"/>
        <path class="cls-1" d="M320.74,171.69c-1.46.5-2.65.37-4.09.24l-.11-33.49c-2.47,5.3-5.16,10.44-7,16.15-1.83,5.69-2.19,11.43-2.57,17.59-1.18.21-2.52.04-3.9-.42l.02-58.75,3.92-.39.23,33.27,5.83-12.37c3.09-6.56,3.47-13.87,3.96-20.96,1.38.05,2.41.19,3.7.69v58.44Z"/>
        <path class="cls-1" d="M161.92,133.44l-2.31-11.77c-2.05,10.5-2.94,20.35-3.73,30.62l-1.54,20.17-4.58-.86c1.08-15.83,2.4-31.48,4.8-47.27.76-5.02,1.84-11.66,5.25-11.71s4.68,8.24,5.6,13.8c2.48,14.95,4.11,29.71,5.73,44.74-1.58.75-3,1.02-4.54,1.23l-4.68-38.95Z"/>
        <path class="cls-1" d="M299.18,138.59c.06,2.45-.23,4.88-1.18,6.89-1.11,2.35-3.76,2.89-6.73,2.62l-.09,23.87c-1.59.29-2.85.2-4.64.09l-.02-23.71c-2.11-.25-3.9-.14-5.42-1.16-1.79-1.2-2.21-3.44-2.32-5.6-.49-9.32.12-18.42.25-27.53,1.89-.03,3.19-.23,4.4.25-.32,8.78-.73,16.85-.34,25.47,3.86.91,7.83.91,11.56-.04.48-8.82-.2-16.99-.45-25.6l4.35.03.64,24.42Z"/>
        <path class="cls-1" d="M117.9,163l.79,7.52c-7.56,2.44-17.31,3.67-17.66-3.99-.73-16.06-.6-31.89.08-47.99.13-3.14,1.9-5.31,5.07-5.8,4.13-.63,8.37.1,12.41,1.63l-.68,7.53c-4.25-1.2-8.07-2.35-12.24-1.29-.68,14.66-.6,28.86-.06,43.57,3.96,1.06,7.68.17,12.29-1.18Z"/>
        <path class="cls-1" d="M6.54,158.35c2.87,2.44,6.04,3.96,9.34,5.63l-.08,8.32c-5.17-2.11-10.04-4.42-13.48-8.57-3.05-3.69-2.81-9.03-.57-12.98l4.57-8.09c-5.14-6.86-9.18-15.11-3.71-21.5,3.43-4.01,8.06-6.54,13.11-8.37l-.03,8.13c-3.28,1.65-6.48,3.21-9.05,5.7-1.79,1.17-1.76,2.88-.76,4.59,2.33,4.01,4.91,7.63,7.85,11.35-2.99,4.12-5.73,8.06-8.2,12.47-.69,1.23-.31,2.41,1.01,3.31Z"/>
        <path class="cls-1" d="M127.56,155.26c-1.6,2.79,5.99,6.63,10.35,8.85l-.24,8.13c-4.81-2-9.02-4.13-12.53-7.61-2.82-2.8-3.64-7.48-2.32-11.18s3.44-6.96,5.65-10.52c-1.73-2.86-3.62-5.37-5.01-8.45-1.85-4.1-1.97-9.18.95-12.81,3.46-4.29,8.26-6.9,13.49-9l-.03,8.3c-3.63,1.61-6.96,3.52-9.82,6.26-1.08,1.04-1.02,2.23-.34,3.48,2.3,4.23,5.08,7.89,8.12,11.9-3.08,4.17-5.72,8.26-8.25,12.66Z"/>
        <path class="cls-1" d="M34.6,112.52c7.72-.69,8.25,23.93.41,24.53-7.82.59-8.12-23.84-.41-24.53ZM34.56,120.23c-2.01,2.54-1.77,6.77.15,9.52,2.86-2.45,2.04-9.9-.15-9.52Z"/>
        <path class="cls-1" d="M34.82,147.77c7.4-.06,8.12,23.85.17,24.42-7.9.56-7.99-24.35-.17-24.42ZM34.51,155.45c-1.85,2.74-1.82,6.85.2,9.7,2.85-2.48,2.14-9.78-.2-9.7Z"/>
        <path class="cls-1" d="M330.7,112.51c7.96-.31,7.81,25.02.05,24.5-7.74-.52-7.46-24.2-.05-24.5ZM330.48,120.07c-1.67,2.8-1.84,6.97.33,9.67,2.48-2.59,2.02-9.38-.33-9.67Z"/>
        <path class="cls-1" d="M189.27,112.51c7.61.17,7.55,24.36,0,24.51-7.86.16-7.84-24.69,0-24.51ZM189.17,119.72c-2.25,2.91-2.31,7.54.12,9.96,2.01-3.06,2.15-7.07-.12-9.96Z"/>
        <path class="cls-1" d="M330.7,147.8c7.69-.34,7.95,23.93.41,24.4-7.85.49-8.14-24.06-.41-24.4ZM330.05,155.94c-.97,2.91-1.46,6.6.87,9.27,3.51-5.65,0-11.85-.87-9.27Z"/>
        <path class="cls-1" d="M189.27,147.79c7.46.01,7.67,24.24,0,24.35-7.9.12-7.8-24.37,0-24.35ZM189.19,155.03c-2.26,2.95-2.3,7.53.19,10.06,1.82-3.21,2-7.1-.19-10.06Z"/>
        <path class="cls-1" d="M268.36,112.51c7.98-1.05,8.27,24.49.47,24.53s-7.73-23.57-.47-24.53ZM268.43,120.2c-1.86.5-1.68,9.51.38,9.21s2.16-9.9-.38-9.21Z"/>
        <path class="cls-1" d="M268.82,147.81c7.34-.06,7.78,23.41.47,24.32-8.24,1.03-8.53-24.26-.47-24.32ZM268.74,155.04c-2.32,2.9-2.35,7.58.2,10.08,1.9-3.16,2.21-7.2-.2-10.08Z"/>
        <path class="cls-1" d="M60.39,137.66c2.33,5.09.57,11.49-2.23,11.37-4.06-.18-4.12-12.48.02-12.87.88-.08,1.76.51,2.22,1.5Z"/>
        <path class="cls-1" d="M212.87,136.14c4.21-.4,4.43,12.36.44,12.86-.9.11-1.89-.42-2.38-1.4-2.35-4.69-.7-11.21,1.94-11.46Z"/>
      </g>
      <g>
        <path class="cls-1" d="M286.11,75.88c-3.37,3.13-7.91,2.85-11-.26s-5.12-7.28-6.29-11.81c-3.32-12.79-2.9-31.9,5.46-42.03,1.62-1.96,3.73-3.14,5.88-3.28,6.35-.44,10.44,6.91,12.23,13.47,3.1,11.37,2.99,23.44-.61,34.64-1.15,3.56-2.93,6.73-5.67,9.28ZM289.95,44.13c-.55-5.94-1.7-10.72-4.68-14.79-1.31-1.5-2.83-2.68-4.67-2.61-5.68.21-8.79,10.84-9.12,17.6l18.47-.2ZM285.53,66.95c2.93-4.4,3.95-9.39,4.54-14.7h-18.66c.54,5.45,1.69,10.61,4.83,14.91,1.28,1.62,2.9,2.81,4.81,2.67,1.64-.12,3.19-1.23,4.48-2.88Z"/>
        <path class="cls-1" d="M63.02,73.99c-1.8,3.6-5.62,5.68-8.45,3.97-1.22-.73-2.2-2.44-2.38-4.22-.71-7.16-.45-14.17-.73-21.32-.64-.1-1.2-.09-1.96.03-.67,7.73,1.04,22.45-2.72,25.27-3.45,2.58-8.59-1.65-8.38-3.71s1.91-3.93,2.94-5.72c.93,1.75,1.61,3.07,3.59,2.74.64-15.27.87-30.03-.12-45.35-1.76-.35-2.59.97-3.56,2.46l-3.19-5.48c1.07-2.6,3.82-4.83,6.9-4.42,2.03.27,3.51,2.41,3.74,4.49.79,7.05.6,14.05.85,21.23.36.36,1.58.37,1.91.01.25-7.19.03-14.29.81-21.35.17-1.54,1.11-2.94,2-3.66,2.59-2.09,7.16-.05,8.44,3.42-.22,2.08-2.06,3.98-2.99,5.66-1.08-1.54-1.74-2.64-3.59-2.45-.91,15.25-1,30.02,0,45.1.05.69,1.78.43,2.15-.09s.81-1.14,1.32-2.37l3.43,5.74Z"/>
        <path class="cls-1" d="M240.6,20.94c13.97,14.2,8.92,57.07-5.65,57.15-14.33.08-19.9-41.05-6.22-56.72,3.18-3.64,8.46-3.89,11.86-.43ZM238.57,68.15c7.82-8.29,7.76-31.71-.04-39.73-2.1-2.16-5.11-2.16-7.23-.08-7.88,7.75-7.97,31.44-.14,39.7,2.07,2.18,5.18,2.46,7.41.1Z"/>
        <path class="cls-1" d="M106.9,78.54l-5.41-14.79-4.89,14.54-5.29.04,7.56-22.53c-2.52-7.34-4.68-14.29-6.51-21.69-.71-2.87-1.08-5.69-.8-8.6.53-6.6,9.39-7.84,15.67-5.81,2.51.81,4.06,2.86,4.37,5.41.33,2.3.07,4.56-.47,6.88-1.89,8.09-4.32,15.74-6.81,23.66l7.73,22.67-5.16.21ZM106.22,27.6c-3.75-1.35-10.32-.98-9.65,2.15,1.35,6.34,2.91,12.24,4.91,18.4,1.67-5.57,6.4-19.95,4.74-20.54Z"/>
        <path class="cls-1" d="M76.81,63.44l-4.81,14.84c-1.78.29-3.41.22-5.34.03l7.46-22.59c-2.53-7.6-4.85-14.93-6.61-22.75-.63-2.81-.92-5.52-.46-8.33,1.31-6.36,11.47-7.45,16.97-4.26,2.57,1.49,3.41,4.95,2.94,7.98-1.47,9.45-4.49,18.25-7.35,27.37l7.81,22.62h-5.42s-5.16-14.9-5.16-14.9ZM82.01,29.02c.51-2.32-4.59-2.72-8.82-1.71-1.09.26-1.58,1.15-1.34,2.26,1.36,6.39,2.98,12.5,4.97,18.58,2.02-6.63,3.75-12.53,5.19-19.12Z"/>
        <path class="cls-1" d="M216.13,19.66c-.03,8.5,2.12,27.8-.69,32.08-1.29,1.96-3.95,2.01-6.53,2.06l-.15,24.37h-4.46s0-24.31,0-24.31c-2.25-.13-4.36-.19-6.05-1.47-1.46-1.11-1.66-3.17-1.75-5-.43-9.35.16-18.38.62-27.69l4.24-.05c-.17,8.5-.91,16.85-.44,25.74,3.63,1.01,7.51,1.07,11.22.07.54-8.82-.11-17.14-.33-25.75l4.33-.05Z"/>
        <path class="cls-1" d="M179.28,68.88c.2,3.2,7.31,1.4,12.4-.36l.73,7.51c-6.72,2.91-16.75,4.09-17.27-2.56-1.3-16.75-1.38-33.32.11-50.05.62-6.94,10.05-5.69,16.8-2.75l-.8,7.44c-4.02-1.25-7.51-2.36-11.69-1.72-1.36,14.25-1.16,28.29-.26,42.48Z"/>
        <path class="cls-1" d="M313.42,69.78c.5,2.67.2,5.17.14,8.31-4.84-1.74-9.44-4.26-13.04-8.16-5.5-5.94-.86-14.35,3.64-21.19-2.06-3.2-4.19-6.22-5.46-9.76-3.58-10.02,5-16.61,14.81-20.29l.03,8.02c-3.49,1.58-6.78,3.35-9.5,6.05-1.24,1.04-1.24,2.4-.54,3.77,2.17,4.25,4.93,7.96,7.83,11.85-3.23,4.62-6.44,8.94-8.44,14.31,2.77,3.19,6.35,5.19,10.54,7.1Z"/>
        <path class="cls-1" d="M327.62,78.13c-1.66.33-2.96.2-4.33.1l.03-25.93-6.28-.09.03-7.97,6.24-.09v-25.57s4.29,0,4.29,0l-.03,25.52,5.88.13v7.98s-5.89.08-5.89.08l.06,25.83Z"/>
        <path class="cls-1" d="M150.39,78.08c-1.53.4-2.66.27-4.24.06v-25.86s-6.59-.08-6.59-.08l.08-7.92,6.47-.05v-25.47c1.27-.44,2.58-.36,4.23-.15l.05,25.61,5.84.12-.03,7.87-5.9.07.07,25.8Z"/>
        <path class="cls-1" d="M14.41,78.05c-1.61.35-2.71.22-4.11.16l.06-25.9-6.55-.09-.04-7.86,6.52-.07.03-25.72,4.05.02v25.64s6.02.02,6.02.02l.09,8-6.09-.02.02,25.82Z"/>
        <path class="cls-1" d="M121.06,53.89c7.46-.62,8.17,23.85.4,24.28-7.73.43-7.93-23.65-.4-24.28ZM121.04,61.51c-2.11,1.46-1.54,9.4.45,9.09,2.22-.35,1.6-10.52-.45-9.09Z"/>
        <path class="cls-1" d="M29.18,53.86c7.49-.46,7.95,23.94.44,24.3-7.98.38-7.87-23.84-.44-24.3ZM29.49,70.96c2.28-3.22,2.01-7.1-.09-9.9-2.17,2.86-2.34,7.3.09,9.9Z"/>
        <path class="cls-1" d="M165.65,53.88c7.13.5,7.5,23.66,0,24.28-7.89.66-7.76-24.82,0-24.28ZM165.52,70.96c2.18-3.22,1.96-7.1-.08-9.87-2.2,2.8-2.36,7.29.08,9.87Z"/>
        <path class="cls-1" d="M258.02,53.87c7.14-.06,7.57,23.37.4,24.27-8.11,1.02-8.38-24.2-.4-24.27ZM257.93,61.2c-2.31,2.75-2.31,7.46.2,9.79,1.82-3.04,2.14-6.89-.2-9.79Z"/>
      </g>
    </g>
  </g>
</svg>