<?xml version="1.0" encoding="UTF-8"?>
<svg id="Layer_2" data-name="Layer 2" xmlns="http://www.w3.org/2000/svg" viewBox="0 0 406.51 179.35">
  <defs>
    <style>
      .cls-1 {
        fill: #fff;
      }
    </style>
  </defs>
  <g id="Layer_1-2" data-name="Layer 1">
    <g>
      <path class="cls-1" d="M318.77,0h-26.11v117.17h26.11c32.35,0,58.58-26.23,58.58-58.58S351.12,0,318.77,0ZM318.77,94c-.99,0-1.97-.04-2.94-.12V23.29c.97-.08,1.95-.12,2.94-.12,19.53,0,35.41,15.88,35.41,35.41s-15.88,35.41-35.41,35.41Z"/>
      <path class="cls-1" d="M136.89,0H63.98s-23.17,0-23.17,0v117.17h23.17s72.9,0,72.9,0h0s23.17,0,23.17,0h0V0h0s-23.17,0-23.17,0h0ZM136.89,93.99H63.98V23.17h72.9v70.82Z"/>
      <polygon class="cls-1" points="231.38 50.95 245 64.92 265.17 44.95 265.17 97.58 211.4 44.32 255.18 0 227.7 0 187.94 39.57 187.94 0 168.34 0 168.34 101.03 187.74 81.82 188.02 67.5 197.35 58.01 210.98 71.26 168.35 114.29 168.34 117.17 192.74 117.17 224.96 85.31 256.91 117.17 284.38 117.17 284.38 0 281.86 .36 231.38 50.95"/>
      <rect class="cls-1" x="72.27" y="31.46" width="56.34" height="54.25"/>
      <g>
        <path class="cls-1" d="M17.49,179.35c-3.64,0-6.75-.66-9.35-1.99s-4.61-3.33-6.02-6.02c-1.41-2.68-2.12-6.05-2.12-10.09s.7-7.45,2.12-10.12c1.41-2.67,3.42-4.66,6.02-5.99s5.72-1.99,9.35-1.99,6.75.66,9.35,1.99c2.6,1.33,4.6,3.32,6.02,5.99,1.41,2.67,2.12,6.04,2.12,10.12s-.71,7.41-2.12,10.09c-1.41,2.69-3.42,4.69-6.02,6.02-2.6,1.33-5.72,1.99-9.35,1.99ZM17.49,175.17c1.9,0,3.63-.26,5.17-.76,1.55-.51,2.85-1.32,3.93-2.42,1.07-1.1,1.89-2.5,2.47-4.18.58-1.68.87-3.68.87-5.99v-1.07c0-2.34-.29-4.36-.87-6.04-.58-1.68-1.4-3.08-2.47-4.18-1.07-1.1-2.38-1.91-3.93-2.42-1.55-.51-3.27-.76-5.17-.76s-3.67.25-5.2.76c-1.53.51-2.84,1.32-3.93,2.42-1.09,1.1-1.91,2.5-2.47,4.18-.56,1.68-.84,3.7-.84,6.04v1.07c0,2.31.28,4.31.84,5.99.56,1.68,1.38,3.08,2.47,4.18,1.09,1.1,2.4,1.91,3.93,2.42s3.26.76,5.2.76Z"/>
        <path class="cls-1" d="M52.15,178.73v-34.97h4.84v18.51l17.79-18.51h6.02l-13.31,13.97,13.76,21h-5.76l-11.37-17.54-7.14,6.73v10.81h-4.84Z"/>
        <path class="cls-1" d="M89.52,178.73l13.82-34.97h6.37l13.87,34.97h-5.25l-3.42-8.67h-17.03l-3.36,8.67h-5ZM99.46,165.94h13.82l-4.23-10.96c-.1-.31-.25-.73-.46-1.27-.2-.54-.43-1.15-.66-1.81-.24-.66-.48-1.34-.71-2.04-.24-.7-.46-1.33-.66-1.91h-.31c-.24.68-.51,1.46-.82,2.34-.31.88-.61,1.74-.92,2.57-.31.83-.56,1.54-.76,2.12l-4.28,10.96Z"/>
        <path class="cls-1" d="M138.51,178.73v-34.97h13.05c3.67,0,6.8.61,9.38,1.84,2.58,1.22,4.56,3.12,5.94,5.68,1.38,2.57,2.06,5.89,2.06,9.97s-.69,7.31-2.06,9.89c-1.38,2.58-3.36,4.49-5.94,5.74-2.58,1.24-5.71,1.86-9.38,1.86h-13.05ZM143.35,174.55h8.11c1.94,0,3.67-.25,5.2-.74,1.53-.49,2.84-1.25,3.93-2.27,1.09-1.02,1.91-2.34,2.47-3.95.56-1.61.84-3.54.84-5.79v-1.02c0-2.31-.28-4.27-.84-5.89-.56-1.61-1.38-2.93-2.45-3.95s-2.37-1.78-3.9-2.27c-1.53-.49-3.28-.74-5.25-.74h-8.11v26.61Z"/>
        <path class="cls-1" d="M206.97,178.73v-34.97h7.49l7.95,22.69c.2.61.42,1.28.64,2.01.22.73.42,1.42.61,2.06.19.65.33,1.21.43,1.68h.36c.1-.51.24-1.1.41-1.76.17-.66.36-1.35.56-2.06.2-.71.39-1.36.56-1.94l7.95-22.69h7.44v34.97h-4.84v-20.49c0-1.05.02-2.2.05-3.44.03-1.24.07-2.38.1-3.42.03-1.04.05-1.78.05-2.22h-.41c-.1.44-.27,1.06-.51,1.86-.24.8-.48,1.63-.74,2.5-.26.87-.48,1.64-.69,2.32l-8.21,22.89h-4.18l-8.21-22.89c-.2-.58-.42-1.25-.64-2.01-.22-.76-.44-1.55-.66-2.37-.22-.82-.43-1.58-.64-2.29h-.36c.03.75.06,1.67.08,2.78.02,1.1.03,2.21.05,3.31.02,1.1.03,2.1.03,2.98v20.49h-4.69Z"/>
        <path class="cls-1" d="M260.35,178.73v-34.97h26.92v4.18h-22.07v10.81h19.83v4.18h-19.83v11.62h22.38v4.18h-27.22Z"/>
        <path class="cls-1" d="M305.06,178.73v-34.97h13.05c3.67,0,6.8.61,9.38,1.84,2.58,1.22,4.56,3.12,5.94,5.68,1.38,2.57,2.06,5.89,2.06,9.97s-.69,7.31-2.06,9.89c-1.38,2.58-3.36,4.49-5.94,5.74-2.58,1.24-5.71,1.86-9.38,1.86h-13.05ZM309.9,174.55h8.11c1.94,0,3.67-.25,5.2-.74,1.53-.49,2.84-1.25,3.93-2.27,1.09-1.02,1.91-2.34,2.47-3.95.56-1.61.84-3.54.84-5.79v-1.02c0-2.31-.28-4.27-.84-5.89-.56-1.61-1.38-2.93-2.45-3.95s-2.37-1.78-3.9-2.27c-1.53-.49-3.28-.74-5.25-.74h-8.11v26.61Z"/>
        <path class="cls-1" d="M352.67,178.73v-34.97h4.84v34.97h-4.84Z"/>
        <path class="cls-1" d="M372.45,178.73l13.82-34.97h6.37l13.87,34.97h-5.25l-3.42-8.67h-17.03l-3.36,8.67h-5ZM382.39,165.94h13.82l-4.23-10.96c-.1-.31-.25-.73-.46-1.27-.2-.54-.43-1.15-.66-1.81-.24-.66-.48-1.34-.71-2.04-.24-.7-.46-1.33-.66-1.91h-.31c-.24.68-.51,1.46-.82,2.34-.31.88-.61,1.74-.92,2.57-.31.83-.56,1.54-.76,2.12l-4.28,10.96Z"/>
      </g>
    </g>
  </g>
</svg>