<?xml version="1.0" encoding="UTF-8"?>
<svg id="Layer_2" data-name="Layer 2" xmlns="http://www.w3.org/2000/svg" viewBox="0 0 674.94 336.14">
  <defs>
    <style>
      .cls-1 {
        stroke: #fff;
        stroke-miterlimit: 15.12;
        stroke-width: .48px;
      }

      .cls-1, .cls-2, .cls-3, .cls-4, .cls-5, .cls-6, .cls-7, .cls-8 {
        fill: #fff;
      }

      .cls-9 {
        fill: none;
      }

      .cls-9, .cls-3, .cls-4, .cls-5, .cls-6, .cls-7, .cls-8 {
        stroke: #000;
        stroke-linecap: round;
        stroke-linejoin: round;
      }

      .cls-9, .cls-6 {
        stroke-width: .9px;
      }

      .cls-3 {
        stroke-width: .9px;
      }

      .cls-4 {
        stroke-width: .9px;
      }

      .cls-5 {
        stroke-width: .9px;
      }

      .cls-7 {
        stroke-width: .77px;
      }

      .cls-8 {
        stroke-width: .45px;
      }
    </style>
  </defs>
  <g id="Layer_1-2" data-name="Layer 1">
    <g>
      <g>
        <g>
          <path class="cls-2" d="M674.88,116.63h-172.69s0,186.38,0,186.38c.62,6.33,3.02,11.26,7.68,15.48,3.61,3.26,8.51,6.13,13.74,6.14l51.34.17c11.14,1.63,12.22,10.7,13.81,11.09.23.06.82-.02,1.04-.75,1.64-5.53,6.56-10.25,12.59-10.28l51.41-.24c6.02-.03,11.25-3.4,15.26-7.36,3.38-3.81,5.62-7.89,5.87-13.13l-.06-187.5ZM652.01,138.42c-.14-.16-.28-.28-.42-.38.14.1.28.23.42.38ZM579.45,124.6c-.21.21-.42.39-.64.54.22-.16.43-.34.64-.54ZM570.1,127.52c2.6-.9,5.39-.65,8.35-.8l4.54-4.35c.86-.82,1.83-1.28,2.87-1.26.04.09.02.24,0,.34-.76,1.79-3.07,3.01-3.89,5.68,2.05.24,3.93.24,5.91-.2.66-3.53,3.11-6.13,6.62-6.5,5.44-.58,5.87,6.2,9.24,2.55.22-.03.33.21.54.34.13.08.2.19.24.33-.03-.14-.11-.25-.24-.33.02.96-.97,1.84-1.24,2.8.03.89,1.69,1.22,2.29,1.44-.06.18.06.58.09.77l-2.79,1.19c.78,1.15,1.13,1.99,1.07,2.94-.08.13-.25.18-.36.24l-.41-.45c-.22-.22-.72-.21-.97-.29-.21-.36-.78-.63-.93-.29l-.47,1.12c-.18.44-1,.82-1.29,1.29h0c-2.35,1.53-5.2,1.98-7.61.44l-.39.02c-1.76-1.3-3.12-3.2-3.39-5.63l-6.01-.07c.35,1.39,1.16,2.39,2.17,3.08.07.29.24.63.39.89.23.38.52.71.86.98v.48c0,.11-.24.34-.37.42-.15.09-.34.13-.54.13.2,0,.39-.03.54-.13l-2.64-1.55c0,.19.08.38.19.57-.11-.18-.18-.37-.19-.57,0-.19-.24-.34-.35-.43l-.54-.49c-.12-.11-.28-.25-.39-.3-2.66-4.72-6.17-1.6-10.84-3.29-.18-.47-.18-.63-.04-1.11ZM526.48,137.79c-.19,0-.38.07-.56.18.18-.11.37-.18.56-.18ZM524.78,306.72c-.18.52-.63.73-1.1.73.47,0,.92-.21,1.1-.73ZM508.9,125.2c.28-1.64,2.73.88,3.62.4.55-.3,1.09-3.03,1.92-2.21h0s.7,2.67.7,2.67c1.04-.27,1.72-.69,2.22-1.42.43-.08,1.12.15,1.4.59-.67.07-1.62,1.74-1.13,2.16,3.98,3.45,5.16,8.26,2.01,11.71,0,0,0,0,0,0-.19.09-.39.24-.48.4-.7.34-1.38.76-1.92,1.33h-.33c-.42.01-1.53.08-1.66.57-.41,1.94-.12,3.86.05,5.85,1.69-.84,2.47-1.9,3.41-2.88l.4-.42h0s.47-.39.47-.39l.87-.16c-.19,2.06-1.59,3.91-3.27,5.31-3.2,2.65-.59,6.24-2.24,10.36-.1.26-1.08.21-1.19-.12l-.39-1.21-.27-6.51c-.07-1.59-4.73-3.73-6.02-8.17.96-.15,1.71.28,2.53,1.03l1.85,1.69c.53.48.75,1.28,1.93,1.29l-.21-5.69-4.02-1.55c-.07-.53-.68-1.1-1.18-1.18-2.83-3.63-1.42-8.14,2.27-10.84.71-.52-.71-2.56-1.36-2.64ZM518.87,126.2c-.05.26-.13.53-.16.81.04-.28.11-.55.16-.81ZM516.68,145.33c-.12.08-.24.17-.38.26h0c.13-.09.26-.18.38-.26ZM516.43,151.15c-.07.26-.11.56-.1.85-.01-.29.03-.59.1-.85ZM512.6,145.8c.08-.04.13-.13.16-.25-.03.11-.08.2-.16.25ZM507.18,222.39c.58-.13,1.16.03,1.58.41.17.13.35.25.46.4,1,1.36,2.4,2.22,4.1,3.2.29-2.2.32-4.07-.32-6.01-3.18-.51-5.66-2.61-6.32-5.23-.75-2.99.64-5.92,3.09-7.56.91-.61.66-1.39.38-2.4.34-.6,1.87-.38,2.55.05l.6-2.37h0c.27-.18.55-.35.94-.42.11.91.41,1.8.92,2.84l2.7-1.48c.09,0,.26.11.38.07.19.92-.33,1.81-1.14,2.62l1.52,1.06c.5.35.75,1.03,1.36,1.24h0c.2.56.48,1.07.85,1.51-.02.09-.02.26.01.34,1.06,2.61.58,5.53-1.27,7.68-.08.08-.36.25-.41.39-1.16.6-2.33,1.26-3.87,1.56l-.13,4.7c-.01.47.18,1.09.85,1l3.62-3.25c.26.03.76,0,.97.4l-1.89,3.27c-.61,1.15-2.49,1.85-2.9,3.25-.96,3.24.83,7.4-1.61,8.63-.03-.14-.37-.29-.53-.33-1.33-4.43,1.26-7.5-2.71-10.24-1.85-1.28-3.06-3.16-3.95-5.02.22-.04.21-.21.15-.32ZM516.36,224.77h0c-.04-.05-.08-.11-.12-.17.04.06.08.12.12.17ZM511.46,291.2c-.22-.03-.44-.09-.65-.15.21.06.43.12.65.15ZM508.75,293.47c-.17.2-.36.33-.55.42.19-.09.38-.22.55-.42ZM508.11,303.2c.09.3.21.57.36.81-.15-.24-.27-.52-.36-.81ZM527.28,319.81c.07.1.14.25.23.42-.09-.16-.16-.32-.23-.42ZM529.86,320.83c-.24-.03-.65-.04-.86.05l-5.34-6.4c-2.45-.88-5.74-.28-7.65-2.21l-.94-1.7c.47-.1.8-.13.96-.13,1.86.91,3.9,1.36,6.23,1.29-.67-2.12-1.92-3.84-3.59-5.28-2.84,1.58-5.84,1.27-8.15-.57-.08-.42-.34-.65-.75-.8-1.8-2.23-1.64-4.93-.44-7.7.28-.77-1.67-1.73-2.22-1.72l-.02-.87h3.35c-.16-1.23-.67-1.9-1.16-2.6,0-.14.02-.34-.04-.46.95-.31,1.85.38,2.82.68.55.17,1.21-.44,1.56-.53.52-.14,1.19.66,1.63,1.14,2.59-.45,5,.54,6.51,2.73,2.17,3.14,1.8,6.97-1.62,9.41l3.98,5.17c1.13-2.08,1.71-4.02,1.8-6.09l1-.04c-.12,2.81-.05,5.6-1.2,8.39l3.59,5.61c.55.85.7,1.77.57,2.63ZM520.15,310.45c.12,0,.2-.06.23-.16-.04.1-.11.16-.23.16ZM634.29,299.18c-.36.37-.81.52-1.47.52l-31.35.04c-1.93,0-3.96.96-4.97,2.14l-.4.47-.54.46-.38.37c-1.26,1.21-2,2.89-2.25,4.63.3.02.58-.22.84-.63-.26.4-.54.64-.84.63-.13.15-.38.39-.56.3l-.71-.33c-1.22-4.22-5-7.95-9.88-7.97l-40.1-.14c-9.03-1.47-15.77-8.28-16.29-17.44v-131.01c-.01-1.24.22-1.71.34-2.46l6.11,8.12-3,2.79,3.29,4.36c1.32-.43,2.17-1.21,3.34-2.23l3.46,4.54c-1.14.91-2.34,1.51-3.23,2.72l3.34,4.3,3.4-2.34,3.61,4.68c-.95.51-2.69,1.25-2.73,2.34.24,1.76,2.09,3.11,3.1,4.59,1.34-.47,2-1.32,3.09-2.06l3.38,4.39-2.89,2.69c1.12,1.59,2.11,3,3.47,4.16l3.1-2.13,3.38,4.31-2.98,2.71,3.31,4.35,3.35-2.21,3.17,4.57-2.99,2.51c.87,1.69,2.08,3.23,3.63,4.52l3.19-2.06,3.33,4.39-2.94,2.71c1.11,1.59,2.04,3.14,3.49,4.26l3.21-2.1,3.38,4.24-3.03,2.91,3.39,4.28c.81-.62,2.26-2.18,3.3-1.79,1.33.66,1.9,2.44,3.01,3.59l-2.98,3.04,3.14,4.2,3.41-2.23,3.24,3.92-3.17,2.92,3.23,4.34c1.36-.94,2.07-1.9,3.49-2.33,1,1.68,2.12,2.99,3.44,4.24l-3.03,2.82c.85,1.65,1.88,3.05,3.26,4.15l3.2-2.03,3.23,4.35-2.94,2.85,3.14,4.15,3.61-2.38,3,4.25-2.93,2.96c1.1,1.62,2.09,3.11,3.54,4.26,1.15-.89,1.97-1.69,3.28-2.14l3.15,4.01-3.22,2.63c.88,1.63,1.98,3.18,3.51,4.38l3.09-2.36,3.52,4.58-3.15,2.73c1,1.42,1.93,3,3.36,3.96,1.33-.17,2.01-1.75,3.26-1.64.42.04.68.63.98.88,3.26,2.71-1.83,4.97.83,7.8ZM639.33,270.24l2.98-2.56-3.19-4-3.35,2.05-3.09-4.03,2.87-2.55c-.82-1.56-1.9-2.98-3.16-4.43l-3.52,1.97-3.24-4.23,2.8-2.55-3.31-4.44-3.39,2.36c-1.11-1.53-2.33-2.67-3-4.42l2.64-2.37-3.28-4.38-3.67,1.96-3.22-4.22,3.07-2.73-3.27-4.17-3.25,2.17-3.21-3.9,2.92-2.92-3.23-4.21-3.36,2.06-3.36-3.96,3-2.82-3.44-4.24-3.25,2.11-3.33-4.26,2.99-2.8-3.58-4.18-3.25,2.04-3.38-4.45,3.12-2.64-3.27-4.27-3.59,2.13-3.26-4.2,3.01-2.72-3.3-4.18-3.57,1.77c-1.31-1.31-2.39-2.61-3.23-4.09,1.17-.91,2.17-1.57,2.87-2.7l-3.5-4.33c-1.24.86-2.01,1.71-3.25,2.11l-3.37-4.37,2.9-2.41-3.16-4.27c-1.37.42-2.28,1-3.41,1.99l-3.56-4.78c1.19-.87,2.11-1.47,2.98-2.56l-3.18-4.11-3.53,2.07-3.35-4.1,2.95-2.83-3.46-4.4c-1.26.87-2.05,1.59-3.45,2.13l-6.68-8.75,114.6.02.03,144.29-2.28.87c-1.02-1.23-2.1-2.54-2.37-4.13l2.57-2.71-3.4-4.21-3.52,1.65c-1.39-1.19-2.22-2.7-3.3-4.15ZM668.63,303.72c-.2.21-.6.51-.51.8-.68.56-1.32,1.17-1.76,1.91-.17.06-.34.23-.44.36h0c-2.46,1.58-5.16,1.23-7.94-.24l-3.58,5.01c2.36.53,4.46.21,6.6-.21.1.66-.63.99-.81,1.36-4.08,1.98-7.02-.25-9.44,3.69-.57.92-1.79,1.62-1.86,2.75h0s-.48.21-.48.21c-.4.18-.67.55-.76,1.11-.47-.19-1.13.09-1.59.15l-.04-.3c-.02-.17-.08-.42-.25-.63l4.73-7.38c.02-2.25-1.54-4.83-.59-7.11l.77-1.89h.77c-.17,2.51.28,4.99,1.24,7.25l3.95-5.02c-1.85-1.88-3.04-4.19-2.59-6.68.44-2.44,2.02-4.65,4.77-5.41h3c1.11-.54,1.09-2.2,1.02-3.1.26.06.67.05.95-.09.1,1.16.55,2.19,1.19,3.33,1.05-.34,1.81-.74,2.22-1.54.26-.01.71.2.85.4.1.15.11.56.14.72-.67.23-1.67,1.78-.98,2.15l1.31.7-.46,1.51c.44,2.26.85,4.19.58,6.22ZM656.83,310.56c-.13-.11-.2-.24-.24-.38.03.14.11.27.24.38ZM670.37,216.43c-.04.1-.08.24-.05.33h0c-.25.3-.4.67-.45,1.06-.57.26-.94.77-1.23,1.31l-.6.4s0,0,0,0l-.38.09-3.05,1.44-.02,5.66c2.17-.65,3.41-2.1,4.62-3.47h0c.08.05.21.09.3.08l.54-.07c.01.08,0,.21-.03.3h0s-.22.89-.22.89c-.21.14-.28.64-.15.87-.69.24-1.1.85-1.12,1.58-.15,0-.38.08-.49.18-.16.15-.29.36-.39.55,0,0,0,0,0,0l-.4.43-.52.45-.37.45c-2.52,1.27-.53,5.65-1.94,9.75l-1.21-.3c-1.3-4.14,1.34-7.41-3.04-10.38-.14-.1-.29-.19-.57-.24-1.32-1.54-2.68-3.01-3.25-5.09.49.05.92.06,1.28-.21l5.12,4.5-.03-6.01c-2.18-.64-4.39-1.33-5.67-3.13-1.35-1.9-1.92-3.91-.88-5.81v-.33c.84-1.76,2.15-3.01,3.96-4.19-.55-.98-.94-1.79-.93-2.65.92-.05,1.68.45,2.71,1.07.62-1.06.81-1.9.99-2.81.3-.21.69-.04.78.17l.45,1.13c.24.6.51,1.46,1.09,1.36.95-.15,3.48-2.34,2.86-.46-.59.47-1.35,1.01-1.51,2,3.37,1.78,5.14,5.72,3.82,9.1ZM656.11,143.62c.06-.09.17-.14.31-.15-.15,0-.25.06-.31.15ZM662.85,159.15c-.02.13,0,.23.07.31-.06-.08-.09-.18-.07-.31ZM668.99,139.46v.38s0,0,0,0c-1.29.83-2.64,1.52-4.38,2.03l-.05,5.86c2.15-.68,3.26-2.25,4.63-3.64-.26.03-.49.12-.69.25.2-.13.43-.22.69-.25.31-.04.61.01,1.06.34-1.07,1.9-2.19,3.8-3.99,5.24-2.58,2.07-.25,5.87-1.79,9.92l-1.13.02-.46-.59c.03-.08,0-.22,0-.32l-.25-6.54c-.09-2.34-5.26-4.07-6.04-8.67.24.03.66.1.94-.18l5.23,4.55v-6c-2.19-.41-3.8-1.35-5.33-2.49l-.34-.36-1.29-3.27c-.4-3.07,1.62-5.34,3.77-7.18.87-.75-.38-2.81-1.27-2.75l.02-.65c1.3-.1,2.37.65,3.53,1.64.67-1,.82-1.74,1.04-2.5.56-.2.99.29,1.27.9,1.07,2.36,4.43-1.08,3.99.79-.52.61-1.13,1.17-1.45,2.2,2.24,1.31,3.43,3.1,3.95,5.12.6,2.29-.15,4.46-1.65,6.14ZM657.96,140.39c.66.85,1.65,1.25,2.48,1.61-.83-.36-1.82-.76-2.48-1.61Z"/>
          <path class="cls-2" d="M662.27,131.39c-1.08,2.79-1.53,6.26.93,8.52,3.5-5.46.03-11-.93-8.52Z"/>
          <path class="cls-2" d="M514.52,130.5c-1.44-1.87-4.21,4.45-.82,8.84,2.35-2.16,2.14-7.13.82-8.84Z"/>
          <path class="cls-2" d="M662.94,219.02c2.42-1.97,2.35-5.94.83-8.62-1.05-1.85-4.28,3.78-.83,8.62Z"/>
          <path class="cls-2" d="M513.5,209.53c-2.15,2.39-1.88,6.46.11,8.92,3.74-3.57,1.09-10.26-.11-8.92Z"/>
          <path class="cls-2" d="M664.16,297.69c-1.66-1.23-7.33,4.83-5.4,6.75,1.52,1.51,7.05-5.53,5.4-6.75Z"/>
          <path class="cls-2" d="M599.51,127.7c-.64-2.75-9.74-1.95-9.21.32.55,2.36,9.82,2.31,9.21-.32Z"/>
          <path class="cls-2" d="M512.61,297.09c-.51,3.48,1.97,6.56,5.03,7.53,1.88-2.21-1.64-7.11-5.03-7.53Z"/>
          <path class="cls-2" d="M574.08,267.57c-3.06-2.87-7.72-3.28-11.36-1.22-2.74,1.55-4.92,3.86-6.24,6.67l-4.51,9.53c-1.75,3.71-11.64,2.97-16.94,9.27-.54.64-.23,1.98.21,2.32,1.82,1.46,3.63-3.7,11.7-2.14,3.05.59,8.92-.87,10.28-3.49.17-.09.3-.24.41-.37l.47-.52.4-.43c.72-.72,1.3-.45,2.28.01,2.56,1.19,5.9,1.6,8.59.57,4.79-1.84,5.48-10.28,1.76-13.04l-2,3.07-.3.47c-1.92,1.83-4.31,2.37-6.75,1.43-.18-.53-.24-.91-.84-.93-1.43-2.69-.08-5.89,2.26-8.12.12-.07.37-.19.41-.33,2.75-2.11,6.97-2.22,9.86.41,3.06,2.79,3.86,7.32,2.64,11.52-.97,3.35-3.72,6.79-7.68,7.98-2.76.83-5.4-.14-7.89-1.38-1-.5-2.8.66-2.69,1.93,5.33,3.67,12.82,2.49,17-2.61,1.02-1.24,2.09-2.46,2.72-4.01,2.34-5.74.78-12.31-3.78-16.59Z"/>
          <path class="cls-2" d="M566.97,224.5c.66,4.05-.82,7.38-1.66,11.22-1.39,6.32,2.32,16.86,4.68,16.67,1.73-.14-.17-3.48.31-7.09.9-6.76,6.9-6.25,7.54-7.05,1.02-1.28-1.57-3.98-4.03-4.95l-.87-.35-.92-.52-.46-.31c.77-7.11-2.52-14.29-8.8-18.02-1.08-.64-2.77-.61-3.38.72,4.04,2.23,6.89,5.4,7.59,9.69Z"/>
          <path class="cls-2" d="M553.6,235.73c-1.12.99-2.46,1.34-3.6.42,0-.15-.28-.41-.44-.44-.79-1.17-.8-2.48-.93-4.04-.56-7.15-5.54-14.25-11.33-12.03-1.93.74-3.53,2.84-3.41,5.37.02.38,1.14.57,1.45.29.73-.64,1.33-3.25,3.73-3.42,1.27-.09,2.42.8,3.07,2.01,1.07,2,.9,4.2.11,6.29-1.22,3.23-1.16,7.22,1.28,8.57-.27.31-.49.7-.57,1.01-4.27,1.95-4.78,6.95-3.01,7.68.65.27,1.29-.22,1.92-.6,2.58-1.58,5.47-2.03,8.42-2.85,3.04-.84,5.71-3.55,6.09-6.4l.04-.31c.23-.53.53-1.04.89-1.5.12-.04.33-.26.36-.38,1.14-.53,3.26-.11,4.25-1.17,1.48-1.59-5.1-4.16-7.21-7.75-.57-.97-.53-3.85.32-4.51l3.54-2.75c.5-.39.77-1.03.66-1.56-.1-.5-.65-.86-1.19-1.19-2.97-1.81-1.46-6.48-4.64-6.16-1.15.12-1.71,1.14-1.95,2.87-1.66-1.19-1.58-2.85-1.3-4.32.1-.09.25-.21.28-.33,1.24-.73,2.73-1.4,3.69-2.71.56-.76-.19-2.01-.96-2.34-3.08-1.3.47-6.24-4.64-8.86-.69-.35-1.95-.03-1.72.72.57,1.84.96,3.35.53,5.06-.16.14-.39.36-.45.61-.58-.12-1.25-.03-1.62.23-.68.48-1.08,1.44-.65,2.23l2.69,4.93c.91,1.66.73,3.65,1.8,5.26-.79.51-1.29,1.08-1.35,1.72-.07.77.37,1.69,1.1,2.24,2.8,2.1,4.48,5.05,3.2,6.47-.8.88-3.04-.5-3.64,1.28-.72,2.16,4.14,1.83,6.2,5.67.95,1.78.38,3.43-1.02,4.67Z"/>
          <path class="cls-2" d="M540.93,227.64c-7.6,5.16-8.85,14.57-3.81,22.19.52.35,1.28-.21,1.3-.57.15-2.74-5.34-10.91,2.51-19.04.6-.62.97-2.1,0-2.58Z"/>
          <path class="cls-2" d="M577.01,244.69c-.53-.35-1.67-.55-2.07.26-.62,1.26.25,2.74.6,4.05l-6.93,7.13c-.3.31-.64.97-.59,1.31.05.38.6.94,1.47,1.26,1.64-3.03,3.99-5.58,7.45-6.85.74-.11,2.05.61,2.89.17.96-.5,1-1.92.99-2.79,0-.14-.01-.37.04-.48,1-.2,2.29-1.85,1.63-3.07-.71-1.29-3.06-.45-3.44.71l-.79-.03c-.18-.72-.64-1.26-1.24-1.66Z"/>
          <path class="cls-2" d="M538.13,251.67c-.28.09-.74.34-1.07.73-3.89,4.64-3.93,11.51-.43,16.13.78-.38,1.11-.63,1.19-.86.05-.15-.02-.53-.16-.8-2.81-5.46-1.36-9.09,1.51-14.29.18-.32-.7-1.02-1.05-.91Z"/>
          <path class="cls-2" d="M549.74,274.37c-.86.64-1.48,1.43-2.03,2.11-.18.23-.72.27-.84.78l-2.67.16c-.64,2.82-3.66,5.37-1.84,6.86,1.68,1.38,3.39-2.21,6.53-2.26-.05-2.11.38-4.23,1.83-5.71l5.99-6.14,6.93-6.48c.27-.25.37-1.02.34-1.32-.02-.26-.2-.61-1-.62-3.89,4.78-8.27,8.9-13.24,12.6Z"/>
          <path class="cls-2" d="M575.45,265.82c.77.91,1.3,3.25,2.76,3.33,3.05-1.39,5.18,3.14,5.62,1.23.26-1.09-2.07-3.28-3.61-6.14l-5.72-1.98c-3.55-2.13-9.64-4.9-10.73-3.17-1.5,2.39,6.46.63,11.67,6.74Z"/>
          <path class="cls-2" d="M538.25,188.74l-3.29,10.42c-.99,3.14-1.04,6.28.76,8.91-.15.07-.14.26-.08.36l.58.9c-.03.23-.08.52.04.85-3.41,1.23-5.22,5.65-3.07,8.85,2.14-1.16,3.6-2.42,5.67-2.69,1.58-.21,2.82,1.04,3.89,2.11,3.21-5.46-3.09-10.22-1.59-18.12l1.69-8.93c.1-5.14-1.18-10.26-3.6-14.67-3.41-6.2-10.35-6.64-10.42-4.35-.01.39.52.91,1.04,1.15,5.88,2.75,9.47,8.57,8.39,15.21Z"/>
          <path class="cls-2" d="M556.53,243.81l1.21,3c.11,1.75.76,2.97,2,3.63,1.17.62,2.92.9,3.97-.28,1.25-1.4,1.19-3.3.53-4.69-.6-1.27-5.49-3.08-5.95-3.04-.59.06-2.12.51-1.77,1.38Z"/>
          <path class="cls-2" d="M584.43,250.87c.1.07.1.21.14.35.29,1,1.04,2.84-.03,3.9-2.16,2.14-6.06,2.27-8.7.94-.67-.34-1.12-.83-1.78-.63-.47.14-1.31.92-1.03,1.6,1.17,2.85,3.8,4.18,6.55,5.04,3.38,1.06,6.47,1.81,10,2.13,6.42.59,12.42,4.02,15.15,9.83.27.59.49,1.19.99,1.14.66-.06,1.2-.58,1.26-1.44-2.22-8.2-7.22-12.7-14.94-15.39,1.24-3.38.37-6.55-2.12-8.86-1.65-1.52-4.12-1.74-6.1-.47-.41.7-.08,1.44.6,1.87Z"/>
          <path class="cls-2" d="M584.78,289.1l-6.46-1.75c-.3-.08-.61.72-.5.93.99,1.88,4.62,3.5,7.07,3.1,1.06-.17.77-2.05-.11-2.29Z"/>
          <path class="cls-2" d="M560.79,241.85c1.98-.29-.27-4.21-1.33-4.7-.56-.26-2.09.12-1.97.79.4,1.38,2,3.49,3.3,3.91Z"/>
          <path class="cls-2" d="M595.59,289.43l-.61-.11c-.37-1.3-.96-2.51-2.6-3.39-2.21,4.11-6.39,3.73-3.42,6.27l.43.36c.29.95,1.28,2.23,2.52,2.01.86-.15,1.12-1.39,1.09-1.99.14.07.34,0,.37-.14,2.23.56,3.64,2.51,4.65,2.25,1.07-.27,1.51-2.51-.02-4.2-.54-.59-1.44-.88-2.41-1.06Z"/>
          <path class="cls-2" d="M535.78,289.04l.37-.42c4.51-5.09,1.24-10.41,10.4-15.23l7.3-3.84,2.46-2.04.49-.38c4.92-3.86,4.58-12.75-.24-17.33-3.25-3.09-8.13-3.59-12.05-1.71-.23.11-.21.99.03,1.3,3.55-.47,7.44.11,10.1,2.74,2.19,2.17,2.58,5.33,1.52,8.2-.82,2.24-2.83,4.51-5.73,4.93-2.04.3-4.25-.78-4.95-2.38-1.73-3.95,1.98-6.89,6.86-8.36-.97-2.38-3.3-2.57-5.47-2.73-4.2-.33-7.73,2.04-8.6,6.28-1.21,5.92,2.4,8.86.9,10.31-.12.14-.28.25-.4.32-2.86,1.59-4.1,4.82-4.65,8.08-.7,4.19,1.69,7.85-1.17,11.35-.5.01-.62.66-.88.83-.6.4-1.75.74-1.95,1.94,2.25,1.26,4.25-.25,5.65-1.84Z"/>
          <path class="cls-2" d="M616.34,284.82c-.14.05-.41.12-.54.08-.46-1.08-1.74-1.21-2.94-1.5l-14.02-3.41c-1.57-.38-3.04-.67-4.04-1.82h-.36c-.44-.37-.95-.65-1.51-.86-.21-.52-.77-.99-1.23-1.28-.76-1.25-.56-2.75.67-3.59,1.1-.76,2.38-.23,3.4.79,2.54,2.55,2.81,6.02,4.17,6.19,1.95.25-.73-5.43-3.71-8.4-2.6-2.59-6.26-2.85-9.33-1.14-1.96,1.09-3.72,2.52-4.25,4.75-.52,2.2-1.39,4.17-1.39,6.26l-.1.22-2.26,5.7c4.18.64,7.49-2.05,8.8-5.45l1.01-.5c.9,1.72,2.67,2.98,4.45,3.62l.22-.08c3.72,2.54,8.37,3.05,12.98,3.4l4.99.38,4.4.45c5.28.54,3.06,5.7,4.76,6.15.44.12,1.2-.39,1.39-1.06,1.15-4.09-1.82-7.75-5.57-8.88Z"/>
          <path class="cls-2" d="M602.19,166.09c2.82,4.25,8.37,6.22,12.98,3.6,7.24-4.11,7.56-11.17,11.79-16.83l.46-.39c3.16-2.71,8.16-2.63,12.24-5.24l.79-.51c1.1-.71,2.06-1.57,2.65-2.76-.05-.12-.09-.41.2-.52,0-1.09-1.16-1.34-1.83-1.3-1.1.07-1.88.68-2.41,1.37l-.42.54-3.59.37c-6.53-.98-12.43-.08-15.92,5.19-.34-.22-.84-.22-1.1-.17-2.05-2.71-9.71-2.4-11.25.3-.08.14-.29.36-.58.35-2.03,3.18-1.92,7.8.61,11.3,1.95-2.55,3.4-4.74,5.97-5.76h.36c1.11-.03,2.15.41,3.14.86.16.33.49.77.87.84l.71,2.45c-.19,2.78-2.32,5.35-4.36,6.41-2.74,1.43-6.01,1.5-8.37-.38-4.47-3.57-4.71-9.72-2.22-14.56,2.71-5.27,8.19-7.35,13.78-4.9.57.25,1.44.39,1.96.47.47.08,1.7-1.15,1.29-1.53-5.68-5.18-16.43-1.29-19.72,7.22-1.79,4.62-.69,9.54,1.98,13.58Z"/>
          <path class="cls-2" d="M613.93,217.93c-6.76-7.76-.09-17.52-.56-20.24l-1.03-6.01c-.93-5.41-3.53-9.9-4.65-7.64-1.04,2.11,3.08,7.46-3.41,12.63-.37-.42-.74-.12-.98-.07-1.26.27-2.57.4-3.92,1.06.73,3.01,3.4,4.28,6.01,5.38l.54.33c.18,18.06,14.68,21.28,12.46,17.9-1.05-1.6-3.22-1.89-4.47-3.33Z"/>
          <path class="cls-2" d="M636.96,208.63c3.08-2.15,5.02-4.71,6.13-7.86,1.99-6.64-1.55-16.03-3.3-14.2-1.08,1.14,2.52,4.89,1.33,11.84-.94,5.5-6.12,7.87-4.16,10.22Z"/>
          <path class="cls-2" d="M642.39,168.88c-.3-.56-.85-.68-1.2-.62-.24.05-.87.36-.67.78,2.11,4.41,1.78,9.7-1.24,13.64-.5.66-.41,1.19.04,1.55,1.79,1.42,7.37-7.35,3.06-15.35Z"/>
          <path class="cls-2" d="M648.28,262.78l-4.31-2.47c-.09-.54-.62-.64-.8-.9l-2.61-3.7c-2-4.61-1.13-9.62.73-14.17,1.79-4.38,3.02-10.08.99-13.54.03-.09,0-.29-.04-.37-.16-.36-.49-.66-.88-.8.09-.23.1-.59.1-.8,3.11-1.31,5.21-4.45,4.05-7.94-.19-.58-.9-.96-1.35-1.01-1.18-.13-2.56,3.35-6.82,2.43l-.25-.04-2.38-1.76c-.86,2.44-.73,5.49.5,7.94,2.44,4.88,1.86,9.61.48,14.67-3.69,13.52,7.11,28.32,12.62,24.01.32-.25.54-1.24-.01-1.56Z"/>
          <path class="cls-2" d="M601.21,167.47c-.26-.55-.78-.97-1.23-.97-.59,0-1.04.31-1.25.84l-1.36-.06c-.55-1.53-2.23-2.65-2.84-1.88-.7.9,2.37,2.67,3.24,6.4,2.73.76,5.29,1.75,7.92,2.82l7.02,2.84c.88.36,2.08-.45,1.86-1.41-5.52-1.6-10.78-3.16-13.37-8.58Z"/>
          <path class="cls-2" d="M622.06,165.4l-7.69,7.09c-.44.4-.21,1.13.07,1.29.51.28.94.17,1.46-.41l5.63-6.23,10.36-7.99,2.33-.74c.71-3.03,3.28-4.36,1.82-6.59-.24-.37-1-.76-1.59-.33-1.28,1.28-2.76,1.77-4.4,2.21-1.35.36-.54,2.43-.86,3.17-1.51,3.49-4.44,6.06-7.12,8.52Z"/>
          <path class="cls-2" d="M586.58,162.91c-.84.89-2.12,1.13-3.21.49-3.81-2.23-2.92-7.77-6.23-6.4l4.06,6.76c2.73,3.63,7.53,4.36,10.9,1.71.13-.03.42-.26.38-.41,3.43-1.57,4.79-7.79,5.1-12.07l.02-.33c.69-.91,1.23-1.98,1.65-3.27-3.76-1.49-7.3,1.66-8.8,5.38-.19-.15-.44-.17-.55-.15-3.05-3.01-6.68-5.22-11.16-5.82l-9-1.21c-2.87-.39-7.22.19-9.41-1.47-.11.04-.27.06-.36.01l-.52-.47-.25-.49-.55-3.02c-.14-.76-.62-1.16-1.3-1.15-1.4.02-2.61,3.62.64,7.11,2.4,2.58,5.65,3.83,9.14,4.69l13.29,3.26c3.49.86,8.11,4.81,6.17,6.86Z"/>
          <path class="cls-2" d="M599.94,189.5c.31.84,1.83,2.44,2.75,1.94,1.44-.78.48-2.69.21-3.65-.54-1.92,4.07-3.67,7.08-8.53.5-.81-.05-2.2-.75-2.1l-5.63,5.57c-1.95,1.93-4.36.16-5.8,1.3-.56.45-.12,1.78-.54,2.51-.55.96-2.73,2.1-1.62,3.57.85,1.13,2.8.29,3.49-.61.15.1.56.1.81.01Z"/>
          <path class="cls-2" d="M593.57,146.53l5.28,1.93c.56.2,1.09.03,1.39-.13,2.55-1.4-7.13-6.02-7.57-3.17-.08.49.25,1.14.9,1.37Z"/>
          <path class="cls-2" d="M594.56,179.99c3.25-1.38,6.79-.76,9.99.93,1-2.26-.28-4.2-2.03-5.37-6.15-4.11-14-3-19.22-5.21-.14-.06-.31-.03-.38-.02-4.29-1.77-7.76-4.6-9.44-9.06-.22-.58-1.29-.74-1.67-.59-.38.15-.89.97-.68,1.64,2.23,7.15,7.68,12.79,14.7,14.93l-.08.64c-.96,3.03.04,6.6,2.69,8.69,1.47,1.16,4.39,1.54,5.72.28,1.05-1-3.32-5.27.41-6.86Z"/>
          <path class="cls-2" d="M639.45,152.82c-.47,3.2-1.92,5.6-4,7.82l-.46.13-6.95,3.49c-3.07,1.55-5.99,3.39-7.93,6.01-.09.12-.17.43-.29.52-2.67,1.98-2.9,8.97.05,13.45,4.3,6.52,13.65,5,13.64,3.26,0-1.41-3.87.1-7.83-1.89-4.51-2.26-5.42-7.25-2.86-11.37,1.67-2.69,4.68-4.47,7.83-3.04,1.4.63,2.12,2.21,2.22,3.41.13,1.7-.32,3.06-1.4,4.27-.15.04-.4.26-.46.41-1.6,1.05-3.38,1.64-5.7,2.26,2.15,3.03,5.7,2.82,8.89,2.34,3.16-.47,4.93-2.58,5.57-5.79.62-3.15-.18-6.3-1.39-9.55,5.25-3.92,7.15-9.94,5.61-16.14-.87-3.53,4.52-5.5,3.59-7.23-1.09-2.03-7.27,1.71-8.13,7.62Z"/>
          <path class="cls-2" d="M616.64,194.2c-.61,1.51,1.06,4.36,2.63,4.82.75.22,1.18-.77,1.08-1.11-.51-1.68-2.48-4.42-3.71-3.71Z"/>
          <path class="cls-2" d="M621.4,191.44c-.29-.74-.82-1.44-1.49-1.98-.03-.1-.04-.24-.03-.32.24-1.5-.32-2.59-1.49-3.29-1.2-.72-2.7-1.24-3.95-.25-1.09.86-1.18,2.31-.93,3.71.42,2.37,4.59,4.13,6.8,4.34.84.08,1.35-1.57,1.1-2.21Z"/>
          <path class="cls-2" d="M580.38,145.31l2.7,1.27c.15.47.53.63.72.9l1.68,2.36c.77-.55,1.32-1.23,1.68-2.17.07-.19.29-.37.38-.46.69-.31,2.64-.92,2.7-1.99.1-1.84-2.19-3.51-3.78-3.84l-1.61,1.78c-1.35-.7-3.12-2.27-4.68-1.69-1.6.59-1.02,3.21.2,3.84Z"/>
          <path class="cls-2" d="M624.58,199.97c1.06-.74,2.35-.62,3.36-.08.12.14.26.31.43.42,1.21,2.23,1.04,4.84,1.61,7.32,1.35,5.92,5.1,10.58,10.22,8.93,3.78-1.21,4.42-5.38,3.1-5.91-1.23-.5-1.36,2.11-3.46,3.28-1.02.57-2.08.29-2.94-.29l-.31-.34c-1.22-1.31-1.54-3.03-1.17-4.92l1.02-5.3c.42-2.2-.2-4.51-2.14-5.6.48-.33.53-.78.65-1.08,3.06-1.78,5.49-4.68,3.7-7.28-.29-.42-.6-.86-1.13-.85-.44,0-.94.46-1.14.91l-.52.29c-.32.17-.66.28-.93.53-.11,0-.25.01-.35.04l-6.26,1.77c-1.47.42-2.62.89-3.6,1.82l-.89.85c-1.52,1.45-2.22,3.57-3.08,5.48-.12.09-.32.3-.38.45l-5,1.66c1.5,1.9,3.19,3.06,4.85,4.17.18.12.36.18.57.23l2.4,2.95c.57,1.61.1,3.39-.06,4.85l-.58.31c-1.39.73-3.7,1.69-3.8,3.62-.06,1.15,1.64,2.07,2.39,2.38.06.15.24.36.35.42.18,1.63.87,4.2,2.92,4.67,1.31.31,1.79-1.91,1.69-2.8l.81.32c1.06,1.16,1.21,2.63.55,4.05-.36.04-.81.44-.88.83-1.45.31-2.7,1.5-3.19,2.93l2.81,2.45c-.35,2.59-.12,4.94,1.53,6.89.66.78,2.47,1.57,3.03.45.11-1.56-.83-3.5-.13-5.05.11-.15.28-.32.34-.49,1.01.08,2.59-.38,2.4-1.73-.34-2.39-2.08-4.09-2.92-6.18-.6-1.51-.46-3.28-1.61-4.39l.09-.96c.49-.24.86-.68,1.01-1.05.27-.71.08-1.46-.47-2.02l-2.98-3.02-.26-.23c-.74-1.46-.83-3.07-.71-4.66.13-.04.49-.04.61.03.78.58,3.55.62,3.36-.7-.23-1.62-2.91-2.22-3.92-2.94-.05-.6-.78-.93-1.24-1.23-.45-1.02-1.53-2.14-1.29-3.46.2-1.13.9-2.3,1.56-2.75Z"/>
        </g>
        <g>
          <g id="b">
            <path class="cls-4" d="M606.58,57.41c1.36.07,3.38,1.59,2.75,3.78-.88-.98-1.99-2-3.2-1.94-.92.07-1.73.53-2.12,1.61-.03.12-.07.24-.11.36-.24.94.03,1.53.23,2.66.22,1.26.2,2.99-1.13,5.46-1.33,2.47-2.92,3.96-4.21,4.82s-2.33,1.11-2.33,1.11l-.42-1.79s.67-.14,1.72-.85c1.06-.71,2.43-1.96,3.61-4.16,1.18-2.2,1.12-3.24.94-4.27-.03-.16-.07-.34-.11-.51-1.04.89-2.28,1.27-3.26,1.38-1.2.13-1.96-.07-1.96-.07,0,0,.73-.28,1.68-.82.99-.56,2.01-1.3,2.77-2.3.04-.05.49-.63.71-1.22.04-.14.07-.27.12-.42.62-1.75,2.17-2.72,3.71-2.83.19-.01.39-.02.58,0h0ZM616.26,59.42c.6.02,1.17.17,1.67.39.66.3,1.25,1.01,1.53,1.56.67,1.32-.12,1.79.03,2.33-.53-.4-.92-1.02-1.26-1.45-.28-.29-.65-.58-1.07-.77-.83-.38-1.7-.48-2.77.44-1.11.96-1.3,1.87-1.33,3.04-.03,1.17.22,2.54-.13,3.98-.21.88-.76,1.62-1.42,2.37-.66.75-1.45,1.48-2.22,2.13-1.53,1.3-2.99,2.29-2.99,2.29l-1.03-1.52s1.38-.94,2.83-2.17c.72-.61,1.46-1.3,2.02-1.94.57-.64.94-1.27,1.02-1.59.18-.77.1-1.75.08-2.85-1.15.4-2.33.17-3.09-.21-.91-.45-1.31-.97-1.31-.97,0,0,.64.09,1.52.06.86-.03,1.85-.19,2.5-.71,0,0,.38-.22.6-.56.26-.95.77-1.92,1.74-2.75.78-.68,1.64-1.01,2.46-1.09.2-.02.41-.03.61-.02h0ZM626.07,62.46c.35,0,.69.06,1,.16.83.27,1.44.82,1.87,1.38.86,1.12-.18,3.44-.18,3.44-.41-.94-.98-1.93-1.28-2.32-.28-.36-.6-.63-.98-.75-.37-.12-.84-.14-1.58.19-1.58.71-1.78,1.31-1.97,2.41-.19,1.1-.14,2.69-.96,4.47-.87,1.91-2.73,3.24-4.33,4.19s-3.03,1.48-3.03,1.48l-.64-1.72s1.28-.48,2.74-1.34,3.03-2.12,3.6-3.37c.46-1.01.55-1.96.67-2.94-1,.36-2.02.34-2.8.16-.89-.21-1.36-.57-1.36-.57,0,0,.59-.1,1.34-.34.87-.29,1.57-.53,2.53-.99.19-.09.56-.27.92-.91.52-.91,1.17-1.58,2.55-2.2.66-.3,1.3-.43,1.9-.42h0ZM626.41,69.23c.78.3,2.02.38,3.02.34,1-.04,1.76-.18,1.76-.18l.32,1.81s-.87.15-2,.2-2.53.02-3.76-.46l.66-1.71Z"/>
            <path class="cls-6" d="M624.63,76.45c1.66-1.15,7.71-6.59,9.04-13.1,1.33-6.5-2.91-9.52-8.22-10.48-5.3-.97-8.65.26-12.74-2.77-4.09-3.03-2.42-5.86-1.19-6.57,1.23-.7,2.74.02,3.22,1.28.48,1.26-.75,2.37-.75,2.37,0,0,5.45.68,11.78-.98,6.33-1.66,12.15.06,14.73,4.72,2.58,4.66,2.53,8.26.1,14.71-2.43,6.45-14.66,15.02-18.58,13.03,0,0-1.05-1.11-1.08-2.09-.03-.97.57-2.18,1.88-2.27,1.31-.1,1.87,1.17,1.8,2.15h0Z"/>
            <path class="cls-6" d="M593.81,73.22s-6.49,4.86-2.46,0c4.03-4.86,3.06-6.96,3.51-15.95.45-8.99,5.41-13.16,8.89-13.68,3.47-.52,8.71,3.24,6.62,7.89-1.56,3.47-5.03,3.16-6.69,1.79,0,0-3.45,2.22-4.79,9.41-1.34,7.19-3.82,9.47-5.08,10.54h0Z"/>
            <path class="cls-6" d="M603.24,30.49c.02.68.06.88.27,1.38,1.01,2.37,6.55,1.51,6.62-2.77.07-4.28-4.13-5.12-6.54-4.61-2.41.51-6.22,3.58-4.99,11.17,1.23,7.6,11.44,10.51,15.48,6.23,4.04-4.28.18-8.97-3.97-8.26s-3.84,5.75-1.16,6.18c0,0-3.06-.05-4.94-3.44-1.65-2.97-.77-5.89-.77-5.89h0Z"/>
          </g>
          <g id="b-2" data-name="b">
            <path class="cls-4" d="M571.79,57.41c-1.36.07-3.38,1.59-2.75,3.78.88-.98,1.99-2,3.2-1.94.92.07,1.73.53,2.12,1.61.03.12.07.24.11.36.24.94-.03,1.53-.23,2.66-.22,1.26-.2,2.99,1.13,5.46,1.33,2.47,2.92,3.96,4.21,4.82s2.33,1.11,2.33,1.11l.42-1.79s-.67-.14-1.72-.85c-1.06-.71-2.43-1.96-3.61-4.16-1.18-2.2-1.12-3.24-.94-4.27.03-.16.07-.34.11-.51,1.04.89,2.28,1.27,3.26,1.38,1.2.13,1.96-.07,1.96-.07,0,0-.73-.28-1.68-.82-.99-.56-2.01-1.3-2.77-2.3-.04-.05-.49-.63-.71-1.22-.04-.14-.07-.27-.12-.42-.62-1.75-2.17-2.72-3.71-2.83-.19-.01-.39-.02-.58,0h0ZM562.1,59.42c-.6.02-1.17.17-1.67.39-.66.3-1.25,1.01-1.53,1.56-.67,1.32.12,1.79-.03,2.33.53-.4.92-1.02,1.26-1.45.28-.29.65-.58,1.07-.77.83-.38,1.7-.48,2.77.44,1.11.96,1.3,1.87,1.33,3.04.03,1.17-.22,2.54.13,3.98.21.88.76,1.62,1.42,2.37.66.75,1.45,1.48,2.22,2.13,1.53,1.3,2.99,2.29,2.99,2.29l1.03-1.52s-1.38-.94-2.83-2.17c-.72-.61-1.46-1.3-2.02-1.94-.57-.64-.94-1.27-1.02-1.59-.18-.77-.1-1.75-.08-2.85,1.15.4,2.33.17,3.09-.21.91-.45,1.31-.97,1.31-.97,0,0-.64.09-1.52.06-.86-.03-1.85-.19-2.5-.71,0,0-.38-.22-.6-.56-.26-.95-.77-1.92-1.74-2.75-.78-.68-1.64-1.01-2.46-1.09-.2-.02-.41-.03-.61-.02h0ZM552.3,62.46c-.35,0-.69.06-1,.16-.83.27-1.44.82-1.87,1.38-.86,1.12.18,3.44.18,3.44.41-.94.98-1.93,1.28-2.32.28-.36.6-.63.98-.75.37-.12.84-.14,1.58.19,1.58.71,1.78,1.31,1.97,2.41.19,1.1.14,2.69.96,4.47.87,1.91,2.73,3.24,4.33,4.19s3.03,1.48,3.03,1.48l.64-1.72s-1.28-.48-2.74-1.34-3.03-2.12-3.6-3.37c-.46-1.01-.55-1.96-.67-2.94,1,.36,2.02.34,2.8.16.89-.21,1.36-.57,1.36-.57,0,0-.59-.1-1.34-.34-.87-.29-1.57-.53-2.53-.99-.19-.09-.56-.27-.92-.91-.52-.91-1.17-1.58-2.55-2.2-.66-.3-1.3-.43-1.9-.42h0ZM551.95,69.23c-.78.3-2.02.38-3.02.34-1-.04-1.76-.18-1.76-.18l-.32,1.81s.87.15,2,.2,2.53.02,3.76-.46l-.66-1.71Z"/>
            <path class="cls-6" d="M553.74,76.45c-1.66-1.15-7.71-6.59-9.04-13.1-1.33-6.5,2.91-9.52,8.22-10.48,5.3-.97,8.65.26,12.74-2.77,4.09-3.03,2.42-5.86,1.19-6.57-1.23-.7-2.74.02-3.22,1.28-.48,1.26.75,2.37.75,2.37,0,0-5.45.68-11.78-.98-6.33-1.66-12.15.06-14.73,4.72-2.58,4.66-2.53,8.26-.1,14.71,2.43,6.45,14.66,15.02,18.58,13.03,0,0,1.05-1.11,1.08-2.09.03-.97-.57-2.18-1.88-2.27-1.31-.1-1.87,1.17-1.8,2.15h0Z"/>
            <path class="cls-6" d="M584.56,73.22s6.49,4.86,2.46,0c-4.03-4.86-3.06-6.96-3.51-15.95s-5.41-13.16-8.89-13.68c-3.47-.52-8.71,3.24-6.62,7.89,1.56,3.47,5.03,3.16,6.69,1.79,0,0,3.45,2.22,4.79,9.41s3.82,9.47,5.08,10.54h0Z"/>
            <path class="cls-6" d="M575.12,30.49c-.02.68-.06.88-.27,1.38-1.01,2.37-6.55,1.51-6.62-2.77-.07-4.28,4.13-5.12,6.54-4.61,2.41.51,6.22,3.58,4.99,11.17-1.23,7.6-11.44,10.51-15.48,6.23-4.04-4.28-.18-8.97,3.97-8.26s3.84,5.75,1.16,6.18c0,0,3.06-.05,4.94-3.44,1.65-2.97.77-5.89.77-5.89h0Z"/>
          </g>
          <path class="cls-6" d="M589.16,71.49c-.93.01-1.67.76-1.67,1.69,0,0,0,0,0,.01-19.47.19-28.15,3.59-30.56,4.99-2.48,1.43-2.3,3.82-2.3,3.82v17.07c0-.54.19-2.44,2.3-3.65,2.48-1.43,11.56-5.01,32.25-5.01s29.77,3.57,32.25,5.01c2.11,1.22,2.29,3.11,2.3,3.65v-17.07s.18-2.38-2.3-3.82c-2.41-1.39-11.09-4.8-30.56-4.99,0,0,0,0,0-.01,0-.93-.76-1.69-1.69-1.69h0s-.01,0-.02,0h0ZM623.74,99.07v.16s0-.07,0-.16ZM554.63,99.07c0,.05,0,.11,0,.16v-.16Z"/>
          <path class="cls-6" d="M589.18,90.41c-20.69,0-29.77,3.57-32.25,5.01-2.48,1.43-2.3,3.37-2.3,3.37,0,0-.18,1.94,2.3,3.37s11.56,5.01,32.25,5.01,29.77-3.57,32.25-5.01c2.48-1.43,2.3-3.37,2.3-3.37,0,0,.18-1.94-2.3-3.37s-11.56-5.01-32.25-5.01ZM589.1,92.22c6.72.03,13.48.31,20.11,1.45-.1.05-6.11,2.93-20.03,2.93s-20-2.92-20.04-2.93c5.39-.93,10.88-1.25,16.35-1.42,1.2,0,2.4-.02,3.6-.03h0Z"/>
          <path class="cls-6" d="M618.25,95.97s-11.1,5.05-29.07,5.05-29.07-5.05-29.07-5.05"/>
          <path class="cls-6" d="M585.5,92.24c-8.45.26-16.95.87-25.06,3.56-1.32.63-3.01,1.02-3.84,2.32-.68,1.48,1.01,2.38,2.1,2.92,3.81,1.68,7.88,2.45,11.87,3.09,9.63,1.4,19.53,1.48,29.27.87,6.89-.59,13.94-1.35,20.32-4.19,1.14-.48,2.48-1.96,1.32-3.09-1.69-1.6-4.12-2.02-6.26-2.76-8.53-2.25-17.35-2.71-26.11-2.74l-3.6.03h0ZM623.74,84.42s.18-2.38-2.3-3.82c-2.48-1.43-11.56-5.01-32.25-5.01s-29.77,3.57-32.25,5.01c-2.48,1.43-2.3,3.82-2.3,3.82"/>
          <path class="cls-9" d="M623.74,85.57s.18-1.15-2.3-2.59c-2.48-1.43-11.56-5.01-32.25-5.01s-29.77,3.57-32.25,5.01c-2.48,1.43-2.3,2.59-2.3,2.59M623.74,94.43s.18-1.15-2.3-2.59c-2.48-1.43-11.56-5.01-32.25-5.01s-29.77,3.57-32.25,5.01c-2.48,1.43-2.3,2.59-2.3,2.59"/>
          <circle class="cls-8" cx="585.02" cy="82.4" r="3.72"/>
          <circle class="cls-8" cx="577.14" cy="82.89" r="3.25"/>
          <circle class="cls-8" cx="569.96" cy="83.74" r="2.89"/>
          <circle class="cls-8" cx="563.56" cy="85.15" r="2.67"/>
          <circle class="cls-8" cx="558.04" cy="87.24" r="2.35"/>
          <circle class="cls-8" cx="585.02" cy="82.4" r="2.57"/>
          <circle class="cls-8" cx="577.14" cy="82.89" r="2.16"/>
          <circle class="cls-8" cx="569.96" cy="83.74" r="1.9"/>
          <circle class="cls-8" cx="563.56" cy="85.15" r="1.63"/>
          <circle class="cls-8" cx="558.04" cy="87.24" r="1.48"/>
          <circle class="cls-2" cx="576.52" cy="82.3" r="1.04"/>
          <circle class="cls-2" cx="584.1" cy="81.65" r="1.13"/>
          <circle class="cls-2" cx="569.35" cy="83.23" r=".86"/>
          <circle class="cls-2" cx="563.12" cy="84.85" r=".84"/>
          <circle class="cls-2" cx="557.68" cy="86.76" r=".65"/>
          <circle class="cls-8" cx="593.35" cy="82.4" r="3.72"/>
          <circle class="cls-8" cx="601.22" cy="82.89" r="3.25"/>
          <circle class="cls-8" cx="608.4" cy="83.74" r="2.89"/>
          <circle class="cls-8" cx="614.81" cy="85.15" r="2.67" transform="translate(432.27 678.38) rotate(-80.78)"/>
          <circle class="cls-8" cx="620.33" cy="87.24" r="2.35"/>
          <circle class="cls-8" cx="593.35" cy="82.4" r="2.57"/>
          <circle class="cls-8" cx="601.22" cy="82.89" r="2.16"/>
          <circle class="cls-8" cx="608.4" cy="83.74" r="1.9"/>
          <circle class="cls-8" cx="614.81" cy="85.15" r="1.63"/>
          <circle class="cls-8" cx="620.33" cy="87.24" r="1.48"/>
          <circle class="cls-2" cx="600.6" cy="82.3" r="1.04"/>
          <circle class="cls-2" cx="592.44" cy="81.65" r="1.13"/>
          <circle class="cls-2" cx="607.8" cy="83.23" r=".86"/>
          <circle class="cls-2" cx="614.37" cy="84.85" r=".84"/>
          <circle class="cls-2" cx="619.97" cy="86.76" r=".65"/>
          <g>
            <path class="cls-5" d="M586.38,10.56v1.81h11.2c-1.6,1.16-3.2,2.32-4.8,3.48.36.49,1.07,1.46,1.07,1.46l9.09-6.75h-16.56Z"/>
            <path class="cls-3" d="M589.21.45l-5.18,15.93s1.15.37,1.72.56c1.15-3.54,2.31-7.09,3.46-10.63.46,1.42.92,2.84,1.38,4.26h1.91c-1.1-3.37-3.29-10.11-3.29-10.11h0ZM591.19,12.37v.02c1.07,3.27,2.13,6.53,3.19,9.8-1.6-1.16-3.2-2.32-4.8-3.48-.35.49-.71.98-1.06,1.46,3.1,2.25,6.21,4.5,9.31,6.75-1.58-4.85-3.15-9.7-4.73-14.55h-1.91Z"/>
            <path class="cls-3" d="M584.16,15.99c-1.19,3.64-2.37,7.28-3.56,10.93,4.12-2.99,8.25-5.98,12.37-8.98l-.6-1.8c-2.78,2.01-5.55,4.03-8.33,6.04.61-1.88,1.22-3.76,1.83-5.63-.57-.19-1.15-.37-1.72-.56h0Z"/>
            <path class="cls-7" d="M576.18,10.58h-.66l12.15,8.99,1.54-1.12-8.36-6.07h4.52l.61-1.81h-9.79Z"/>
          </g>
          <circle class="cls-6" cx="589.18" cy="69.18" r="2.83"/>
          <circle class="cls-6" cx="589.18" cy="63.38" r="2.96"/>
          <circle class="cls-6" cx="589.18" cy="56.38" r="4.06"/>
          <circle class="cls-6" cx="589.18" cy="46.82" r="5.71"/>
          <circle class="cls-6" cx="589.18" cy="32.41" r="8.75"/>
          <circle class="cls-6" cx="589.18" cy="56.38" r="2.2"/>
          <circle class="cls-8" cx="589.18" cy="63.38" r="1.62"/>
          <circle class="cls-8" cx="589.18" cy="69.18" r="1.49"/>
          <circle class="cls-6" cx="589.18" cy="46.82" r="3.39"/>
          <circle class="cls-6" cx="589.18" cy="32.41" r="5.67"/>
          <circle class="cls-2" cx="586.94" cy="31.14" r="2.62"/>
          <circle class="cls-2" cx="587.9" cy="45.92" r="1.35"/>
          <circle class="cls-2" cx="588.51" cy="55.85" r=".88"/>
          <circle class="cls-2" cx="588.6" cy="62.94" r=".66"/>
          <circle class="cls-2" cx="588.69" cy="68.72" r=".57"/>
          <g id="c">
            <path class="cls-6" d="M574.75,62.16c0,1.96-1.59,3.56-3.56,3.56-1.96,0-3.56-1.59-3.56-3.56s1.59-3.56,3.56-3.56c1.96,0,3.56,1.59,3.56,3.56Z"/>
            <path class="cls-2" d="M571.96,61.28c0,.94-.77,1.71-1.71,1.71-.94,0-1.71-.77-1.71-1.71h0c0-.94.77-1.71,1.71-1.71h0c.94,0,1.71.77,1.71,1.71Z"/>
          </g>
          <g id="c-2" data-name="c">
            <path class="cls-6" d="M555.51,67.41c0,1.96-1.59,3.56-3.56,3.56-1.96,0-3.56-1.59-3.56-3.56s1.59-3.56,3.56-3.56c1.96,0,3.56,1.59,3.56,3.56Z"/>
            <path class="cls-2" d="M552.72,66.53c0,.94-.77,1.71-1.71,1.71-.94,0-1.71-.77-1.71-1.71h0c0-.94.77-1.71,1.71-1.71h0c.94,0,1.71.77,1.71,1.71Z"/>
          </g>
          <g id="d">
            <path class="cls-6" d="M565.33,64.4c0,1.96-1.59,3.56-3.56,3.56s-3.56-1.59-3.56-3.56c0-1.96,1.59-3.56,3.56-3.56,1.96,0,3.56,1.59,3.56,3.56h0Z"/>
            <path class="cls-2" d="M562.54,63.52c0,.94-.77,1.71-1.71,1.71-.94,0-1.71-.77-1.71-1.71h0c0-.94.77-1.71,1.71-1.71h0c.94,0,1.71.77,1.71,1.71Z"/>
          </g>
          <g id="c-3" data-name="c">
            <path class="cls-6" d="M538.28,63.84c0,1.96-1.59,3.56-3.56,3.56-1.96,0-3.56-1.59-3.56-3.56s1.59-3.56,3.56-3.56c1.96,0,3.56,1.59,3.56,3.56Z"/>
            <path class="cls-2" d="M535.49,62.96c0,.94-.77,1.71-1.71,1.71-.94,0-1.71-.77-1.71-1.71h0c0-.94.77-1.71,1.71-1.71h0c.94,0,1.71.77,1.71,1.71Z"/>
          </g>
          <g id="c-4" data-name="c">
            <path class="cls-6" d="M555.47,44.09c0,1.96-1.59,3.56-3.56,3.56-1.96,0-3.56-1.59-3.56-3.56s1.59-3.56,3.56-3.56c1.96,0,3.56,1.59,3.56,3.56Z"/>
            <path class="cls-2" d="M552.68,43.21c0,.94-.77,1.71-1.71,1.71-.94,0-1.71-.77-1.71-1.71h0c0-.94.77-1.71,1.71-1.71h0c.94,0,1.71.77,1.71,1.71Z"/>
          </g>
          <g id="d-2" data-name="d">
            <path class="cls-6" d="M539.9,50.3c0,1.96-1.59,3.56-3.56,3.56s-3.56-1.59-3.56-3.56c0-1.96,1.59-3.56,3.56-3.56,1.96,0,3.56,1.59,3.56,3.56h0Z"/>
            <path class="cls-2" d="M537.11,49.42c0,.94-.77,1.71-1.71,1.71-.94,0-1.71-.77-1.71-1.71h0c0-.94.77-1.71,1.71-1.71h0c.94,0,1.71.77,1.71,1.71Z"/>
          </g>
          <g id="d-3" data-name="d">
            <path class="cls-6" d="M547.09,75.62c0,1.96-1.59,3.56-3.56,3.56s-3.56-1.59-3.56-3.56c0-1.96,1.59-3.56,3.56-3.56,1.96,0,3.56,1.59,3.56,3.56h0Z"/>
            <path class="cls-2" d="M544.3,74.74c0,.94-.77,1.71-1.71,1.71-.94,0-1.71-.77-1.71-1.71h0c0-.94.77-1.71,1.71-1.71h0c.94,0,1.71.77,1.71,1.71Z"/>
          </g>
          <g>
            <g id="e">
              <path class="cls-6" d="M610.73,62.16c0,1.96-1.59,3.56-3.56,3.56-1.96,0-3.56-1.59-3.56-3.56s1.59-3.56,3.56-3.56c1.96,0,3.56,1.59,3.56,3.56Z"/>
              <path class="cls-2" d="M607.94,61.28c0,.94-.77,1.71-1.71,1.71-.94,0-1.71-.77-1.71-1.71h0c0-.94.77-1.71,1.71-1.71h0c.94,0,1.71.77,1.71,1.71Z"/>
            </g>
            <g id="e-2" data-name="e">
              <path class="cls-6" d="M629.96,67.41c0,1.96-1.59,3.56-3.56,3.56-1.96,0-3.56-1.59-3.56-3.56s1.59-3.56,3.56-3.56c1.96,0,3.56,1.59,3.56,3.56Z"/>
              <path class="cls-2" d="M627.18,66.53c0,.94-.77,1.71-1.71,1.71-.94,0-1.71-.77-1.71-1.71h0c0-.94.77-1.71,1.71-1.71h0c.94,0,1.71.77,1.71,1.71Z"/>
            </g>
            <g id="f">
              <path class="cls-6" d="M620.15,64.4c0,1.96-1.59,3.56-3.56,3.56-1.96,0-3.56-1.59-3.56-3.56,0-1.96,1.59-3.56,3.56-3.56,1.96,0,3.56,1.59,3.56,3.56Z"/>
              <path class="cls-2" d="M617.36,63.52c0,.94-.77,1.71-1.71,1.71-.94,0-1.71-.77-1.71-1.71h0c0-.94.77-1.71,1.71-1.71h0c.94,0,1.71.77,1.71,1.71Z"/>
            </g>
            <g id="e-3" data-name="e">
              <path class="cls-6" d="M647.19,63.84c0,1.96-1.59,3.56-3.56,3.56-1.96,0-3.56-1.59-3.56-3.56s1.59-3.56,3.56-3.56c1.96,0,3.56,1.59,3.56,3.56Z"/>
              <path class="cls-2" d="M644.41,62.96c0,.94-.77,1.71-1.71,1.71-.94,0-1.71-.77-1.71-1.71h0c0-.94.77-1.71,1.71-1.71h0c.94,0,1.71.77,1.71,1.71Z"/>
            </g>
            <g id="e-4" data-name="e">
              <path class="cls-6" d="M630.01,44.09c0,1.96-1.59,3.56-3.56,3.56-1.96,0-3.56-1.59-3.56-3.56s1.59-3.56,3.56-3.56c1.96,0,3.56,1.59,3.56,3.56Z"/>
              <path class="cls-2" d="M627.22,43.21c0,.94-.77,1.71-1.71,1.71-.94,0-1.71-.77-1.71-1.71h0c0-.94.77-1.71,1.71-1.71h0c.94,0,1.71.77,1.71,1.71Z"/>
            </g>
            <g id="f-2" data-name="f">
              <path class="cls-6" d="M645.58,50.3c0,1.96-1.59,3.56-3.56,3.56-1.96,0-3.56-1.59-3.56-3.56,0-1.96,1.59-3.56,3.56-3.56,1.96,0,3.56,1.59,3.56,3.56Z"/>
              <path class="cls-2" d="M642.79,49.42c0,.94-.77,1.71-1.71,1.71-.94,0-1.71-.77-1.71-1.71h0c0-.94.77-1.71,1.71-1.71h0c.94,0,1.71.77,1.71,1.71Z"/>
            </g>
            <g id="f-3" data-name="f">
              <path class="cls-6" d="M638.39,75.62c0,1.96-1.59,3.56-3.56,3.56-1.96,0-3.56-1.59-3.56-3.56,0-1.96,1.59-3.56,3.56-3.56,1.96,0,3.56,1.59,3.56,3.56Z"/>
              <path class="cls-2" d="M635.6,74.74c0,.94-.77,1.71-1.71,1.71-.94,0-1.71-.77-1.71-1.71h0c0-.94.77-1.71,1.71-1.71h0c.94,0,1.71.77,1.71,1.71Z"/>
            </g>
          </g>
        </g>
      </g>
      <g>
        <path class="cls-1" d="M9.72,248.66c3.64,2.05,7.51,3,11.61,2.86,5.48-.07,9.9-1.87,13.27-5.41,3.36-3.54,5.67-6.91,6.92-10.1,1.8-4.51,2.46-8.71,1.98-12.59,0-.35-.04-.66-.1-.94-.49-2.5-1.63-4.58-3.43-6.25-2.01-1.46-4.06-2.15-6.14-2.08-2.15.07-3.57-.42-4.27-1.46l8.12-9.58c1.53,3.26,3.85,6,6.97,8.22,3.05,2.22,5.83,3.5,8.33,3.85h1.51c.18.05.37.08.57.1,1.73-.07,3.29-.71,4.68-1.93,1.39-1.21,2.67-2.55,3.85-4.01l1.56-1.87c2.57,6.66,5.52,9.99,8.85,9.99h.31c4.3,0,7.22-2.67,8.74-8.01l1.35,1.98c1.04,1.53,2.22,2.6,3.54,3.23.25.12.54.23.87.31.26.14.56.21.9.21.18,0,.35-.01.53-.02.23.01.47.02.72.02.4,0,.76-.1,1.09-.3,3.14-.79,6.35-3.15,9.63-7.09l.73-.83c2.43,4.72,5.52,7.36,9.26,7.91.14.02.28.04.42.06.03.01.06.04.1.05.83.21,1.74.31,2.71.31,2.43,0,4.75-.9,6.97-2.71.48-.55.94-1.14,1.35-1.77.21-.28.42-.62.62-1.04.55.97,1.21,1.81,1.98,2.5l.21.31c.07.07.14.14.21.21.07.07.55.47,1.46,1.2.9.73,2.25,1.13,4.06,1.2h4.89c7.22,0,12.54-1.27,15.98-3.8,3.43-2.53,5.41-5.15,5.93-7.86.52-2.71.78-4.89.78-6.56,0-1.8-.21-3.57-.62-5.31-.76-3.19-1.6-5.41-2.5-6.66-2.98-4.44-6.14-6.66-9.47-6.66-2.91,0-5.31,1.09-7.18,3.28-1.87,2.19-2.81,4.88-2.81,8.07,0,5.34,1.7,8.92,5.1,10.72,1.11.56,2.25.83,3.43.83.55,0,1.07-.03,1.56-.1,3.54-.69,5.97-2.67,7.29-5.93.97,1.25,1.49,2.67,1.56,4.27,0,.97-.24,1.74-.73,2.29-3.12,3.89-9.65,5.83-19.57,5.83h-3.33c-.83,0-1.84-.28-3.02-.83-1.6-.76-2.6-2.67-3.02-5.72v-5.62c-.07-3.75-.12-8.01-.16-12.8-.04-4.79-.09-9.02-.16-12.7-.07-3.68-.1-5.65-.1-5.93v-8.01c0-.9-.14-1.8-.42-2.71-.42-2.01-1.56-3.47-3.43-4.37-.28-.21-.56-.31-.83-.31-.14,0-.24.04-.31.1-.35.07-.62.28-.83.62l-.31.31c-.56.69-1.08,1.48-1.56,2.34-.49.87-.73,1.79-.73,2.76,0,.56.19,1.11.57,1.67.38.56.78,1.08,1.2,1.56.28.35.52.66.73.94.07.07.1.14.1.21,1.04,1.32,1.6,2.85,1.67,4.58,0,.07.02,2.01.05,5.83.03,3.82.07,8.15.1,13.01.03,4.86.05,9.2.05,13.01v5.62c-.14,1.04-.35,1.91-.62,2.6-.14.42-.31.76-.52,1.04-.14.28-.28.52-.42.73-.83,1.04-1.86,1.63-3.07,1.77-.76.09-1.51.16-2.25.21-.55-.11-1.31-.32-2.28-.63-4.09-1.18-6.73-4.54-7.91-10.1-.28-.9-.69-1.35-1.25-1.35-.69,0-1.32.66-1.87,1.98-1.04,2.91-2.57,5.34-4.58,7.29-1.88,1.82-4.2,2.77-6.93,2.89-1.24-.11-2.36-.78-3.37-2.01-1.11-1.35-2.22-2.98-3.33-4.89-1.11-1.91-2.27-3.57-3.49-5-1.21-1.42-2.65-2.13-4.32-2.13-2.29,0-5.59,2.22-9.89,6.66-1.87,2.15-3.64,3.9-5.31,5.26-1.57,1.27-3.23,2-4.98,2.2-.04-.02-.08-.05-.12-.07l-2.08-.62c-1.46-.42-3.16-1.42-5.1-3.02-2.01-1.6-3.92-4.06-5.72-7.39-.62-1.04-1.56-1.53-2.81-1.46l-3.54,2.91c-2.36,1.94-4.89,4.48-7.6,7.6-2.71,3.12-4.72,6.56-6.04,10.3-.14.76-.17,1.49-.1,2.19.21,2.22,1.6,3.68,4.16,4.37,1.53,0,3.36.1,5.52.31,1.67.21,3.23.97,4.68,2.29,1.04.9,1.77,2.32,2.19,4.27.35,2.08-.49,4.48-2.5,7.18-2.01,2.71-4.51,4.82-7.49,6.35-3.75,1.94-7.6,2.6-11.55,1.98-7.15-1.18-11.62-4.93-13.43-11.24-.76-2.43-.83-4.84-.21-7.23.62-2.39,1.73-4.91,3.33-7.55.21-.49.55-1.14,1.04-1.98.21-.49.35-.83.42-1.04.28-.42.35-.73.21-.94-.14-.21-.45-.1-.94.31-.83.76-1.89,2.12-3.17,4.06-1.28,1.94-2.41,4.37-3.38,7.29-1.25,4.93-1.02,9.33.68,13.22,1.7,3.89,4.37,6.85,8.01,8.9ZM146.33,193.54h-.31c-1.18-.21-2.12-.76-2.81-1.67-1.04-1.18-1.56-2.12-1.56-2.81,0-.42.17-.8.52-1.14.76-.69,1.67-1.04,2.71-1.04,2.36,0,4.48,1.7,6.35,5.1-1.74,1.04-3.37,1.56-4.89,1.56ZM70.66,201.97c.42-.28,1-.42,1.77-.42.48,0,1.04.07,1.67.21,1.6.42,2.76,1.06,3.49,1.93.73.87,1.09,1.89,1.09,3.07,0,2.08-.87,3.12-2.6,3.12s-3.16-.59-4.27-1.77c-1.11-1.53-1.67-3.02-1.67-4.48,0-.69.17-1.25.52-1.67Z"/>
        <path class="cls-1" d="M18.73,260.26c0-1.25-.45-2.31-1.35-3.17-.9-.87-1.98-1.3-3.23-1.3-1.18,0-2.24.43-3.17,1.3-.94.87-1.4,1.93-1.4,3.17,0,1.32.45,2.41,1.35,3.28.9.87,1.98,1.3,3.23,1.3,1.32,0,2.41-.43,3.28-1.3.87-.87,1.3-1.96,1.3-3.28Z"/>
        <path class="cls-1" d="M28.67,263.54c.87-.87,1.3-1.96,1.3-3.28,0-1.25-.45-2.31-1.35-3.17-.9-.87-1.98-1.3-3.23-1.3-1.18,0-2.24.43-3.17,1.3-.94.87-1.4,1.93-1.4,3.17,0,1.32.45,2.41,1.35,3.28.9.87,1.98,1.3,3.23,1.3,1.32,0,2.41-.43,3.28-1.3Z"/>
        <path class="cls-1" d="M107.41,218.52c-1.18,0-2.24.43-3.17,1.3-.94.87-1.41,1.93-1.41,3.17,0,1.32.45,2.41,1.35,3.28.9.87,1.98,1.3,3.23,1.3,1.32,0,2.41-.43,3.28-1.3.87-.87,1.3-1.96,1.3-3.28,0-1.25-.45-2.31-1.35-3.17-.9-.87-1.98-1.3-3.23-1.3Z"/>
        <path class="cls-1" d="M92.99,219.83c-.94.87-1.41,1.93-1.41,3.17,0,1.32.45,2.41,1.35,3.28.9.87,1.98,1.3,3.23,1.3,1.32,0,2.41-.43,3.28-1.3.87-.87,1.3-1.96,1.3-3.28,0-1.25-.45-2.31-1.35-3.17-.9-.87-1.98-1.3-3.23-1.3-1.18,0-2.24.43-3.17,1.3Z"/>
        <path class="cls-1" d="M141.34,170.85c1.32,0,2.41-.43,3.28-1.3.87-.87,1.3-1.96,1.3-3.28,0-1.25-.45-2.31-1.35-3.17-.9-.87-1.98-1.3-3.23-1.3-1.18,0-2.24.43-3.17,1.3-.94.87-1.41,1.93-1.41,3.17,0,1.32.45,2.41,1.35,3.28.9.87,1.98,1.3,3.23,1.3Z"/>
        <path class="cls-1" d="M152.58,170.85c1.32,0,2.41-.43,3.28-1.3s1.3-1.96,1.3-3.28c0-1.25-.45-2.31-1.35-3.17-.9-.87-1.98-1.3-3.23-1.3-1.18,0-2.24.43-3.17,1.3-.94.87-1.41,1.93-1.41,3.17,0,1.32.45,2.41,1.35,3.28.9.87,1.98,1.3,3.23,1.3Z"/>
        <path class="cls-1" d="M173.08,210.41c3.12,3.05,7.42,4.65,12.91,4.79,6.45,0,13.08-3.43,19.88-10.3,2.5,6.8,6.52,10.2,12.07,10.2,4.16-.28,6.94-2.5,8.33-6.66.55-1.8.83-3.64.83-5.52l-.1-2.39c-.21-5.48-2.19-10.89-5.93-16.24,2.64-3.47,3.96-8.74,3.96-15.82,0-4.37-.56-7.91-1.67-10.62-1.67-3.89-3.99-6.14-6.97-6.77-.62,0-1.21.35-1.77,1.04-1.25,2.22-1.87,4.51-1.87,6.87,0,.76.42,1.56,1.25,2.39.9.56,1.98,1.14,3.23,1.77,1.39.49,2.22,1.25,2.5,2.29.55,2.01.83,3.54.83,4.58,0,1.11-.17,2.29-.52,3.54-.83,2.64-1.63,4.62-2.39,5.93l-.31.73-.52-.83c-2.22-2.64-4.15-4.77-5.78-6.4-1.63-1.63-3.56-3.21-5.78-4.74-4.93-3.4-9.85-5.1-14.78-5.1-2.36,0-4.34.66-5.93,1.98-1.39,1.11-2.53,2.43-3.43,3.96-.49.69-.94,1.7-1.35,3.02-.42,1.32-.62,2.67-.62,4.06,0,3.4,1.25,5.69,3.75,6.87.76.35,1.49.52,2.19.52,1.18,0,2.12-.48,2.81-1.46.69-.97,1.04-2.05,1.04-3.23,0-.97-.21-1.7-.62-2.19-2.01.83-3.4,1.25-4.16,1.25-.28,0-.52-.03-.73-.1-.62-.21-1.08-.55-1.35-1.04-.14-.28-.21-.55-.21-.83,0-.42.17-.97.52-1.67.55-1.18,1.25-2.12,2.08-2.81.83-.69,2.12-1.07,3.85-1.14,3.82,0,7.74.9,11.76,2.71,3.54,1.53,6.66,3.33,9.37,5.41,3.05,2.29,5.03,4.16,5.93,5.62l-.83,1.46c-2.91,5.76-7.15,10.96-12.7,15.61-5.55,4.65-11.07,7.11-16.55,7.39h-.94c-.56,0-1.6-.07-3.12-.21h-.73c-5.62-.55-9.54-3.19-11.76-7.91l-.31-.21c-.14,0-.21.1-.21.31.07,3.54,1.7,6.84,4.89,9.89ZM219.09,188.24c.76,1.32,1.46,3.02,2.08,5.1.62,2.15.94,4.2.94,6.14,0,2.5-.76,4.34-2.29,5.52-1.6,1.11-3.82,1.67-6.66,1.67-2.78-.28-4.44-1.63-5-4.06,4.23-4.09,7.87-8.88,10.93-14.36Z"/>
        <path class="cls-1" d="M223.46,229.14c-.9,0-1.81-.21-2.71-.62-.69-.28-1.25-.69-1.67-1.25-.21-.35-.33-.66-.36-.94-.04-.28-.05-.45-.05-.52,0-.35.07-.66.21-.94.42-.62.97-1.08,1.67-1.35.62-.28,1.25-.42,1.87-.42.9,0,1.77.28,2.6.83.14.14.35.21.62.21.21,0,.45-.14.73-.42.35-.49.55-.97.62-1.46-.07-1.53-.69-2.53-1.87-3.02-.56-.14-1.18-.24-1.87-.31h-.42c-1.11,0-2.15.31-3.12.94-1.46,1.25-2.43,2.81-2.91,4.68-.28.9-.42,1.84-.42,2.81v.31c0,1.39.48,2.64,1.46,3.75.14.14.31.28.52.42l.31.31c-.83.76-1.46,1.67-1.87,2.71-.21.42-.36.85-.47,1.3-.1.45-.19.85-.26,1.2-.07.35-.1.55-.1.62v.1h.21c0-.07.03-.1.1-.1.14-.14.24-.35.31-.62.35-.35.66-.66.94-.94.48-.62,1.11-1.14,1.87-1.56.48-.21.97-.45,1.46-.73.48-.14,1-.31,1.56-.52.9-.14,1.84-.21,2.81-.21.28-.07.48-.1.62-.1.62,0,1.21.07,1.77.21.35.07.62.21.83.42l.83.21c.28.07.55.1.83.1.69,0,1.14-.42,1.35-1.25.21-.56.31-1.21.31-1.98v-.62c-.14-.9-.66-1.49-1.56-1.77-.35-.07-.66-.1-.94-.1-.35,0-.69.03-1.04.1-1.39.35-2.81.52-4.27.52h-.52Z"/>
        <path class="cls-1" d="M237.62,159.61c1.04,1.32,1.6,2.88,1.67,4.68l.21,28.1-.1,10.2c-.07,1.46-.35,3.05-.83,4.79-.49,1.39-.73,2.29-.73,2.71,0,.49.1.94.31,1.35.9,2.15,2.53,3.4,4.89,3.75.55,0,1-.17,1.35-.52,1.32-.83,2.32-2.53,3.02-5.1l.1-.83c-.07-.83-.36-1.61-.89-2.34-.52-.73-.99-1.51-1.4-2.34-.69-1.25-1.13-2.45-1.3-3.59-.17-1.14-.26-4.28-.26-9.42l-.21-34.56c0-3.47-1.28-5.86-3.85-7.18-.28-.14-.56-.21-.83-.21-.49,0-.9.21-1.25.62l-.21.42c-1.53,1.87-2.29,3.57-2.29,5.1,0,.83.59,1.91,1.77,3.23l.83,1.14Z"/>
        <path class="cls-1" d="M295.69,236.43c6.38-.49,11.24-2.74,14.57-6.77,2.01-2.01,3.33-4.32,3.96-6.92.62-2.6.85-4.94.68-7.03-.17-2.08-.43-3.61-.78-4.58,0-.07.03-.07.1,0,1.73,2.64,4.16,3.99,7.29,4.06,4.23,0,7.42-2.6,9.58-7.81,1.67,5.2,5.34,7.81,11.03,7.81,2.36-.14,4.35-1.16,5.98-3.07,1.63-1.91,2.48-3.07,2.55-3.49,3.33,3.75,6.42,5.9,9.26,6.45.33.07,1.19.1,2.58.1.51.07,1.03.1,1.59.1,2.43,0,4.75-.9,6.97-2.71.48-.55.94-1.14,1.35-1.77.21-.28.42-.62.62-1.04.55.97,1.21,1.81,1.98,2.5l.21.31c.07.07.14.14.21.21.07.07.55.47,1.46,1.2.9.73,2.25,1.13,4.06,1.2h15.09c4.58-.14,7.63-.35,9.16-.62,2.15-.28,4.13-.42,5.93-.42s3.35.19,4.42.57c1.07.38,2.48.78,4.22,1.2l1.35.21c.9,0,1.84-.73,2.81-2.19,1.25-2.08,1.87-4.23,1.87-6.45,0-.42-.1-.87-.31-1.35-.35-.69-.9-1.16-1.67-1.41-.76-.24-1.63-.43-2.6-.57-1.18-.21-2.46-.54-3.85-.99-1.39-.45-2.95-1.34-4.68-2.65l-3.14-2.93c.2.06.41.1.64.12,1.73-.07,3.29-.71,4.68-1.93,1.39-1.21,2.67-2.55,3.85-4.01l1.56-1.87c2.57,6.66,5.52,9.99,8.85,9.99h.31c4.3,0,7.22-2.67,8.74-8.01l1.35,1.98c1.04,1.53,2.22,2.6,3.54,3.23.63.32,1.53.49,2.68.51.04,0,.09,0,.13,0,.01,0,.02,0,.03,0,.06,0,.11,0,.17,0,.52,0,.98-.17,1.38-.51.35-.16.73-.35,1.17-.59,1.35-.73,2.58-2.15,3.7-4.27,1.11-2.12,1.75-3.78,1.93-5,.17-1.21.33-3.1.47-5.67v-5.31c-.07-3.54-.14-7.6-.21-12.18-.07-4.58-.14-8.6-.21-12.07-.07-3.47-.1-5.34-.1-5.62v-8.12c0-.9-.1-1.8-.31-2.71-.56-1.94-1.74-3.4-3.54-4.37-.35-.14-.62-.21-.83-.21h-.31c-.35.07-.62.28-.83.62-.07.14-.17.28-.31.42-.56.62-1.08,1.39-1.56,2.29-.49.9-.73,1.84-.73,2.81,0,.49.19,1.01.57,1.56.38.56.78,1.11,1.2,1.67.28.35.52.66.73.94l.1.1c1.04,1.32,1.6,2.88,1.67,4.68l.1,5.72v13.01c0,4.86.03,9.2.1,13.01v5.93c-.07.83-.19,1.81-.36,2.91-.17,1.11-.69,1.94-1.56,2.5-.87.56-1.68.83-2.45.83h-.42c-1.39,0-2.64-.68-3.75-2.03-1.11-1.35-2.22-2.98-3.33-4.89-1.11-1.91-2.27-3.57-3.49-5-1.21-1.42-2.65-2.13-4.32-2.13-2.29,0-5.59,2.22-9.89,6.66-1.87,2.15-3.64,3.9-5.31,5.26-1.6,1.3-3.3,2.03-5.09,2.21-.33-.12-.68-.18-1.05-.18h-7.91c-.42,0-1.81-1.14-4.16-3.43-.62-.48-1.16-.78-1.61-.88-.45-.1-1.02-.16-1.72-.16s-1.46.28-2.29.83c-2.22,2.29-3.64,5.03-4.27,8.22v.21c0,.62.48,1.08,1.46,1.35.97.28,2.2.47,3.7.57,1.49.1,3.31.5,5.46,1.2,2.77.76,6.66,4.03,11.66,9.78h-25.92c-.12,0-.24,0-.35.02-.09,0-.18-.02-.27-.02h-1.77c-.83,0-1.84-.28-3.02-.83-1.6-.76-2.6-2.67-3.02-5.72v-5.62c-.07-3.75-.12-8.01-.16-12.8-.04-4.79-.09-9.02-.16-12.7-.07-3.68-.1-5.65-.1-5.93v-8.01c0-.9-.14-1.8-.42-2.71-.42-2.01-1.56-3.47-3.43-4.37-.28-.21-.56-.31-.83-.31-.14,0-.24.04-.31.1-.35.07-.62.28-.83.62l-.31.31c-.56.69-1.08,1.48-1.56,2.34-.49.87-.73,1.79-.73,2.76,0,.56.19,1.11.57,1.67.38.56.78,1.08,1.2,1.56.28.35.52.66.73.94.07.07.1.14.1.21,1.04,1.32,1.6,2.85,1.67,4.58,0,.07.02,2.01.05,5.83.03,3.82.07,8.15.1,13.01.03,4.86.05,9.2.05,13.01v5.62c-.14,1.04-.35,1.91-.62,2.6-.14.42-.31.76-.52,1.04-.14.28-.28.52-.42.73-.83,1.04-1.86,1.63-3.07,1.77-1.2.14-2.37.24-3.53.31-4.21-.23-7.53-2.93-9.94-8.11-.28-.97-.45-1.67-.52-2.08l-.1-.21c-.56-4.37-1.42-7.35-2.6-8.95-.83-1.11-1.74-1.77-2.71-1.98-.56-.14-1.35.12-2.39.78-1.04.66-1.77,1.65-2.19,2.97-.35.9-.52,1.67-.52,2.29.07.76.14,1.28.21,1.56l.21.31c.35.76.9,1.49,1.67,2.19l.62.42c.69.35,1.49.97,2.39,1.87,1.11.97,1.53,2.43,1.25,4.37-1.11,3.68-3.26,5.52-6.45,5.52-2.91-.14-4.89-1.04-5.93-2.71-.97-1.67-1.7-3.29-2.19-4.89-.42-1.67-1.18-2.57-2.29-2.71-.49,0-.83.14-1.04.42-.07.21-.38,1.11-.94,2.71-.56,1.53-1.46,3.05-2.71,4.58-1.25,1.46-2.91,2.26-5,2.39-2.15-.14-4.1-1.01-5.83-2.6-.76-.69-1.63-1.91-2.6-3.64-.9-1.67-1.67-2.71-2.29-3.12-.49-.28-.87-.48-1.14-.62-.28-.07-.49-.1-.62-.1-.62,0-1.25.42-1.87,1.25-1.25,1.6-1.87,3.3-1.87,5.1,0,.76.03,1.21.1,1.35.14.83.76,1.67,1.87,2.5.21.21.52.42.94.62.83.35,1.7,1.21,2.6,2.6.21.35.38.66.52.94.83,2.5.55,5.2-.83,8.12-1.74,3.26-4.37,5.72-7.91,7.39-3.54,1.67-7.22,2.25-11.03,1.77-6.94-.97-11.41-4.72-13.43-11.24-.76-2.71-.8-5.31-.1-7.81.69-2.43,1.77-4.79,3.23-7.08,1.25-2.15,1.77-3.43,1.56-3.85-.07-.21-.35-.1-.83.31h-.1c-3.19,2.5-5.34,6.28-6.45,11.35-1.67,7.84-.31,13.98,4.06,18.42,4.44,4.51,9.85,6.66,16.24,6.45ZM425.8,184.38c.42-.28,1-.42,1.77-.42.48,0,1.04.07,1.67.21,1.6.42,2.76,1.06,3.49,1.93.73.87,1.09,1.89,1.09,3.07,0,2.08-.87,3.12-2.6,3.12s-3.16-.59-4.27-1.77c-1.11-1.53-1.67-3.02-1.67-4.48,0-.69.17-1.25.52-1.67Z"/>
        <path class="cls-1" d="M406.7,220.35c-.94.87-1.41,1.93-1.41,3.17,0,1.32.45,2.41,1.35,3.28.9.87,1.98,1.3,3.23,1.3,1.32,0,2.41-.43,3.28-1.3.87-.87,1.3-1.96,1.3-3.28,0-1.25-.45-2.31-1.35-3.17-.9-.87-1.98-1.3-3.23-1.3-1.18,0-2.24.43-3.17,1.3Z"/>
        <path class="cls-1" d="M463.58,159.61c1.04,1.32,1.6,2.88,1.67,4.68l.21,28.1-.1,10.2c-.07,1.46-.35,3.05-.83,4.79-.49,1.39-.73,2.29-.73,2.71,0,.49.1.94.31,1.35.9,2.15,2.53,3.4,4.89,3.75.55,0,1-.17,1.35-.52,1.32-.83,2.32-2.53,3.02-5.1l.1-.83c-.07-.83-.36-1.61-.89-2.34-.52-.73-.99-1.51-1.4-2.34-.69-1.25-1.13-2.45-1.3-3.59-.17-1.14-.26-4.28-.26-9.42l-.21-34.56c0-3.47-1.28-5.86-3.85-7.18-.28-.14-.56-.21-.83-.21-.49,0-.9.21-1.25.62l-.21.42c-1.53,1.87-2.29,3.57-2.29,5.1,0,.83.59,1.91,1.77,3.23l.83,1.14Z"/>
        <path class="cls-1" d="M20.29,299.47c1.32,0,2.41-.43,3.28-1.3s1.3-1.96,1.3-3.28c0-1.25-.45-2.31-1.35-3.17-.9-.87-1.98-1.3-3.23-1.3-1.18,0-2.24.43-3.17,1.3-.94.87-1.41,1.93-1.41,3.17,0,1.32.45,2.41,1.35,3.28.9.87,1.98,1.3,3.23,1.3Z"/>
        <path class="cls-1" d="M39.96,290.52c-.42-.76-1.11-1.56-2.08-2.39-.97-.83-2.08-.97-3.33-.42-2.08.9-3.19,2.29-3.33,4.16v1.04c.14,1.94,1.04,3.4,2.71,4.37,1.04.69,1.87,1.46,2.5,2.29,1.6,2.91,1.56,6.07-.1,9.47-1.67,3.19-4.32,5.65-7.96,7.39-3.64,1.73-7.3,2.32-10.98,1.77-7.15-1.18-11.62-4.93-13.43-11.24-.76-2.5-.83-4.93-.21-7.29.62-2.36,1.73-4.89,3.33-7.6.21-.42.55-1.07,1.04-1.98.21-.42.35-.73.42-.94.28-.48.35-.82.21-.99-.14-.17-.45-.05-.94.36-.83.69-1.89,2.03-3.17,4.01-1.28,1.98-2.41,4.42-3.38,7.34-1.25,4.93-1.02,9.33.68,13.22,1.7,3.89,4.37,6.85,8.01,8.9,3.64,2.05,7.51,2.97,11.61,2.76,6.04-.28,10.79-2.38,14.26-6.3,3.47-3.92,5.52-8.59,6.14-14,.21-1.94.17-4.28-.1-7.03-.28-2.74-.9-5.05-1.87-6.92Z"/>
        <path class="cls-1" d="M51.82,294.27c-.49,1.39-.73,2.29-.73,2.71,0,.49.1.94.31,1.35.9,2.15,2.53,3.4,4.89,3.75.55,0,1-.17,1.35-.52,1.32-.83,2.32-2.53,3.02-5.1l.1-.83c-.07-.83-.36-1.61-.89-2.34-.52-.73-.99-1.51-1.4-2.34-.69-1.25-1.13-2.45-1.3-3.59-.17-1.14-.26-4.28-.26-9.42l-.21-34.56c0-3.47-1.28-5.86-3.85-7.18-.28-.14-.56-.21-.83-.21-.49,0-.9.21-1.25.62l-.21.42c-1.53,1.87-2.29,3.57-2.29,5.1,0,.83.59,1.91,1.77,3.23l.83,1.14c1.04,1.32,1.6,2.88,1.67,4.68l.21,28.1-.1,10.2c-.07,1.46-.35,3.05-.83,4.79Z"/>
        <path class="cls-1" d="M462.85,264.71c1.32,0,2.41-.43,3.28-1.3s1.3-1.96,1.3-3.28c0-1.25-.45-2.31-1.35-3.17-.9-.87-1.98-1.3-3.23-1.3-1.18,0-2.24.43-3.17,1.3-.94.87-1.41,1.93-1.41,3.17,0,1.32.45,2.41,1.35,3.28.9.87,1.98,1.3,3.23,1.3Z"/>
        <path class="cls-1" d="M471.91,272.41c-1.04-1.39-2.26-2.08-3.64-2.08h-.62c-.42.07-.9.45-1.46,1.14-1.32,1.53-1.98,3.05-1.98,4.58,0,2.08.9,3.71,2.71,4.89.69.35,1.46.97,2.29,1.87.97.83,1.46,1.87,1.46,3.12,0,.42-.07.83-.21,1.25-.9,2.91-2.53,4.58-4.89,5-1.18.28-3.19.42-6.04.42-.4-.03-.74-.04-1.01-.03-.32-.12-.65-.18-1.02-.18-.94,0-2.1-.48-3.49-1.46-1.39-.97-2.64-2.29-3.75-3.96l-.31-.31-.21-.31c-2.43-3.89-5.59-7.46-9.47-10.72,1.32-4.09,1.98-8.57,1.98-13.43s-.83-8.78-2.5-11.55c-.97-1.46-2.08-2.19-3.33-2.19h-.62c-.49,0-1.01.31-1.56.94-1.39,1.67-2.08,3.43-2.08,5.31,0,.76.03,1.23.1,1.4.07.17.14.3.21.36.62,1.18,1.39,2.05,2.29,2.6.69.35,1.47.94,2.34,1.77.87.83,1.3,2.15,1.3,3.96,0,2.15-.59,4.89-1.77,8.22-4.44-2.91-9.3-4.37-14.57-4.37s-10.41,1.77-16.03,5.31c-4.3,2.78-7.89,6.07-10.77,9.89-2.88,3.82-4.46,6.66-4.74,8.54h-4.58c-.26,0-.5.04-.74.1h-14.15c-.25,0-.49.04-.72.1h-14.58c-.25,0-.49.04-.72.1h-14.58c-.25,0-.49.04-.72.1h-14.58c-.25,0-.49.04-.72.1h-14.58c-.25,0-.48.04-.72.1h-14.58c-.25,0-.49.04-.72.1h-14.58c-.25,0-.49.04-.72.1h-14.58c-.25,0-.49.04-.72.1h-14.58c-.25,0-.49.04-.72.1h-14.58c-.25,0-.49.04-.72.1h-14.58c-.25,0-.49.04-.72.1h-14.58c-.25,0-.49.04-.72.1h-14.58c-.25,0-.49.04-.72.1h-14.58c-.25,0-.49.04-.72.1h-14.58c-.25,0-.48.04-.72.1h-14.58c-.25,0-.49.04-.72.1h-14.58c-.25,0-.49.04-.72.1h-14.58c-.25,0-.49.04-.72.1h-14.58s-.07,0-.11,0c-.03,0-.07,0-.1,0l-5.1.1c-.49-.07-.88-.43-1.2-1.09-.31-.66-.57-1.39-.78-2.19-.21-.8-.42-1.51-.62-2.13-.83-2.01-2.05-3.8-3.64-5.36-1.6-1.56-3.64-2.34-6.14-2.34s-4.72,1.25-6.45,3.75c-1.53,2.15-2.46,4.75-2.81,7.81l-.1,1.35c0,2.36.66,4.41,1.98,6.14,1.18,1.25,2.48,1.99,3.9,2.24,1.42.24,2.69.36,3.8.36,1.94,0,4.16-.24,6.66-.73l1.04-.21h.1c0,.35.03.74.1,1.2.07.45.1.95.1,1.51,0,5.9-1.91,11.38-5.72,16.45-3.82,5.06-8.24,8.55-13.27,10.46-5.03,1.91-9.45,2.86-13.27,2.86-3.33,0-6.77-.49-10.3-1.46l-.21-.1-.1.1c-.14,0-.21.14-.21.42,0,.14.1.24.31.31,5.14,1.39,9.82,2.08,14.05,2.08,5.07,0,9.51-1.01,13.32-3.02,6.94-3.68,11.88-8.48,14.83-14.42,2.95-5.93,4.42-11.02,4.42-15.25v-1.14h5.41c.27,0,.52-.04.75-.1h14.03c.25,0,.49-.04.72-.1h14.58c.25,0,.49-.04.72-.1h14.58c.25,0,.49-.04.72-.1h14.58c.25,0,.48-.04.72-.1h14.58c.25,0,.49-.04.72-.1h14.58c.25,0,.49-.04.72-.1h14.58c.25,0,.49-.04.72-.1h14.58c.25,0,.49-.04.72-.1h14.58c.25,0,.49-.04.72-.1h14.58c.25,0,.49-.04.72-.1h14.58c.25,0,.49-.04.72-.1h14.58c.25,0,.49-.04.72-.1h14.58c.25,0,.49-.04.72-.1h14.58c.25,0,.48-.04.72-.1h14.58c.25,0,.49-.04.72-.1h14.58c.25,0,.49-.04.72-.1h14.58c.25,0,.49-.04.72-.1h14.58c.25,0,.49-.04.72-.1h14.58c.23,0,.46-.03.68-.09,3.5.07,20.47.13,50.94.2l3.43,1.14c1.87.83,3.4,1.25,4.58,1.25,2.22,0,3.92-2.43,5.1-7.29.97,1.46,1.99,2.57,3.07,3.33,1.07.76,1.77,1.18,2.08,1.25.31.07.64.1.99.1h.85c.11.05.23.08.35.1.8.14,2.15.16,4.06.05,1.91-.1,3.94-.61,6.09-1.51,2.98-1.94,5-4.82,6.04-8.64v-.21c.48-1.94.73-4.13.73-6.56-.14-2.22-.43-4.18-.88-5.88-.45-1.7-1.09-3.35-1.93-4.94ZM81.07,295.83c-.97.28-1.77.42-2.39.42s-1.25-.07-1.87-.21c-1.11-.35-2.03-.97-2.76-1.87-.73-.9-1.09-1.73-1.09-2.5,0-.97.62-1.73,1.87-2.29.9-.42,1.7-.62,2.39-.62,1.53,0,2.95.8,4.27,2.39.9,1.18,1.35,2.19,1.35,3.02s-.59,1.39-1.77,1.67ZM413.93,292.39l-1.67.21-14.78-.1c-.97,0-1.51-.07-1.61-.21-.1-.14-.16-.35-.16-.62,0-.83.45-1.98,1.35-3.43,1.8-3.12,5.1-6.04,9.89-8.74,4.16-2.29,8.47-3.78,12.91-4.48l1.56-.1,1.46.1c3.82.49,7.56,1.7,11.24,3.64-3.05,5.69-8.08,9.85-15.09,12.49-2.29.76-3.99,1.18-5.1,1.25ZM445.89,292.6h-20.09c5.34-2.57,9.4-6.49,12.18-11.76,2.5,1.6,4.53,3.31,6.09,5.15,1.56,1.84,2.34,3.56,2.34,5.15,0,.97-.17,1.46-.52,1.46Z"/>
        <path class="cls-1" d="M477.32,256.95c-.9-.87-1.98-1.3-3.23-1.3-1.18,0-2.24.43-3.17,1.3-.94.87-1.41,1.93-1.41,3.17,0,1.32.45,2.41,1.35,3.28.9.87,1.98,1.3,3.23,1.3,1.32,0,2.41-.43,3.28-1.3s1.3-1.96,1.3-3.28c0-1.25-.45-2.31-1.35-3.17Z"/>
      </g>
    </g>
  </g>
</svg>