<?xml version="1.0" encoding="UTF-8"?>
<svg id="Layer_2" data-name="Layer 2" xmlns="http://www.w3.org/2000/svg" viewBox="0 0 162.41 316.45">
  <defs>
    <style>
      .cls-1 {
        fill: #fff;
      }
    </style>
  </defs>
  <g id="Layer_1-2" data-name="Layer 1">
    <g>
      <g>
        <path class="cls-1" d="M123.79,54.49l-10.82.12-.27-11.02-10.66-.06-.04-10.73-10.75-.03.06-10.89h10.81s.14,10.64.14,10.64c3.62.01,6.87-.28,10.61-.03l.04,10.93,10.85.14.04,10.92Z"/>
        <path class="cls-1" d="M137.56,72.51c-.43,0-.35.24-.45.46-.13.29-.07.49.22.56.12.03.33-.39.3-.44.36.17.55.55.58.93-1.11-.38-.54.53-.4,2.59-.62-.11-.65-.76-.77-1.41l-1.66-8.55c1.35,1.71,1.92,3.87,2.17,5.86Z"/>
        <path class="cls-1" d="M27.32,74.69l-.04-1.34c.35-2.11.88-4.24,1.95-6.3.41,2.44-1.02,4.29-1.17,6.41l-.06.86c-.01.21-.52.39-.68.37Z"/>
        <path class="cls-1" d="M137.45,111.98l-.87,3.59c-.09.37-.41.52-.7.49.24-1.61.71-3.78,1.57-4.08Z"/>
        <path class="cls-1" d="M131.96,125.84c-.11.38-.39.57-.59.76-.91-.72-1.11-1.86-1.11-2.97.89,1.27.84,2.61,1.7,2.21Z"/>
        <path class="cls-1" d="M135.66,117.59c-.15,1.02-.32,2.35-1.4,2.72.25-.99.3-2.39,1.4-2.72Z"/>
        <path class="cls-1" d="M25.93,102.53c-1.29-.42-.46-1.85-.46-2.67.25-.08.56.05.55.36l-.09,2.31Z"/>
        <path class="cls-1" d="M139.66,89.94c-.98-.39-.84-1.95-.25-2.71.64.85.32,1.73.25,2.71Z"/>
        <path class="cls-1" d="M139.41,101.73c-.91-.87-.21-1.89-.04-2.64.63.84.54,1.87.04,2.64Z"/>
        <path class="cls-1" d="M133.83,122.04c-.23.92-.46,2.03-1.43,2.37.27-.89.42-2.1,1.43-2.37Z"/>
        <path class="cls-1" d="M25.71,89.11c-.71-.68-.53-1.57-.07-2.26.88.74.18,1.63.07,2.26Z"/>
        <path class="cls-1" d="M138.19,109.03c-.05.78,0,1.79-.74,2.27-.3-.74-.06-1.95.74-2.27Z"/>
        <path class="cls-1" d="M27.12,74.3c-.11.65-.15,1.52-.89,1.82.08-.37-.07-.72,0-1.02.15-.58.39-.85.88-.79Z"/>
        <path class="cls-1" d="M25.58,79.02c-.17.76-.16,1.67-.86,2.1.18-.68-.3-1.92.86-2.1Z"/>
        <path class="cls-1" d="M138.93,82.88c-.51.03-.7-.37-.66-.65l.12-1c.36,0,.54.18.6.39.11.45,0,.96-.05,1.27Z"/>
        <path class="cls-1" d="M26.37,82.44c-.36-.11-.32-.4-.37-.59-.1-.36-.01-.94.51-.89.11.28.31.54.27.88-.04.3-.33.43-.4.6Z"/>
        <path class="cls-1" d="M27.46,76.84c.01.64.18,1.48-.6,1.6l-.12-1c-.04-.3.2-.71.72-.6Z"/>
        <path class="cls-1" d="M26.28,104.76c-.26.02-.51-.09-.59-.34-.1-.3.02-.65.28-.84.54.11.33.75.31,1.19Z"/>
        <path class="cls-1" d="M26.44,106.91c-.04-.15-.38-.25-.39-.56,0-.2.18-.35.19-.55.36-.1.62.1.56.54-.03.21.04.47-.36.58Z"/>
        <path class="cls-1" d="M26.3,83.84c.12.43.2,1.04-.36,1.2l-.3-.61c-.14-.28.28-.64.66-.58Z"/>
        <path class="cls-1" d="M138.3,80.2c-.07-.15-.36-.25-.37-.54,0-.2.15-.4.26-.55.35-.07.54.16.49.55-.03.23,0,.47-.39.54Z"/>
        <path class="cls-1" d="M138.2,78.43c-.37.07-.71-.15-.66-.59.02-.18.12-.41.33-.55.31-.14.38.1.37.23l-.04.91Z"/>
        <path class="cls-1" d="M138.51,106.86c-.08-.17-.22-.35-.2-.53.03-.29.31-.4.38-.53.4.08.34.33.37.55.06.43-.19.63-.55.52Z"/>
        <path class="cls-1" d="M31.57,122.2c-.17-.03-.37-.07-.5-.16-.28-.19-.12-.61-.17-.81.28,0,.58.16.6.36l.07.61Z"/>
        <path class="cls-1" d="M30.07,118.48c-.17,0-.38-.06-.48-.15-.24-.21-.16-.53-.21-.74.28-.08.59.07.65.29.06.23.05.44.04.61Z"/>
        <path class="cls-1" d="M28.96,115.49c-.16.02-.39-.02-.5-.11-.27-.23-.08-.62-.13-.82.29,0,.55.17.57.36l.06.57Z"/>
        <path class="cls-1" d="M27.19,110.23c-.03-.1-.26-.26-.34-.32-.13-.11-.07-.44.25-.42.04.14.42.26.39.54,0,.1-.17.19-.31.21Z"/>
        <path class="cls-1" d="M138.55,107.54l.03.59c0,.14-.07.35-.34.21-.2-.08-.34-.34-.28-.49.09-.23.4-.33.59-.31Z"/>
        <path class="cls-1" d="M138.97,104.29c-.06-.11-.28-.27-.19-.45.06-.12.23-.22.29-.28.18,0,.28.1.34.22.11.26-.12.63-.43.51Z"/>
        <path class="cls-1" d="M26.52,79.95l-.06-.6c-.02-.2.19-.37.45-.22.12.14.23.35.16.49-.13.26-.36.32-.55.33Z"/>
        <path class="cls-1" d="M138.68,76.09c-.25.14-.31-.05-.33-.2l-.06-.57c.17-.06.58.04.68.26.07.15-.08.42-.3.5Z"/>
        <path class="cls-1" d="M27.44,76.1c-.45-.19-.4-.8.2-.66.12.15.26.35.22.5-.06.24-.29.27-.42.16Z"/>
        <path class="cls-1" d="M139.03,85.05c-.07-.11-.29-.27-.25-.46.02-.11.15-.23.19-.3.2-.07.35,0,.43.19.13.28-.05.56-.37.57Z"/>
        <path class="cls-1" d="M137.64,73.09s-.18.47-.3.44c-.29-.07-.35-.27-.22-.56.1-.22.02-.45.45-.46l.08.58Z"/>
        <path class="cls-1" d="M27.32,74.69c0,.21.2.59.33.75-.6-.15-.65.47-.2.66l.02.74c-.52-.11-.76.3-.72.6l.12,1,.05.69c-.26-.15-.47.02-.45.22l.06.6v1.02c-.53-.05-.62.53-.52.89.05.19,0,.48.37.59-.15.35-.18,1.01-.07,1.4-.38-.06-.8.3-.66.58l.3.61c.19.39-.01,1.4-.29,1.81-.46.68-.65,1.58.07,2.26-.66,3.58-.25,7.14-.25,10.75,0,.81-.83,2.25.46,2.67l.04,1.05c-.26.2-.38.54-.28.84.09.26.34.37.59.34l-.05,1.04c0,.2-.19.35-.19.55,0,.31.35.41.39.56l.66,2.57c-.32-.01-.38.32-.25.42.08.06.31.23.34.32l1.15,4.33c.05.2-.14.59.13.82.11.09.34.13.5.11l.42,2.1c.04.21-.03.53.21.74.11.09.31.15.48.15-.07.9.63,1.95.83,2.76.05.2-.11.62.17.81.14.09.33.13.5.16l1.7,3.69c.12.18.99-.2.9.03l-.4,1c3.87,7.42,8.64,13.98,14.25,20.23,6.34,6.56,13.25,12.06,20.5,17.62,5.09,3.91,9.68,7.8,14.04,12.63,4.42-5.07,9.08-8.68,13.94-12.64l14.29-11.61,4.09-3.76c6.56-6.88,12.26-14.45,16.48-22.81.2-.19.48-.38.59-.76l.43-1.44c.98-.34,1.2-1.45,1.43-2.37l.43-1.73c1.08-.37,1.25-1.7,1.4-2.72l.22-1.52c.29.04.61-.11.7-.49l.87-3.59c.04-.18.08-.5,0-.68.74-.48.69-1.49.74-2.27l.04-.69c.28.14.35-.07.34-.21l-.03-.59-.04-.68c.36.12.61-.08.55-.52-.03-.21.03-.47-.37-.55l.28-1.5c.31.12.55-.25.43-.51-.05-.12-.16-.22-.34-.22.11-.52.04-1.37.35-1.83.5-.77.6-1.8-.04-2.64.69-2.99.08-6.12.29-9.15.07-.98.39-1.87-.25-2.71-.39-.52-.23-1.6-.38-2.17.31-.01.49-.3.37-.57-.08-.18-.23-.26-.43-.19-.05-.44-.12-.96-.04-1.41.05-.3.16-.82.05-1.27-.05-.21-.23-.39-.6-.39.03-.27.04-.79-.08-1.03.38-.07.36-.32.39-.54.05-.38-.14-.62-.49-.55v-.68s.04-.91.04-.91c0-.13-.06-.37-.37-.23l-.05-.68c-.14-2.06-.71-2.97.4-2.59l.08,1.31.06.57c.01.14.07.34.33.2,4.47,14.13,8.46,28.56,7.69,43.79-.5,9.83-3.57,18.92-7.84,27.61,6.27,18.32,10.43,33.62-2.88,49.41-3.02,3.61-6.43,6.56-10.23,9.38l-14.48,10.7c-13.28,9.82-24.01,21.71-28.03,37.86-2.79-11.84-14.28-27.02-23.36-33.62l-3.48-2.53-18.59-13.96c-11.01-8.26-17.86-19.75-16.8-33.77.32-4.19,1.01-8.12,2.24-12.11l3.54-11.5c-7.99-15.98-9.46-29.43-6.48-46.88,1.15-6.72,3.04-12.97,4.73-19.37.69-.43.68-1.34.86-2.1l.66-2.91c.74-.3.78-1.16.89-1.82l.16-.95.04,1.34ZM126.21,178.73c2.24-2.39,4.51-4.59,6.17-7.19,4.14-6.48,5.89-13.96,4.91-21.72-8.33,14.82-19.53,25.57-32.62,35.31l-8.84,7.17c-5.38,4.82-9.79,10.46-13.2,17-3.54-7.14-8.49-13.14-14.63-18.03l-9.1-7.25c-12.47-9.47-23.18-19.92-31.13-34.22-1.41,10.61,2.48,20.49,9.91,27.69,4.07,3.94,8.38,7.08,12.9,10.5l1.87,1.41c5.72,4.33,11.46,8.38,16.66,13.32,4.55,4.32,8.66,8.63,12.22,13.78.33.47.47,1.54,1.39,1.51,5-7.77,13.79-16.62,21.19-22.14l17.17-12.81,5.12-4.33Z"/>
        <g>
          <path class="cls-1" d="M91.17,139.71c-.23,3.99-1.51,7.47-2.85,10.98l-3.17,8.34-1.35,3.89c.9-12.26-3.04-23.66-11.25-32.54-5.3-5.72-10.85-10.76-16.58-15.99-7.38-6.73-11.93-13.49-12.38-23.63-.37-8.19,1.06-16.25,3.87-23.99l3.71-9.05c.12,3.81-.9,7.07-.2,10.53.23,1.15.12,2.27.24,3.44.7,7.17,5.17,14.34,10.31,19.03l7.53,6.87,10.41,10.29c3.88,3.83,6.67,8.42,8.76,13.45,2.42,5.83,3.33,11.81,2.96,18.37Z"/>
          <path class="cls-1" d="M90.01,109.83c-1.91-3.21-3.68-5.99-6.2-8.52l-9.4-9.44-3.7-3.38c-7.81-7.13-14.04-12.94-15.52-24.08-.43-3.26-.58-6.73-.09-10.04l.68-4.54,1.58-7.68,5.53-15.34c.33,1.26.14,2.4-.08,3.55-1.12,5.96-.56,11.74,1,17.62,1.19,4.47,3.98,8.05,6.98,11.52,2.11,2.45,4.43,4.37,6.8,6.58,5.42,5.04,10.83,9.81,15.52,15.51,6.77,8.22,10.03,18.23,9.42,28.75-.19,3.2-.79,5.81-1.91,8.8l-5.3,14.12c.23-8.3-1.07-16.28-5.32-23.44Z"/>
          <path class="cls-1" d="M108.48,105.31c.99-11.62-2.94-23.14-11.09-31.97l-8.5-8.59c-8.61-8.7-18.49-14.17-20.35-28.49-.72-5.58-.18-10.78.7-16.28.16-.99.31-2.1.62-3.07l2.33-7.29,3.81-9.61c-.16,4.95-.86,9.39-.15,14.07.65,4.29,1.75,8.59,4.2,12.1,2.47,3.53,5.27,6.54,8.4,9.41l9.84,9.05,4.05,4.13c9.48,9.67,14.32,20.29,13.4,34.04-.14,2.13-.55,3.79-1.14,5.8l-.96,3.27-5.16,13.45Z"/>
        </g>
      </g>
      <g>
        <path class="cls-1" d="M38.24,301.02c9.29,3.43,19.63.22,24-8.51.73-1.47,1.14-3.2,1.07-4.65l-1.25-3.59c-.49-1.4.85-5.94,2.65-5.4.48.14.29.88.53,1.46l1.38,3.43.04,5.76c.02,2.99-2.14,5.21-3.82,7.99,1.53.11,2.58.83,3.87,1.42,3.94,1.81,8.55,2.31,12.73,1.46,3.01-.61,5.33-2.06,7.74-3.8,3.37-2.43,5.15-6.42,5.19-10.6-1.23-2.26-1.13-4.55.2-6.67.07-.63.49-.99.81-1.17,2.44-1.39.53,3.18,2.86,4.59.83.5,2.48.13,3.49.22l4.82.44c2.7.24,5.15.15,7.82,0l6.66-.35c2.3-.12,4.36-.21,6.92-1.02-.47-1.57-2.02-2.8-4.06-2.83l-19.36-.27c-1-.01-2.05-.52-2.46-1.06-1.89-2.5.24-6.9,1.88-10.26,1.85-3.8,3.97-7.4,7.24-10.11,1.3-1.08,3.66-1.92,5.05-1.02,2.31,1.49,2.61,4.67,1,6.66-.64-.22-1.02-.79-1.29-1.51-1.57-4.1-7.9,1.89-9.64,5.39l-2.59,5.22c-.31.62-.14,1.47.18,1.97,1.07,1.66,13.37,1.16,18.65,1.19,6.15.03,6.04.26,8.9,5.15,1.5,2.57,1.59,5.63-.29,7.98l-3.82.64c-1.03.17-1.16-1.25-1.58-1.72-2.25-.57-5.03.46-7.3.46h-14.12c-2.06,0-4.15-.65-6.24-.14-.53.13-.51,1.55-.45,2.04-1.56,4.47-4.42,7.64-8.04,10.61-6.7,4.64-15.2,4.72-22.54,1.17-1.53-.74-2.47-1.35-2.58-3.49-4.55,6.37-15.09,9.07-21.61,6.9l-4.99-1.66c-1.12-.37-2.35-2.28-1.48-3.13,1.1-1.08,2.78.4,3.84.79Z"/>
        <path class="cls-1" d="M122.47,304.1c-3.88.25-14.77-2.7-12.39-6.05,1.23-.93,2.52.38,3.67.87,8.39,3.54,16.8,2.31,22.92-4.81,1.59-1.85,3.26-5.26,2.62-7.81-.85-3.39-1.2-6.85,2.35-8.82l.51,3.26c.28,1.82,1.55,2.2,3.15,2.27,2.47.1,4.74-.48,5.92-2.78,1.69-3.29,5.46-6.97,8.43-5.01,1.12.74,1.52,2.32,2.02,3.46,1.22,2.76.86,5.53-.64,8.05-1.65,2.76-7.46,2.99-9.54-.27l-3.25,1.1-5.07.16c-.73,3.07-1.71,6.15-3.94,8.32l-4.49,4.38c-2.52,1.83-5.64,2.85-8.71,3.45l-3.56.23ZM158.89,283.35c.92-.97-.15-2.36-.66-2.94-.66-.75-2.25-.72-3.09-.14-.65.44-1.74,1.71-.98,2.68.9,1.16,3.63,1.57,4.73.41Z"/>
        <path class="cls-1" d="M52.24,274.95c2.42.7,6.28,7.82,1.93,11.86-.82.76-2.14,1.19-2.92,1.02-1.13-.24-1.82-1.05-2.69-2.28-.66,1.68-2.52,2.93-3.68,1.84l-1.83-1.72c-3,2.76-8.32,2.72-11.69-.03-2.05-1.68-3.6,1.7-5.34.73-1.86-1.04-.32-5.1,2.01-7.77l.2-3.12-.99-8.22c-.29-2.37-1.79-3.68-3.12-5.51-1-1.37.28-4.88,1.83-5.23,1.7-.33,2.61,2.05,3.03,3.33,3.58,10.94-.27,19.13,4.09,21.89,2.05,1.3,4.84,1.5,7.15.9,1.72-.45,1.98-3.58,3.51-3.24.86.93.94,2.72,2.31,3.63,1.31-1.02,1.21-3.01,2.37-3.16.62-.08,1.11,2.56,3.19,3.85,1.18-.07,1.59-2.73.73-3.03-1.72-.6-2.86-.97-2.95-2.9-.07-1.39,1.01-3.38,2.84-2.86Z"/>
        <path class="cls-1" d="M13.44,286.98l-5.94-.09c-.07,1.84-1.2,2.99-3.09,2.95-1.28-.02-3.48-.98-4.03-2.32-.75-1.84-.18-4.02-.11-5.93l6.55-.23c-3.42-3.76-4.28-8.15-3.26-12.78s3.47-11.56,8.01-10.66c.94.61.17,3.36-1,3.81-3.15,1.21-4.35,3.75-4.79,6.9-.59,4.19,1.1,8.06,4.61,10.69l4.13,2.14,5.51,1.15c.88.84.4,3.7-.51,4.44-1.78.68-4.17-.05-6.06-.08Z"/>
        <path class="cls-1" d="M75.04,280.94c.07.93,4.33,6.45.6,7.06-1.05.17-2.8-.53-3.45-1.2-1.11-1.13-.26-2.66-.25-3.94l.03-17.02c0-2.7-4.23-3.49-2.29-7.17.25-.48.3-1.16.88-1.46.72-.38,3.82.65,3.64,3.44-.09,1.39.31,2.68.32,4.08l.03,4.06c.01,2.2-.07,4.15.08,6.32l.42,5.83Z"/>
        <path class="cls-1" d="M73.99,293.3c1.09,1.13,3.01-.94,4.04.19,1.86,2.04-2.06,3.03-5.82,4.48-.68.26-1.18-.73-1.22-1.26-.04-.61.42-1.12,1.25-1.64-1.36-1.55-1.28-3.29-.01-4.69,1.07-1.18,3.29-1.51,4.63-.2.41.4.27,1.09-.08,1.39-.85.75-1.74-.25-2.64.71-.32.34-.44.72-.15,1.02Z"/>
        <path class="cls-1" d="M49.52,272.38c-1.48.41-2.62.03-3.19-1.06-.52-1-.15-2.34.97-3.13,1.18-.83,3.02-.54,3.68.64s.09,3.12-1.47,3.55Z"/>
        <path class="cls-1" d="M46.65,262.83c1.16.81,1.07,2.28.5,3.19-.62,1-1.87,1.73-3.21,1.04-.66-.34-1.39-1.55-1.4-2.3-.01-.92.62-1.64,1.13-1.93.75-.42,2.17-.56,2.98,0Z"/>
        <path class="cls-1" d="M94.98,273.43c-.02,1.22-.52,2.04-1.28,2.45-.87.47-1.93.24-2.68-.58-.71-.77-1.02-1.82-.61-2.67s1.21-1.48,2.32-1.53c1.33-.06,2.28.74,2.25,2.33Z"/>
        <path class="cls-1" d="M44.46,270.06c.29,1.7-.81,2.92-1.97,3.17-1.44.31-2.65-.78-2.89-2.4-.19-1.26.92-2.11,1.92-2.31,1.13-.22,2.7.13,2.93,1.54Z"/>
      </g>
      <path class="cls-1" d="M113.46,316.41l-3.33-3.74-.45,3.54c-.06,0-.22-.07-.39-.18l.06-5.46,3.32,3.69.64-3.57c.61,1.9.39,3.48.16,5.71Z"/>
      <path class="cls-1" d="M71.99,316.03c-.99.53-2.13.42-3.19.31l.05-5.49c.9-.03,1.91-.18,2.83.16.99.37,1.53,1.33,1.57,2.14.06,1-.13,2.28-1.26,2.88ZM69.61,315.66c1.88.08,2.45-.6,2.81-1.49.31-.77-.03-1.8-.69-2.29-.49-.37-1.9-.83-2.13-.1-.4,1.3-.18,2.77,0,3.88Z"/>
      <path class="cls-1" d="M51.05,310.98v5.35c-1-.22-.61-1.14-.64-1.49-.07-.99-.89-.73-1.26-.74-.54-.02-1.41.05-1.52.97-.03.24.01.58.07.78.09.33-.74.45-.74.23l.08-5.22c.13.04.4.02.55-.04l.14,2.05c.5.72,1.87.49,2.54.23.12-2.48.78-3.13.78-2.12Z"/>
      <path class="cls-1" d="M92.36,314.76c.13,1.7-1.71,1.87-2.92,1.52-1.38-.4-1.94-1.82-1.74-3.37.15-1.19,1.03-1.96,1.97-2.08,1.16-.14,2.58-.14,2.7,1.45-1.26-.68-2.38-1.14-3.32-.31-.72.64-1.04,2.01-.14,2.98.71.77,1.94.84,3.45-.2Z"/>
      <path class="cls-1" d="M62.17,316.3c-1-.49-1.01-1.22-1.53-1.35-.94-.24-1.93-.13-2.19.91-.13.62-1.02.39-.75-.21l2.29-5.14c1.06,2.03,1.73,3.6,2.17,5.8ZM60.53,313.98c.08-.99-.29-1.61-.66-1.89l-.85,1.96c.3.4,1.47.3,1.5-.08Z"/>
      <path class="cls-1" d="M131.31,315.72c1.34-.22,2.3-.44,3.07.46-1.39.48-2.39.19-3.71.14l-.02-5.47c1.17-.09,2.27-.26,3.45.13-.92,1.08-1.87.45-2.8.53v4.22Z"/>
      <path class="cls-1" d="M122.63,311.7c-.42,1.99.09,4.02-.17,4.38-.89,1.19-.44-1.67-.86-4.3-.11-.2-.88-.26-1.08-.25s-.39-.34-.2-.75l3.97.11c-.32.84-1,.76-1.66.81Z"/>
      <path class="cls-1" d="M99.59,315.56l2.8.46c-1.04.43-2.12.35-3.21.14l-.02-5.34c1.24.05,2.37-.56,3.71.44l-3.17.47c.21,1.32.44,2.07-.1,3.83Z"/>
      <path class="cls-1" d="M142.76,314.27c.38.02.24-.49.36-.65l.56-.76c.26-.35.17-1.08-.33-1.33-.7-.35-1.49-.22-2.1-.14v-.41c.67-.34,1.73-.31,2.53.13.65.36.8,1.2.64,1.87-.1.44-.49.8-1.08,1.35.42.65,1,.95,1.07,1.97-.93-.2-1.48-1.12-1.67-2.03Z"/>
      <path class="cls-1" d="M141.25,311.4l.12,2.1,1.75.12c-.12.16.01.66-.36.65-.31-.01-.71-.15-1.02,0-.92.45.31,2.13-1,1.92l-.02-4.18c0-.54.13-.83.52-1.02v.41Z"/>
      <path class="cls-1" d="M35.97,315.01l.57-.03c1.08.81,2.34.72,3.72-.24.2,1.2-1.04,1.62-1.88,1.7-1.33.13-1.91-.49-2.41-1.42Z"/>
      <path class="cls-1" d="M27.91,313.95l-.03-.37c.3-.34.72-1.15.3-1.7-.49-.64-1.52-.51-2.11-.41l-.17-.6c.7-.07,1.46-.15,2.18.04.85.23,1.12,1,1.08,1.74s-.41,1.32-1.25,1.31Z"/>
      <path class="cls-1" d="M37.46,310.9l-.15.71c-1.29.61-1.48,2.21-.77,3.36l-.57.03c-.41-.77-.59-1.52-.31-2.4s.9-1.46,1.81-1.71Z"/>
      <path class="cls-1" d="M26.06,311.46l.04,2.04,1.77.07.03.37.12.77c-.14,0-.34-.04-.46-.09l-1.27-.52c-.34.63-.27,1.23-.23,1.76h-.5c-.13-1.67-.28-3.49.34-5.02l.17.6Z"/>
      <path class="cls-1" d="M37.31,311.62l.15-.71c1.1-.3,2.91-.16,2.82,1.34-1.17-.53-2.06-.89-2.98-.63Z"/>
      <path class="cls-1" d="M27.56,314.63c.12.05.32.08.46.09.45.03,1.16,1.01.86,1.4-.76.28-1.36-.88-1.32-1.49Z"/>
      <path class="cls-1" d="M25.56,315.87h.5c-.02.44-.47.37-.5,0Z"/>
    </g>
  </g>
</svg>