<?xml version="1.0" encoding="UTF-8"?>
<svg id="Layer_2" data-name="Layer 2" xmlns="http://www.w3.org/2000/svg" viewBox="0 0 379.63 315.01">
  <defs>
    <style>
      .cls-1 {
        fill: #fff;
      }
    </style>
  </defs>
  <g id="Layer_1-2" data-name="Layer 1">
    <g>
      <path class="cls-1" d="M210.7,0c-16.62,7.05-86.84,81.13-103.55,109.31,28.52,34.99,75.32,69.18,108.55,104.36,54.51-44.42,75.03-77.41,107.03-107.03C294.49,69.27,250.17,28.85,210.7,0ZM160.8,112.98c-1.43.1-4.33-.86-5.71-1.19-.48-.71-1.57-1.71-1.1-2.67.48-1.14,1.95-1.24,2.48-2.19.38-.67.1-1.14.43-1.76,1.81-3.24,4.57-6.09,6.71-9,1.67-2.33,2.67-4.9,4.24-7.28.29-.48,1.05-1.05,1.33-1.57.86-1.57.67-3.86,1.33-5.52,1.67-4,4.14-7.47,5.81-11.24.67-1.43.43-3.52,1.14-5.05,4.33-9.09,14-15.76,24.76-18.62,1.81-.48,4.67-.38,6.71-.86.95-.24,2.48.29,3.09.24.81-.1,3.33-.33,4.71,0,2.19.52,3.95,1,5.57,2,1.48.9,1.29,3.29,3.33,3.71.38-.33.71-.43,1.1-.24,1.24.24,6,5.43,6.9,6.62,2.81,3.71,9.86,11.62,8.24,18.57v3.33c-.29,1.14-1,2.71-1.33,3.95-.43,1.67,0,3.19-.67,4.62-.86,1.81-1.71,4.43-2.9,6.14-.95.95-1.95,1.9-2.9,2.86-1.14,1.76-1.19,3.62-2.9,4.86-1.76,1.24-3.33,2.05-5.14,3.29-2.43,1.62-4.09,3.86-7.14,5.14-1.05.48-2.29.86-3.33,1.1-1.19.33-2.43-.33-3.33-.19-.76.1-1.81.71-2.9.43-1.33-.33-3.24-1.19-4.48-1.52-.52-.19-.81.19-1.1.19-.86,0-4.52-1.33-5.38-1.76-1.62-.86-1.76-2.62-2.67-4.28-1.95-3.62-4.86-8.05-5.57-12.81h-.67c-.05.38-.14.71-.19,1.1-2.19.29-1.9,2.76-2.81,4.24-1.67,2.67-3.71,4.9-5.67,7.47-1.29,1.71-3.57,2.95-5.33,4.19-.95.67-1.48,2-2.43,2.62-2.38,1.52-7.95.67-12.24,1.1ZM266.16,131.55c-.33.9-.86.67-1.1,1.76.14.14-.33,9.09-.67,9.66-.29.62-1.1.33-1.52.76-7.09-.14-11.43,1.71-17.81,3.24-2.57.62-5.09-.48-6.67-.9-.67-.14-1.67.19-2,.24-.29.05-4.48-.24-5.14-.43-.57-.19-1.24-1-2.43-.67-1.81.52-4.19,1.29-6.9.67-.43-.05-1.43-.52-2-.43-2.62.33-9.28,1.71-11.85.86-.57-.19-1.1-1.14-1.57-1.29-.57-.24-1.48.38-2.43.43-2.38.1-5.43.19-7.62.67h-2.67c-3.09.71-6.19.48-9.14-.19-2.52-.57-4.14,1.24-6.24,1.33-.57-.52-1.67-1.14-2.48-1.33-.67,1.19-1.62.76-2.9.43-.33-.57-1.05-1.14-.9-2.19.05-.24.43-1.14.24-1.76-.19-.76-.86-1.19-1.1-1.76-.57-1.29-.38-2.62-.9-3.76-.95-2.14-3.57-3.57-3.81-5.76.19-.29.05-.62.24-1.1.38-1,1.67-2.09,2.48-2.67,1.48-1,3.38-.57,4-2.43.29-.52.1-1.9.43-2.43.1.1.19.19.24.24.29.9.24,2.52.24,3.76.57.24.62.38,1.57.43,4.52-.43,9.24-.62,13.76-1.1,9.19-1.24,15.9-4.05,23.23-6.95,15.71-6.14,23.33-11.47,33.8-23.09,2.71-3,5.33-5.19,7.52-8.09,1.62-2.19,3.29-4.52,4.81-6.76,1-1.43,1.05-3,2.14-4.28.24.14.24.1.67.19,0-1.48.48-3.05.48-4.52h.24v.24c.67,1.05,0,2.81.33,4.33.14.67.48,2.19.29,2.95-.14.67-.57,1.48-.38,2.67.38,2.52.81,6.48,0,8.67.1,4.33-.33,8.9-.29,13.24-1.33,5.76-3.86,9.62-6.9,13.66-1.57,2-4,3.29-5.81,5.05-4.81,4.62-9.71,8.76-15.62,12.33-4.09,2.48-9.38,3.62-12.95,6.62-.81.71-2.81.9-3.33,1.76h.24c.38.24.9.62,1.57.62,1-.62,3.71-.24,5.14-.24,3.29-.1,6.9-.14,10.19-.24-.1-1.24,0-1.76-.14-3,.86-.81,1.19-1.48,2.09-2.19,2.71-2.14,5.57-4.33,8.38-6.28,2.19-1.52,4.48-3.48,6.76-4.76,2.38-1.33,4.14-3.33,5.48-5.05.76.52.57-.43,1.05.29,1.14,1.05,2.81,2.48,3.52,3.19.43.71.62,1.57,1.38,2,0-.67.05-1.1.19-1.52.24.05.48.14.67.24.52.71,2.48,3.95,1.9,4.67ZM199.65,76.8c1.09,3.48,2.52,4.86,5.43,6.52.81.43,2.24,1.52,3.76,1.14,5.81-1.43,10.47-7.24,12.71-12.28.48-1.14-.76-7.52-1.67-7.9-.52-.29-1.43-.19-2.09-.43-1.57-.62-2.9-1.81-4.71-2.09-1.14.71-2.9.48-4.24.95-2.9.95-9.9,3.62-9.86,7.14,1.19,1.95-.05,4.57.67,6.95Z"/>
      <path class="cls-1" d="M106.14,283.28c7.38-.95,10.52-4,15.33-6.76l1.19-.76c2.48,1.24,4.57,4.14,6.57,6,7.81,5.86,18.19-1.14,24.47-5.86,1.67-1.24,2.19-1.62,4.48-2.9.9,4,3.24,7.67,6.67,9.33,1.71.62,3.09.62,4.67-.14,3.09-3.24,6.05-6.43,8.67-9.81,1.38-2.62,2-7.67.48-10.57-1.1-2.14-2.95-4.14-5.57-4.76-3.9-1.1-5.14,1.86-8.09,1.67.48-2.9.57-21.57-.29-27.42-.71-4.9-2.14-8.71-3.86-12.57-.76-1.48-3.05-3.62-4-2.57-2.19,2.62-4.81,4.9-5.57,8.28-.48,2.48,0,4.9,1.1,6.57,1.1,1.1,2.19,2.29,4.19,2.14,3.05,8.09,2.48,19.28,2,28.99,0,1.95.14,4.19-1.52,5.67-5.57,4.28-13.47,10.28-22,5.52-2.29-1.48-3.09-2.19-4.19-4.14,1.71-2.48,5.28-3.24,8.38-4,.76-1.05,1.81-2,2.76-3.05,1.71-1.81,3.24-2.29,2.48-5.05-4.52-.9-10.76-.29-14.28-3.86-1.57-1.24-3.05-4.05-4.67-3.38l-3.24,4.14c-2.57,3.09-8.38,5.52-13,3.52-2.62-1-3.95,2.09-5.09,4.14-1.1,1.95-3.33,3.67-2.14,4.62,2.14,1.05,5.57,1.38,8.38.76,2.48,1.52,5.24,2.43,7.43,4.62.9.9-.05,1.76-.95,2-6.81,1.24-21.66,2.48-28.33,0-1.38-2.43-1.05-6.57-4.48-7.52-1.95-.29-5.33,4.76-6.19,9.66-.48,2.76.76,4.28,2.19,5.67,1.05,6.9-19.28,39.66-54.23,28.61-.9-.43-2.95-.29-3.71-.29l1.38,1.38c3.86,2.29,9.66,3.52,15,3.81,31.85.67,44.33-23.57,48.56-31.23,4.52-.19,14.47-.05,19.04-.48ZM171.51,268.43c.76,1.48.95,3.38.76,5.52-4,.95-6.62-5.67-6.81-8.24,1.1-1.24,4.9.38,6.05,2.71ZM122.09,259.24c2.71,1.14,4.86,3.05,7.33,4.76.38,1.14-2.33,2.33-2.71,3.14-2.71-.81-4.57-2.81-6.9-4.33-.95-.81,2.29-3,2.29-3.57Z"/>
      <path class="cls-1" d="M199.13,280.86c-4.81-3.81-7.95-9.81-7.9-16.24.05-11.19.86-22-1.52-31.85-1.19-4.86-2.81-6.9-2.81-6.9,0,0-1.81-2.09-2.67-2.52-2.71.9-5.19,5.28-7.52,7.86-.33,3.67,1.24,6.14,2.48,8.86,1.24,1.86,2.81-.14,3.9,1.24,1.71,8.09,1.57,18.09,1.1,27.14,0,0-.05,9.76,4.48,16.09,1.05,1.67,1.76,2.71,3.09,4.28,1,.62,1.71-.05,2.71-.57,2.38-1.71,5.14-4.05,4.67-7.38Z"/>
      <path class="cls-1" d="M128,239.81c.29-1.38,2.76-2.62,1.1-4.48-2.81-1.38-5.43-2.76-9.28-2.62-2,1.86-4.05,4-5.09,6.57,3.57,1.05,6.95,2.14,9.62,4.28,1.33-.86,1.95-2.71,3.67-3.76Z"/>
      <path class="cls-1" d="M378.52,279.14c2.48-8,.67-17.38-4.19-23-1.9-2.05-2.52-2.67-4.19-3.67-3.09,1.67-5.28,5.24-5.43,8.57-.14,4,2.19,6.28,4.48,8.28,1.57,1.38,1.38-1.86,2.62-.76,1.1,1.1,2.52,3.71,1.24,4.43-4.95,2.76-24.38,2.43-30.95,2.62-3.71.1-16.95.62-21.62-3.05-2.67-2.43-3.43-5.38-5.14-8-.48-.62-1.71-1.19-2.48-.62-2.48,3.09-3.48,9.38-6.19,10-7.76,1.67-7.62-7.05-10.86-11.19-4.19-5.38-12.81-6.24-21.52-5.67-11.52.76-24.14,1.62-35.47,0-3.86-.86-7.9-1.52-9.28-5.19-1.71-5.05,2.95-8.09,5.71-11.19,1.05-1.38,2.09-.29,3.24.62,2.48,1.81,4.38,4.95,6.95,4.9,2.19-.33,4.76-1.43,4.33-3.24-.62-2.76-1.71-5.19-3.24-7.33-1.33-1.76-2.71-3.52-4.95-3.05-4.38,3.24-8.43,6.86-11.95,10.71-3.95,4.33-9.9,10.09-6.19,16.66,5.38,7.81,20.33,5.67,31.76,5.19,10.71-.29,25.28-3.38,32.38,3.81,1.43,1.57,2.86,3.71,2.62,4.81-2.62.86-6,1-9.28,1-9.24-.05-18.43.76-27.61,1.24-5.86.14-14,.05-20.42-.43-8.24-.67-14.76-3.52-18-9.95-.62-.62-1.38,0-1.86.33-2.62,1.52-4.67,4.43-4.05,7.67,3.38,5.67,9,8.81,17.09,9.47,17.38,1.48,33.76-1.1,51.13-.9,5.38.05,13.33.76,17.81-1.86,2.62,1.67,5.57,4.62,9.76,2.76,2.9-1.43,4.52-4.76,5.71-7.95l1.24-.33c.9,4,3.71,7.38,7.43,8.76,6,2,42.66.14,47.75-.48.62,2.76,3.48,3.71,6.05,3.81,2.57,0,4.52-4.62,5.57-7.81Z"/>
      <path class="cls-1" d="M49.44,283.62c5.14-.71,10.33-1.95,13.38.71,2.14,1.24,3.38-.81,4.62-2,2-2.29,4.09-4.57,4.19-7.95.19-8.47-4.05-15.14-9.76-19.76-.95-.76-2.09-.38-2.62.48-1.71,2.43-4.86,3.86-4.95,7.05,0,1.81.71,3.29,1.86,4.14,1,.71,2.62,1.05,3.86.76,1.38,2.14,3.09,4.62,2.95,7.67-5.14,1.71-27.04,2.43-27.04,2.43,0,0-26.8,1.9-28.99-11.47-.71-6.62,4.19-14.43,6.33-17.19l-2.05-.57c-2.62,2.71-9.24,13.47-10.66,18.23-1.38,4.67.05,9.38,2.38,12.43,3.09,4.48,8.9,5.57,14.47,6.43,7.14,1.05,25.57-.48,32.04-1.38Z"/>
      <path class="cls-1" d="M318.87,245.29c2-2.14,3.24-4.9,4.67-7.52-.76-2.57-4.48-1.81-6-3.38-1.57-.14-1.57-1.86-3.43-1.67-.62.95-1.38,1.52-1.86,2.43-.81,2.14-3.29,3.67-2.48,6,2.43,2.14,6.14,2.62,9.09,4.14Z"/>
      <path class="cls-1" d="M57.1,289.47c-1.1.43-5.43,5.19-6.52,7.05,1.86,2.29,5.14,3.19,7.28,5.52,2.62-2.14,5.71-4,6.81-7.33-1.86-2.48-4.81-3.86-7.57-5.24Z"/>
      <path class="cls-1" d="M306.92,293.76v.76h.81c.43,0,.86.1,1.29.33.29.14.48.33.57.57.14.33.19.95.19,1.95v5.52h-8.95v-5.52c0-.95.05-1.57.14-1.9.1-.29.29-.48.57-.62.38-.24.81-.33,1.29-.33h.86v-.76h-8.81v.76h.81c.43,0,.86.1,1.29.33.29.14.48.33.52.57.14.33.19.95.19,1.95v12.71c0,1.43-.19,2-.33,2.19-.33.43-.9.67-1.67.67h-.81v.76h8.71v-.76h-.86c-.43,0-.86-.14-1.29-.33-.29-.14-.48-.33-.57-.57-.1-.29-.19-.95-.19-1.95v-5.86h8.95v5.86c0,1.14-.1,1.9-.33,2.19-.33.43-.9.67-1.67.67h-.81v.76h8.71v-.76h-.81c-.43,0-.86-.14-1.29-.33-.29-.14-.48-.33-.52-.57-.14-.29-.19-.95-.19-1.95v-12.71c0-.95.05-1.57.14-1.9.1-.29.29-.48.57-.62.38-.24.81-.33,1.29-.33h.81v-.76h-8.62Z"/>
      <path class="cls-1" d="M334.1,312.09c-.67-.38-1.48-1.29-2.38-2.57,0,0-3.57-4.86-4.05-5.52,1.62-.38,2.81-1,3.62-1.86.81-.9,1.24-2,1.24-3.24,0-1.14-.33-2.14-1.05-3-.71-.81-1.62-1.38-2.62-1.71-1-.29-2.57-.48-4.71-.48h-7.38v.76h.86c.71,0,1.24.19,1.57.57.19.19.38.76.38,2.24v12.71c0,1.38-.14,1.9-.29,2.09-.33.52-.9.76-1.67.76h-.86v.76h8.71v-.76h-.86c-.71,0-1.24-.19-1.57-.62-.19-.19-.38-.76-.38-2.24v-5.57h.76s1-.05,1.14-.05c.1.1,6.76,9.19,6.76,9.19h5.43v-.76h-.1c-1.05,0-1.9-.29-2.57-.71ZM323.34,303.37s-.57,0-.71-.05v-7.95c.9-.14,1.62-.24,2.14-.24,1.24,0,2.24.38,2.95,1.14.76.76,1.14,1.71,1.14,2.9s-.48,2.19-1.38,3c-.9.76-2.29,1.19-4.14,1.19Z"/>
      <path class="cls-1" d="M361,303.47c1.05-.38,1.9-.9,2.48-1.62.62-.81.95-1.71.95-2.71,0-1.19-.38-2.24-1.19-3.14-.81-.9-1.95-1.52-3.43-1.86-.95-.24-2.29-.33-3.9-.33h-8.76v.76h.86c.71,0,1.24.19,1.57.57.24.29.38,1.05.38,2.24v12.71c0,1.1-.1,1.81-.29,2.09-.33.48-.9.76-1.67.76h-.86v.76h9.52c2.24,0,3.95-.19,5.05-.62,1.1-.43,2-1.1,2.62-2s.95-1.9.95-2.9c0-1.33-.48-2.43-1.48-3.33-.62-.62-1.57-1.05-2.81-1.38ZM353.05,295.33c.76-.19,1.62-.29,2.52-.29,1.81,0,3.19.38,4.09,1.19.9.76,1.38,1.71,1.38,2.81,0,.71-.19,1.38-.57,2s-.9,1.05-1.62,1.33-1.76.48-3.19.48l-1.52-.05s-.95-.1-1.14-.14v-7.33h.05ZM360.33,311.28c-.9.76-2.24,1.14-4,1.14-1.1,0-2.19-.14-3.29-.38v-7.9c.14,0,.95-.1.95-.1l1.57-.05c1.38,0,2.57.19,3.48.62.95.38,1.62.95,2.05,1.62.43.71.62,1.43.62,2.14,0,1.19-.48,2.14-1.38,2.9Z"/>
      <path class="cls-1" d="M286.01,303.47h.14c.76,0,1.33.1,1.62.24.29.14.52.38.67.67.14.29.19.95.19,1.95v5.52c-.62.33-1.24.62-1.9.76s-1.33.24-2.09.24c-1.24,0-2.43-.38-3.62-1.05-1.14-.71-2.09-1.86-2.81-3.33-.71-1.52-1.1-3.24-1.1-5.05,0-2.29.57-4.24,1.62-5.9,1.29-1.9,3.19-2.9,5.67-2.9,1.81,0,3.29.57,4.48,1.67.76.76,1.48,1.95,1.95,3.48l.05.1h.76l-.43-6.48h-.76l-.05.1c-.05.57-.14.81-.24.9-.1.14-.24.19-.38.19s-.38-.05-1.05-.29c-1.1-.38-1.95-.67-2.52-.76-.57-.14-1.29-.19-2-.19-2,0-3.76.43-5.24,1.29-1.76,1-3.14,2.48-4.14,4.38-.86,1.57-1.29,3.29-1.29,5.05,0,2.43.76,4.57,2.29,6.38,2,2.43,5,3.71,8.86,3.71,1.33,0,2.57-.14,3.71-.43,1.1-.29,2.24-.71,3.33-1.33l.05-.05v-6.05c0-1.1.1-1.76.29-2.14.29-.48.76-.71,1.52-.71h.48v-.76h-7.95v.81h-.1Z"/>
      <path class="cls-1" d="M337.2,293.76v.76h.81c.43,0,.9.1,1.29.33.29.14.43.33.57.57.1.29.19.95.19,1.95v12.71c0,1.43-.19,2-.33,2.19-.33.43-.9.67-1.67.67h-.81v.76h8.71v-.76h-.81c-.48,0-.86-.14-1.29-.33-.29-.14-.48-.33-.57-.57-.14-.29-.19-.95-.19-1.95v-12.71c0-1.14.1-1.9.33-2.19.33-.43.9-.67,1.67-.67h.81v-.76h-8.71Z"/>
      <path class="cls-1" d="M139.85,293.76v.76h.81c.71,0,1.29.19,1.62.57.19.19.38.71.38,2.19v10.95c-.38-.48-12-14.47-12-14.47h-5.62v.76h.1c.57,0,1,.05,1.24.14.57.19,1,.38,1.29.57s.71.67,1.29,1.29l-.05,13.66c0,1.05-.14,1.76-.29,2-.33.48-.9.71-1.71.71h-.81v.76h7.19v-.76h-.81c-.76,0-1.29-.19-1.62-.57-.14-.19-.38-.71-.38-2.14v-11.81c.38.48,12.95,15.66,12.95,15.66h.71v-16.76c0-1.05.1-1.76.29-2.05.33-.48.9-.71,1.71-.71h.81v-.76h-7.09Z"/>
      <path class="cls-1" d="M244.16,293.76s-6.81,14.71-7.05,15.14c-.19-.43-7.14-15.14-7.14-15.14h-5.9v.76h.14c.81,0,1.38.1,1.71.29.33.19.57.38.71.67.19.38.29,1,.29,1.81v12.9c0,1.05-.1,1.76-.29,2-.33.48-.9.71-1.71.71h-.81v.76h7.19v-.76h-.81c-.76,0-1.29-.19-1.62-.57-.14-.19-.38-.71-.38-2.14v-12.66c.43.9,7.52,16.14,7.52,16.14h.67s7.05-15.24,7.47-16.14v12.66c0,1.05-.1,1.76-.29,2-.33.48-.9.71-1.71.71h-.81v.76h8.71v-.76h-.9c-.76,0-1.29-.19-1.62-.57-.24-.29-.38-1-.38-2.14v-12.9c0-1.05.1-1.76.29-2.05.33-.48.9-.71,1.71-.71h.81v-.76h-5.81Z"/>
      <path class="cls-1" d="M194.98,312.28c-.43-.38-.95-1.24-1.48-2.52l-6.81-16.43h-.86l-7.09,16.24c-.62,1.38-1.14,2.33-1.62,2.81-.24.24-2.09.38-2.9.57h-.1v.76h7.9v-.76h-.14c-.9-.05-1.52-.24-1.81-.43-.29-.19-.38-.43-.38-.71,0-.38.14-.9.48-1.67,0,0,1.24-2.9,1.29-3h7.57c.05.14,1.14,2.76,1.14,2.76.38.9.57,1.57.57,1.95,0,.29-.14.52-.38.71s-.76.33-1.52.38h-.1v.76h8.14v-.76h-.14c-.71-.05-1.33-.29-1.76-.67ZM182.13,305.76c.14-.29,3.09-7.09,3.29-7.57.19.48,3,7.24,3.09,7.57h-6.38Z"/>
      <path class="cls-1" d="M166.99,312.18c-.86-.43-1.86-1.24-3.05-2.48,0,0-6.43-6.33-7.24-7.14.14-.19,2.9-2.9,2.9-2.9l2.95-2.95c.71-.67,1.38-1.14,1.86-1.43l1.29-.62,1.24-.19v-.76h-7.57v.76h.57c.48,0,.81.1,1,.24.14.14.24.29.24.48,0,.29-.1.57-.38.95-.57.86-2.33,2.62-5.24,5.24,0,0-1.33,1.19-1.81,1.67v-5.71c0-.95.05-1.57.19-1.9.1-.29.29-.48.57-.62.43-.24.86-.33,1.29-.33h.81v-.76h-8.71v.76h.81c.43,0,.9.1,1.29.33.29.14.48.33.57.57.1.33.19,1,.19,1.95v12.71c0,1.43-.19,2-.33,2.19-.33.43-.9.67-1.71.67h-.81v.76h8.71v-.76h-.76c-.48,0-.9-.14-1.29-.33-.29-.14-.48-.33-.57-.57-.1-.29-.19-.95-.19-1.95v-6.05c.38.38,6.67,6.52,6.67,6.52.62.62.81.9.9,1l.14.57c0,.19-.1.38-.33.52-.24.19-.62.24-1.14.24h-.1v.76h9.71v-.76h-.1c-.9,0-1.71-.24-2.57-.67Z"/>
      <path class="cls-1" d="M97.71,303.47c1.05-.38,1.9-.9,2.48-1.62.62-.81.95-1.71.95-2.71,0-1.19-.43-2.24-1.19-3.14-.76-.9-1.95-1.52-3.43-1.86-.95-.24-2.29-.33-3.9-.33h-8.71v.76h.86c.71,0,1.24.19,1.62.57.24.29.38,1.05.38,2.24v12.71c0,1.1-.1,1.81-.33,2.09-.33.48-.9.76-1.67.76h-.86v.76h9.52c2.24,0,3.95-.19,5.05-.62,1.1-.43,2-1.1,2.62-2s.95-1.9.95-2.9c0-1.33-.48-2.43-1.48-3.33-.67-.62-1.62-1.05-2.86-1.38ZM89.76,295.33c.76-.19,1.62-.29,2.52-.29,1.81,0,3.19.38,4.09,1.19.9.76,1.38,1.71,1.38,2.81,0,.71-.19,1.38-.57,2-.38.62-.9,1.05-1.62,1.33s-1.76.48-3.19.48l-1.52-.05s-1-.1-1.14-.14v-7.33h.05ZM97.05,311.28c-.9.76-2.29,1.14-4,1.14-1.1,0-2.19-.14-3.29-.38v-7.9c.14,0,.9-.1.9-.1l1.57-.05c1.38,0,2.57.19,3.48.62.95.38,1.62.95,2.05,1.62.43.71.62,1.43.62,2.14.05,1.19-.43,2.14-1.33,2.9Z"/>
      <path class="cls-1" d="M214.5,308.09h0c-.48,1.19-1,2.09-1.52,2.62-.48.57-1.05.95-1.62,1.14-.62.24-1.67.33-3.19.33h-1.48c-1.57,0-2.09-.05-2.24-.14-.19-.1-.38-.24-.48-.38-.14-.29-.19-.81-.19-1.62v-12.43c0-1.14.05-1.86.19-2.14.14-.29.43-.52.81-.71s1.14-.29,2.14-.29h.1v-.76h-9.14v.76h.86c.71,0,1.24.19,1.57.57.19.19.38.76.38,2.24v12.71c0,1.38-.14,1.9-.29,2.09-.33.52-.9.76-1.67.76h-.86v.76h15.62l1.76-5.52-.71-.14-.05.14Z"/>
      <path class="cls-1" d="M270.21,312.28c-.43-.38-.95-1.24-1.48-2.52l-6.81-16.43h-.86l-7.09,16.24c-.62,1.38-1.14,2.33-1.62,2.81-.24.24-.76.38-1.57.57h-.1v.76h6.57v-.76h-.1c-.95-.05-1.52-.24-1.81-.43s-.38-.43-.38-.71c0-.38.19-.9.52-1.67,0,0,1.24-2.9,1.33-3h7.57c.05.14,1.14,2.76,1.14,2.76.38.9.57,1.57.57,1.95,0,.29-.14.52-.38.71s-.81.33-1.57.38h-.1v.76h8.14v-.76h-.1c-.86-.05-1.48-.29-1.9-.67ZM257.35,305.76c.14-.29,3.09-7.09,3.29-7.57.19.48,3,7.24,3.09,7.57h-6.38Z"/>
      <path class="cls-1" d="M123.28,312.28c-.43-.38-.95-1.24-1.48-2.52l-6.76-16.43h-.86l-7.09,16.24c-.57,1.38-1.14,2.33-1.62,2.81-.24.24-.76.38-1.57.57h-.1v.76h6.52v-.76h-.1c-.9-.05-1.52-.24-1.81-.43-.24-.19-.38-.43-.38-.71,0-.38.19-.9.48-1.67,0,0,1.24-2.9,1.33-3h7.57c.05.14,1.14,2.76,1.14,2.76.38.9.57,1.57.57,1.95,0,.29-.14.52-.38.71s-.76.33-1.52.38h-.1v.76h8.14v-.76h-.1c-.86-.05-1.48-.29-1.9-.67ZM110.43,305.76c.14-.29,3.09-7.09,3.29-7.57.19.48,3,7.24,3.09,7.57h-6.38Z"/>
      <rect class="cls-1" x="216.12" y="302.61" width="6.48" height="1.57"/>
    </g>
  </g>
</svg>