<?xml version="1.0" encoding="UTF-8"?>
<svg id="Layer_2" data-name="Layer 2" xmlns="http://www.w3.org/2000/svg" viewBox="0 0 446.11 416.83">
  <defs>
    <style>
      .cls-1 {
        fill: #f7f5f5;
      }
    </style>
  </defs>
  <g id="Layer_1-2" data-name="Layer 1">
    <g>
      <path class="cls-1" d="M221.91,53.51c-13.86-6.8-31.36-4.28-52.52,7.56-17.26,9.7-26.96,21.48-29.1,35.33-.38,1.89.06,3.91,1.32,6.05,5.67,10.08,22.61,15.84,50.83,17.29,28.21,1.45,43.9,8.47,47.05,21.07,6.55,24.81,3.52,42.76-9.07,53.85-34.39,30.61-75.58,46.86-123.57,48.75-59.71,2.39-94.47-20.15-104.3-67.64-4.91-23.93-2.71-48.62,6.61-74.07,5.04-13.73,11.21-26.08,18.52-37.03,3.52-5.29,6.74-6.49,9.64-3.59,2.9,2.9,2.65,7.37-.76,13.41-18.52,33.51-22.3,60.84-11.34,82,13.73,26.7,40.12,39.74,79.17,39.11,46.48-.88,82.88-12.41,109.21-34.58-6.3-2.14-19.21-3.84-38.73-5.1-25.19-1.76-40.97-9.32-47.33-22.67-6.36-13.35-7.91-27.4-4.63-42.13,7.3-31.87,21.85-56.49,43.65-73.88C185.06,2.63,202.04-2.7,217.47,1.27c15.43,3.97,21.38,18.11,17.86,42.42-1.51,10.08-5.98,13.35-13.42,9.82ZM82.05,269.64c1.26-2.14,3.4-2.77,6.42-1.89,11.08,3.78,21.22,9.32,30.42,16.63,2.39,2.14,3.08,4.47,2.08,6.99l-14.93,29.28c-1.77,2.65-4,2.99-6.71,1.04-2.71-1.95-10.05-6.33-22.01-13.13l-10.58,20.78c-1.64,2.65-3.91,2.93-6.8.85-2.9-2.08-12.97-7.9-30.23-17.48-2.77-1.64-3.47-3.78-2.08-6.42l15.31-27.96c1.26-2.14,3.4-2.77,6.42-1.89,8.19,2.77,15.81,6.48,22.86,11.15l9.82-17.95Z"/>
      <path class="cls-1" d="M324.18,359.3c-9.21-7.31-19.35-12.84-30.42-16.62-3.03-.89-5.18-.26-6.43,1.88l-9.82,17.95c-7.06-4.66-14.67-8.38-22.87-11.15-3.02-.87-5.16-.25-6.42,1.9l-15.3,27.95c-1.39,2.65-.7,4.79,2.07,6.43,17.26,9.57,27.34,15.39,30.24,17.48,2.89,2.08,5.16,1.79,6.8-.86l10.58-20.79c11.96,6.82,19.3,11.18,22.01,13.14,2.71,1.95,4.95,1.61,6.71-1.04l14.92-29.29c1.01-2.53.32-4.86-2.07-7Z"/>
      <path class="cls-1" d="M367.46,199.56c-7.81,13.98-21.61,19.15-41.39,15.49-1.06-.2-2.05-.49-2.99-.87-7-2.25-13.57-8.38-19.68-18.4-4.79-7.55-8.95-11.46-12.47-11.72-12.44-.49-22.82,4.46-31.12,14.87,1.62,8,5.19,15.58,10.72,22.73,6.8,8.82,13.4,15,19.84,18.52,2.39,1.26,7.96,3.02,16.73,5.3,8.75,2.27,16.47,4.98,23.14,8.12,6.66,3.16,10.38,8.12,11.15,14.92,1.62,19.53,1.44,31.84-.58,36.94-2.01,5.1-6.17,6.08-12.47,2.93-24.43-12.47-40.12-18.76-47.04-18.89-6.94-.12-16.66,2.96-29.19,9.25-11.93,6-22.24,9.14-30.93,9.42-.11.02-.21.02-.31.02-.14,0-.28.02-.41.02-3.91.12-8.38.18-13.42.18,1.52,28.98-4.29,53.53-17.38,73.69-13.1,20.16-27.37,31.43-42.8,33.82-15.42,2.39-31.43.18-47.99-6.62-16.56-6.8-26.87-11.37-30.89-13.69-4.03-2.33-5.54-4.89-4.53-7.66.89-2.51,3.52-3.28,7.93-2.27,15.5,3.91,29.35,4.29,41.57,1.15,21.17-5.3,39.27-17.02,54.31-35.15,15.06-18.14,22.65-31.17,22.78-39.1,0-3.03-6.23-10.2-18.7-21.55-4.79-4.27-6.37-9.19-4.73-14.73l10.02-33.62c2.65-8.7,6.62-8.98,11.9-.86,5.3,8.12,8.82,13.42,10.58,15.87,1.73,2.42,6.68,3.83,14.84,4.23,18.49-1.64,31.87-4.79,40.13-9.42-11.38-19.97-14.98-39.26-10.75-57.81.18-1.33.43-2.76.75-4.26,2.39-11.27,8.38-21.95,17.95-32.03,9.57-10.08,20.71-15.36,33.44-15.87,7.43,0,13.28,2.89,17.57,8.68,8.06,11.33,13.54,18.07,16.44,20.22,17.43-.03,27.26-4.5,29.49-13.42-1.27-4.78-9.71-33.44-25.32-85.96-1.01-3.78-4.47-10.78-10.4-20.98-2.76-4.78-3.46-8.99-2.07-12.65l7.37-18.33c4.15-10.08,9.19-8.81,15.12,3.78,2.76,5.79,9.37,13.36,19.84,22.67,6.05,5.54,6.86,11.56,2.45,18.04-4.41,6.49-6.42,10.25-6.05,11.24,10.84,35.4,16.76,61.38,17.77,77.95,1.01,16.56-2.39,31.83-10.2,45.81Z"/>
      <path class="cls-1" d="M395.79,63.26c3.9-11.46,7.62-8.88,11.15,7.75l20.78,94.47c18.14,85.02,22.86,138.37,14.17,160.03-1.89,4.79-4.09,6.74-6.61,5.86-2.52-.88-4.35-7.12-5.48-18.7-2.02-19.9-12.03-64.74-30.04-134.53l-16.25-64.43c-1.51-5.54-1.38-10.83.38-15.87l11.9-34.58Z"/>
    </g>
  </g>
</svg>