<?xml version="1.0" encoding="UTF-8"?>
<svg id="Layer_2" data-name="Layer 2" xmlns="http://www.w3.org/2000/svg" viewBox="0 0 372.09 270.86">
  <defs>
    <style>
      .cls-1 {
        fill: #fff;
      }
    </style>
  </defs>
  <g id="Layer_1-2" data-name="Layer 1">
    <g>
      <g>
        <path class="cls-1" d="M118.73,95.26c14.78-27.32,30.03-35.84,41.46-38.45,15.26-3.48,24.8,3.34,44.14.03,17.41-2.98,30.46-12.04,38.77-19.24-14.65,26.67-29.86,35.31-41.45,38.05-14.44,3.41-23.24-2.33-41.75.48-18.2,2.77-32.09,11.74-41.17,19.13Z"/>
        <path class="cls-1" d="M243.1,2.76c-14.65,26.68-29.86,35.31-41.46,38.05-14.43,3.41-23.24-2.34-41.75.47-18.2,2.78-32.09,11.74-41.16,19.13,14.77-27.32,30.04-35.84,41.46-38.44,5.17-1.18,9.69-1.18,14.14-.79-3.72-1.93-8.38-3.72-13.89-4.55-21.34-3.18-38.08,10.8-41.71,13.98C139.79,3.74,155.56-.7,165.95.08c13.97,1.04,20.08,11.62,37.23,13.78,16.45,2.06,30.82-5.16,39.92-11.09Z"/>
        <path class="cls-1" d="M118.73,130.1c14.78-27.32,30.03-35.84,41.46-38.45,15.26-3.48,24.8,3.34,44.14.03,17.41-2.98,30.46-12.04,38.77-19.24-14.65,26.67-29.86,35.31-41.45,38.05-14.44,3.41-23.24-2.33-41.75.48-18.2,2.77-32.09,11.74-41.17,19.13Z"/>
        <path class="cls-1" d="M118.73,164.94c14.78-27.32,30.03-35.84,41.46-38.45,15.26-3.48,24.8,3.34,44.14.03,17.41-2.98,30.46-12.04,38.77-19.24-14.65,26.67-29.86,35.31-41.45,38.05-14.44,3.41-23.24-2.33-41.75.48-18.2,2.77-32.09,11.74-41.17,19.13Z"/>
      </g>
      <g>
        <path class="cls-1" d="M28.43,237.11h-7.44c-.26,0-.39.1-.39.3,0,.15.1.26.3.32l.69.21c.8.23,1.4.58,1.81,1.06.41.47.62,1.03.62,1.65,0,.37-.08.77-.25,1.19l-5.99,15.16-7.58-18.26c-.05-.12-.07-.22-.07-.3,0-.12.05-.22.15-.29.1-.07.27-.13.52-.17l1.7-.25c.24-.01.37-.13.37-.34,0-.11-.03-.18-.09-.22-.06-.04-.18-.06-.34-.06H.41c-.15,0-.26.02-.32.07s-.09.12-.09.23c0,.06.03.12.08.18.05.06.13.1.24.12l.92.21c.51.06.91.38,1.22.96l8.36,19.68v9.99c0,.2-.07.36-.21.47-.14.12-.37.2-.69.26l-1.84.3c-.21.08-.32.19-.32.34,0,.11.03.18.08.23.05.05.16.07.31.07h12.77c.28,0,.41-.1.41-.3,0-.14-.12-.25-.34-.34l-1.81-.3c-.32-.06-.55-.15-.69-.26-.14-.11-.21-.28-.21-.49v-10.63l6.29-16.01c.41-1.12.91-2.01,1.48-2.66.57-.66,1.25-1.09,2.03-1.31l.46-.18c.18-.06.28-.18.28-.34,0-.18-.13-.28-.39-.28Z"/>
        <path class="cls-1" d="M55.75,238.76c-2.46-1.44-5.31-2.16-8.54-2.16s-5.88.72-8.32,2.15c-2.44,1.43-4.34,3.43-5.71,5.99-1.36,2.56-2.04,5.49-2.04,8.78s.68,6.38,2.03,8.98c1.35,2.6,3.27,4.62,5.74,6.06,2.47,1.44,5.32,2.16,8.55,2.16s5.97-.72,8.39-2.16c2.43-1.44,4.31-3.46,5.65-6.05,1.34-2.59,2.01-5.58,2.01-8.97s-.68-6.22-2.03-8.78c-1.35-2.56-3.26-4.57-5.73-6ZM54.2,267.14c-1.17,1.81-2.82,2.71-4.95,2.71-1.82,0-3.54-1.02-5.17-3.07-1.62-2.04-2.93-4.75-3.92-8.12-.99-3.37-1.48-6.94-1.48-10.72,0-2.24.28-4.14.84-5.72.56-1.58,1.35-2.77,2.37-3.57,1.02-.8,2.21-1.21,3.57-1.21,1.82,0,3.54,1.01,5.15,3.03,1.62,2.02,2.91,4.7,3.88,8.03.97,3.33,1.46,6.85,1.46,10.55s-.59,6.28-1.76,8.08Z"/>
        <path class="cls-1" d="M96.54,237.11h-8.8c-.25,0-.37.1-.37.3s.11.31.34.32l1.63.44c.86.26,1.48.65,1.88,1.17.4.52.63,1.21.69,2.07l.87,14.4c.14,2.07.21,3.76.21,5.07-.02,1.82-.39,3.41-1.13,4.76-.73,1.35-1.75,2.4-3.05,3.12-1.3.73-2.8,1.09-4.5,1.09-2.25,0-4-.73-5.25-2.19-1.25-1.46-1.88-3.69-1.89-6.67v-.78c0-1.82.06-3.47.18-4.94l.99-16.46c.01-.23.09-.4.22-.51.13-.11.35-.19.65-.25l1.91-.32c.29-.01.44-.12.44-.32s-.13-.3-.39-.3h-12.95c-.26,0-.39.1-.39.3,0,.17.14.28.41.32l1.84.32c.34.06.57.14.71.24.14.1.2.25.18.45l-1.03,16.65c-.2,2.99-.3,4.91-.3,5.76.01,1.9.51,3.57,1.47,5.03.96,1.45,2.42,2.59,4.37,3.42,1.95.83,4.37,1.24,7.27,1.24,3.49,0,6.19-.85,8.11-2.56,1.91-1.71,2.9-4.24,2.96-7.61,0-1.33-.08-3.04-.25-5.12l-.85-14.15c-.06-.77.12-1.44.55-2.01.43-.57,1.03-.98,1.81-1.21l1.38-.41c.29-.11.44-.23.44-.37,0-.2-.12-.3-.37-.3Z"/>
        <path class="cls-1" d="M121.84,237.04c-.06-.35-.25-.53-.55-.53-.21,0-.77.35-1.65,1.06l-.51.39c-.43.34-.77.51-1.01.51-.12,0-.29-.05-.51-.14-.21-.09-.45-.21-.71-.34-.78-.41-1.45-.72-2.02-.92-.83-.29-1.91-.44-3.24-.44-2.01,0-3.87.38-5.6,1.14-1.73.76-3.12,1.87-4.16,3.33-1.04,1.46-1.56,3.2-1.56,5.2,0,1.68.33,3.18,1,4.5.67,1.32,1.75,2.5,3.25,3.56,1.5,1.06,3.49,2.01,5.97,2.85,1.88.66,3.37,1.36,4.45,2.1,1.09.74,1.86,1.55,2.31,2.42.45.87.68,1.88.68,3.01,0,1.7-.48,3-1.45,3.89-.96.9-2.28,1.34-3.95,1.34s-3.13-.51-4.49-1.54c-1.35-1.03-2.51-2.26-3.48-3.71s-1.89-3.07-2.78-4.86c-.15-.28-.32-.37-.51-.28-.11.08-.16.25-.16.51l1.75,10.17c.01.17.09.31.22.41.13.11.26.16.4.16.12,0,.3-.11.54-.32.24-.21.55-.53.95-.94.4-.41.71-.72.94-.93.23-.21.4-.31.51-.31s.28.07.51.22c.23.15.37.23.41.26.84.55,1.61.98,2.3,1.29.92.41,2.07.62,3.47.62,1.99,0,3.83-.36,5.51-1.09,1.68-.73,3.03-1.8,4.03-3.22,1-1.42,1.5-3.12,1.5-5.11,0-1.58-.33-2.99-.98-4.23-.65-1.24-1.73-2.38-3.23-3.43-1.5-1.05-3.52-2.03-6.06-2.95-1.79-.66-3.21-1.37-4.25-2.12-1.04-.76-1.78-1.58-2.22-2.48-.44-.9-.65-1.91-.65-3.04s.21-2.08.64-2.94c.43-.86,1.05-1.53,1.86-2.01.81-.48,1.77-.72,2.87-.72,1.75,0,3.33.49,4.75,1.48,1.42.99,2.64,2.19,3.66,3.59,1.02,1.41,2.04,3.05,3.07,4.94.14.17.28.25.41.25.09,0,.16-.05.2-.15.04-.1.05-.23.03-.4l-2.48-10.06Z"/>
        <path class="cls-1" d="M150.2,237.04c-.06-.35-.25-.53-.55-.53-.21,0-.77.35-1.65,1.06l-.51.39c-.43.34-.77.51-1.01.51-.12,0-.29-.05-.51-.14-.21-.09-.45-.21-.71-.34-.78-.41-1.45-.72-2.02-.92-.83-.29-1.91-.44-3.24-.44-2.01,0-3.87.38-5.6,1.14-1.73.76-3.12,1.87-4.16,3.33-1.04,1.46-1.56,3.2-1.56,5.2,0,1.68.33,3.18,1,4.5.67,1.32,1.75,2.5,3.25,3.56,1.5,1.06,3.49,2.01,5.97,2.85,1.88.66,3.37,1.36,4.45,2.1,1.09.74,1.86,1.55,2.31,2.42.45.87.68,1.88.68,3.01,0,1.7-.48,3-1.45,3.89-.96.9-2.28,1.34-3.95,1.34s-3.13-.51-4.49-1.54c-1.35-1.03-2.51-2.26-3.48-3.71s-1.89-3.07-2.78-4.86c-.15-.28-.32-.37-.51-.28-.11.08-.16.25-.16.51l1.75,10.17c.01.17.09.31.22.41.13.11.26.16.4.16.12,0,.3-.11.54-.32.24-.21.55-.53.95-.94.4-.41.71-.72.94-.93.23-.21.4-.31.51-.31s.28.07.51.22c.23.15.37.23.41.26.84.55,1.61.98,2.3,1.29.92.41,2.07.62,3.47.62,1.99,0,3.83-.36,5.51-1.09,1.68-.73,3.03-1.8,4.03-3.22,1-1.42,1.5-3.12,1.5-5.11,0-1.58-.33-2.99-.98-4.23-.65-1.24-1.73-2.38-3.23-3.43-1.5-1.05-3.52-2.03-6.06-2.95-1.79-.66-3.21-1.37-4.25-2.12-1.04-.76-1.78-1.58-2.22-2.48-.44-.9-.65-1.91-.65-3.04s.21-2.08.64-2.94c.43-.86,1.05-1.53,1.86-2.01.81-.48,1.77-.72,2.87-.72,1.75,0,3.33.49,4.75,1.48,1.42.99,2.64,2.19,3.66,3.59,1.02,1.41,2.04,3.05,3.07,4.94.14.17.28.25.41.25.09,0,.16-.05.2-.15.04-.1.05-.23.03-.4l-2.48-10.06Z"/>
        <path class="cls-1" d="M182.76,259.24c-.09-.01-.17,0-.24.05-.07.05-.15.13-.24.25-1.61,2.97-2.88,5.06-3.81,6.27-.9,1.16-1.81,2.07-2.71,2.71-.9.64-1.95.96-3.15.96h-3.97c-.4,0-.7-.11-.92-.32-.21-.21-.32-.51-.32-.9v-14.86h5.07c.92,0,1.68.1,2.3.31.61.21,1.2.57,1.76,1.1.56.53,1.22,1.32,1.99,2.38.11.11.21.16.32.16l.16-.02c.11-.08.16-.18.16-.32,0-.08,0-.14-.02-.18l-2.46-8.22c-.09-.26-.21-.39-.37-.39s-.26.12-.32.34c-.12.96-.32,1.74-.59,2.32s-.68,1.02-1.23,1.32c-.55.3-1.3.45-2.25.45h-4.52v-14.83h4.91c1.04,0,2,.22,2.88.67.88.44,1.83,1.24,2.85,2.39,1.02,1.15,2.23,2.79,3.64,4.94.14.17.27.25.39.25h.09c.14-.08.21-.17.21-.28,0-.03-.02-.11-.05-.23l-2.11-8.38c-.06-.28-.13-.46-.2-.56-.07-.1-.16-.15-.26-.15-.06,0-.22.05-.48.16-.32.14-.63.25-.92.34-.29.09-.61.14-.96.14h-20.12c-.26,0-.39.1-.39.3,0,.18.11.29.34.32l1.84.32c.29.03.52.11.68.23.16.12.24.28.24.46v29.83c0,.35-.31.59-.92.71l-1.84.3c-.23.08-.34.19-.34.34,0,.2.13.3.39.3h19.98c.46,0,.85.04,1.17.13.32.08.67.2,1.03.36.28.11.45.16.53.16.12,0,.21-.05.28-.16.06-.11.12-.3.18-.57l2.53-10.31c.03-.12.05-.2.05-.23,0-.15-.08-.27-.25-.34Z"/>
        <path class="cls-1" d="M208.49,236.64c-.07-.1-.15-.15-.24-.15-.05,0-.31.1-.8.31-.49.21-1,.31-1.54.31h-19.01c-.26,0-.39.1-.39.3,0,.17.11.28.34.32l1.84.32c.29.03.52.11.68.23.16.12.24.28.24.46v29.83c0,.35-.31.59-.92.71l-1.84.3c-.23.08-.34.19-.34.34,0,.2.13.3.39.3h13.87c.12,0,.22-.03.3-.08.08-.05.11-.13.11-.22,0-.2-.13-.31-.39-.34l-2.64-.3c-.75-.09-1.13-.33-1.13-.71v-14.51h4.52c.86,0,1.58.11,2.16.32.58.21,1.14.58,1.66,1.09.53.51,1.18,1.29,1.96,2.33.11.12.21.18.3.18.05,0,.1-.02.16-.05.12-.03.18-.11.18-.25,0-.03-.02-.09-.05-.18l-1.91-8.27c-.06-.24-.19-.37-.39-.37-.14,0-.24.11-.3.32-.17,1.45-.58,2.5-1.23,3.15-.65.64-1.7.96-3.16.96h-3.93v-15.48h4.04c1.04,0,2.03.25,2.96.73.93.49,1.9,1.32,2.89,2.49.99,1.17,2.07,2.77,3.24,4.79.09.15.22.23.39.23h.07c.15-.02.23-.13.23-.34v-.11l-2.16-8.43c-.06-.26-.13-.44-.2-.54Z"/>
        <path class="cls-1" d="M251.23,238.28c.16-.12.39-.2.68-.23l1.79-.32c.24-.05.37-.15.37-.32,0-.2-.14-.3-.41-.3h-12.81c-.26,0-.39.1-.39.3,0,.17.12.28.34.32l1.81.32c.61.06.92.29.92.69v15.5h-11.87v-15.5c0-.18.08-.34.24-.46.16-.12.39-.2.68-.23l1.81-.32c.24-.05.37-.15.37-.32,0-.2-.14-.3-.41-.3h-12.81c-.26,0-.39.1-.39.3,0,.17.12.28.37.32l1.79.32c.63.08.94.31.94.69v29.83c0,.35-.31.59-.94.71l-1.79.3c-.25.06-.37.18-.37.34,0,.2.13.3.39.3h12.81c.28,0,.41-.1.41-.3,0-.17-.12-.28-.37-.34l-1.81-.3c-.61-.12-.92-.36-.92-.71v-13.57h11.87v13.57c0,.37-.31.61-.92.71l-1.81.3c-.23.06-.34.18-.34.34,0,.2.13.3.39.3h12.81c.12,0,.22-.03.3-.08.08-.05.11-.13.11-.22,0-.17-.12-.28-.37-.34l-1.79-.3c-.61-.12-.92-.36-.92-.71v-29.83c0-.18.08-.34.24-.46Z"/>
        <path class="cls-1" d="M286.65,269.53c-.35-.06-.65-.2-.88-.42-.24-.22-.43-.55-.59-1l-9.09-28.93c-.12-.34-.18-.57-.18-.71,0-.17.06-.29.17-.38.11-.08.3-.15.56-.2.35-.21.53-.38.53-.48,0-.2-.13-.3-.39-.3h-10.04c-.15,0-.26.02-.31.07-.05.05-.08.12-.08.23,0,.06.06.13.17.22.11.08.23.18.36.29.73.34,1.1.86,1.1,1.56,0,.29-.05.6-.16.94l-7.3,25.17c-.32,1.09-.73,1.93-1.23,2.53-.5.6-1.03,1-1.6,1.22l-.85.28s-.08.05-.15.09c-.07.05-.1.12-.1.23,0,.09.03.16.09.22.06.05.15.08.25.08h7.58c.21,0,.32-.1.32-.3,0-.12-.09-.23-.28-.32l-.64-.18c-.87-.32-1.54-.71-2.01-1.16-.47-.45-.7-1.01-.7-1.66,0-.34.05-.67.16-1.01l2.18-7.53h10.7l3.08,9.9c.09.28.14.51.14.69,0,.2-.06.36-.17.48s-.3.22-.56.3l-1.01.18c-.14.06-.23.11-.26.14-.04.03-.06.09-.06.18s.03.16.09.22c.06.05.15.08.25.08h10.88c.24,0,.37-.1.37-.3,0-.09-.02-.16-.07-.22s-.14-.11-.28-.17ZM263.77,257.27l4.94-16.99,5.28,16.99h-10.22Z"/>
        <path class="cls-1" d="M320.54,269.67s-.08-.05-.11-.07c-.51-.12-.93-.29-1.26-.49-.34-.21-.66-.56-.96-1.07l-6.41-10.72c1.99-.69,3.59-1.76,4.81-3.2s1.83-3.25,1.83-5.41c0-2.34-.65-4.39-1.95-6.13-1.3-1.75-3.18-3.09-5.63-4.04-2.45-.95-5.35-1.42-8.7-1.42h-12.01c-.26,0-.39.1-.39.3,0,.17.11.28.34.32l1.84.32c.29.03.52.11.68.23.16.12.24.28.24.46v29.53c0,.29-.07.52-.22.68-.15.16-.38.27-.7.33l-1.84.3c-.23.08-.34.19-.34.34,0,.2.13.3.39.3h12.7c.26,0,.39-.1.39-.3,0-.09-.03-.16-.08-.21-.05-.05-.15-.09-.29-.14l-1.68-.3c-.32-.08-.55-.19-.7-.34-.15-.15-.22-.38-.22-.67v-11.18c1.18.6,2.72.95,4.64,1.06l5.44,9.67c.2.38.3.68.3.9,0,.18-.06.33-.17.45-.11.11-.29.21-.54.29l-.9.21c-.12.05-.2.09-.24.13-.04.04-.06.09-.06.15,0,.2.13.3.39.3h11.16c.26,0,.39-.1.39-.3,0-.06-.01-.11-.03-.15-.02-.04-.06-.07-.1-.1ZM309.37,254.96c-1.02,1.54-2.66,2.31-4.93,2.31-1.65,0-3.05-.31-4.18-.92v-18.55h1.84c1.87,0,3.47.56,4.8,1.66,1.33,1.11,2.33,2.53,3,4.26.67,1.73,1,3.51,1,5.33,0,2.4-.51,4.37-1.53,5.91Z"/>
        <path class="cls-1" d="M334.8,238.05l1.79-.32c.23-.05.34-.15.34-.32,0-.2-.13-.3-.39-.3h-12.84c-.26,0-.39.1-.39.3,0,.17.11.28.34.32l1.84.32c.29.03.52.11.68.23.16.12.24.28.24.46v29.83c0,.35-.31.59-.92.71l-1.84.3c-.23.06-.34.18-.34.34,0,.2.13.3.39.3h12.84c.26,0,.39-.1.39-.3,0-.17-.11-.28-.34-.34l-1.79-.3c-.64-.12-.96-.36-.96-.71v-29.83c0-.4.32-.63.96-.69Z"/>
        <path class="cls-1" d="M372.06,269.77s-.06-.07-.1-.1c-.05-.03-.08-.05-.11-.07-.51-.12-.93-.29-1.26-.49-.34-.21-.66-.56-.96-1.07l-6.41-10.72c1.99-.69,3.59-1.76,4.81-3.2s1.83-3.25,1.83-5.41c0-2.34-.65-4.39-1.95-6.13-1.3-1.75-3.18-3.09-5.63-4.04-2.45-.95-5.35-1.42-8.7-1.42h-12.01c-.26,0-.39.1-.39.3,0,.17.11.28.34.32l1.84.32c.29.03.52.11.68.23.16.12.24.28.24.46v29.53c0,.29-.07.52-.22.68-.15.16-.38.27-.7.33l-1.84.3c-.23.08-.34.19-.34.34,0,.2.13.3.39.3h12.7c.26,0,.39-.1.39-.3,0-.09-.03-.16-.08-.21-.05-.05-.15-.09-.29-.14l-1.68-.3c-.32-.08-.55-.19-.7-.34-.15-.15-.22-.38-.22-.67v-11.18c1.18.6,2.73.95,4.64,1.06l5.44,9.67c.2.38.3.68.3.9,0,.18-.06.33-.17.45-.12.11-.29.21-.54.29l-.9.21c-.12.05-.2.09-.24.13s-.06.09-.06.15c0,.2.13.3.39.3h11.16c.26,0,.39-.1.39-.3,0-.06-.01-.11-.03-.15ZM360.78,254.96c-1.02,1.54-2.66,2.31-4.93,2.31-1.65,0-3.05-.31-4.18-.92v-18.55h1.84c1.87,0,3.47.56,4.8,1.66,1.33,1.11,2.33,2.53,3,4.26.67,1.73,1,3.51,1,5.33,0,2.4-.51,4.37-1.53,5.91Z"/>
      </g>
      <g>
        <path class="cls-1" d="M33.17,180.3l3.66-3.92c-.4-.66-1.04-1.38-1.93-2.16s-1.72-1.37-2.51-1.75l-3.4,4.17v.28c.63.27,1.38.77,2.26,1.48.87.72,1.51,1.35,1.91,1.89Z"/>
        <path class="cls-1" d="M69.68,196.2c0-1.48-.12-2.84-.37-4.1-.24-1.25-.52-2.31-.83-3.17-.31-.86-.68-1.77-1.11-2.73l-.3-.69h-.26c-.37,1.15-.85,2.32-1.44,3.51-.59,1.19-1.15,2.19-1.7,3.01,1.96,1.48,3.31,2.56,4.03,3.25.72.69,1.09,1.18,1.09,1.46,0,.17-.23.36-.69.57-.46.21-1.06.38-1.81.52-.75.14-1.53.2-2.34.2-1.08,0-2.03-.1-2.86-.3-.83-.2-1.46-.47-1.89-.82l.58-4.35h-.54c-.26,1.41-.63,2.5-1.11,3.28-.48.78-1.13,1.34-1.94,1.68-.81.34-1.88.51-3.22.51-1.88,0-3.3-.32-4.26-.95.33-2.28.54-3.79.62-4.52h-.52c-.34,1.46-.82,2.59-1.43,3.38-.61.79-1.4,1.33-2.37,1.63s-2.23.45-3.78.45h-3.53c.96-1.48,1.44-3.3,1.44-5.46,0-1.63-.24-3.06-.73-4.28s-1.19-2.16-2.1-2.82c-.91-.66-1.97-.99-3.17-.99-1.45,0-2.77.54-3.97,1.61-1.2,1.08-2.14,2.51-2.83,4.31-.69,1.8-1.03,3.73-1.03,5.8,0,.69.1,1.32.3,1.89-2.4.13-5.28.19-8.65.19-3.03,0-5.59-.28-7.68-.85-2.09-.57-3.66-1.34-4.71-2.32-1.05-.98-1.57-2.1-1.57-3.35,0-.8.05-1.56.15-2.28.1-.72.27-1.52.52-2.41h-.52c-.72,1.91-1.2,3.6-1.45,5.08-.25,1.48-.38,2.92-.38,4.32,0,2.22.5,4.06,1.51,5.51,1,1.45,2.6,2.54,4.79,3.28,2.19.74,5.04,1.11,8.57,1.11,4.29,0,7.6-.33,9.93-1,2.33-.67,3.89-1.72,4.68-3.17h.26c.39,1.32,1.29,2.3,2.71,2.95,1.42.65,3.47.97,6.15.97h0c2.12,0,3.82-.55,5.09-1.66,1.27-1.1,2.1-2.81,2.48-5.12h.26c-.12.65-.17,1.31-.17,2,0,1.61.38,2.8,1.15,3.59.77.79,1.83,1.18,3.19,1.18,1.65,0,3.04-.57,4.18-1.7,1.14-1.13,1.83-2.83,2.08-5.08h.26c-.06.46-.09.95-.09,1.46,0,3.54,1.68,5.31,5.03,5.31,2.07,0,3.62-.86,4.68-2.58,1.05-1.72,1.58-4.17,1.58-7.34ZM35.37,196.99c-.92.4-2.06.74-3.41,1.01-1.06-.37-2.02-.85-2.86-1.42-.85-.57-1.5-1.15-1.97-1.74-.47-.59-.7-1.09-.7-1.51,0-.44.28-.91.85-1.4.57-.49,1.3-.9,2.22-1.23.91-.33,1.85-.49,2.83-.49s1.87.22,2.76.67c.9.44,1.62,1.01,2.18,1.7.56.69.84,1.38.84,2.07,0,.33-.23.7-.68,1.12-.45.42-1.14.83-2.07,1.23Z"/>
        <path class="cls-1" d="M137.55,206.11h9.12c2.92,0,5.23-.4,6.94-1.2,1.71-.8,2.94-2,3.68-3.59.74-1.59,1.11-3.64,1.11-6.15,0-2.05-.23-3.88-.7-5.49-.47-1.61-1.04-3.18-1.73-4.73-.23-.47-.37-.8-.43-.99h-.28c-.52,1.33-1.09,2.66-1.71,3.99-.62,1.33-1.18,2.26-1.67,2.79.85.57,1.71,1.24,2.59,2s1.61,1.46,2.18,2.11c.57.65.86,1.1.86,1.36,0,.3-.47.6-1.4.88-.93.29-2.14.52-3.62.69-1.48.17-2.99.26-4.53.26h-57.97c-.2-2.22-.63-4.13-1.3-5.73-.67-1.6-1.54-2.83-2.62-3.68-1.08-.85-2.34-1.28-3.78-1.28-1.51,0-2.83.53-3.98,1.58-1.15,1.05-2.03,2.46-2.65,4.21-.62,1.75-.93,3.65-.93,5.7,0,4.86,2.17,7.29,6.52,7.29,1.48,0,2.77-.06,3.88-.17,1.11-.11,2.2-.3,3.26-.56-.95,1.28-2.5,2.54-4.66,3.8-2.16,1.25-4.53,2.36-7.12,3.3-2.59.95-4.96,1.61-7.11,1.98v.26c.49.16,1.04.37,1.65.63s.97.42,1.09.46c1.45.65,2.71,1.14,3.8,1.5,1.08.35,2.21.53,3.39.53,1.64,0,3.16-.43,4.56-1.3,1.41-.87,2.61-2.18,3.61-3.95,1-1.76,1.71-3.92,2.13-6.48h47.82ZM81.51,198.54c-1.39,0-2.51-.11-3.37-.34s-1.46-.52-1.83-.88c-.37-.36-.55-.73-.55-1.12,0-.36.25-.79.75-1.29.5-.5,1.17-.93,2.01-1.29.84-.36,1.75-.54,2.72-.54,1.72,0,3.21.47,4.45,1.4,1.25.93,2.19,2.22,2.82,3.87-1.69.13-4.03.19-7.01.19Z"/>
        <path class="cls-1" d="M157.08,212.11c0-.77-.3-1.32-.89-1.62-.6-.31-1.51-.46-2.74-.46-.92,0-2.21.03-3.87.1-1.66.06-3.33.15-5.01.27-.14.59-.42,1.44-.82,2.57-.4,1.13-.73,1.92-.99,2.38,1.35-.12,3.08-.2,5.18-.27,2.11-.06,3.59-.1,4.45-.1,1.22,0,2.09.09,2.61.28.52.19.79.53.79,1.03h.26c.1-.59.29-1.31.56-2.15.16-.47.28-.86.35-1.17.08-.31.12-.59.12-.85Z"/>
        <path class="cls-1" d="M223.68,206.11h27.36c4.48,0,7.89-.36,10.24-1.09,2.35-.72,3.97-1.86,4.85-3.41.88-1.55,1.32-3.7,1.32-6.45,0-2.05-.23-3.88-.7-5.49-.47-1.61-1.04-3.18-1.73-4.73-.23-.47-.37-.8-.43-.99h-.26c-.55,1.38-1.13,2.72-1.74,4.02s-1.17,2.22-1.66,2.75c.85.57,1.71,1.24,2.59,2s1.61,1.46,2.18,2.11c.57.65.86,1.1.86,1.36,0,.32-.57.61-1.7.89-1.13.28-2.78.51-4.93.68-2.15.17-4.69.26-7.62.26h-63.85c-1.43,0-2.71-.57-3.82-1.71-1.11-1.14-2.1-3.17-2.96-6.1h-.26c-.39,1.16-.86,2.36-1.43,3.6-.57,1.24-1.04,2.13-1.43,2.66,1.59,3.99,3.26,6.72,4.99,8.2-.7,1.02-2.03,2.2-3.98,3.54-1.95,1.34-4.17,2.59-6.67,3.75-2.5,1.16-4.87,1.99-7.12,2.5v.26c.5.17,1.31.54,2.43,1.1,1.28.65,2.39,1.14,3.36,1.5.96.35,1.99.53,3.08.53,1.61,0,3.09-.48,4.45-1.45,1.36-.97,2.5-2.4,3.42-4.28.92-1.89,1.53-4.16,1.83-6.83.86.55,1.79.83,2.77.84,0,0,.02,0,.02,0h36.51Z"/>
        <path class="cls-1" d="M263.29,215.26c.52.19.79.53.79,1.03h.26c.1-.59.29-1.31.56-2.15.16-.47.28-.86.36-1.17.08-.31.12-.59.12-.85,0-.77-.3-1.32-.89-1.62-.6-.31-1.51-.46-2.74-.46-.92,0-2.21.03-3.87.1-1.66.06-3.33.15-5.01.27-.14.59-.42,1.44-.82,2.57s-.73,1.92-.99,2.38c1.35-.12,3.08-.2,5.18-.27,2.11-.06,3.59-.1,4.45-.1,1.22,0,2.09.09,2.61.28Z"/>
        <path class="cls-1" d="M332.38,206.11h9.12c2.87,0,5.37-.32,7.5-.95,2.13-.63,3.89-1.38,5.28-2.26,1.39-.87,2.93-2,4.63-3.38,1.15-.93,2.1-1.66,2.86-2.18.76-.52,1.6-.97,2.52-1.33.92-.37,1.92-.56,3.01-.59.4-.79.98-1.71,1.73-2.78.75-1.06,1.34-1.79,1.77-2.17v-.26c-1.31-.04-2.63-.22-3.99-.52-1.35-.3-2.62-.65-3.79-1.04-1.17-.39-2.6-.91-4.29-1.54-1.99-.73-3.57-1.27-4.72-1.61-1.16-.34-2.2-.52-3.13-.52s-1.77.22-2.46.67c-.7.44-1.35,1.29-1.98,2.54-.62,1.25-1.23,3.05-1.82,5.4h.26c.5-.9,1.14-1.56,1.93-1.98.78-.42,1.7-.62,2.76-.62.8,0,1.66.12,2.56.34.9.23,2.12.59,3.64,1.08,1.66.53,3.11.97,4.34,1.31,1.23.34,2.59.65,4.07.93v.26c-.23.07-.76.26-1.59.56-1.49.55-2.92.99-4.27,1.32-1.36.34-3.29.63-5.81.87-2.52.24-5.75.37-9.71.37h-54.73c-1.43,0-2.71-.57-3.82-1.71-1.11-1.14-2.1-3.17-2.96-6.1h-.26c-.39,1.16-.86,2.36-1.43,3.6-.57,1.24-1.04,2.13-1.43,2.66,1.59,3.99,3.26,6.72,4.99,8.2-.7,1.02-2.03,2.2-3.98,3.54-1.95,1.34-4.17,2.59-6.67,3.75-2.5,1.16-4.87,1.99-7.12,2.5v.26c.5.17,1.31.54,2.43,1.1,1.28.65,2.39,1.14,3.36,1.5.96.35,1.99.53,3.08.53,1.61,0,3.09-.48,4.45-1.45,1.36-.97,2.5-2.4,3.42-4.28.92-1.89,1.53-4.16,1.83-6.83.86.55,1.79.83,2.77.84,0,0,.02,0,.02,0h45.63Z"/>
      </g>
    </g>
  </g>
</svg>