<?xml version="1.0" encoding="UTF-8"?>
<svg id="Layer_2" data-name="Layer 2" xmlns="http://www.w3.org/2000/svg" viewBox="0 0 327.95 211.94">
  <defs>
    <style>
      .cls-1 {
        fill: #fff;
      }
    </style>
  </defs>
  <g id="Layer_1-2" data-name="Layer 1">
    <g>
      <g>
        <path class="cls-1" d="M327.54,78.06c-6.67-6.11-14.43-11.1-22.71-14.72-14.87-6.49-31.17-7.84-46.89-3.8-7.45,1.91-14.53,5.04-21.04,9.14-2.01,1.26-3.86,4.41-5.06,6.24-2.4,3.66-4.59,7.61-6.44,11.56-1.43,3.05-3.15,6.29-3.77,9.61-.13.71-.81,3.56.94,2.46,6.49-4.09,13.54-7.17,20.96-9.11,16.51-3.92,33.41-1.48,48.35,5.73-6.71,2.41-13.56,4.47-20.52,6.2-9.49,2.3-19.2,4.05-28.98,4.33-9.38.27-19.72-.7-27.67-6.17-5.32-3.66-9.22-9.36-11.57-15.31-1.3-3.7-2.09-7.64-2-11.57.02-.9.07-1.76.04-2.66-.03-.64,0-2.76-.64-3.15-1.83-1.1-5.78,5.82-6.2,6.46-3.8,5.8-7.22,12.16-9.49,18.72-.43,1.23-.83,2.47-1.04,3.76-.31,1.84-.51,3.69-.73,5.54-2.8,1.83-5.85,3.24-9.08,4.14-4.5.98-9.43.82-13.29-1.97-2.92-2.11-4.58-5.35-5.84-8.63-3.07-8.67-4.77-18.69-13.18-23.95-8.34-5.22-20.36-5.14-29.03-.77-2.48,1.25-4.63,3-6.56,4.99-4.99,5.14-8.62,11.95-11.82,18.26-1.71,3.37-3.47,6.97-4.77,10.68-1.42.75-2.9,1.35-4.44,1.79-12.1,2.57-21.42-8.72-25.39-18.97-.92-2.71-1.53-5.49-1.61-8.36-.06-2.34.29-4.65.31-6.98.03-4.25-2.17-7.81-5.49-10.31-7.22-5.45-18.01-6.82-26.3-3.15-2.63,1.16-4.84,2.97-6.84,5.01-4.62,4.71-8.03,10.85-11.09,16.62C4.27,87.92-.72,97.76.09,107.43c.96,11.48,10.67,20.36,22.33,19.41,9.1-.75,14.87-7.07,19.65-14.3.23,1,.52,1.99.86,2.97,2.38,6.83,6.43,13.47,12.43,17.7,5.21,3.66,11.09,4.18,16.99,2.01,6.7-2.48,11.9-8.06,16.1-13.63,1.41,4.73,4.09,9.25,8.19,12.06,3.43,2.35,7.65,3.29,11.76,3.21,12.05-.23,21.43-7.65,28.58-16.67.96,3.11,2,6.2,3.61,9.01,3.09,5.38,8.65,7.69,14.76,7,8.01-.91,15.24-5.42,20.7-11.17,3.83-4.04,7-8.82,9.81-13.72.82,2.77,1.97,5.44,3.37,7.92,2.84,5,6.81,9.43,11.91,12.17,4.31,2.32,9.15,3.53,13.99,4.14,10.63,1.34,21.53,0,31.98-2.06,8.72-1.72,17.34-4.04,25.8-6.76,13.87-4.46,27.11-10.74,39.39-18.57,2-1.28,3.88-4.4,5.06-6.25,1.98-3.08,3.76-6.26,5.41-9.52,1.48-2.92,2.98-5.93,4-9.04.38-1.15,1.86-4.28.75-5.3ZM40.67,96.21c-8.55,1.56-17.26-2.36-21.55-9.78,3.96-.21,7.96.46,11.67,1.88,3.88,1.49,7.94,3.94,9.98,7.68-.03.07-.06.14-.1.21ZM130.06,105.85c-4.6,1.02-9.5,1.03-13.93-.74-3.77-1.5-6.69-4.27-8.77-7.62,5.26-.53,10.7.15,15.51,2.3,3.14,1.4,5.62,3.45,7.62,5.93-.14.04-.29.08-.43.12Z"/>
        <path class="cls-1" d="M259.32,27.19c6.41,3.4,12.83,6.8,19.24,10.2,3.02,1.6,16.28-25.56,13.56-27.01-6.41-3.4-12.83-6.8-19.24-10.2-3.02-1.6-16.28,25.56-13.56,27.01Z"/>
        <path class="cls-1" d="M168.35,27.19c6.41,3.4,12.83,6.8,19.24,10.2,1.25.66,4.25-3.6,7.15-8.93,5.61,2.98,11.23,5.95,16.84,8.93,3.02,1.6,16.28-25.56,13.56-27.01-6.41-3.4-12.83-6.8-19.24-10.2-1.25-.66-4.25,3.6-7.15,8.93-5.61-2.98-11.23-5.95-16.84-8.93-3.02-1.6-16.28,25.56-13.56,27.01Z"/>
        <path class="cls-1" d="M14.84,27.19c6.41,3.4,12.83,6.8,19.24,10.2,1.25.66,4.25-3.6,7.15-8.93,5.61,2.98,11.23,5.95,16.84,8.93,3.02,1.6,16.28-25.56,13.56-27.01-6.41-3.4-12.83-6.8-19.24-10.2-1.25-.66-4.25,3.6-7.15,8.93C39.63,6.14,34.01,3.16,28.4.19c-3.02-1.6-16.28,25.56-13.56,27.01Z"/>
        <path class="cls-1" d="M84.64,38.67c21.97-6.57,43.38-15.25,63.32-26.62.79-.45,1.58-1.82,2.03-2.5.96-1.47,1.82-3.05,2.58-4.63.57-1.19,1.32-2.54,1.51-3.85.04-.31.34-1.39-.38-.99-19.94,11.37-41.35,20.05-63.32,26.62-.67.2-1.75,2.08-2.03,2.5-.96,1.47-1.82,3.05-2.58,4.63-.29.61-2.33,5.19-1.13,4.84Z"/>
      </g>
      <g>
        <path class="cls-1" d="M0,211.28v-.9l1.26-.15c1.96-.24,2.11-1.76,2.11-3.52v-22.67c0-1.86-.18-3.21-2.11-3.52l-1.26-.2v-.9h13.82v.9l-1.31.2c-1.91.29-2.16,1.71-2.16,3.52v9.9h4.98l2.36-2.72,5.28-6.64c1.17-1.48,1.46-2.21,1.46-2.76,0-.7-.47-1.49-1.81-1.51l-3.12-.05v-.85h11.36v.91l-1.66.15c-2.47.22-2.8,1.44-4.17,3.22l-7.63,9.86,9.67,13.92c.88,1.27,1.85,2.75,3.42,2.93l.88.1v.79h-6.54c-1.56,0-3.05-.7-3.87-2.06l-7.77-12.83c-.44-.72-1.2-1.09-2.04-1.09h-.8v11.41c0,1.71.22,3.3,2.16,3.52l1.31.15v.9H0Z"/>
        <path class="cls-1" d="M47.35,211.28v-.6l1.26-.2c1.82-.29,2.11-1.56,2.11-3.37v-23.38c0-1.76-.29-3.08-2.11-3.37l-1.26-.2v-.75h13.82v.75l-1.31.2c-1.87.29-2.16,1.66-2.16,3.37v9.7h13.37v-9.7c0-1.71-.34-3.08-2.16-3.37l-1.26-.2v-.75h13.77v.75l-1.26.2c-1.82.29-2.16,1.66-2.16,3.37v23.38c0,1.76.34,3.08,2.16,3.37l1.26.2v.6h-13.77v-.6l1.26-.2c1.82-.29,2.16-1.61,2.16-3.37v-12.12h-13.37v12.12c0,1.76.29,3.08,2.16,3.37l1.31.2v.6h-13.82Z"/>
        <path class="cls-1" d="M124.71,204.79c1.73,3.89,2.51,5.21,5.8,5.8v.69h-18.19v-.69c4.84-.69,6.49-2.28,5.12-5.44l-1.69-3.88h-10.83l-1.37,3.24c-1.79,4.24-.82,5.44,5.12,6.08v.69h-12.66v-.69c3.66-.5,4.55-2.11,6.21-6.08l10.79-25.68h.18l11.52,25.96ZM105.38,200.13h9.87l-4.39-10.19-.66-1.38-4.83,11.57Z"/>
        <path class="cls-1" d="M150.39,210.6c3.34-.27,4.71-1.19,4.71-4.98v-25.2h-.82c-5.9,0-8.55,3.16-9.28,9.19h-.73v-10.11h28.04v10.11h-.73c-.73-6.04-3.43-9.19-9.28-9.19h-.82v25.2c0,3.8,1.33,4.71,4.67,4.98v.69h-15.74v-.69Z"/>
        <path class="cls-1" d="M206.92,211.94l-12.32-26.43h-.14v20.16c0,3.8,1.05,4.72,5.36,4.99v.69h-11.91v-.69c4.31-.27,5.36-1.19,5.36-4.99v-20.43c0-3.85-1.05-4.77-3.85-5.04v-.69h9.35l10.86,23.32h.18l10.03-23.32h9.07v.69c-2.71.27-3.85,1.19-3.85,5.04v20.43c0,3.76,1.1,4.72,5.36,4.99v.69h-17.04v-.69c4.26-.27,5.31-1.24,5.31-4.99v-20.25h-.14l-11.45,26.53h-.18Z"/>
        <path class="cls-1" d="M273.45,204.79c1.73,3.89,2.51,5.21,5.8,5.8v.69h-18.19v-.69c4.84-.69,6.49-2.28,5.12-5.44l-1.69-3.88h-10.83l-1.37,3.24c-1.79,4.24-.82,5.44,5.12,6.08v.69h-12.66v-.69c3.66-.5,4.55-2.11,6.21-6.08l10.79-25.68h.18l11.52,25.96ZM254.12,200.13h9.87l-4.39-10.19-.66-1.38-4.83,11.57Z"/>
        <path class="cls-1" d="M293.86,211.28v-.6l1.26-.2c1.82-.29,2.11-1.56,2.11-3.37v-23.38c0-1.76-.29-3.08-2.11-3.37l-1.26-.2v-.75h13.82v.75l-1.31.2c-1.87.29-2.16,1.66-2.16,3.37v9.7h13.37v-9.7c0-1.71-.34-3.08-2.16-3.37l-1.26-.2v-.75h13.77v.75l-1.26.2c-1.82.29-2.16,1.66-2.16,3.37v23.38c0,1.76.34,3.08,2.16,3.37l1.26.2v.6h-13.77v-.6l1.26-.2c1.82-.29,2.16-1.61,2.16-3.37v-12.12h-13.37v12.12c0,1.76.29,3.08,2.16,3.37l1.31.2v.6h-13.82Z"/>
      </g>
    </g>
  </g>
</svg>