<?xml version="1.0" encoding="UTF-8"?>
<svg id="Layer_2" data-name="Layer 2" xmlns="http://www.w3.org/2000/svg" viewBox="0 0 413.36 130.07">
  <defs>
    <style>
      .cls-1 {
        fill: #fff;
      }
    </style>
  </defs>
  <g id="Layer_1-2" data-name="Layer 1">
    <g>
      <path class="cls-1" d="M376.87,56.66c-1.43,3.4-3.23,7.03-5.72,9.8-.01.01-.02.03-.03.04-.48-1.15-1.02-2.27-1.63-3.34-.13-.22-.25-.44-.38-.65,2.45-3.22,5.01-6.31,7.66-9.26,2.19-2.44.44,2.62.11,3.42ZM409.82,69.44c-1.45-2.21-3.46-3.6-5.57-5.11-.95-.68-1.91-1.4-2.65-2.32-.37-.47-.68-.96-.9-1.51-.59-1.47.24-2.72-.98.08.41-1.03,2.01-5.54-.17-3.27-2.52,2.63-4.28,6.51-5.72,9.8-1.66,3.82-2.4,7.45.93,10.53,2.63,2.44,5.7,3.8,7.62,7.01,1.6,2.68,2.31,5.92,2.05,9.04-.54.51-1.11,1-1.8,1.41-.72.44-1.52.8-2.35,1.08.65-2.26.99-4.56.77-6.81-.35-3.67-2.73-7.53-6.44-8.55-4.8-1.31-8.14,2.92-10.44,6.46-2.33,3.6-4.56,7.68-5.66,11.86-.55,2.11-.6,4.13.19,6.18,1.36,3.51,4.46,5.71,8.03,6.22-.18.11-.37.23-.55.34-5.89,3.56-13.89,4.72-19.99.96-8.11-5-10.24-15.93-8.32-24.59.34-1.52.76-2.89,1.26-4.35.04-.12.08-.23.1-.31,0,0,0-.01,0-.02h0s0-.02,0-.02c0-.02.01-.03.02-.05.18-.46.39-.91.57-1.36,0,0,0-.02.01-.03.03-.08.07-.16.11-.25,0,0,.01-.02.02-.03.02-.03.03-.06.05-.1t0,0c.1-.21.24-.47.29-.57.08-.16.16-.36.21-.54,0,0,0,0,0-.02.26-.51.65-1.03.95-1.49-.05.09-.09.15-.1.2.13-.2.5-.8.73-1.17-.14-.24-.28-.48-.42-.71-.39-.64-.83-1.29-1.3-1.93-3.7,6.33-6.77,12.97-8.95,19.79-2.27,7.09-3.51,14.87-.75,22.01,1.91,4.95,5.17,9.57,10.34,11.46,8.79,3.21,18.17-1.18,24.36-7.42,3.12-3.14,5.73-6.85,8-10.7,3.04-1.23,5.63-3.46,7.76-6.03,2.69-3.25,4.85-6.92,6.75-10.68,1.69-3.34,3.29-6.86,4.08-10.54,1.04-4.78.54-9.79-2.19-13.94ZM412.23,18.48c-.07,0-.17.04-.28.15-11.57,10.52-26.06,17.09-41.5,18.99.3-1.09.54-2.18.7-3.28.13-.88.29-1.88-.05-2.73-.49-1.22-1.86-1.68-3.03-1.96-1.46-.35-2.99-.49-4.53-.49-1.7,0-3.4.17-5.02.43-1.22.2-2.84.41-3.84,1.21-.91.71-1.42,2.17-1.84,3.15-1.18,2.75-2.53,6.25-2.62,9.29-.04,1.29.52,1.72,1.6,2.23.03.01.05.02.07.03-.76,1.22-1.29,2.76-1.7,3.9-.69,1.88-1.32,3.81-1.74,5.77-.1.48-.19.95-.26,1.43-.08.5-.1.97-.07,1.42.21,3.35,3.13,5.52,5.58,7.79,2.72,2.51,5.42,5.11,7.66,8.05.65.85,1.26,1.73,1.82,2.65.45.74.87,1.5,1.26,2.28,1.77,3.62,2.72,7.63,2.89,11.66.14,3.32-.35,6.74-1.02,9.44-.12.49-.73,3.44-.11,3.44.15,0,.37-.18.7-.62,1.78-2.39,2.61-6.13,3.31-8.96,2.12-8.67,2.72-17.66-.4-25.77-.51-1.34-1.13-2.66-1.86-3.95-.54-.95-1.14-1.89-1.8-2.8-2.08-2.87-4.59-5.34-7.16-7.75.82-.45,1.61-.96,2.38-1.51.31-.22.61-.45.89-.68,16.64-1.19,32.52-7.78,45.05-18.78l-2.54,12.67s-.41,2.02.07,2.17c.02,0,.04,0,.06,0,.1,0,.23-.08.34-.2.03-.03.06-.06.08-.09.08-.09.16-.2.24-.31.03-.05.07-.1.1-.16.05-.08.1-.16.14-.24.03-.05.06-.1.09-.15.17-.3.28-.54.28-.56,1.49-2.92,2.41-6.18,3.05-9.38,1.04-5.19,2.08-10.39,3.12-15.58,0-.02.37-2.17-.14-2.17ZM392.57,15.37c-2.67-4.75-4.7-9.78-6.07-15.06-.3-1.16-1.49,1.32-1.52,1.39-2.69,5.17-6.6,9.59-11.13,13.23-.71.57-1.27,2.11-1.58,2.86-.71,1.63-1.29,3.36-1.76,5.08-.36,1.29-.88,2.77-.83,4.11,0,.33-.1,1.44.55.92,4.86-3.91,8.75-8.68,11.85-14.03,1.36,4.94,3.3,9.66,5.82,14.13.7,1.24,2.57-3.79,2.73-4.24.61-1.68,1.16-3.4,1.56-5.14.18-.78.8-2.52.4-3.24ZM408.1,98.47s0-.02.01-.03c-.01.03-.02.03-.01.03ZM413.35,108.27c-.13-4.19-1.78-7.99-3.91-11.53-.21-.35-1.31,1.69-1.35,1.74-.73,1.44-1.32,3.04-1.8,4.57-.53,1.67-2.18,5.25-1.16,6.96,1.06,1.76,1.97,3.65,2.61,5.62-4.47,1.63-9.98,1.54-14.52.64-1.25-.25-2.89,5.48-3.15,6.31-.19.59-2.19,6.75-1.16,6.96,3.73.75,7.42.69,11.16.08,3.8-.63,6.95-1.74,8.88-5.27,2.56-4.67,4.56-10.67,4.4-16.06ZM410.33,49.78c-10.34,1.55-20.3,4.93-29.45,9.98-.55.3-.82,1.75-.97,2.3-.05.19-.4,1.63-.08,1.46,9.1-5.02,18.98-8.35,29.25-9.89.93-.14,1.12-3.82,1.25-3.84h0Z"/>
      <g>
        <path class="cls-1" d="M52.28,46.04l-2.06,4.67c1.19,1.28,3.09,3.65,3.06,4.94,0,.38-.88.56-1.95.56-3.19,0-7.07-1.37-6.9-2.78.17-1.37.3-2.27.35-4.05l-.55.04c-.35,4.34-1.63,6.68-6.52,6.68-1.73,0-3.68-.74-3.52-1.5.14-1.4.42-2.98.47-4.76l-.57.05c-.48,4.71-2.53,6.14-7.93,6.14h0c-3.18,0-5.43-1.59-6.38-4.03h0c-1.07-4.02-1.99-7.07-5.04-7.41-3.2-.34-6.67,3.21-8.96,8.06-4.78,1.55-6.35,5.35-5.61,10.93.42,3,1.01,7.97,1.08,12.61h.65c1.68-2.57,1.51-9.56.65-16.69,1.15-.67,2.37-1.18,3.58-1.73,2.65,2.64,5.51,4.02,9.02,3.79,1.88-.14,3-1.27,3.58-3.42,1.66,2.56,3.74,3.68,7.44,3.68h0s.03,0,.03,0h0c2.26-.01,5.28-.91,6.71-3.04,1.54,2.73,3.84,3.03,5.01,3.04,2.42,0,4.49-1.35,5.39-3.8,1.57,2.64,4.4,3.53,6.08,3.53,3.09,0,5.23-2.58,5.23-7.3,0-2.82-.69-5.43-1.99-8.21h-.35ZM7.19,53.08c1.73-2.46,4.33-3.95,6.54-3.66,2.84.34,4.63,2.69,4.93,6.3.12,1.99-8.35-.16-11.47-2.64Z"/>
        <polygon class="cls-1" points="44.18 42.84 40.78 39.78 38.16 42.71 41.56 45.76 44.18 42.84"/>
        <rect class="cls-1" x="45.45" y="40.75" width="3.93" height="4.56" transform="translate(-16.28 49.61) rotate(-48.12)"/>
        <polygon class="cls-1" points="46.94 37.25 43.54 34.19 40.92 37.12 44.31 40.16 46.94 37.25"/>
        <path class="cls-1" d="M66.38,61.81h0s0,0,0,0h0s.08,0,.12,0c.02,0,.04,0,.05,0h0c4.12-.03,6.96-.77,9.52-2.16,7.02,2.85,13.01,3.71,13.01-4.23,0-6.42-5.24-11.83-15.3-16.45l-.32.22-1.09,4.44c.93.38,1.67.7,2.09.93-1.85.98-3.83,3.85-3.83,6.74,0,1.79.58,3.26,1.47,4.17-1.23.32-3.18.53-5.61.54-4.15-.05-5.03-2.19-5.03-5.46v-13.15c.01-3.85,0-6.95,0-10.88h-.37l-2.66,4.31v.4c.36,1.35.51,5.08.53,9.23l.07,12.31c.04,6.3,2.18,8.96,7.33,9.02ZM88.47,55.53c0,1.52-3.67,1.43-8.94.13,1.59-1.76,2.51-4.68,1.61-7.86,3.17,2.35,7.3,5.63,7.33,7.72ZM71.64,50.36c-.07-1.85,2.38-3.53,4.69-3.53,2.17,0,4.36,1.6,4.47,4.1.04,1.09-1.59,2.25-4.5,3.46-2.26-.77-4.6-2.45-4.66-4.02Z"/>
        <polygon class="cls-1" points="138.03 34.36 134.27 31 131.37 34.24 135.14 37.6 138.03 34.36"/>
        <path class="cls-1" d="M116.32,62.14c4.95,0,10.39-.48,17.25-2.64,2.96,1.55,5.27,2.22,9.91,2.31h0s.05,0,.05,0h0c2.26-.01,5.28-.91,6.71-3.04,1.54,2.73,3.84,3.03,5.01,3.04,2.42,0,4.49-1.35,5.39-3.8,1.57,2.64,4.4,3.53,6.08,3.53,3.09,0,5.23-2.58,5.23-7.3,0-2.82-.69-5.43-1.99-8.21h-.35l-2.06,4.68c1.19,1.28,3.09,3.65,3.06,4.94,0,.38-.88.56-1.95.56-3.19,0-7.07-1.37-6.9-2.78.17-1.37.3-2.27.35-4.05l-.55.04c-.35,4.34-1.63,6.68-6.52,6.68-1.73,0-3.68-.74-3.52-1.5.14-1.4.42-2.98.47-4.76l-.57.05c-.48,4.71-2.53,6.14-7.93,6.14h0c-2.83-.02-4.45-.14-6.27-.61,1.37-1.29,2.64-3.91,2.64-6.37,0-4-1.66-7.69-4.86-7.69s-6.87,5.36-6.87,10.02c0,1.44.54,3.1,1.34,4.03-4.64.81-8.69,1.26-12.75,1.26-8.36,0-12.84-2.39-12.84-7.56,0-1.75.35-3.57,1.09-5.86h-.37c-1.31,2.78-2.08,5.85-2.08,8.43,0,6.98,4.61,10.47,13.82,10.47ZM129.12,50.02c0-1.93,3.02-3.91,5.38-3.91s4.29,1.91,4.3,4.47c0,1.17-2.33,2.82-4.75,3.77h0c-2.33-1.01-4.93-2.8-4.93-4.34Z"/>
        <path class="cls-1" d="M175.66,69.58c-1.42,0-2.83-.13-4.19-.39v.64c1.99,1.28,7.39,3.78,9.89,3.78,5.53,0,9.92-5.27,11.06-11.79h3.78c6.28-.04,8.76-3.76,8.76-8.73,0-3.51-1.02-7.05-2.41-9.71h-.6s-2.13,4.85-2.13,4.85c1.44,1.58,3.92,4.1,3.92,5.36,0,1.35-2.94,2.38-7.54,2.44h0s-3.62,0-3.62,0c-.4-5.65-2.63-11.48-6.77-11.48s-7.18,5.48-7.18,10.43,2.74,6.84,5.95,6.84h6.7c-2.19,4.57-9.1,7.76-15.64,7.76ZM184.82,56.03c-2.58,0-5.02-.19-5.02-1.75s1.72-4.24,4.44-4.24c3.02,0,5.35,2.96,6.59,5.99h-6Z"/>
        <polygon class="cls-1" points="192.9 68.09 196.29 71.15 198.92 68.22 195.52 65.16 192.9 68.09"/>
        <rect class="cls-1" x="200.18" y="66.13" width="3.93" height="4.56" transform="translate(16.27 173.27) rotate(-48.13)"/>
        <path class="cls-1" d="M232.36,58.5c0-3.56-1.08-7.41-3.48-11.77h-.6l-1.76,4.72c1.69,1.62,4.75,5.24,4.75,7.49,0,4.54-5.79,9.88-12.62,9.88-1.09,0-2.09-.03-3.18-.16v.61c1.81,1.55,4.95,3.13,6.91,3.12,5.76,0,9.97-6.31,9.97-13.91Z"/>
        <polygon class="cls-1" points="262.02 41.14 258.62 38.08 256 41.01 259.4 44.07 262.02 41.14"/>
        <path class="cls-1" d="M286.57,28.75l-16.24,7.42-1.05,2.42-1.18,2.66-3.24-2.9-2.62,2.93,3.4,3.05,2.27-2.53c1.24.73,2.46,1.94,3.67,3.57.33.02.68-.13.98-.33,4.57,4.6,6.92,7.06,6.92,8.43,0,2-4.4,2.57-9.54,2.57h0c-3.83-.02-5.56-1.19-5.98-3.38h0c.15-1.68.22-3,.25-4.55h-.65c-.47,6.4-2.25,7.92-7.68,7.93h0s-3.62,0-3.62,0c-.4-5.65-2.63-11.48-6.77-11.48s-7.18,5.48-7.18,10.43,2.74,6.84,5.95,6.84h6.7c-2.19,4.57-9.1,7.76-15.64,7.76-1.42,0-2.83-.13-4.19-.39v.64c1.99,1.28,7.39,3.78,9.89,3.78,5.53,0,9.92-5.27,11.06-11.79h3.78v-.02c3.69,0,6.14-1.82,7-4.63.91,2.95,3.6,4.64,7.03,4.65h0s.01,0,.01,0c0,0,0,0,.01,0,0,0,0,0,0,0h0c6.51,0,10.8-3.05,10.8-8.31,0-2.81-1.16-5.42-4.28-8.95l-4.62-5.18,14.38-6.2.53-4.21-.19-.2ZM244.5,56.03c-2.58,0-5.02-.19-5.02-1.75s1.72-4.24,4.44-4.24c3.02,0,5.35,2.96,6.59,5.99h-6Z"/>
        <path class="cls-1" d="M320.13,26.86h-.46l-1.27,1.99c-.64,1.13-.78,1.99-.67,2.78v22.69c0,1.17-1.26,1.68-4.72,1.7v.04h0s0-.06,0-.06c-4.42-.18-5.3-2.55-6.33-5.71-1.1-3.56-2.1-7.45-3.76-12.81h-.47l-1.91,4.61c1.91,5.84,2.98,8.56,3.95,11.93.41,1.38-3.38,2.6-7.62,2.6s-6.42-1.6-6.42-4.21c0-.49.06-.92.21-1.4h-.45c-.61,1.47-.87,3.05-.87,4.22,0,4.35,2.41,6.91,7.6,6.93,4.69.01,7.5-2.61,8.33-6.39,1.56,5.1,4.01,5.99,7.75,6.04h0s0-.01,0-.01h0s.02,0,.02,0h0s0,0,0,0c5.53-.03,7.54-3.44,7.54-8.5v-16.27l2.64-3.41c-1.52-.93-2.94-4.16-3.09-6.77Z"/>
        <path class="cls-1" d="M332.01,50.15v-23.14h-.49l-2.42,3.61v22.38c0,2.94-.04,5.88-.69,8.82h.42c1.14-2.26,3.18-6.02,3.18-11.67Z"/>
        <path class="cls-1" d="M12.23,99.13H1.82v.51l1.1.21c1.34.22,1.56,1.11,1.56,2.42v17.95c0,1.29-.16,2.27-1.56,2.45l-1.1.18v.51h10.54c7.29,0,12.56-4.73,12.56-12.07s-5.28-12.17-12.7-12.17ZM11.21,122.38h-2.38v-22.28s2.33,0,2.33,0c5.19,0,9.12,4.84,9.12,11.19s-3.91,11.09-9.07,11.09Z"/>
        <path class="cls-1" d="M38.77,105.56h0c-1.77,0-3.52,1.71-4.55,4.07v-3.6l-.14-.43-6.33,2.33v.41l1.01.29c1.11.35,1.46.95,1.46,2.58v8.66c0,1.27-.32,1.79-1.42,2.29l-1.17.51v.67h10v-.67l-1.28-.51c-1.61-.63-2.09-1.18-2.09-2.29v-8.8c0-2.18,5.12-2.7,7.1-1.5l.11-.15c.1-2.61-.72-3.86-2.7-3.86Z"/>
        <rect class="cls-1" x="42.72" y="117.89" width="4.02" height="4.66" transform="translate(-74.65 73.3) rotate(-48.13)"/>
        <path class="cls-1" d="M74.9,99.62l1.1.18c1.33.22,1.59,1.13,1.59,2.37v7.94h-11.32v-7.94c0-1.24.24-2.15,1.59-2.37l1.13-.18v-.54h-9.72v.54l1.09.18c1.33.22,1.58,1.11,1.58,2.37v18.22c0,1.28-.28,2.06-1.58,2.29l-1.09.2v.46h9.72v-.46l-1.13-.2c-1.33-.23-1.59-1.01-1.59-2.29v-9.26h11.32v9.26c0,1.27-.28,2.06-1.59,2.29l-1.1.2v.46h9.69v-.46l-1.09-.2c-1.3-.23-1.6-1.04-1.6-2.29v-18.22c0-1.23.27-2.15,1.6-2.37l1.09-.18v-.54h-9.69v.54Z"/>
        <path class="cls-1" d="M107.64,119.19l-8.81-20.5h-.15l-8.02,19.84c-1.28,3.02-1.99,4-4.57,4.33v.5h8.88v-.5c-4.07-.44-4.7-1.12-3.41-4.29l1.14-2.88h8.89l1.42,3.49c.97,2.32-.1,3.22-3.47,3.68v.5h12.11v-.5c-2.46-.39-2.91-1.13-4.02-3.67ZM93.05,114.78l3.97-9.9.38.77,3.81,9.13h-8.17Z"/>
        <path class="cls-1" d="M125.97,122.37c-4.99,0-8.23-4.11-8.23-10.87s3.42-11.99,7.81-11.99c2.2,0,4.13.83,5.72,2.57.63.68,1.33,1.82,2.03,3.42h.5l-.39-5.05c-2.41-1.03-5.36-1.64-7.8-1.64-7.64,0-12.48,4.81-12.48,12.89,0,7.61,5.53,12.11,11.73,12.11,3.84,0,6.93-1.56,9.65-4.68l-.62-.55c-2.35,2.52-5.57,3.79-7.92,3.79Z"/>
        <path class="cls-1" d="M153.31,99.62l1.1.18c1.33.22,1.59,1.13,1.59,2.37v7.94h-11.32v-7.94c0-1.24.24-2.15,1.59-2.37l1.13-.18v-.54h-9.72v.54l1.09.18c1.33.22,1.58,1.11,1.58,2.37v18.22c0,1.28-.28,2.06-1.58,2.29l-1.09.2v.46h9.72v-.46l-1.13-.2c-1.33-.23-1.59-1.01-1.59-2.29v-9.26h11.32v9.26c0,1.27-.28,2.06-1.59,2.29l-1.1.2v.46h9.69v-.46l-1.09-.2c-1.3-.23-1.6-1.04-1.6-2.29v-18.22c0-1.23.27-2.15,1.6-2.37l1.09-.18v-.54h-9.69v.54Z"/>
        <path class="cls-1" d="M194.12,119.18v-15.77c0-2.96.74-3.57,2.87-3.79v-.48h-6.22l-8.2,18.81h-.12l-8.68-18.81h-6.4v.48c2.04.22,2.87.8,2.87,3.77v15.79c0,2.9-.82,3.5-3.71,3.72v.48h8.62v-.48c-3.22-.22-4.05-.81-4.05-3.72v-16.18h.1l9.61,20.78h.12l9.1-20.82h.1v16.21c0,2.89-.82,3.5-4.03,3.72v.49h11.75v-.48c-2.87-.22-3.72-.84-3.72-3.73Z"/>
        <path class="cls-1" d="M226.01,103.09c1.13-1.87,1.82-3.14,4.04-3.53v-.48h-7.69v.48c3.99.41,3.99,1.38,2.69,3.53l-5.19,8.5h-.12l-5.07-8.59c-1.06-1.8-1.34-3.08,2.23-3.44v-.48h-10.19v.48c1.2.28,1.91,1.23,3.08,3.17l6.51,10.79v5.57c0,2.95-.86,3.54-3.27,3.76v.48h10.54v-.48c-2.44-.22-3.27-.8-3.27-3.76v-6.64l5.69-9.37Z"/>
        <path class="cls-1" d="M236.6,105.62c-5.28,0-9.05,3.71-9.05,9.11s3.77,9.11,9.05,9.11,9.02-3.71,9.02-9.11-3.74-9.11-9.02-9.11ZM236.6,123.07c-2.83,0-4.77-3.05-4.77-8.34s1.94-8.34,4.77-8.34,4.77,3.05,4.77,8.34-1.94,8.34-4.77,8.34Z"/>
        <path class="cls-1" d="M265.72,119.89v-14.21l-6.53,1.6v.5l1.05.32c1.1.38,1.44.92,1.44,2.52v8.52c-.56,1.51-2.16,2.44-3.57,2.44-2.43,0-3.81-1.44-3.81-4.66v-11.24l-6.53,1.6v.5l1.05.32c1.13.37,1.43.94,1.43,2.53v6.42c0,4.45,2.12,6.7,5.67,6.7,2.24,0,4.86-1.7,6.2-4.35v3.84s-.01.43-.01.43l6.37-.93v-.79l-.99-.12c-1.37-.2-1.73-.62-1.73-1.9Z"/>
        <path class="cls-1" d="M279.11,112.81l-1.32-.44c-2.23-.8-3.49-1.43-3.49-3.45,0-1.33.77-2.87,3.13-2.87,3.36,0,4.73,2.22,5.45,4.79h.32l-.14-4.28c-1.18-.62-3.09-1.14-5.32-1.14-4.36,0-6.84,2.02-6.84,5.3,0,2.74,1.94,4.37,4.88,5.43l1.31.45c2.17.8,2.96,1.62,2.96,2.96,0,1.56-1.1,3.31-3.73,3.31s-4.55-2.09-5.45-5.31h-.54l.31,4.57c1.36.95,3.66,1.57,6.07,1.57,4.25,0,7.24-2.07,7.24-5.55,0-2.71-1.52-4.21-4.85-5.35Z"/>
        <path class="cls-1" d="M295.32,112.81l-1.32-.44c-2.23-.8-3.49-1.43-3.49-3.45,0-1.33.76-2.87,3.13-2.87,3.36,0,4.73,2.22,5.45,4.79h.32l-.14-4.28c-1.18-.62-3.09-1.14-5.32-1.14-4.36,0-6.84,2.02-6.84,5.3,0,2.74,1.94,4.37,4.88,5.43l1.31.45c2.17.8,2.96,1.62,2.96,2.96,0,1.56-1.09,3.31-3.73,3.31s-4.55-2.09-5.45-5.31h-.54l.31,4.57c1.36.95,3.66,1.57,6.07,1.57,4.25,0,7.24-2.07,7.24-5.55,0-2.71-1.52-4.21-4.85-5.35Z"/>
        <path class="cls-1" d="M311.71,105.69c-5.12,0-8.48,3.82-8.48,9.22,0,5.67,3.32,8.91,8.49,8.91,2.98,0,5.3-.9,7.25-2.72v-.49c-1.74,1.23-3.24,1.74-4.98,1.74-3.22,0-5.99-2.37-6.49-7.45l-.03-.43h11.66c.05-.35.09-.75.09-1.19,0-4.57-2.76-7.58-7.51-7.58ZM307.52,113.58c.27-4.7,1.97-7.19,4.21-7.19s3.55,2.21,3.47,7.12l-7.67.06Z"/>
        <path class="cls-1" d="M330.63,100.35h0c0,1.07.8,1.86,1.89,1.86,1,0,1.82-.8,1.82-1.85,0-1.72-1.55-3.06-4.41-3.06-3.31,0-5.63,2.22-5.63,6.46v2.98h-2.55v.88h2.52v13.45c0,1.3-.75,1.52-2.53,1.77v.5h9.98v-.45c-2.19-.39-3.22-.6-3.22-2.1v-13.17h4.44v-.88h-4.44v-5.13c0-2.35.98-3.53,2.56-3.53.21,0,.79.03,1.47.52-.93-.11-1.91.7-1.91,1.75Z"/>
      </g>
    </g>
  </g>
</svg>