<?xml version="1.0" encoding="UTF-8"?>
<svg id="Layer_2" data-name="Layer 2" xmlns="http://www.w3.org/2000/svg" viewBox="0 0 260.82 209.48">
  <defs>
    <style>
      .cls-1 {
        fill: #fff;
      }
    </style>
  </defs>
  <g id="Layer_1-2" data-name="Layer 1">
    <g>
      <g>
        <path class="cls-1" d="M202,30.81c-3.63,11.22-7.14,20.32-9.8,26.84-3.54,8.65-7.36,17.34-10.94,25.82-.03.08-.18.43-.48.82-.76.99-2.27,1.82-4.1,1.01-1.26-.56-2.01-2.08-1.87-3.35.04-.41.12-.69.16-.78,1.14-2.77,2.3-5.39,3.43-8,.76-1.77,1.81-4.29,3.11-7.35-7.02,2.97-14.79,5.85-23.27,8.43-4.48,1.36-8.82,2.53-13.01,3.55l-1.66-25.09c1.59-.36,3.18-.71,4.76-1.07,13.51-3.05,26.14-6.87,37.87-11.48,2.97-1.19,5.75-2.55,8.36-4.12,2.59-1.56,4.64-3.53,6.12-5.91.15-.14.3-.22.46-.24.03,0,.3-.03.54.14.37.26.34.75.34.78Z"/>
        <path class="cls-1" d="M135.8,94.66l-1.38-20.96-1.66-25.18-3.2-48.52-16.48,26.28,1.73,26.22.36,5.44c-3.83.84-7.68,1.68-11.52,2.52-3.11.59-5.42.11-6.9-1.46-1.48-1.55-2.75-3.82-3.79-6.79-1.04-2.97-2.45-6.17-4.23-9.58l-11.81,29.41c1.63,5.19,2.97,10.21,4.01,15.04,1.03,4.82,1.48,10.06,1.33,15.7-4.75,4.31-10.32,8.17-16.7,11.58-6.39,3.42-13.44,5.83-21.16,7.24-7.72,1.42-15.96,1.38-24.72-.12-4.75-2.07-7.94-4.82-9.58-8.24-1.64-3.41-2.23-7.2-1.78-11.35.44-4.16,1.52-8.39,3.23-12.7,1.71-4.31,3.6-8.46,5.69-12.47,2.07-4.01,3.79-7.58,5.12-10.69,1.04-2.68,1.08-4.2.12-4.57-.97-.38-1.9.33-2.79,2.11-8.17,14.85-13.7,27.74-16.6,38.65-2.89,10.92-3.75,20.05-2.56,27.4,1.19,7.35,3.83,13.07,7.91,17.16,4.08,4.09,9.09,6.56,15.04,7.46,5.94.89,12.21.41,18.82-1.45,6.6-1.86,13.07-5.01,19.38-9.47,6.3-4.45,11.77-10.02,16.37-16.7,3.12-4.6,5.61-8.68,7.47-12.25,1.85-3.57,3.48-7.24,4.9-11.03,1.41-3.79,3.01-8.13,4.79-13.03l9.14-3.12c4.09-1.16,8.28-2.29,12.55-3.41l2.45,37.18,16.48-26.29Z"/>
        <path class="cls-1" d="M251.88,50.22c-6.83-.15-11.66.22-14.48,1.11-3.86,0-7.65,4.09-11.36,12.25-1.93,4.16-3.56,7.83-4.9,11.03-1.34,3.2-2.53,5.83-3.56,7.91-3.42,1.19-6.61,2.23-9.58,3.12-2.97.89-5.65,1.71-8.02,2.45-2.23.6-5.09,1.56-8.58,2.9-3.49,1.34-6.83,2.86-10.02,4.57-3.19,1.71-5.46,3.6-6.79,5.68-1.64,2.67-2.86,5.57-3.68,8.69-.82,3.12-1.97,6.16-3.45,9.13v.22c-.56.68-1.04,1.35-1.46,2-.96.44-1.95.81-2.99,1.12-10.69,2.82-21.83,5.2-33.41,7.13-11.58,1.93-22.43,4.68-32.52,8.24-2.08.89-2.53,1.86-1.34,2.9,1.78,1.49,7.57,3.71,17.37,6.68,4.9,1.49,8.87,2.67,11.92,3.56,3.04.89,5.16,1.49,6.35,1.78,9.5,1.93,16.93,1.82,22.28-.33,5.35-2.15,9.72-6.49,13.14-13.03,1.48-2.97,3.04-5.83,4.68-8.58,1.4-2.36,3.1-4.4,5.06-6.16,3.52-2.57,7.5-4.79,11.98-6.64,6.46-2.67,13.1-5.16,19.94-7.46,6.83-2.3,13.14-4.86,18.93-7.68,8.76-4.31,15.44-9.28,20.05-14.92,2.82-3.41,4.97-6.24,6.46-8.47,1.48-2.23,2.71-4.82,3.68-7.8.96-2.97,1.97-7.13,3.01-12.47,1.19-5.64-1.71-8.61-8.69-8.91Z"/>
      </g>
      <g>
        <path class="cls-1" d="M5.46,209.02c-.31,0-.57-.09-.77-.28-.2-.18-.3-.43-.3-.74v-30.24c0-.34.1-.6.3-.78s.46-.28.77-.28h1.17c.31,0,.54.08.7.23.15.15.25.28.28.37l10.58,20.4,10.63-20.4c.06-.09.16-.21.3-.37.14-.15.37-.23.68-.23h1.12c.34,0,.61.09.79.28s.28.45.28.78v30.24c0,.31-.09.55-.28.74-.19.18-.45.28-.79.28h-.84c-.31,0-.56-.09-.75-.28-.19-.18-.28-.43-.28-.74v-25.02l-8.9,17.36c-.12.31-.3.54-.54.69-.23.15-.54.23-.91.23h-1.03c-.37,0-.67-.08-.89-.23-.22-.15-.4-.38-.56-.69l-8.9-17.36v25.02c0,.31-.09.55-.28.74-.19.18-.44.28-.75.28h-.84Z"/>
        <path class="cls-1" d="M50.64,209.02c-.31,0-.56-.09-.75-.28-.19-.18-.28-.43-.28-.74v-30.24c0-.34.09-.6.28-.78s.43-.28.75-.28h18.18c.34,0,.61.09.79.28.19.18.28.45.28.78v.69c0,.31-.09.55-.28.74-.19.18-.45.28-.79.28h-16.27v11.77h15.25c.34,0,.61.09.79.28s.28.45.28.78v.69c0,.31-.09.55-.28.74-.19.18-.45.28-.79.28h-15.25v12.23h16.64c.34,0,.61.09.79.28.19.18.28.45.28.78v.69c0,.31-.09.55-.28.74-.19.18-.45.28-.79.28h-18.56Z"/>
        <path class="cls-1" d="M87.1,209.02c-.31,0-.56-.09-.75-.28-.19-.18-.28-.43-.28-.74v-30.24c0-.34.09-.6.28-.78s.43-.28.75-.28h10.86c3.26,0,5.87.77,7.81,2.31,1.94,1.54,2.91,3.88,2.91,7.02,0,2.46-.62,4.43-1.87,5.91s-2.97,2.48-5.18,3l7.51,12.65c.09.18.14.35.14.51,0,.25-.09.46-.28.65-.19.18-.4.28-.65.28h-.56c-.5,0-.87-.13-1.12-.39-.25-.26-.47-.55-.65-.85l-7.41-12.42h-9.6v12.65c0,.31-.09.55-.28.74-.19.18-.45.28-.79.28h-.84ZM89.01,192.59h8.72c2.7,0,4.72-.55,6.04-1.64,1.32-1.09,1.98-2.73,1.98-4.92s-.66-3.82-1.98-4.92c-1.32-1.09-3.33-1.64-6.04-1.64h-8.72v13.11Z"/>
        <path class="cls-1" d="M122.44,209.02c-.25,0-.47-.09-.65-.28-.19-.18-.28-.4-.28-.65,0-.15.03-.32.09-.51l11.8-29.96c.12-.31.29-.54.49-.69.2-.15.49-.23.86-.23h1.59c.37,0,.66.08.86.23.2.15.37.38.49.69l11.8,29.96c.06.18.09.35.09.51,0,.25-.09.46-.28.65-.19.18-.4.28-.65.28h-.93c-.31,0-.54-.08-.7-.25-.16-.17-.26-.32-.33-.44l-2.89-7.39h-16.51l-2.89,7.39c-.03.12-.13.27-.3.44-.17.17-.41.25-.72.25h-.93ZM128.41,198.17h14.27l-7.13-18.19-7.13,18.19Z"/>
        <path class="cls-1" d="M173.26,209.48c-2.52,0-4.66-.4-6.41-1.2-1.76-.8-3.1-1.83-4.03-3.09-.93-1.26-1.43-2.6-1.49-4.02,0-.25.09-.46.28-.65.19-.18.42-.28.7-.28h.93c.31,0,.55.09.72.28.17.18.27.4.3.65.12.86.51,1.72,1.17,2.56.65.85,1.62,1.55,2.89,2.12,1.27.57,2.92.85,4.94.85,3.04,0,5.27-.55,6.67-1.64,1.4-1.09,2.1-2.56,2.1-4.41,0-1.23-.37-2.22-1.1-2.98-.73-.75-1.84-1.43-3.33-2.03-1.49-.6-3.4-1.27-5.74-2.01-2.21-.71-4.03-1.44-5.45-2.19-1.43-.75-2.48-1.67-3.15-2.75-.67-1.08-1-2.46-1-4.15,0-1.57.42-2.98,1.26-4.22s2.06-2.24,3.66-2.98,3.55-1.11,5.85-1.11c1.83,0,3.43.25,4.8.74,1.37.49,2.5,1.15,3.4,1.96.9.82,1.59,1.69,2.05,2.63.47.94.71,1.85.75,2.75,0,.22-.08.42-.23.62-.16.2-.4.3-.75.3h-.93c-.16,0-.35-.06-.58-.18-.23-.12-.38-.37-.44-.74-.19-1.54-1-2.81-2.45-3.81-1.45-1-3.32-1.5-5.62-1.5s-4.18.45-5.64,1.34-2.19,2.29-2.19,4.2c0,1.23.33,2.24.98,3.02s1.68,1.48,3.08,2.08c1.4.6,3.2,1.25,5.41,1.96,2.33.74,4.26,1.48,5.78,2.22,1.52.74,2.66,1.64,3.4,2.7.75,1.06,1.12,2.44,1.12,4.13,0,1.88-.47,3.47-1.42,4.78-.95,1.31-2.29,2.31-4.03,3-1.74.69-3.82,1.04-6.25,1.04Z"/>
        <path class="cls-1" d="M210.33,209.48c-2.52,0-4.66-.4-6.41-1.2-1.76-.8-3.1-1.83-4.03-3.09-.93-1.26-1.43-2.6-1.49-4.02,0-.25.09-.46.28-.65.19-.18.42-.28.7-.28h.93c.31,0,.55.09.72.28.17.18.27.4.3.65.12.86.51,1.72,1.17,2.56.65.85,1.62,1.55,2.89,2.12,1.27.57,2.92.85,4.94.85,3.04,0,5.27-.55,6.67-1.64,1.4-1.09,2.1-2.56,2.1-4.41,0-1.23-.37-2.22-1.1-2.98-.73-.75-1.84-1.43-3.33-2.03-1.49-.6-3.4-1.27-5.74-2.01-2.21-.71-4.03-1.44-5.45-2.19-1.43-.75-2.48-1.67-3.15-2.75-.67-1.08-1-2.46-1-4.15,0-1.57.42-2.98,1.26-4.22s2.06-2.24,3.66-2.98,3.55-1.11,5.85-1.11c1.83,0,3.43.25,4.8.74,1.37.49,2.5,1.15,3.4,1.96.9.82,1.59,1.69,2.05,2.63.47.94.71,1.85.75,2.75,0,.22-.08.42-.23.62-.16.2-.4.3-.75.3h-.93c-.16,0-.35-.06-.58-.18-.23-.12-.38-.37-.44-.74-.19-1.54-1-2.81-2.45-3.81-1.45-1-3.32-1.5-5.62-1.5s-4.18.45-5.64,1.34-2.19,2.29-2.19,4.2c0,1.23.33,2.24.98,3.02s1.68,1.48,3.08,2.08c1.4.6,3.2,1.25,5.41,1.96,2.33.74,4.26,1.48,5.78,2.22,1.52.74,2.66,1.64,3.4,2.7.75,1.06,1.12,2.44,1.12,4.13,0,1.88-.47,3.47-1.42,4.78-.95,1.31-2.29,2.31-4.03,3-1.74.69-3.82,1.04-6.25,1.04Z"/>
        <path class="cls-1" d="M238.63,209.02c-.31,0-.56-.09-.75-.28-.19-.18-.28-.43-.28-.74v-30.24c0-.34.09-.6.28-.78s.43-.28.75-.28h18.18c.34,0,.61.09.79.28.19.18.28.45.28.78v.69c0,.31-.09.55-.28.74-.19.18-.45.28-.79.28h-16.27v11.77h15.25c.34,0,.61.09.79.28s.28.45.28.78v.69c0,.31-.09.55-.28.74-.19.18-.45.28-.79.28h-15.25v12.23h16.64c.34,0,.61.09.79.28.19.18.28.45.28.78v.69c0,.31-.09.55-.28.74-.19.18-.45.28-.79.28h-18.56Z"/>
      </g>
    </g>
  </g>
</svg>