<?xml version="1.0" encoding="UTF-8"?>
<svg id="Layer_2" data-name="Layer 2" xmlns="http://www.w3.org/2000/svg" xmlns:xlink="http://www.w3.org/1999/xlink" viewBox="0 0 313.74 186.18">
  <defs>
    <style>
      .cls-1 {
        fill: url(#linear-gradient-2);
      }

      .cls-2 {
        fill: url(#linear-gradient);
      }

      .cls-3 {
        fill: #fff;
      }
    </style>
    <linearGradient id="linear-gradient" x1="163.17" y1="169.84" x2="293.01" y2="169.84" gradientUnits="userSpaceOnUse">
      <stop offset="0" stop-color="#fff" stop-opacity=".4"/>
      <stop offset=".13" stop-color="#fff" stop-opacity=".45"/>
      <stop offset=".37" stop-color="#fff" stop-opacity=".57"/>
      <stop offset=".68" stop-color="#fff" stop-opacity=".77"/>
      <stop offset="1" stop-color="#fff"/>
    </linearGradient>
    <linearGradient id="linear-gradient-2" x1="18.91" y1="51.82" x2="148.75" y2="51.82" gradientUnits="userSpaceOnUse">
      <stop offset="0" stop-color="#fff"/>
      <stop offset=".32" stop-color="#fff" stop-opacity=".77"/>
      <stop offset=".63" stop-color="#fff" stop-opacity=".57"/>
      <stop offset=".87" stop-color="#fff" stop-opacity=".45"/>
      <stop offset="1" stop-color="#fff" stop-opacity=".4"/>
    </linearGradient>
  </defs>
  <g id="Layer_1-2" data-name="Layer 1">
    <g>
      <g>
        <path class="cls-3" d="M307.56,74.92c-6.6-5.25-15.86-5.06-22.12.53-4,3.57-7.02,8.15-9.84,12.66-1.63,2.6-1.25,2.57-3.06,4.59-1.74,1.93-4.02,3.44-6.24,4.77-10.77,6.44-22.78,5.19-34.83,5.02-11.77-.16-23.98.65-35.69-.5-4.28-.42-8.96-1.38-11.95-4.72-3.07-3.42-4.51-8.26-5.42-12.67-1.33-6.45-.61-13.07-.17-19.57.48-7.15.97-14.3,1.45-21.44.97-14.3,1.93-28.59,2.9-42.89.12-1.77-1.97.42-2.02.47-1.82,1.71-3.39,4.61-4.62,6.7-2.6,4.42-6.21,10.07-6.56,15.37-1.55,22.9-3.16,45.8-4.64,68.71-.57,8.85-.14,17.69,4.06,25.71,4.47,8.53,14.01,8.45,22.54,8.43,11.21-.02,22.42.27,33.63.38,10.15.1,19.62.31,28.78-4.72,3.77-2.07,7.23-4.78,10.13-7.97,1.46-1.6,2.75-3.36,3.99-5.14,0,.04,0,.09,0,.13.76,9.81,8.32,18.22,18.69,17.69,12.88-.66,20.25-16.56,24.5-26.67,3.61-8.61,4.65-18.4-3.47-24.87ZM284.24,94.99c2.57,0,5.2.66,7.66,1.92,2.6,1.34,4.89,3.35,6.51,5.79-5.66.19-10.94-3.04-14.16-7.71Z"/>
        <path class="cls-3" d="M136.41,87.89c-1.43,2.7-6.18,9.67-4.56,12.9,6.05,12.06,8.16,26.51,5.18,39.76-2.21,1.72-4.79,2.99-7.42,3.91-6.9,2.41-14.64,2.88-21.9,2.85-3.18-.01-6.92,8.69-8.15,11-.44.84-5.73,12.9-4.56,12.9,9.19.04,19.86-.63,28.02-5.32,10.34-5.93,16.64-18.66,21.32-29.06,8.66-19.26,9.81-40.79.21-59.94-.48-.96-7.69,10.13-8.15,11Z"/>
        <path class="cls-3" d="M106.18,122.73c4.06-3.9,6.89-9.68,9.28-14.67,1.75-3.66,3.53-7.55,3.81-11.65.45-6.61-1.94-13.54-4.54-19.49-.32-.73-3.04,2.72-3.15,2.86-1.89,2.52-3.52,5.36-4.99,8.13-1.52,2.86-6.06,9.48-4.56,12.9.21.48.39.95.58,1.42-4.39.07-8.79.09-13.18.12-25.52.16-51.03.08-76.55-.04-3.18-.02-6.92,8.69-8.15,11-.44.84-5.73,12.9-4.56,12.9,28.47.14,56.95.27,85.43-.03,6.33-.07,15.68,1.26,20.58-3.45Z"/>
        <path class="cls-3" d="M201.61,79.52c8.7-3.93,15.68-9.93,21.54-17.12-.11,6.61,3.75,12.44,11.24,13.19,2.97.3,7.05-8.94,8.15-11,.45-.84,5.97-12.76,4.56-12.9-6.58-.67-12.46-6.25-10.55-13.29,1.45-5.35-4.32,2.36-4.73,2.98-4.37,6.6-11.81,11.37-18.9,14.58-1.47.66-3.26,3.8-3.99,4.92-1.89,2.89-3.59,6-5.08,9.11-.54,1.13-4.32,10.46-2.23,9.52Z"/>
        <path class="cls-3" d="M73.53,142.08c-1.9-.87-6.52,8.44-7.16,9.66-.52,1-5.73,10.55-4.01,11.34,4.74,2.16,8.94,5.12,12.57,8.86,1.06,1.09,6.73-8.84,7.16-9.66,1.3-2.48,2.57-5.02,3.49-7.67.29-.83,1.26-2.91.52-3.67-3.63-3.73-7.83-6.69-12.57-8.86Z"/>
      </g>
      <g>
        <path class="cls-2" d="M292.9,153.51c-39.76.03-79.52.06-119.27.08-2.47,0-5.43,6.17-6.49,7.95-.37.62-4.64,9.51-3.87,9.51,32.57-.02,65.14-.05,97.7-.07-2.03,2.38-3.61,5.83-4.82,8.08-.45.83-3.41,7.79-2.01,7.05,9.64-5.09,19.29-10.17,28.93-15.26,2.87-1.51,5.15-6.39,6.62-9.02.36-.63,3.99-8.33,3.21-8.33Z"/>
        <path class="cls-1" d="M19.02,68.15c39.76-.03,79.52-.06,119.27-.08,2.47,0,5.43-6.17,6.49-7.95.37-.62,4.64-9.51,3.87-9.51-32.57.02-65.14.05-97.7.07,2.03-2.38,3.61-5.83,4.82-8.08.45-.83,3.41-7.79,2.01-7.05-9.64,5.09-19.29,10.17-28.93,15.26-2.87,1.51-5.15,6.39-6.62,9.02-.36.63-3.99,8.33-3.21,8.33Z"/>
      </g>
    </g>
  </g>
</svg>