<?xml version="1.0" encoding="UTF-8"?>
<svg id="Layer_2" data-name="Layer 2" xmlns="http://www.w3.org/2000/svg" viewBox="0 0 364.82 143.75">
  <defs>
    <style>
      .cls-1 {
        fill: #fff;
      }
    </style>
  </defs>
  <g id="Layer_1-2" data-name="Layer 1">
    <g id="_الشعار_العربي" data-name="الشعار العربي">
      <g id="_الشعار_العربي-2" data-name="الشعار العربي">
        <g id="_الهمزية" data-name="الهمزية">
          <g id="_Radial_Repeat_" data-name="&amp;lt;Radial Repeat&amp;gt;">
            <path class="cls-1" d="M309.12,97.67l-8.94,13c4.71,3.92,7.17,8.22,7.2,12.91.05,9.76-10.22,20.14-18.85,20.18-5.82.03-8.47-4.84-8.49-8.59-.02-3.94,1.47-5.64,2.22-7.14l11.84,3.69c3.94-.77,8.43-3.23,8.42-6.05-.03-5.25-12.99-6.88-23.28-1.95l-2.06.76-.06-11.82,32.01-16.49v1.5Z"/>
          </g>
          <g id="_Radial_Repeat_-2" data-name="&amp;lt;Radial Repeat&amp;gt;">
            <path class="cls-1" d="M286.15,101.55l-15.51,2.87c.56,6.1-.74,10.89-4.04,14.22-6.87,6.94-21.46,7.01-27.6.94-4.14-4.09-2.57-9.41.07-12.08,2.77-2.8,5.03-2.95,6.62-3.48l5.76,10.99c3.33,2.24,8.25,3.67,10.23,1.67,3.7-3.73-4.32-14.05-15.09-17.84l-2-.92,8.32-8.4,34.3,10.97-1.06,1.07Z"/>
          </g>
          <g id="_Radial_Repeat_-3" data-name="&amp;lt;Radial Repeat&amp;gt;">
            <path class="cls-1" d="M267.15,88.06l-13-8.94c-3.92,4.71-8.22,7.17-12.91,7.2-9.76.05-20.14-10.22-20.18-18.85-.03-5.82,4.84-8.47,8.59-8.49,3.94-.02,5.64,1.47,7.14,2.22l-3.69,11.84c.77,3.94,3.23,8.43,6.05,8.42,5.25-.03,6.88-12.99,1.95-23.28l-.76-2.06,11.82-.06,16.49,32.01h-1.5Z"/>
          </g>
          <g id="_Radial_Repeat_-4" data-name="&amp;lt;Radial Repeat&amp;gt;">
            <path class="cls-1" d="M263.27,65.08l-2.87-15.51c-6.1.56-10.89-.74-14.22-4.04-6.94-6.87-7.01-21.46-.94-27.6,4.09-4.14,9.41-2.57,12.08.07,2.8,2.77,2.95,5.03,3.48,6.62l-10.99,5.76c-2.24,3.33-3.67,8.25-1.67,10.23,3.73,3.7,14.05-4.32,17.84-15.09l.92-2,8.4,8.32-10.97,34.3-1.07-1.06Z"/>
          </g>
          <g id="_Radial_Repeat_-5" data-name="&amp;lt;Radial Repeat&amp;gt;">
            <path class="cls-1" d="M276.76,46.09l8.94-13c-4.71-3.92-7.17-8.22-7.2-12.91C278.46,10.42,288.73.04,297.36,0c5.82-.03,8.47,4.84,8.49,8.59.02,3.94-1.47,5.64-2.22,7.14l-11.84-3.69c-3.94.77-8.43,3.23-8.42,6.05.03,5.25,12.99,6.88,23.28,1.95l2.06-.76.06,11.82-32.01,16.49v-1.5Z"/>
          </g>
          <g id="_Radial_Repeat_-6" data-name="&amp;lt;Radial Repeat&amp;gt;">
            <path class="cls-1" d="M299.74,42.2l15.51-2.87c-.56-6.1.74-10.89,4.04-14.22,6.87-6.94,21.46-7.01,27.6-.94,4.14,4.09,2.57,9.41-.07,12.08-2.77,2.8-5.03,2.95-6.62,3.48l-5.76-10.99c-3.33-2.24-8.25-3.67-10.23-1.67-3.7,3.73,4.32,14.05,15.09,17.84l2,.92-8.32,8.4-34.3-10.97,1.06-1.07Z"/>
          </g>
          <g id="_Radial_Repeat_-7" data-name="&amp;lt;Radial Repeat&amp;gt;">
            <path class="cls-1" d="M318.73,55.7l13,8.94c3.92-4.71,8.22-7.17,12.91-7.2,9.76-.05,20.14,10.22,20.18,18.85.03,5.82-4.84,8.47-8.59,8.49-3.94.02-5.64-1.47-7.14-2.22l3.69-11.84c-.77-3.94-3.23-8.43-6.05-8.42-5.25.03-6.88,12.99-1.95,23.28l.76,2.06-11.82.06-16.49-32.01h1.5Z"/>
          </g>
          <g id="_Radial_Repeat_-8" data-name="&amp;lt;Radial Repeat&amp;gt;">
            <path class="cls-1" d="M322.62,78.67l2.87,15.51c6.1-.56,10.89.74,14.22,4.04,6.94,6.87,7.01,21.46.94,27.6-4.09,4.14-9.41,2.57-12.08-.07-2.8-2.77-2.95-5.03-3.48-6.62l10.99-5.76c2.24-3.33,3.67-8.25,1.67-10.23-3.73-3.7-14.05,4.32-17.84,15.09l-.92,2-8.4-8.32,10.97-34.3,1.07,1.06Z"/>
          </g>
        </g>
        <g>
          <g id="isdar">
            <path class="cls-1" d="M76.32,28.79v28.71h7.45v-28.71h-7.45Z"/>
            <path class="cls-1" d="M100.76,40.24l-2.8-1.08c-3.47-1.45-4.96-2.67-4.96-5.23s1.89-4.37,4.83-4.37c1.67,0,2.75.54,3.47,1.21l2.93,6.72h1.36l-.09-7.76c-2.03-.9-4.74-1.8-7.4-1.8-5.06,0-8.49,2.04-10.2,4.87-.86,1.4-1.31,2.84-1.31,4.33,0,3.93,2.07,6.68,6.96,8.61l2.57.99c3.06,1.26,4.2,2.58,4.2,4.87,0,2.84-2.03,4.78-4.88,4.78-2.17,0-3.66-.81-4.74-1.58l-3.7-7.57h-1.27l.82,9.01c2.3.95,5.06,1.89,8.44,1.89,6.1,0,12.1-3.7,12.1-10.31,0-3.3-1.67-5.73-6.32-7.58Z"/>
            <path class="cls-1" d="M120.24,28.75l-11.19.03v28.73l8.9.04c13,0,19.23-7.08,19.23-14.97s-6.73-13.74-16.93-13.84ZM120.65,55.88c-1.81,0-3.38-.58-4.24-1.35v-24.47c7.22,0,12.63,4.92,12.63,13.84,0,7.22-3.75,11.99-8.4,11.99Z"/>
            <path class="cls-1" d="M149.65,27.76l-2.12.4-1.72.37-11.3,28.97h2.26l3.44-9.46h9.12l3.84,9.46h8.36l-11.89-29.74ZM141.03,45.78l3.88-10.36,3.62,10.36h-7.5Z"/>
            <path class="cls-1" d="M179.69,43.35l.05-.22c4.2-1.49,6.27-3.88,6.27-7.17,0-4.05-3.7-7.21-13.72-7.21l-8.8.03v28.72h7.35v-12.71h1.62s1.31,2.22,1.62,2.66l6.1,10.05h8.13l-8.63-14.15ZM174.1,42.99h-3.25v-12.72c4.65.09,8.08,2.76,8.08,6.81,0,2.75-1.94,5.23-4.83,5.9Z"/>
          </g>
          <g id="_إصدار" data-name="إصدار">
            <path class="cls-1" d="M27.95,39.82h-3.12l-7.39,16.66c11.55,9.72,15.24,14.8,15.24,19.78,0,7.17-9.01,14.11-32.68,24.06v3.12l23.44,11.57c8.66-16.19,13.51-32.39,13.51-45.46,0-9.6-2.66-20.47-9.01-29.73Z"/>
            <path class="cls-1" d="M46.37,93.09c1.77,1.21,7.39,1.21,9.23,1.21.23,0,.45,0,.67,0l.6-1.99V28.7h-3.11l-9.59,16.19,1.89,47.91c.11.16.23.24.3.3Z"/>
            <path class="cls-1" d="M164.72,64c-12.59,0-22.29,8.91-39.15,32.85-3.12-1.04-6.12-2.43-9.01-4.4l.23-.46,3.46-6.59-2.66-1.5-2.89,4.16c-4.39,6.48-8.43,8.56-18.48,8.56h0s0,0,0,0c-9.47,0-12.59-3.35-17.21-18.04l-7.28-23.36h-3.12l-7.51,16.66,8.43,17.93c1.16,2.43,2.19,4.51,3.12,6.36-4.73,1.5-10.16,2.43-16.74,2.43-11.78,0-14.28-1.97-14.28-9.72h-3.16c-1.04,3.82-2.43,8.67-2.43,12.95,0,9.14,5.08,15.15,17.9,15.15,6.35,0,12.93-1.73,18.02-5.32l2.08-12.14h.46c6.58,12.14,10.97,15.5,18.59,15.5h0s0,0,0,0c6.47,0,10.97-2.2,15.24-7.87,7.97,6.59,17.44,9.83,28.18,9.83,14.55,0,31.64-3.93,42.27-9.72,3.35-9.25,5.08-17.81,5.08-23.48,0-11.8-8.08-19.78-19.17-19.78ZM138.05,98.58c-3.12,0-5.89-.23-8.43-.69,10.74-11.1,19.05-15.5,28.75-15.5,7.85,0,16.17,4.05,20.44,9.48-10.51,4.16-26.56,6.71-40.76,6.71Z"/>
            <path class="cls-1" d="M205.46,83.83c-6.35,3.01-14.32,1.97-14.32-1.27,0-1.73,2.77-3.24,5.2-3.7l7.28,2.31c.46-.93,1.39-1.97,1.39-4.4s-1.62-5.32-5.2-5.32c-5.31,0-11.66,6.36-11.66,12.38,0,2.89,1.5,5.55,4.39,7.98h0c-.06-.05-.12-.1-.17-.15v.38s-5.37,7.75-5.37,7.75v.93l19.75-10.06v-7.29l-1.27.46Z"/>
            <polygon class="cls-1" points="193.27 115 196.39 115 201.47 98.11 192.78 102.54 193.27 115"/>
            <path class="cls-1" d="M199.8,67.2c1.25,0,2.38.21,3.4.6V28.72h-3.12l-9.58,16.19.99,25.24c2.52-1.83,5.42-2.95,8.3-2.95Z"/>
          </g>
        </g>
      </g>
    </g>
  </g>
</svg>