<?xml version="1.0" encoding="UTF-8"?>
<svg id="Layer_2" data-name="Layer 2" xmlns="http://www.w3.org/2000/svg" viewBox="0 0 226.67 217.47">
  <defs>
    <style>
      .cls-1 {
        fill: #fff;
      }
    </style>
  </defs>
  <g id="Layer_1-2" data-name="Layer 1">
    <g>
      <path class="cls-1" d="M149.95,16.28l-3.15,2.89,3.69,2.16,5.82,3.41.06.04c-.93,1.65-1.92,3.38-2.98,5.19-1.79,3.16-3.86,6.64-6.24,10.41-.6.97-1.19,1.52-1.78,1.64-.6.12-1.42.18-2.45.18h-69.55c-3.57,0-6.61-.67-9.14-2.01-2.53-1.34-4.24-3.17-5.13-5.48l-3.34,7.49H22.48c4.8-6.4,10.25-12.28,16.27-17.54h12.1l2.9-8.95c5.22-3.38,10.44-6.76,15.66-10.14.24-.11.47-.21.71-.32.26-.13.48-.23.67-.31.06-.02.12-.05.17-.07.07-.03.13-.05.19-.07.03-.01.06-.02.09-.04.04,0,.07-.02.11-.02.43-.05.77.3.82.35.35.37.31.85.3.93l-.22.46c-.15.3-.45.97-.89,2.01-.45,1.04-1.15,2.62-2.12,4.75-.96,2.13-2.19,5.08-3.68,8.86,0,1.71,1.49,2.56,4.46,2.56h8.47L125.75,2.56c3.71-1.71,7.21-2.56,10.48-2.56,2.97,0,5.87.55,8.7,1.64,2.82,1.1,5.35,2.5,7.58,4.2,1.69,1.3,3.13,2.68,4.3,4.15l-.35.32-6.51,5.96ZM143.14,24.66c-2.97-2.92-6.02-5.21-9.14-6.85-3.12-1.64-6.24-2.47-9.37-2.47s-6.24.67-9.81,2.01l-19.17,7.31h47.48ZM176.08,15.68l-12.8-7.33-4.69,4.29-6.51,5.96,5.82,3.41,7.37,4.31,11.15-10.42.02-.02-.37-.21ZM223.58,83.7c-.75-3.16-1.64-6.27-2.65-9.32h-69.93c3.09-2.01,5.55-4.11,7.37-6.31.27-.32.53-.65.78-.99.41-.55.77-1.1,1.1-1.66.88-1.49,1.55-2.86,2-4.11.52-1.4.78-2.65.78-3.75,0-3.32-2.14-5.99-6.4-8.02-.27-.13-.56-.26-.84-.38-.49-.21-1-.41-1.52-.6-4.59-1.67-10.28-2.5-17.09-2.5-4.76,0-9.14.61-13.15,1.83-.69.21-1.33.43-1.93.67-.77.3-1.47.63-2.11.99-1.73.97-2.91,2.12-3.55,3.45l-3.7,8.31-2.32,5.21c-.11.19-.19.38-.21.56-.01.06-.02.11-.02.17,0,.39.15.67.44.82.07.04.15.07.23.09.45.12.82.18,1.12.18,4.01.24,7.28.91,9.81,2.01,2.53,1.1,4.61,2.44,6.24,4.02H58.25l2.03,12.39.73,4.47.03.14v.04s.09.51.09.51h59.34c1.19,0,2.04-.12,2.56-.36.52-.24.93-.43,1.23-.55l13.82-7.67c1.04,1.59,1.9,3.2,2.57,4.84.67,1.64,1.22,2.89,1.67,3.74h82.91c-.45-2.77-1-5.52-1.64-8.22ZM115.94,48.57c-.86.77-1.55,1.62-2.06,2.54-.11.18-.2.37-.29.55l-.02.03-.02.04-3.7,8.31-2.26,5.07c-.25.47-.42.96-.5,1.46-.04.22-.06.45-.06.69v.05c0,.26.03.52.08.77h-49.91l-.08-.51-.19-1.15-1.19-7.28-.04-.21-.06-.21c-1.05-3.43-3.6-3.69-4.35-3.69-1.74,0-3.23.85-4.1,2.3-.14.23-.26.47-.37.73l-1.01,2.34-12.47-4.55-2.16-.79-1.41,1.82-3.89,5.02-.82,1.06-9.28-3.39-2.16-.79-1.41,1.82-2.29,2.85h-.01c.2-.43.4-.87.61-1.31h0c.14-.3.28-.6.43-.9.2-.41.4-.83.6-1.24,0-.02.01-.04.02-.05.28-.58.58-1.16.87-1.73,0,0,0,0,0-.01.28-.55.57-1.1.86-1.64.04-.06.07-.13.1-.19.24-.45.49-.9.74-1.35.07-.14.15-.28.24-.42.28-.5.57-1.01.86-1.5.7-1.2,1.42-2.38,2.16-3.55.21-.33.42-.66.63-.99h97.9ZM218.62,68.07h-38.41c-3.34,0-5.92-.72-7.65-2.14-1.2-.99-2.18-2.26-2.94-3.79l-3.08,5.93h-4.24c.24-.35.46-.7.66-1.05.97-1.65,1.72-3.2,2.24-4.61.65-1.76.98-3.34.98-4.83,0-3.02-1.29-7.21-7.23-10.38l-.3-6.54,12.54-14.19c.63-.85,1.34-1.28,2.11-1.28,1.43,0,2.32.94,2.32,2.45v20.94h32.91c.22.33.43.65.63.99.74,1.17,1.46,2.35,2.16,3.55,2.61,4.48,4.92,9.15,6.91,13.99.13.33.27.65.39.99ZM226.67,109.49v.45c0,.5,0,.99,0,1.49,0,.55-.02,1.1-.03,1.64-.02.93-.06,1.86-.11,2.79H55.53c-1.93,0-3.38-.4-4.35-1.19-.97-.79-1.67-2.35-2.12-4.66l-1.51-5.67-10.96,11.83H1.92c-.96-.09-1.49-.4-1.75-.93,0,0,0-.01,0-.02-.02-.03-.03-.07-.04-.1-.08-.18-.11-.38-.11-.6,0-.19.02-.37.07-.53,0-.03.02-.06.03-.09,0,0,0-.01,0-.02.03-.1.07-.19.13-.28l9.88-22.48.07-.16,1.44-3.25c.19-.44.41-.85.65-1.23.91-1.44,2.22-2.52,3.92-3.25,2.16-.91,4.65-1.7,7.47-2.37,2.82-.67,5.91-1.4,9.25-2.19,3.34-.79,6.19-2.28,9.61-4.11l.53-.54.19-.43.07-.16,1.93-4.48.72-1.66.49-1.14,3.3-7.65c.3-.73.82-1.1,1.56-1.1.6,0,1.04.49,1.34,1.46l1.19,7.29.19,1.14.27,1.66.73,4.48.03.16,2.11,12.9.73,4.48.03.16,1.18,7.19h166.96c.02.26.05.52.07.79,0,.05.01.11.02.16.07.66.12,1.32.17,1.98.15,1.9.25,3.82.3,5.75,0,.01,0,.02,0,.04.02.65.03,1.3.04,1.95,0,.17,0,.34,0,.51ZM46.67,98.49l-.99-7.36-.02-.16-.89-6.68-2.83,1.92-2.34,1.08c-.82.37-12.68,3.28-13.61,3.68l-.03.16-1.75,9.87,22.46-2.52ZM46.33,63.87l-13.85-5.06-3.89,5.02-2.23,2.88-11.44-4.18-3.89,5.02-5.41,6.98,6.31,2.38,8,3.01,6.1-8.04,3.47,1.31,8,3.01,9.23-12.15.02-.02-.41-.15ZM196.38,35.95c0,4.11-3.34,7.45-7.45,7.45s-7.45-3.34-7.45-7.45,3.34-7.44,7.45-7.44,7.45,3.34,7.45,7.44ZM195.26,35.95c0-3.49-2.84-6.32-6.32-6.32s-6.32,2.84-6.32,6.32,2.84,6.33,6.32,6.33,6.32-2.84,6.32-6.33ZM192.39,39.27c0,.06-.03.1-.08.14-.05.04-.11.06-.18.06h-.6c-.14,0-.24-.03-.31-.09-.07-.06-.13-.12-.17-.18l-1.8-2.59h-2.18v2.63c0,.07-.03.13-.08.17-.06.04-.13.07-.22.07h-.63c-.09,0-.16-.02-.21-.07-.05-.04-.07-.1-.07-.17v-6.65c0-.07.02-.13.07-.18.05-.04.12-.07.21-.07h3.03c.93,0,1.68.18,2.22.54.55.36.82.89.82,1.6,0,.52-.16.95-.48,1.28-.32.33-.75.56-1.3.69l1.92,2.71s.04.07.04.11ZM190.52,35.43c.31-.21.46-.53.46-.95s-.15-.73-.45-.95c-.3-.22-.77-.33-1.4-.33h-2.05v2.55h2.05c.62,0,1.08-.11,1.39-.32Z"/>
      <g>
        <path class="cls-1" d="M9.32,217.47c-2.06,0-3.81-.37-5.24-1.1-1.43-.73-2.66-1.7-3.69-2.89l3.06-2.96c.82.95,1.75,1.68,2.76,2.18,1.02.5,2.15.75,3.38.75,1.4,0,2.45-.3,3.16-.9.71-.6,1.06-1.41,1.06-2.44,0-.8-.23-1.44-.69-1.94s-1.32-.86-2.58-1.09l-2.27-.34c-4.79-.76-7.18-3.08-7.18-6.98,0-1.08.2-2.05.6-2.92.4-.87.98-1.62,1.73-2.24.76-.62,1.67-1.09,2.73-1.43,1.06-.33,2.27-.5,3.62-.5,1.81,0,3.39.3,4.74.9,1.35.6,2.51,1.48,3.47,2.65l-3.09,2.93c-.6-.73-1.32-1.32-2.16-1.77s-1.91-.68-3.19-.68-2.28.24-2.94.73c-.65.49-.98,1.17-.98,2.06s.26,1.58.79,2.01c.53.43,1.37.75,2.54.95l2.23.41c2.43.44,4.22,1.21,5.38,2.32,1.16,1.11,1.73,2.67,1.73,4.66,0,1.15-.2,2.18-.6,3.11-.4.93-.98,1.73-1.75,2.41-.77.68-1.71,1.2-2.82,1.56s-2.39.55-3.83.55Z"/>
        <path class="cls-1" d="M65.85,217.06l-1.92-6.11h-8.52l-1.89,6.11h-4.6l8.04-23.97h5.63l7.97,23.97h-4.71ZM59.74,197.21h-.17l-3.06,9.86h6.32l-3.09-9.86Z"/>
        <path class="cls-1" d="M109.13,204.76l-2.47-4.98h-.1v17.28h-4.29v-23.97h4.98l7.21,12.3,2.47,4.98h.1v-17.28h4.29v23.97h-4.98l-7.21-12.3Z"/>
        <path class="cls-1" d="M169.95,217.06l-1.92-6.11h-8.52l-1.89,6.11h-4.6l8.04-23.97h5.63l7.97,23.97h-4.71ZM163.84,197.21h-.17l-3.06,9.86h6.32l-3.09-9.86Z"/>
        <path class="cls-1" d="M221.57,217.06l-1.92-6.11h-8.52l-1.89,6.11h-4.6l8.04-23.97h5.63l7.97,23.97h-4.71ZM215.46,197.21h-.17l-3.06,9.86h6.32l-3.09-9.86Z"/>
      </g>
      <g>
        <path class="cls-1" d="M22.3,133.07c-.61-.56-1.38-.85-2.32-.85h-.99c-.95,0-1.72.29-2.33.85-.61.57-.9,1.5-.9,2.79s.3,2.16.9,2.73c.61.57,1.38.86,2.33.86h.99c.94,0,1.71-.29,2.32-.86.61-.56.92-1.47.92-2.73s-.31-2.22-.92-2.79ZM13.55,133.07c-.61-.56-1.38-.85-2.32-.85h-1c-.94,0-1.71.29-2.32.85-.61.57-.9,1.5-.9,2.79s.3,2.16.9,2.73c.61.57,1.38.86,2.32.86h1c.94,0,1.71-.29,2.32-.86.61-.56.92-1.47.92-2.73s-.31-2.22-.92-2.79Z"/>
        <path class="cls-1" d="M223.22,152.19c-2.25-2.39-5.57-3.59-9.95-3.59-1.92,0-3.74.23-5.47.71-1.72.47-3.37,1.22-4.93,2.26s-3.07,2.39-4.52,4.08c-1.45,1.69-2.87,3.76-4.28,6.22l-2.7,4.7c-1.14-.63-1.71-1.9-1.71-3.82v-3.94h-5.75v3.94c0,2.94-1.61,4.4-4.82,4.4h-41.77c-2.94,0-4.4-1.47-4.4-4.4v-8.64h-5.75v8.64c0,2.94-1.61,4.4-4.82,4.4h-34.95l-.06-.18c1.05-.82,1.94-1.57,2.67-2.26.72-.68,1.32-1.38,1.79-2.09.47-.71.82-1.45,1.03-2.23.22-.78.33-1.7.33-2.76,0-6.3-4.19-9.46-12.58-9.46-2.03,0-4.12.24-6.26.73-2.13.5-4.14,1.19-6.01,2.09v7.93l6.46,7.93-.11.29H26.51c-1.45,0-2.47-.25-3.08-.76-.62-.51-.92-1.41-.92-2.7v-19.5h-6.17v3.17l-6.4,3.29c-3.18,1.64-5.62,3.43-7.32,5.35-1.7,1.92-2.56,4.35-2.56,7.28,0,2.7.72,4.79,2.15,6.26,1.42,1.47,3.51,2.21,6.26,2.21,2.23,0,3.94-.51,5.14-1.5,1.19-1,2.09-2.74,2.67-5.2h.35v.46c0,3.06.79,5.37,2.37,6.93,1.59,1.57,4.16,2.37,7.73,2.42h43.13c1.95,0,3.85-.24,5.69-.74,1.84-.49,3.59-1.26,5.23-2.32,1.64,1.06,3.48,1.83,5.48,2.32,2.02.5,4.01.74,5.97.74h26.66c2.59,0,4.54-.57,5.85-1.71,1.31-1.14,2.22-2.99,2.74-5.57h.29c.55,2.51,1.62,4.34,3.23,5.52,1.6,1.17,3.92,1.77,6.93,1.77h37.72c2.59,0,4.52-.57,5.84-1.71,1.31-1.14,2.23-2.99,2.74-5.57h.29c.55,2.51,1.63,4.34,3.23,5.52,1.61,1.17,3.92,1.77,6.93,1.77h16.98c5.13,0,8.89-1.02,11.3-3.02,2.42-2.02,3.62-5.24,3.62-9.67s-1.13-7.6-3.38-9.99ZM16.35,160.59c0,1.29-.46,2.2-1.38,2.7-.92.51-2.54.76-4.84.76-1.77,0-2.99-.22-3.67-.67-.68-.45-1.03-1.2-1.03-2.26,0-1.17.49-2.15,1.47-2.94.98-.78,2.53-1.69,4.65-2.7l4.81-2.41v7.52ZM85.69,162.71c-.49.39-1.07.86-1.73,1.4l-2.7,2.24-7.87-9.23v-.35c1.06-.28,2.21-.49,3.47-.64,1.26-.17,2.47-.24,3.64-.24,2.58,0,4.46.26,5.61.79,1.16.53,1.73,1.38,1.73,2.56,0,.46-.08.88-.23,1.26-.15.38-.39.74-.71,1.09-.31.34-.72.72-1.2,1.11ZM219.07,166.09c-1.45.73-3.91,1.08-7.39,1.08h-15.39l-.18-.35,2.53-3.82c.9-1.37,1.8-2.49,2.7-3.38.89-.88,1.89-1.57,2.97-2.05,1.07-.49,2.26-.83,3.55-1,1.29-.18,2.79-.26,4.52-.26h1.75c2.47,0,4.27.47,5.41,1.41,1.14.94,1.7,2.37,1.7,4.29s-.72,3.35-2.17,4.08Z"/>
        <path class="cls-1" d="M132.81,142.35c-.61-.56-1.38-.85-2.32-.85h-1c-.94,0-1.71.29-2.32.85-.61.57-.9,1.5-.9,2.79s.3,2.16.9,2.74c.61.56,1.38.85,2.32.85h1c.94,0,1.71-.29,2.32-.85.61-.57.92-1.48.92-2.74s-.31-2.22-.92-2.79Z"/>
      </g>
    </g>
  </g>
</svg>