<?xml version="1.0" encoding="UTF-8"?>
<svg id="Layer_2" data-name="Layer 2" xmlns="http://www.w3.org/2000/svg" viewBox="0 0 333.93 197.46">
  <defs>
    <style>
      .cls-1 {
        opacity: .5;
      }

      .cls-1, .cls-2, .cls-3 {
        fill: #fff;
      }

      .cls-2 {
        opacity: .8;
      }
    </style>
  </defs>
  <g id="Layer_1-2" data-name="Layer 1">
    <g>
      <path class="cls-1" d="M84.21,0c12.85,27.82,36.37,69.27,78.1,108.07,65.67,61.06,138.17,79.97,171.62,86.46-119.04-12.28-205.17-30.51-226.6-43.77-15.53-9.61-24-22.66-24-22.66-7.5-11.55-9.52-22.51-10.65-29.05-6.7-38.56,8.73-89.91,11.55-99.05Z"/>
      <path class="cls-2" d="M46.96,7.75c16.39,28.8,45.54,71.32,94.08,109.32,76.37,59.79,156.24,73.54,192.89,77.46-129.42-2.33-223.93-14.08-248.25-26.41-17.62-8.93-27.95-22.22-27.95-22.22-9.14-11.76-12.32-23.39-14.14-30.33-10.75-40.94,1.17-97.71,3.37-107.82Z"/>
      <path class="cls-3" d="M2.92,19.61c40.48,58.89,85.64,92.34,113.28,109.7,72.77,45.7,146.06,56.43,185.6,61.82,13.43,1.83,24.59,2.83,32.11,3.39-149.19,6.13-258.1,1.62-272.93-4.13-20.51-7.95-32.63-21.42-32.63-21.42,0,0,0,0,0,0-11.12-11.9-15.74-24.25-18.41-31.63C-5.82,93.83,1.53,30.84,2.92,19.61Z"/>
      <g>
        <path class="cls-3" d="M174.81,13.6c.66.44,1.1,1.4,1.3,2.88.21,1.48.31,3.58.31,6.3s.02,4.46.07,5.21c.05.76.07,1.48.06,2.17-.01.69-.01,1.62,0,2.81.01,1.19.07,3.46.18,6.81.11,3.35,0,5.5-.31,6.43-.32.93-.48,1.65-.48,2.15v3.4c0,.54.79,1.19,2.39,1.95,1.59.76,2.91,1.14,3.95,1.14s1.67-.53,1.89-1.58c.22-1.05.33-1.76.33-2.13s-.04-.83-.11-1.38c-.07-.55-.59-1.59-1.54-3.12-.96-1.53-1.55-2.86-1.78-3.98-.23-1.13-.35-1.97-.35-2.53s-.04-1.34-.13-2.33c-.09-.99-.12-2.94-.09-5.84.02-2.9.02-5.15,0-6.76-.02-1.6-.06-2.66-.09-3.18-.04-.51-.07-1.01-.11-1.49-.04-.48-.06-.96-.06-1.45v-2.5c0-1.18-.04-2.1-.13-2.79-.09-.69-.13-1.3-.13-1.85v-3.34c0-1.68-.71-3-2.13-3.98-1.42-.98-2.53-1.47-3.34-1.47s-1.48.89-2.02,2.68c-.54,1.79-.81,2.86-.81,3.21s.36,1.1,1.06,2.22c.71,1.13,1.4,1.91,2.06,2.35Z"/>
        <path class="cls-3" d="M210.83,55.13c.78-.05,1.69-.14,2.7-.27h.46c1.76.04,3.2-.21,4.32-.72,1.11-.51,2.1-1.11,2.96-1.8,2.1,2.84,4.28,4.3,6.52,4.37,2.24.07,4.16-.06,5.77-.4,1.6-.34,2.85-1.22,3.75-2.64.89-1.42,1.57-2.83,2.04-4.22.46-1.4.66-2.82.57-4.28-.09-1.46-.74-3.66-1.96-6.61-1.22-2.95-2.57-4.58-4.04-4.88-1.47-.31-2.74-.32-3.82-.04-1.08.28-2.6,1.46-4.55,3.53-1.96,2.07-3.36,3.89-4.21,5.47-.84,1.58-1.71,2.68-2.59,3.31-.88.62-2.45,1.14-4.7,1.56h-1.32v.06c-.29.01-.55.02-.77.02.29-6.17-.72-10.1-3.03-11.81-2.31-1.7-4.61-2.36-6.89-1.98-2.28.38-4.26,1.64-5.95,3.78-1.69,2.14-2.64,4.33-2.87,6.57s.12,4.1,1.01,5.58c.89,1.48,1.91,2.48,3.05,2.99,1.14.51,2.23.9,3.29,1.16,1.05.26,2.31.52,3.78.79-1.27,4.36-2.37,7.44-3.31,9.25-.93,1.81-2.15,3.49-3.67,5.05-1.52,1.55-3.88,3.25-7.09,5.09-3.21,1.84-7.09,2.96-11.64,3.36-4.55.4-8.34.36-11.37-.13-3.02-.49-5.67-1.18-7.93-2.08-2.27-.89-4.16-1.82-5.69-2.79-1.53-.97-2.97-2.2-4.31-3.71-1.35-1.51-2.25-2.27-2.72-2.3-.46-.02-.85.26-1.16.86-.31.6-.26,1.62.13,3.05.39,1.43,1.82,3.09,4.3,4.98,2.47,1.88,5.49,3.42,9.05,4.61,3.56,1.19,6.7,1.92,9.42,2.2,2.72.28,5.61.32,8.68.13,3.07-.2,6.27-.7,9.58-1.52,3.32-.82,6.74-2.37,10.26-4.65,3.53-2.28,6.34-4.94,8.45-7.99s3.94-7.36,5.51-12.94ZM225.87,44.92c.18-.42.48-.91.88-1.49s1.21-1.05,2.42-1.41c1.21-.37,2.11-.42,2.7-.15.59.27.99.56,1.21.86.22.31.58.92,1.06,1.84.49.92.67,1.73.55,2.44-.12.71-.69,1.24-1.69,1.58-1,.34-2.09.45-3.25.33-1.16-.12-2.13-.46-2.9-1.03-.77-.56-1.18-1.1-1.21-1.6-.04-.5.04-.96.22-1.38ZM204.96,47.57c-1.2-.07-2.27-.32-3.19-.73-.93-.42-1.53-.8-1.8-1.14-.27-.34-.41-.78-.42-1.32-.01-.54.04-1.04.15-1.51.11-.46.5-.98,1.16-1.54.66-.56,1.36-.73,2.09-.51.74.22,1.27.61,1.6,1.18s.5,1.38.51,2.46c.01,1.08-.02,2.12-.09,3.12Z"/>
        <path class="cls-3" d="M325.59,54.82c1.37.75,2.48,1.12,3.32,1.12s1.64-.42,2.39-1.25c.75-.83,1.3-1.66,1.67-2.48.37-.82.6-1.61.7-2.37.1-.76-.17-1.76-.81-2.99-.64-1.24-1.81-1.85-3.51-1.85h-5.09c-.46,0-2.14-1.16-5.01-3.49-2.88-2.33-5.48-4.53-7.82-6.61-2.34-2.08-4.7-3.12-7.09-3.12s-4.09.29-5.12.86c-1.03.58-2.05,1.48-3.07,2.72s-1.73,2.56-2.13,3.98c-.4,1.42-.78,2.42-1.12,3.01s-.46,1.96-.37,4.11c-.88.37-2.01.62-3.4.77-1.38.15-2.47.22-3.27.22h-.86v-.04c-.18.02-.38.03-.57.04h-.98v.03c-.21,0-.42,0-.64,0-.77-.04-1.3-.24-1.58-.62-.28-.38-.42-1.13-.42-2.26s-.03-1.71-.09-1.76c-.06-.05-.09-.34-.09-.88s-.33-.92-.99-1.14c-.66-.22-2.09-.68-4.28-1.38-2.19-.7-4.08-1.27-5.66-1.73-1.58-.45-2.91-1.12-3.98-2-1.08-.88-2.04-1.64-2.9-2.28-.86-.64-1.59-1.23-2.18-1.78-.6-.55-1.45-1.43-2.55-2.64-1.1-1.21-1.9-2.59-2.41-4.15-.5-1.55-.81-2.8-.94-3.73-.12-.93-.15-1.9-.09-2.92.06-1.02.23-1.99.5-2.92.27-.93.58-1.69.94-2.3.36-.6.72-1.11,1.08-1.52.37-.42,1.21-1.19,2.53-2.31,1.32-1.13,2.09-1.69,2.3-1.69s.57-.32,1.1-.95c.53-.64.83-1.32.92-2.04.09-.72.19-1.22.31-1.51.12-.28.05-.61-.22-.99-.27-.38-.62-.57-1.05-.57s-.92.28-1.49.84c-.56.56-1.61,1.49-3.14,2.79-1.53,1.3-2.73,2.76-3.6,4.39-.87,1.63-1.44,2.83-1.73,3.62-.28.78-.51,1.43-.68,1.95-.17.51-.37,1.39-.59,2.63-.22,1.24-.36,2.42-.4,3.56-.05,1.14-.04,2.03.02,2.66.06.64.16,1.43.29,2.37.14.94.4,1.93.79,2.97.39,1.04.84,2.07,1.36,3.08.51,1.02,2.07,2.82,4.68,5.42,2.61,2.59,3.51,3.95,2.72,4.08-.8.12-1.56.18-2.28.18s-2.41-.16-5.07-.48c-2.66-.32-4.25-.48-4.79-.48s-1.04.23-1.49.68c-.45.45-.81,1.14-1.08,2.07-.27.93-.47,1.81-.61,2.63-.14.82-.09,1.58.15,2.28.23.7.56,1.22.99,1.56.43.34.64.66.64.95s1.1.67,3.29,1.12c2.19.45,3.61.68,4.26.68s1.28-.15,1.89-.46c.61-.31,1.3-.93,2.06-1.87.76-.94,1.39-1.41,1.89-1.41s2.04.03,4.63.09c2.58.06,4.44.06,5.56,0,1.13-.06,1.96-.06,2.5,0,.54.06,1.49,1,2.85,2.81,1.36,1.81,2.88,2.72,4.55,2.72h2.22v.04c.74,0,1.78-.03,3.12-.09,1.35-.06,2.45-.15,3.31-.28.86-.12,2.67-.4,5.44-.84.42.32,1.54.66,3.36,1.01,1.82.35,2.97.32,3.43-.09s.7-.73.7-.95,1.4-.51,4.19-.88c2.79-.37,5-.59,6.63-.68,1.63-.09,3.08-.13,4.35-.13s2.52.29,3.73.88c1.21.59,2.5,1.25,3.87,2ZM307.12,45.36c-2.57.39-4.46.69-5.66.88-1.2.2-2.61.2-4.22,0-.49-1.3-.61-2.18-.37-2.64.24-.46.51-1.2.81-2.2.29-1,.95-1.7,1.98-2.09,1.03-.39,1.84-.59,2.42-.61.59-.01,1.44.21,2.57.66,1.13.45,2.34,1.22,3.65,2.29,1.31,1.08,2.08,1.78,2.31,2.11s.35.58.35.75-1.29.45-3.86.84Z"/>
        <path class="cls-3" d="M300.95,27.7c1.3,0,2.32-.45,3.07-1.36s1.12-1.86,1.12-2.86c0-2.4-1.2-3.6-3.6-3.6-1.25,0-2.27.39-3.05,1.16-.78.77-1.17,1.59-1.17,2.44,0,1,.43,1.96,1.29,2.86.86.91,1.64,1.36,2.35,1.36Z"/>
        <path class="cls-3" d="M228.95,91.59h-1.51c-.36,0-.96.45-1.8,1.36-.84.91-1.27,1.61-1.27,2.11v1.4c0,.43.39,1.03,1.16,1.8.77.77,1.47,1.16,2.09,1.16h1.93c.66,0,1.27-.3,1.82-.9.55-.6.83-1.2.83-1.8v-1.69c0-.53-.38-1.23-1.14-2.11-.76-.88-1.46-1.32-2.11-1.32Z"/>
        <path class="cls-3" d="M230.13,136.61c1.92-.29,3.86-.92,5.82-1.89,1.96-.97,3.62-2.19,4.98-3.67,1.36-1.48,2.52-3.12,3.47-4.92.96-1.8,1.6-3.6,1.93-5.4.33-1.8.46-2.73.39-2.79-.07-.06-.07-.09,0-.09s-.02-1.21-.29-3.64c-.27-2.42-1.01-4.47-2.22-6.13-1.21-1.66-2.57-3.15-4.08-4.46-1.51-1.31-3.01-1.96-4.52-1.96s-2.58.78-3.21,2.33c-.64,1.55-.94,2.85-.92,3.89.02,1.04.4,1.84,1.12,2.39.72.55,1.32.97,1.78,1.27.46.29.98.44,1.54.44h2.53c1.13,0,1.97.53,2.53,1.6s.78,2.86.66,5.4c-.12,2.53-.87,4.46-2.24,5.77-1.37,1.31-2.67,2.27-3.89,2.88-1.22.61-2.75,1.05-4.57,1.3-1.82.26-3.94.26-6.34.02-2.4-.25-4.78-1.28-7.14-3.1-2.36-1.82-4.19-3.81-5.47-5.95-1.29-2.14-1.98-3.79-2.08-4.96-.1-1.16-.1-2.43,0-3.8.1-1.37.25-2.65.46-3.84.21-1.19.78-2.72,1.71-4.59.93-1.87,1.89-3.46,2.88-4.76.99-1.3,2.59-3.1,4.81-5.42,2.22-2.31,3.32-3.81,3.32-4.5s-.14-1.13-.42-1.32c-.28-.2-.53-.29-.75-.29s-.72.26-1.51.79c-.78.53-2.25,1.88-4.41,4.06-2.15,2.18-3.85,4.13-5.09,5.86-1.24,1.73-2.46,3.75-3.65,6.08-1.2,2.33-1.93,4.73-2.2,7.2-.27,2.47-.36,4.24-.28,5.29.09,1.05.17,1.9.26,2.55.09.65.23,1.36.42,2.15.2.78.46,1.67.79,2.64.33.98,1.05,2.28,2.15,3.89,1.1,1.62,3.03,3.51,5.78,5.67,2.75,2.17,5.62,3.45,8.59,3.86,2.97.4,5.42.46,7.34.16Z"/>
        <path class="cls-3" d="M238.96,64.73c.15.92,1.1,1.65,2.87,2.18-.2,1.18-.61,2.04-1.23,2.61-.62.56-.94,1.1-.95,1.62-.01.51.14.86.44,1.03.31.17.72.21,1.23.13.51-.09,1.18-.58,1.98-1.49.81-.91,1.41-2.14,1.8-3.71,2.69.12,4.25.19,4.66.2.42.01,1.48.05,3.19.11,1.71.06,4.02.06,6.92,0,2.9-.06,4.58-.54,5.03-1.43.45-.89.41-1.69-.13-2.39-.54-.7-1.44-.92-2.7-.66-1.26.26-2.19.42-2.79.5-.6.07-1.65.14-3.14.2-1.49.06-3.21.11-5.16.15-1.95.04-3.85-.03-5.71-.2-.56-1.74-1.29-2.7-2.19-2.9-.89-.2-1.64-.13-2.24.18s-1.1.81-1.51,1.49c-.4.67-.53,1.47-.39,2.39Z"/>
        <path class="cls-3" d="M254.24,117.5v3.4c0,.54.79,1.19,2.39,1.95,1.59.76,2.91,1.14,3.95,1.14s1.67-.53,1.89-1.58c.22-1.05.33-1.76.33-2.13s-.04-.83-.11-1.38c-.07-.55-.59-1.59-1.54-3.12-.96-1.53-1.55-2.86-1.78-3.98-.23-1.13-.35-1.97-.35-2.53s-.04-1.34-.13-2.33c-.09-.99-.12-2.94-.09-5.84.02-2.9.02-5.15,0-6.76-.02-1.6-.06-2.66-.09-3.18-.04-.51-.07-1.01-.11-1.49-.04-.48-.06-.96-.06-1.45v-2.5c0-1.18-.04-2.1-.13-2.79-.09-.69-.13-1.3-.13-1.85v-3.34c0-1.68-.71-3-2.13-3.98-1.42-.98-2.53-1.47-3.34-1.47s-1.48.89-2.02,2.68c-.54,1.79-.81,2.86-.81,3.21s.36,1.1,1.06,2.22c.71,1.13,1.4,1.91,2.06,2.35.66.44,1.1,1.4,1.3,2.88.21,1.48.31,3.58.31,6.3s.02,4.46.07,5.21c.05.76.07,1.48.06,2.17-.01.69-.01,1.62,0,2.81.01,1.19.07,3.46.18,6.81.11,3.35,0,5.5-.31,6.43-.32.93-.48,1.65-.48,2.15Z"/>
        <path class="cls-3" d="M296.08,85.86c.5,0,1.11-.3,1.82-.9.71-.6,1.06-1.2,1.06-1.8v-2.02c0-.75-.36-1.4-1.06-1.95-.71-.55-1.24-.91-1.58-1.06-.34-.16-.88-.24-1.62-.24s-1.54.47-2.41,1.4c-.87.93-1.3,1.73-1.3,2.41v2.59c0,1.05.72,1.58,2.17,1.58h2.92Z"/>
        <path class="cls-3" d="M285.07,85.86h1.51c.57,0,1.25-.29,2.04-.86.78-.58,1.18-1.18,1.18-1.8v-1.76c0-.55-.24-1.21-.72-1.98-.48-.77-1.08-1.16-1.8-1.16h-1.58c-.33,0-.94.37-1.82,1.12-.88.75-1.32,1.41-1.32,1.98v1.69c0,.55.31,1.15.94,1.8.62.65,1.15.97,1.58.97Z"/>
        <path class="cls-3" d="M315.42,95.59c-.37-6.66-.64-10.78-.81-12.36-.17-1.58-.55-3.26-1.14-5.03-.59-1.78-1.21-3.08-1.85-3.91-.65-.83-1.31-1.35-1.98-1.56-.67-.21-1.68.06-3.01.81-1.33.75-2,1.79-2,3.14s.09,2.5.26,3.45c.17.95.92,1.82,2.26,2.61,1.33.78,2.25,2.09,2.74,3.93.49,1.84.76,5.14.81,9.92.05,4.77.14,8.11.26,10.01.12,1.9.23,3.56.31,4.99.09,1.43-.08,2.54-.5,3.32s-1.32,1.24-2.7,1.36c-1.38.12-2.27.18-2.66.16-.3,0-.72-.01-1.25-.02h0c-1.91-.34-3.51-.91-4.81-1.69-1.3-.78-2.42-1.92-3.38-3.42,1.3-2.64,2.15-4.44,2.57-5.4.42-.95.83-2.26,1.25-3.93.42-1.66.62-2.82.62-3.47s-.16-1.43-.5-2.33c-.33-.91-1.43-2.32-3.3-4.24-1.87-1.92-3.6-2.74-5.18-2.46-1.58.28-2.91,1.25-3.98,2.9-1.08,1.65-1.91,3.12-2.5,4.39-.59,1.27-1,2.53-1.25,3.78-.24,1.25-.32,2.44-.22,3.56.1,1.13.86,2.76,2.29,4.9,1.43,2.14,2.43,3.59,2.99,4.35-.44.66-.95,1.2-1.52,1.62-.58.42-1.23.77-1.97,1.06-.57.23-1.42.36-2.53.39v-.03c-1.86,0-3.49-.07-4.88-.2-1.39-.13-2.37-1.08-2.92-2.83-.55-1.75-.78-2.96-.68-3.62.1-.66.12-1.13.07-1.4-.05-.27-.23-.44-.55-.51-.32-.07-.68-.06-1.08.04-.4.1-.86.48-1.38,1.14-.51.66-.87,1.32-1.06,1.98-.2.66-.43,1.26-.7,1.8-.27.54-.44,1.04-.51,1.51-.07.47-.02,1.42.17,2.86.18,1.44.53,2.63,1.05,3.56.51.93.5,2.48-.05,4.65-.55,2.17-1,3.68-1.36,4.54-.35.86-.8,1.77-1.32,2.74-.53.97-1.19,1.9-1.98,2.81-.8.91-1.7,1.82-2.72,2.75-1.01.93-2.25,1.9-3.71,2.92-1.46,1.02-2.67,1.74-3.64,2.17-.97.43-2.33.99-4.08,1.67-1.75.69-3.32,1.09-4.7,1.21-1.38.12-2.78.21-4.19.28-1.41.06-3.13-.05-5.18-.35-2.04-.29-3.6-.59-4.66-.88-1.06-.29-1.63-.45-1.69-.46-.06-.01-.58-.16-1.54-.44-.97-.28-2.11-.82-3.42-1.62-1.31-.8-2.28-1.24-2.9-1.32s-1.21-.06-1.76.07c-.55.13-.86.49-.94,1.06-.07.57-.09,1.05-.06,1.43.04.38.34.89.9,1.54.56.65,2.02,1.45,4.37,2.41,2.35.95,4.47,1.7,6.37,2.24,1.9.54,3.27.88,4.13,1.01.86.13,2.09.25,3.71.35,1.61.1,3.59.05,5.93-.15,2.34-.2,3.58-.35,3.73-.46.15-.11,1.25-.46,3.32-1.05,2.07-.59,3.51-1.11,4.33-1.58.82-.47,1.89-1.03,3.19-1.69,1.31-.66,3.26-2.28,5.86-4.85,2.59-2.57,4.1-4.14,4.52-4.7.42-.56.93-1.37,1.54-2.42.61-1.05,1.27-2.28,1.96-3.69.7-1.41,1.14-2.77,1.34-4.09.2-1.32.44-2.19.72-2.61.28-.42.77-.59,1.47-.53.59.05,1.89.07,3.87.06v.03c.12,0,.23-.02.35-.03.24,0,.49,0,.75,0v-.06c1.37-.16,2.55-.46,3.53-.93,1.22-.59,2.36-1.36,3.4-2.33,1.04-.97,1.88-1.95,2.52-2.96,1.1,1.15,2.18,2.12,3.23,2.92,1.05.8,2.38,1.56,3.98,2.3,1.6.73,3.21,1.11,4.83,1.14v-.07c1.31,0,2.73-.13,4.28-.4,1.77-.32,3.38-.96,4.83-1.93,1.44-.97,2.39-2,2.85-3.1.45-1.1.67-2.34.66-3.73-.01-1.38-.16-3.23-.44-5.55-.28-2.31-.61-6.8-.97-13.46ZM292.91,107.53c-1.03-1.3-1.93-2.54-2.72-3.73-.78-1.19-1.19-2.09-1.23-2.7-.04-.61.13-1.36.51-2.24.38-.88.75-1.38,1.12-1.49s.81,0,1.34.35c.53.34,1.22,1,2.09,1.96.87.97,1.3,1.93,1.3,2.9s-.81,2.61-2.42,4.94Z"/>
        <path class="cls-3" d="M333.82,118.67c-.07-.55-.59-1.59-1.54-3.12-.96-1.53-1.55-2.86-1.78-3.98-.23-1.13-.35-1.97-.35-2.53s-.04-1.34-.13-2.33c-.09-.99-.12-2.94-.09-5.84.02-2.9.02-5.15,0-6.76-.02-1.6-.06-2.66-.09-3.18-.04-.51-.07-1.01-.11-1.49-.04-.48-.06-.96-.06-1.45v-2.5c0-1.18-.04-2.1-.13-2.79-.09-.69-.13-1.3-.13-1.85v-3.34c0-1.68-.71-3-2.13-3.98-1.42-.98-2.53-1.47-3.34-1.47s-1.48.89-2.02,2.68c-.54,1.79-.81,2.86-.81,3.21s.36,1.1,1.06,2.22c.71,1.13,1.4,1.91,2.06,2.35.66.44,1.1,1.4,1.3,2.88.21,1.48.31,3.58.31,6.3s.02,4.46.07,5.21c.05.76.07,1.48.06,2.17-.01.69-.01,1.62,0,2.81.01,1.19.07,3.46.18,6.81.11,3.35,0,5.5-.31,6.43-.32.93-.48,1.65-.48,2.15v3.4c0,.54.79,1.19,2.39,1.95,1.59.76,2.91,1.14,3.95,1.14s1.67-.53,1.89-1.58c.22-1.05.33-1.76.33-2.13s-.04-.83-.11-1.38Z"/>
      </g>
    </g>
  </g>
</svg>