<?xml version="1.0" encoding="UTF-8"?>
<svg id="Layer_2" data-name="Layer 2" xmlns="http://www.w3.org/2000/svg" xmlns:xlink="http://www.w3.org/1999/xlink" viewBox="0 0 280.97 205.49">
  <defs>
    <style>
      .cls-1 {
        fill: url(#radial-gradient);
      }

      .cls-2 {
        fill: #fff;
      }
    </style>
    <radialGradient id="radial-gradient" cx="140.48" cy="102.75" fx="140.48" fy="102.75" r="235.55" gradientUnits="userSpaceOnUse">
      <stop offset="0" stop-color="#000"/>
      <stop offset="1" stop-color="#fff"/>
    </radialGradient>
  </defs>
  <g id="Layer_1-2" data-name="Layer 1">
    <g>
      <path class="cls-1" d="M280.88,64.23c.05.75.07,1.43.07,2.04,0,4.26-.25,8.76-.75,13.4-.51,4.72-1.42,9.18-2.72,13.25-1.05,3.3-2.5,6.17-4.32,8.57l-2.56,12.75c-.24,7.59-.18,15.63.15,23.88.35,8.43.47,16.91.37,25.19-.09,8.4-.96,16.48-2.56,24.03-.52,2.41-1.5,4.54-2.92,6.34-1.53,1.95-3.46,3.19-5.7,3.7l-.54.13-.54-.14-32.99-8.38h-94.33c-3.92,0-8.44-.08-12.22-.66-3.53-.57-6.55-1.41-9.25-2.56l-.06-.02-.07-.03c-2.2-1.1-4.29-2.32-6.34-3.69-2.89,1.38-5.85,2.58-8.75,3.55-6.42,2.26-13.47,3.41-20.95,3.41h-9.85c-.45,0-1.13,0-1.8-.2-2.86-.54-7.05-1.9-10.94-5.29-1.12-.97-2.06-2-2.88-3.03-.21,1.38-.55,3.3-1.12,5.2-1.78,5.87-4.96,10.71-9.47,14.37-4.44,3.61-10.4,5.44-17.72,5.44-4.51,0-8.35-1.49-11.43-4.43-2.99-2.84-5.19-6.48-6.54-10.79-1.41-4.38-2.12-8.91-2.12-13.46s.67-9.41,1.98-13.9c1.29-4.39,3.23-8.41,5.75-11.91l24.72-34.86L7.53,79.33c-.5-.66-.96-1.34-1.4-2.06-1.33-2.23-2.42-4.87-3.36-8.1C.54,61.45.4,54.94.42,53.13c.02-4.31.03-9.12.03-14.44.02-7.8.03-16.63.1-26.48v-.76s.46-.61.46-.61L6.54,3.49l.98-1.29,1.55.47,158.3,48.77,6.54-16.8.14-.35.23-.28,15.11-18.35,9.95-13.04,2.01-2.63,1.78,2.79,21.84,34.38,31.96-9.95,8.33-8.33,1.31-1.31,1.57,1.01c3.81,2.49,6.97,5.65,9.4,9.4l.31.48.06.58,3.06,34.39.02.37-.08.37v.06Z"/>
      <path class="cls-2" d="M110.58,105.95l-8.7,8.7c3.53,2.52,6.43,5.42,8.7,8.7l8.7-8.7c-2.27-3.53-5.17-6.43-8.7-8.7ZM73.6,121.33c.63,8.07.78,11.37,1.03,19.32.25,7.19.38,14.38.25,21.57-1.13,1.26-2.4,2.52-3.53,3.78h-7.32c-4.42,0-7.95-.5-10.6-1.77-2.65-1.26-4.54-3.41-5.8-6.31-.88-2.27-1.64-5.17-2.15-8.58,0-.13,0-.38-.13-.63l-.13-1.51-2.15-41.25-7.82,10.22c2.27,23.46,4.16,41.38,5.68,53.87-.08,1.96-.58,5.18-2.94,7.66-1.92,2.02-4.22,2.64-7.95,3.66-2.35.64-4.43,1.13-7.19,1.13-4.42,0-8.07-1.26-10.85-3.78-2.78-2.52-4.16-6.43-4.16-11.61,0-2.65.25-5.17.88-7.57.63-2.27,1.39-4.54,2.27-6.81l-1.39-.38c-2.27,3.15-4.16,6.94-5.42,11.23-1.26,4.29-1.89,8.7-1.89,13.25s.76,8.83,2.02,12.74c1.26,4.04,3.28,7.32,5.93,9.84,2.65,2.52,5.93,3.78,9.84,3.78,6.81,0,12.24-1.64,16.27-4.92,6.01-4.88,8.03-11.01,8.7-13.25.79-2.61,1.11-5.26,1.19-5.99.35-3.15.24-5.82.04-7.77.48,1.83,1.98,6.58,6.5,10.52,3.92,3.41,8.08,4.45,9.97,4.79.38.13.88.13,1.26.13h9.84c6.94,0,13.75-1.01,20.19-3.28,3.41-1.13,6.69-2.52,9.71-4.04,2.52,1.77,4.92,3.15,7.19,4.29,2.65,1.14,5.55,1.89,8.7,2.4,3.28.5,7.19.63,11.86.63h94.62c5.05,0,9.08-1.13,12.24-3.66,3.03-2.4,5.3-5.8,6.69-10.09,1.39-4.29,2.15-9.08,2.15-14.38,0-.63-.13-3.66-.25-9.08-.13-5.3-.66-20.3-1.17-32.66l-6.72,8.92c1.51,10.22,1.58,11.37,2.34,18.06.63,6.81,1.01,11.73,1.01,15.01,0,.76,0,1.51-.13,2.14.13-.13.25-.38.25-.51l-.25.88c-.63,1.14-1.64,2.02-3.03,2.65-1.89.88-4.04,1.39-6.43,1.64s-4.54.38-6.69.38h-94.62c-1.39,0-2.9-.25-4.54-.76-1.51-.5-2.65-1.13-3.28-2.14.25-.13.25-.25.38-.38,3.03-4.42,4.54-8.83,4.54-13.12,0-3.91-1.01-7.19-3.15-10.09-2.27-2.9-6.31-4.42-12.36-4.42s-12.24,3.03-19.3,8.96c-3.91,3.28-8.2,7.32-12.87,11.98.63-11.86.44-29.81-.2-41.54l-7.14,6.83ZM115.25,162.09c-2.65.88-6.31,1.64-10.85,2.15-4.54.63-9.71,1.01-15.52,1.39-4.04.13-8.2.25-12.36.25,1.26-1.01,2.65-2.02,4.16-3.03,3.03-2.14,6.31-4.04,9.59-5.8,3.41-1.89,6.43-3.28,9.21-4.42,2.78-1.01,4.79-1.64,6.06-1.64,4.92,0,8.45.88,10.6,2.52,2.02,1.64,3.15,3.41,3.15,5.3,0,1.26-1.39,2.4-4.04,3.28ZM258.31,127.07l9.98-13.08c-.25,7.74-.2,15.82.15,24.25.34,8.43.47,16.78.37,25.06-.1,8.28-.94,16.14-2.51,23.58-.44,2.07-1.27,3.87-2.48,5.4-1.21,1.53-2.67,2.49-4.4,2.88.2-8.67.22-16.05.07-22.14-.15-6.09-.36-11.51-.63-16.26-.27-4.76-.48-9.45-.63-14.08s-.12-9.83.07-15.6Z"/>
      <path class="cls-2" d="M183.67,96.82l-8.7,8.7c-1.89-2.78-4.16-5.17-6.81-7.06l-7.06,7.06c-2.27-3.41-5.17-6.31-8.7-8.7l8.7-8.83c2.78,1.89,5.3,4.16,7.06,6.81l6.81-6.81c3.53,2.4,6.43,5.3,8.7,8.83ZM179.34,43.3c-.63-2.78-1.77-5.42-3.28-7.82l-7.32,18.8c1.64.13,3.41.88,5.17,2.02,1.89,1.14,2.78,2.15,2.78,2.9s-1.39,1.77-4.04,3.03c-2.65,1.26-6.18,1.89-10.6,1.89H24.67c-3.91,0-6.94-.5-9.21-1.64-2.14-1.01-3.78-2.4-4.79-4.16-1.01-1.64-1.64-3.53-1.89-5.42-.38-1.89-.5-3.79-.5-5.43l.11-42.58-5.52,7.34c-.12,16.57-.08,30.3-.14,40.92,0,.8-.04,7.39,2.27,15.39,1.94,6.71,4.3,9.6,6.43,11.73,3.03,3.03,7.44,4.54,13.25,4.54h135.74c3.66,0,6.94-1.64,9.97-4.79,3.03-3.28,5.42-7.32,7.19-12.36,1.89-5.05,2.78-10.22,2.78-15.39,0-3.15-.38-6.06-1.01-8.96ZM191.12,32.71c.15,4.63.36,9.33.63,14.08s.48,10.18.63,16.26.12,13.47-.07,22.14c1.72-.39,3.19-1.36,4.4-2.88s2.03-3.33,2.48-5.4c1.58-7.44,2.41-15.3,2.51-23.58.1-8.28-.02-16.63-.37-25.06-.34-8.43-.39-16.51-.15-24.25l-9.98,13.08c-.2,5.77-.22,10.96-.07,15.6ZM236.14,67.3c0,4.16-.76,8.58-2.02,12.99-1.39,4.42-3.28,8.58-5.68,12.36-2.4,3.78-5.3,6.81-8.7,9.21-3.28,2.27-7.06,3.41-11.1,3.41-2.27,0-4.79-.63-7.7-1.89-2.78-1.26-5.42-2.78-8.07-4.54-2.52-1.77-4.54-3.41-6.18-4.92l.5-1.01c2.78.63,5.8,1.01,9.08,1.01,6.43,0,11.86-.51,16.27-1.39,4.42-1.01,8.33-2.78,11.48-5.55,2.9-2.4,5.55-5.93,8.07-10.6v-1.64c0-1.77-.13-3.66-.5-5.55-.13.5-.38,1.14-.63,1.77-.76,2.02-1.77,3.66-3.03,5.17-1.26,1.51-2.78,2.27-4.54,2.27-2.4,0-4.29-1.39-5.55-4.29-1.39-2.78-2.02-5.93-2.02-9.34,0-1.26.13-3.28.38-6.06.25-2.78.63-5.55,1.39-8.45.63-3.03,1.51-5.42,2.78-7.57,1.26-2.02,2.78-3.03,4.67-3.03,1.77,0,3.28.76,4.54,2.52,1.39,1.77,2.52,4.04,3.53,6.81.88,2.78,1.64,5.8,2.14,8.96.63,3.28.88,6.31.88,9.34ZM229.07,59.98c-.13-.38-.25-.76-.5-1.14-1.26-2.02-2.65-3.03-4.54-3.03-1.01,0-1.89.5-2.78,1.39s-1.39,1.89-1.39,3.03c0,1.26.5,2.15,1.51,2.65.88.5,1.89.76,2.78.76,1.89,0,3.15-.5,3.78-1.51.51-.63.88-1.39,1.14-2.14ZM240.24,100.24c3.38,1.5,6.95,2.76,10.72,3.77,3.77,1.01,6.99,1.52,9.65,1.52,3.79,0,6.87-1.23,9.24-3.7,2.37-2.46,4.18-5.67,5.43-9.61,1.26-3.94,2.13-8.21,2.62-12.79.49-4.58.74-8.97.74-13.16,0-2.51-.37-5.36-1.11-8.54-.74-3.18-1.81-6.16-3.22-8.94-1.4-2.78-3.14-4.82-5.21-6.1l-5.62,19.96c1.58.54,3.28,1.33,5.1,2.37,1.82,1.03,3.4,2.13,4.73,3.29,1.33,1.16,2,2.16,2,2.99,0,1.72-1.05,3.94-3.14,6.65-2.09,2.71-4.87,5.41-8.32,8.09-3.45,2.69-7.28,4.94-11.49,6.76-4.21,1.82-8.44,2.74-12.68,2.74-2.17,0-4.29-.3-6.36-.89l-.52,1.03c1.58,1.53,4.05,3.04,7.43,4.55ZM258.14,29.25c3.5,2.46,6.41,5.37,8.72,8.72l8.72-8.72c-2.27-3.5-5.17-6.41-8.72-8.72l-8.72,8.72Z"/>
    </g>
  </g>
</svg>