<?xml version="1.0" encoding="UTF-8"?>
<svg id="Layer_2" data-name="Layer 2" xmlns="http://www.w3.org/2000/svg" viewBox="0 0 458.51 138.77">
  <defs>
    <style>
      .cls-1 {
        fill: #fff;
      }
    </style>
  </defs>
  <g id="Layer_1-2" data-name="Layer 1">
    <path class="cls-1" d="M448.38,138.77h-93.34c-5.58,0-10.13-4.38-10.13-9.76V47.04c0-14.42,7.31-27.86,19.56-35.95,3.69-2.43,7.64-4.51,11.75-6.17,8.07-3.26,16.65-4.92,25.49-4.92s17.42,1.65,25.49,4.92c4.11,1.66,8.07,3.74,11.75,6.17,12.25,8.09,19.56,21.53,19.56,35.95v81.96c0,5.38-4.54,9.76-10.13,9.76ZM401.71,3.07c-8.44,0-16.63,1.58-24.34,4.69-3.92,1.58-7.69,3.56-11.21,5.89-11.38,7.52-18.18,20-18.18,33.39v81.96c0,3.69,3.17,6.69,7.06,6.69h93.34c3.89,0,7.06-3,7.06-6.69V47.04c0-13.39-6.8-25.87-18.18-33.39-3.52-2.32-7.29-4.3-11.21-5.89-7.71-3.11-15.89-4.69-24.34-4.69ZM384.36,110.03c1.71,1.81,2.41,3.52,2.11,5.12,0,.05.03.1.08.15h.15l7.01-7.01c.32-.37.52-.77.62-1.19.83.77,1.81,1.74,2.92,2.92,1.71,1.81,2.44,3.52,2.18,5.12-.05.05-.05.1,0,.15h.15l7.01-7.01c.85-1,.92-2.17.19-3.5-.73-1.33-1.72-2.6-2.98-3.8-1.26-1.21-2.23-2.11-2.94-2.71l-6.82,6.82c-.05-.1-.1-.2-.15-.3-.73-1.33-1.72-2.6-2.98-3.8-1.26-1.21-2.23-2.11-2.94-2.71l-7.76,7.76c1.05.85,2.44,2.18,4.14,3.99ZM393.4,91.85s.11.03.16,0c2.33-2.4,4.67-4.8,7-7.2.21-.22.51-.59.65-1.12.2-.78-.05-1.51-.45-2.25-.73-1.33-1.72-2.6-2.98-3.8-1.26-1.21-2.23-2.11-2.94-2.71l-7.76,7.76c1.05.85,2.44,2.18,4.14,3.99,1.71,1.81,2.44,3.52,2.18,5.12-.07.07-.07.17-.01.21ZM436.99,31.06s-.01-.09-.05-.11c-.05-.02-.11,0-.13.05-2.5,2.56-4.99,5.12-7.49,7.67-.45.47-1.08,1.28-1.37,2.41-.37,1.44-.05,2.72.47,3.93,1.05,2.46,2.61,5.19,4.69,8.19,2.08,3,3.81,6.19,5.2,9.58,1.39,3.38,1.57,6.86.57,10.43-.92-.92-2.39-2.5-4.41-4.72-2.02-2.23-4.05-4.76-6.11-7.59-2.06-2.83-3.64-6.08-4.76-8.79-1.11-2.71-1.31-5.09-.42-6.98.04-.04.04-.08,0-.13-.01,0-.03,0-.04,0-.06.02-.08.07-.08.09-2.51,2.57-5.02,5.14-7.53,7.71-.42.45-1,1.18-1.31,2.2-.59,1.96.16,3.75.5,4.53,1.15,2.67,2.45,6.21,3.87,9.67,1.43,3.46,1.72,7.32.88,11.56-5-3.02-9.32-9.42-10.62-12.63-.49-1.21-1.21-3.31-.65-5.84.29-1.3.84-2.28,1.24-2.89.01-.06,0-.11,0-.14-.01-.04-.02-.08-.06-.09-.05-.02-.1,0-.1.01-1.9,1.94-3.79,3.89-5.69,5.83-.83.74-1.45,1.44-1.88,1.98-.94,1.16-1.14,1.71-1.23,2.07-.13.51-.14.97-.11,1.42.14,2.12,1.12,4.07,1.23,4.3,1.43,2.8,3.31,5.13,4.36,6.35,2.72,3.3,5.45,6.59,8.17,9.89.49-.47,6.17-5.96,8.63-8.57,1.39-1.47,2.52-3.13,3.4-4.98,1.64,1.81,3.42,3.67,5.35,5.61,2.94-2.9,6.74-6.66,11.4-11.28,3.8-3.77,5.34-7.6,5.23-11.97-.09-3.47-1.75-6.25-5.06-11.82-2.69-4.52-4.36-5.98-5.42-9.83-.81-2.91-.79-5.46-.67-7.13ZM355.1,86.59l.02-.02s.01.02.02.03c.04.04.08.04.13,0,1.15-.63,2.41-.95,3.76-.95,1.08,0,2.41.11,4.36.92,4.25,1.76,7.86,5.15,9.28,6.56,1.52-1.59,3.85-4.01,6.75-6.92,3.14-3.15,3.45-3.37,4.46-4.57,2.69-3.21,5.51-6.65,5.46-11.04-.02-1.59-.41-2.96-.64-3.75-.57-1.99-1.49-3.88-2.77-5.66-1.55-2.17-2.99-4.21-4.3-6.12,9.47-.08,18.94-.16,28.41-.24,2.69-2.76,5.39-5.52,8.08-8.28-1.96-.15-8.76-.89-14.52-6.45-6.87-6.62-7.11-15.1-7.13-16.71,6.06-2.28,12.88-1.17,17.83,2.91,5.23,4.32,7.57,11.3,6.03,17.98,2.32-2.37,4.63-4.75,6.95-7.12.36-1.82.75-5.03-.13-8.84-.42-1.82-1.32-5.45-4.41-8.7-4.06-4.27-9.17-5.03-10.98-5.27-4.56-.61-8.23.54-10.13,1.29l-8.63,8.63c-.79,1.36-2.87,5.32-2.31,10.58.73,6.77,5.28,10.72,6.27,11.54-5.92.02-11.84.03-17.76.05l-.36.38-7.15,7.15c-1.64,1.76-1.98,3.67-1.04,5.73.94,2.06,2.36,4.28,4.25,6.68,1.89,2.39,3.46,4.99,4.72,7.78,1.26,2.79,1.39,5.83.38,9.1-3.23-2.98-6.41-4.92-9.54-5.83-2.88-.83-5.34-.44-7.38,1.16l.63-.63V30.94l-8.63,8.63v47.02ZM375.95,35.35c1.23,0,2.59-.88,3.91-2.5h.13c.79.66,1.71.83,2.72.83,1.1,0,1.93-.62,2.5-2.37.26-.83.22-1.67.22-2.46,0-1.14-.44-3.47-1.58-5.8h-.18c-.57.7-1.1,1.45-1.67,2.28.97,2.11,1.54,3.91,1.58,4.48-.22.26-.7.44-1.05.44-.44,0-1.01-.18-1.45-.48-.92-.44-1.54-1.89-1.62-4.17l-.13-.09c-.57.35-.88.7-1.36,1.14l.13,3.03c0,.88-.48,2.06-1.98,2.06-.92,0-1.41-.88-1.41-2.24,0-.79.13-1.58.35-2.46l-.13-.09c-.53.31-1.05.66-1.58,1.05-.26.97-.35,1.89-.35,2.85,0,1.23.18,2.28.61,3.16.48.75,1.23,1.32,2.33,1.32ZM448.14,81.13h-11.14s-2.81,2.88-2.81,2.88h11.15s2.8-2.88,2.8-2.88ZM446.46,94.51c-.68-1.5-1.53-3.26-3.36-4.93-.51-.47-1.71-1.54-3.59-2.24-.43-.16-3.88-1.38-7.57.06-1.15.45-1.61.88-6.03,5.29-4.81,4.8-5.23,5.26-5.89,6.32-.42.68-2.07,3.45-2.69,6.91-.03.15-.05.28-.08.46-.54,3.73.31,6.94,2.56,9.65-15.88-.08-36.06-.18-51.95-.26-.73-.91-1.38-1.76-1.94-2.53-3.35-4.63-4.55-7.7-3.6-9.22,0-.03-.02-.07-.05-.1h-.1l-6.28,6.28c-1.25,1.05-1.03,3.13.66,6.26,1.09,2.01,3.06,4.72,5.92,8.12,4.38,0,13.08,0,17.46,0,6.84,0,13.68,0,20.53,0,10.67,0,21.34,0,32.01.01,1.75-1.79,3.5-3.58,5.24-5.37-.89-.63-1.99-1.47-3.17-2.55-1.97-1.81-3.25-3.46-3.73-4.11-1.02-1.37-2.93-3.93-3.95-7.35-1.46-4.89-.44-9.33.31-11.67,2.16.49,5.68,1.66,8.74,4.65,4.09,4.01,6.81,10.75,4.81,16.53-.44,1.29-1.03,2.28-1.49,2.94,1.42-1.46,2.56-2.62,3.35-3.43.52-.54,1.07-1.09,1.83-1.87,1.51-1.56,2.27-2.34,2.38-2.47,1.36-1.61,1.42-3.66,1.5-6.21.05-1.69-.05-5.24-1.85-9.19ZM11.46,77.55c6.11,0,15.43-3.48,15.43-10.78-.05-2.03,0-3.64-2.53-4.77-2.44-1.09-8.94-1.05-8.94-3.64,0-1.52,4.45-3.75,8.05-3.75,3.34,0,3.79,2.27,4.67,4.63,1.18,3.13,2.82,4.7,5.48,4.76h0s.05,0,.07,0h.08c2.63-.06,5.03-1.64,5.63-4.53,1.61,3.04,4.33,4.17,6.12,4.17,3.14,0,5.42-3.19,5.42-7.61,0-2.94-.54-5.41-1.85-8.28h-.34l-2.4,5.57c1.16,1.1,3.1,2.74,3.1,3.47,0,.36-.67.53-1.64.53-2.46,0-6.81-1.06-6.66-2.53.13-1.28.23-1.73.28-3.43h-.53c-.31,3.33-1.96,5.55-6.52,5.6h0c-2.77,0-4.79-.31-6.04-3.78-.69-1.89-1.68-4.26-3.8-4.26-2.77,0-5.02,1.55-6.88,3.52-2.77,2.93-3.77,5.87-3.77,8.5,0,6.5,11.25,4.1,11.25,7,0,.64-6.56,3.52-12.75,3.52s-10.5-1.86-10.5-7.47c0-1.99.42-4.8,1.25-7.38l-.89.09c-1.34,3.23-1.99,7.25-1.99,9.97,0,7.02,4.78,10.87,11.21,10.87ZM8.84,80.95l-2.82,3.14,3.65,3.28,2.56-2.86,3.49,3.14,2.82-3.14-3.65-3.28-2.56,2.86-3.49-3.14ZM54.85,54.77c.05,6.55,2.1,9.23,7.52,9.23v-.04h.03v.02h.01s0,0,0,0c3.28,0,5.83-1.96,6.76-4.73,1.02,2.96,3.82,4.74,6.84,4.74h0s.01,0,.01,0h0c6.9-.19,13.8-2.63,18.48-4.43l2.28-5.7-.32-.42-6.73,1.98c-4.41,1.3-9.65-2.87-9.65-4.83,0-1.67,3.32-2.43,6.94-2.43,2.2,0,4.51.28,6.26.82l.28-.55c-1.33-3.46-3.94-5-6.62-5-4.14,0-8.45,3.69-8.45,9.72,0,1.65.47,2.91,1.24,3.88h-3.7s-.01,0-.01,0h0c-3.26,0-5.09-1-5.55-2.62h0c.16-1.6.23-2.71.27-4.14h-.71c-.47,5.26-2.79,6.75-7.6,6.75h0s-.04.01-.04.01h0c-4.13-.01-4.76-2.29-4.76-5.05v-11.86c.01-3.8,0-6.8,0-10.71h-.4l-3.18,4.7v.35c.48,1.09.68,4.58.71,8.18l.1,12.09ZM70.85,69.69l-3.65-3.28-2.82,3.14,3.65,3.28,2.82-3.14ZM116.36,64.32c4.45,0,7.15-2.89,8.02-6.86,1.73,5.87,4.24,6.49,8.25,6.53v-.02h0s0,0,0,0c3.28,0,5.83-1.96,6.76-4.73,1.02,2.96,3.82,4.74,6.84,4.74v-.02l.03.02h0c8.83-.01,17.19-6.98,22.74-8.63-1.52,5.42-.52,8.63,5.28,8.63h0c3.54-.02,5.3-2.23,6.52-5.52.63,2.33,4.16,5.52,8.59,5.52,1.86,0,3.29-1.25,4.26-3.09,1.23,1.86,3.39,3.09,7.43,3.09h0s0,0,0,0h0s0,0,0,0h0s0,0,0,0c5.55,0,7.7-4.04,7.7-8.78v-14.56l2.81-3.65c-1.66-1.02-3.29-4.54-3.44-7.39h-.56l-1.39,2.17c-.72,1.27-.88,2.23-.75,3.11v20.74c0,.95-1.17,1.36-4.39,1.39h0s0,0,0,0h0c-1.25-.01-5.6.02-6.05-3.91h0c-.32-3.65-1.98-6.84-5.19-6.84-2.84,0-5.4,2.54-8.44,7.36-1.58,2.5-3.35,3.37-7.16,3.37h0c-2.57,0-5.04,0-4.8-1.79h0c.92-.23,1.75-.3,2.49-.14l1.29-5.06-.1-.37c-2.52.01-4.37-.44-6.32-1.08-4.72-1.54-7.34-3.99-11.43-4.4-3.61-.36-6.94,3.26-5.53,9.07h.37c.21-3.12,2.32-4.44,4.57-3.89,3.12.76,7.3,3.02,12.11,4.14-7.86,2.55-14.29,3.46-20.65,3.52h0s-.02.02-.02.02v-.03c-3.26,0-5.09-.99-5.55-2.61h0c.16-1.6.23-2.71.27-4.14h-.71c-.47,5.26-2.79,6.75-7.6,6.75h0s0,0,0,0h0c-4.79-.21-5.34-2.84-6.3-5.8h0c-1-3.35-1.54-6.35-3.39-12.42h-.54l-2.37,5.52c1.55,5.26,2.36,7.11,3.49,11.13.25.9-2.5,2.22-7.31,2.22-4,0-6.24-1.56-6.24-4.12,0-.49.08-1.03.25-1.59h-.47c-.78,1.81-1.11,3.74-1.11,5.11,0,4.41,2.46,7.23,7.71,7.23ZM182.77,54.43c1.89-1.66,4.03-2.48,5.82-2.48,2.72,0,4.92,2.02,5.31,5.3.07,1.46-8.16-.21-11.14-2.82h0ZM137.63,69.5l-3.49-3.13-2.82,3.14,3.65,3.28,2.56-2.86,3.49,3.13,2.82-3.14-3.65-3.28-2.56,2.86ZM158.74,72.02l2.82-3.14-3.65-3.28-2.82,3.14,3.65,3.28ZM220.05,50.92v-21.09h-.52l-2.86,4.33v20.62c0,3.07-.05,6.14-.74,9.22h.4c1.47-2.81,3.72-6.41,3.72-13.07ZM256.73,63.98h0s0,0,0,0c3.28,0,5.83-1.96,6.76-4.73,1.02,2.96,3.81,4.74,6.83,4.74h0s.01,0,.01,0h0c6.9-.19,13.8-2.63,18.48-4.43l2.28-5.7-.32-.42-6.73,1.98c-4.41,1.3-9.65-2.87-9.65-4.83,0-1.67,3.32-2.43,6.94-2.43,2.2,0,4.51.28,6.26.82l.28-.55c-1.33-3.46-3.94-5-6.62-5-4.14,0-8.45,3.69-8.45,9.72,0,1.65.47,2.91,1.24,3.88h-3.7s-.01,0-.01,0h0c-3.26,0-5.09-1-5.55-2.62h0c.16-1.6.23-2.71.27-4.14h-.71c-.47,5.26-2.79,6.75-7.6,6.75h0s0,0,0,0h0c-4.79-.21-5.34-2.84-6.3-5.8h0c-1-3.35-1.54-6.35-3.39-12.42h-.54l-2.37,5.52c1.55,5.26,2.36,7.11,3.49,11.13.25.9-2.5,2.22-7.31,2.22-4,0-6.24-1.56-6.24-4.12,0-.49.08-1.03.25-1.59h-.47c-.78,1.81-1.11,3.74-1.11,5.11,0,4.41,2.46,7.23,7.71,7.23,4.45,0,7.15-2.89,8.02-6.86,1.73,5.87,4.24,6.49,8.25,6.53v-.02ZM258.7,69.55l3.65,3.28,2.82-3.14-3.65-3.28-2.82,3.14ZM302.18,60.45l-4.59-4.12-3.54,3.95,4.59,4.12,3.54-3.95ZM319.87,33.96l-4.02-3.6-3.1,3.47,4.02,3.6,3.1-3.47ZM314.07,64.32h0c6.49,0,9.66-3.03,9.66-9.14,0-4.26-1.57-9.27-7.73-14.98l-.72.02-2.26,5.5c3.11,2.08,9.45,6.34,9.45,9.39,0,1.92-4.64,2.48-7.4,2.54-4.19.16-7.65-.81-7.65-3.98,0-.5.08-1.05.27-1.66l-.51-.07c-.71,1.56-1.12,3.84-1.07,5.96.13,4.18,2.93,6.42,7.95,6.42ZM21.69,120.65v-11.93c0-2.25.67-2.78,2.25-2.94v-.4h-5.3l-5.86,13.61h-.11l-6.34-13.61H.88v.4c1.63.16,2.25.7,2.25,2.94v11.93c0,2.22-.62,2.75-3.13,2.91v.4h6.95v-.4c-2.51-.16-3.13-.69-3.13-2.91v-11.77h.08l7.2,15.43h.11l6.69-15.49h.08v11.82c0,2.19-.61,2.75-3.1,2.91v.4h9.95v-.4c-2.49-.16-3.13-.72-3.13-2.91ZM34.19,123.38l-.94-.47c-1.17-.59-1.61-1.06-1.61-1.97v-6.42c0-1.13,4.05-1.27,5.46-.69l.06-.15c.18-2.23-.35-3.25-2-3.25h0c-1.32,0-2.67,1.29-3.52,3.12v-3.09l-5.61,2v.35l.7.29c.85.35,1.09.82,1.09,2.2v5.64c0,1.09-.26,1.5-1.09,1.97l-.82.47v.56h8.28v-.56ZM42.35,121.68l-2.91-2.62-2.25,2.51,2.91,2.62,2.25-2.51ZM66.04,120.15l-6.72-15.16h-.11l-6.3,15c-.97,2.32-1.49,3.26-3.63,3.55v.4h7.39v-.4c-3.47-.37-4.04-1.07-2.99-3.55l.8-1.89h6.32l.99,2.27c.8,1.84-.16,2.77-2.99,3.17v.4h10.62v-.4c-1.92-.35-2.38-1.12-3.39-3.39ZM54.75,117.43l2.82-6.76.38.81,2.56,5.95h-5.76ZM86.32,119c0-1.89-1.49-3.73-4.09-4.42h0c2.02-.86,3.21-2.82,3.21-4.57,0-2.66-2.35-4.66-5.99-4.66h-9.13v.55l.73.03c.95.04,1.23,1.02,1.23,2.35v12.71c0,1.3-.3,2.28-1.23,2.35l-.73.06v.49h8.13c4.89,0,7.87-2.05,7.87-4.9ZM76.37,106.18h1.35c1.92,0,3.35,1.77,3.35,4.05s-1.41,4.2-3.52,4.2h-1.17v-8.25ZM76.37,123.08v-7.84h1.73c2.34,0,3.93,1.54,3.93,3.73s-1.61,4.11-3.93,4.11h-1.73ZM104.67,119c0-1.89-1.49-3.73-4.09-4.42h0c2.02-.86,3.21-2.82,3.21-4.57,0-2.66-2.35-4.66-5.99-4.66h-9.13v.55l.73.03c.95.04,1.23,1.02,1.23,2.35v12.71c0,1.3-.3,2.28-1.23,2.35l-.73.06v.49h8.13c4.89,0,7.87-2.05,7.87-4.9ZM94.72,106.18h1.35c1.92,0,3.35,1.77,3.35,4.05s-1.41,4.2-3.52,4.2h-1.17v-8.25ZM94.72,123.08v-7.84h1.73c2.34,0,3.93,1.54,3.93,3.73s-1.61,4.11-3.93,4.11h-1.73ZM112.23,123.54c-3.47-.37-4.04-1.07-2.99-3.55l.8-1.89h6.32l.99,2.27c.8,1.84-.16,2.77-2.99,3.17v.4h10.62v-.4c-1.92-.35-2.38-1.12-3.39-3.39l-6.72-15.16h-.11l-6.3,15c-.97,2.32-1.49,3.26-3.63,3.55v.4h7.39v-.4ZM113.13,110.67l.38.81,2.56,5.95h-5.76l2.82-6.76ZM132.52,123.68c-2.26,0-4.58-1.65-5.78-6.38h-.4v5.43c1.77,1.04,4.01,1.6,5.98,1.6h0c4.09,0,7.13-2.39,7.13-5.75,0-2.29-1.34-3.91-3.83-5.08l-3.2-1.49c-1.83-.85-2.69-1.78-2.69-3.27,0-1.73,1.49-2.95,3.55-2.95,2.55,0,4.21,1.68,5.09,5.72h.4v-5.29c-1.4-.64-3.26-1.06-5.21-1.06-4.15,0-7.07,2.53-7.07,5.53,0,2.29,1.23,3.96,3.63,5.08l3.09,1.46c1.95.9,2.89,1.84,2.89,3.32,0,1.81-1.49,3.14-3.58,3.14ZM148.75,123.68c-2.26,0-4.58-1.65-5.78-6.38h-.4v5.43c1.77,1.04,4.01,1.6,5.98,1.6h0c4.09,0,7.13-2.39,7.13-5.75,0-2.29-1.34-3.91-3.83-5.08l-3.2-1.49c-1.83-.85-2.69-1.78-2.69-3.27,0-1.73,1.49-2.95,3.55-2.95,2.55,0,4.21,1.68,5.09,5.72h.4v-5.29c-1.4-.64-3.26-1.06-5.21-1.06-4.15,0-7.07,2.53-7.07,5.53,0,2.29,1.23,3.96,3.63,5.08l3.09,1.46c1.95.9,2.89,1.84,2.89,3.32,0,1.81-1.49,3.14-3.58,3.14ZM166.42,123.44l-.76-.12c-1.12-.17-1.26-.97-1.26-1.97v-13.44c0-1,.17-1.8,1.26-1.97l.76-.12v-.5h-8.07v.5l.73.12c1.06.17,1.23.94,1.23,1.97v13.44c0,1.03-.17,1.8-1.23,1.97l-.73.12v.5h8.07v-.5ZM180.57,123.54c-3.47-.37-4.04-1.07-2.99-3.55l.8-1.89h6.32l.99,2.27c.8,1.84-.16,2.77-2.99,3.17v.4h10.62v-.4c-1.92-.35-2.38-1.12-3.39-3.39l-6.72-15.16h-.11l-6.3,15c-.97,2.32-1.49,3.26-3.63,3.55v.4h7.39v-.4ZM181.46,110.67l.38.81,2.56,5.95h-5.76l2.82-6.76ZM203.17,110.79c-1.56,0-3.11.85-4.23,2.28v-8.62l-5.64,1.98v.36h.73c.86,0,1.09,1.02,1.09,2.5v14.37l.46.28.9-.93c1.19.86,3.1,1.22,4.39,1.22h0c4.63,0,7.57-2.83,7.57-7.28,0-3.47-2.18-6.16-5.28-6.16ZM201.23,123.64h0c-1.32,0-2.19-1.12-2.29-2.93v-7.11c.63-.77,1.4-1.2,2.2-1.2,2.01,0,3.17,2.65,3.17,5.96,0,3.06-1.31,5.28-3.08,5.28ZM224.01,121.29v-17.11l-5.6,2v.32l.7.03c.97.04,1.08.81,1.08,2.01v2.27c-.76-.23-1.44-.35-1.97-.35-4.73,0-7.57,3.02-7.57,7.63,0,3.58,2.2,6.16,5.28,6.16h0c1.35,0,3.14-.73,4.37-2.55l.04.86c.07,1.32,1.41,2.01,2.66,1.59l3.1-1.04v-.18l-.73-.15c-1.08-.22-1.38-.53-1.38-1.5ZM220.2,121.36c-.44.44-1.23,1.06-2.26,1.06-2,0-3.14-1.73-3.14-5.5,0-2.91,1.23-6.07,3.05-6.07,1.41,0,2.26,1,2.35,2.7v7.8ZM234.31,110.52c-4.18,0-6.8,2.87-6.8,7.03s2.68,6.73,6.69,6.73h0c2.48,0,4.32-.69,5.84-2.09v-.41c-1.04.68-2.17,1.13-3.44,1.13-2.23,0-4.53-1.38-5.06-5.38l-.04-.28h8.6c.04-.24.08-.63.08-1.01,0-3.44-2.11-5.72-5.88-5.72ZM236.44,116.57l-4.93.03c.09-3.4,1.22-5.49,2.79-5.49s2.28,1.78,2.13,5.46ZM247.41,121.24v-17.08l-5.61,2.03v.32l.7.03c.93.04,1.09.82,1.09,2.2v12.5c0,1.09-.12,1.76-1.09,1.97l-.82.18v.56h7.66s0-.56,0-.56l-.82-.18c-.96-.21-1.12-.88-1.12-1.97ZM273.35,121.41v-5.75c0-3.32-1.56-5.22-4.2-5.22-1.44,0-3.38.73-4.53,2.37-.66-1.53-1.93-2.37-3.69-2.37-1.52,0-3.57.81-4.7,2.62v-2.72l-5.61,2.03v.32l.7.32c.85.39,1.09.85,1.09,2.2v6.2c0,1.09-.16,1.77-1.09,1.97l-.82.18v.38h7.48v-.38l-.82-.18c-.8-.17-.94-.79-.94-1.97v-6.35c0-1.53,1.03-2.64,2.44-2.64,1.53,0,2.64,1.23,2.64,2.96v6.03c0,1.17-.12,1.79-.94,1.97l-.82.18v.38h7.51v-.38l-.85-.18c-.95-.2-1.09-.88-1.09-1.97v-5.75c0-.79-.09-1.51-.26-2.13.43-.68,1.15-1.11,2.02-1.11,1.53,0,2.64,1.23,2.64,2.96v6.03c0,1.17-.12,1.79-.94,1.97l-.82.18v.38h7.51v-.38l-.85-.18c-.95-.2-1.09-.88-1.09-1.97ZM287.82,121.06v-6.55h-.01c-.16-2.69-1.97-4.02-5.59-4.02-3.33,0-5.84,1.74-5.84,3.55,0,.93.79,1.91,1.91,1.91s1.87-.97,1.87-1.91c0-.87-.62-1.98-2-1.88,3.02-1.82,5.68-.74,5.84,2.41h0v2.23c-1.79.05-3.48.37-4.93.89-1.86.72-2.85,1.86-2.85,3.25,0,1.94,1.54,3.29,3.76,3.29,1.71,0,3.26-.8,4.27-2.17.04,1.53,1.39,2.45,2.95,1.98l2.7-.82v-.2l-.68-.15c-1.1-.24-1.41-.62-1.41-1.81ZM284.01,121.65c-.12.14-.21.25-.29.36h0c-.57.62-1.09.87-1.76.87-1.02,0-1.82-1-1.82-2.26s.71-2.53,1.88-2.9c.65-.22,1.24-.33,2-.39v4.32ZM294.46,103.77c-1.35,0-2.35,1-2.35,2.35s1.03,2.35,2.35,2.35,2.35-1,2.35-2.35-1-2.35-2.35-2.35ZM290.46,129.95l.08.23c4.14-1.52,5.82-4.08,5.82-8.77v-10.95l-5.64,2v.26l.73.32c.84.37,1.09.82,1.09,2.2v5.31c0,5.46-.35,7.04-2.08,9.39ZM300.41,106.12c0,1.29.97,2.29,2.26,2.29,1.38,0,2.26-.91,2.26-2.29s-.91-2.29-2.26-2.29-2.26.94-2.26,2.29ZM304.94,121.24v-10.77l-5.61,2v.32l.7.29c.85.35,1.09.82,1.09,2.2v5.96c0,1.09-.12,1.76-1.09,1.97l-.82.18v.56h7.66s0-.56,0-.56l-.82-.18c-.96-.21-1.12-.88-1.12-1.97ZM323.25,122.79c-1.08-.22-1.38-.53-1.38-1.5v-17.11l-5.6,2v.32l.7.03c.97.04,1.08.81,1.08,2.01v2.27c-.76-.23-1.44-.35-1.97-.35-4.73,0-7.57,3.02-7.57,7.63,0,3.58,2.2,6.16,5.28,6.16h0c1.35,0,3.14-.73,4.37-2.55l.04.86c.07,1.32,1.41,2.01,2.66,1.59l3.1-1.04v-.18l-.73-.15ZM318.05,121.36c-.44.44-1.23,1.06-2.26,1.06-2,0-3.14-1.73-3.14-5.5,0-2.91,1.23-6.07,3.05-6.07,1.41,0,2.26,1,2.35,2.7v7.8Z"/>
  </g>
</svg>