<?xml version="1.0" encoding="UTF-8"?>
<svg id="Layer_2" data-name="Layer 2" xmlns="http://www.w3.org/2000/svg" viewBox="0 0 327.95 153.13">
  <defs>
    <style>
      .cls-1 {
        fill: #fff;
      }
    </style>
  </defs>
  <g id="Layer_1-2" data-name="Layer 1">
    <g>
      <path class="cls-1" d="M29.16,153.13h33.53v-28.49H30.55c-1.57,0-2.92-.5-4.04-1.51-1.12-1.01-1.68-2.22-1.68-3.63s.56-2.62,1.68-3.63c1.12-1.01,2.47-1.51,4.04-1.51h32.14v-28.49H29.16c-5.35,0-10.23,1.51-14.65,4.54-4.42,3.03-7.94,7.09-10.57,12.18-2.63,5.09-3.94,10.73-3.94,16.91s1.31,11.82,3.94,16.91c2.63,5.09,6.15,9.15,10.57,12.18,4.42,3.03,9.3,4.54,14.65,4.54Z"/>
      <path class="cls-1" d="M29.19,0H0v67.19h29.19c6.73,0,12.6-1.41,17.62-4.22,5.05-2.81,8.98-6.73,11.8-11.75,2.81-5.05,4.22-10.92,4.22-17.62s-1.41-12.57-4.22-17.62c-2.81-5.02-6.74-8.93-11.8-11.75C41.79,1.41,35.92,0,29.19,0Z"/>
      <path class="cls-1" d="M144.57,32.71V0h-68.09v67.18h68.09v-31.95c.02-.42.06-.82.06-1.27s-.04-.83-.06-1.25ZM110.39,46.44c-7.1,0-12.84-5.75-12.84-12.84s5.75-12.84,12.84-12.84,12.84,5.75,12.84,12.84-5.75,12.84-12.84,12.84Z"/>
      <g>
        <g>
          <path class="cls-1" d="M101.77,94.36h-8.1v23.8h-9.09v-23.8h-8.1v-7.59h25.29v7.59Z"/>
          <path class="cls-1" d="M117.48,111.35h-6.65l-1.56,6.82h-10.92l10.35-31.4h10.56l10.78,31.4h-10.92l-1.65-6.82ZM114.06,96.96l-1.52,6.8h3.14l-1.62-6.8Z"/>
          <path class="cls-1" d="M143.92,110.6h12.44v7.57h-21.53v-31.4h9.09v23.82Z"/>
          <path class="cls-1" d="M180.27,111.35h-6.65l-1.56,6.82h-10.92l10.35-31.4h10.56l10.78,31.4h-10.92l-1.65-6.82ZM176.85,96.96l-1.52,6.8h3.14l-1.62-6.8Z"/>
          <path class="cls-1" d="M214.7,94.36h-8.1v23.8h-9.09v-23.8h-8.1v-7.59h25.29v7.59Z"/>
          <path class="cls-1" d="M230.32,111.35h-6.65l-1.56,6.82h-10.92l10.35-31.4h10.56l10.78,31.4h-10.92l-1.65-6.82ZM226.9,96.96l-1.52,6.8h3.14l-1.62-6.8Z"/>
        </g>
        <path class="cls-1" d="M85.41,130.57c3.28,0,5.99,1.05,8.14,3.14,2.13,2.07,3.2,4.7,3.2,7.87s-1.07,5.83-3.2,7.94c-2.15,2.11-4.86,3.16-8.14,3.16h-8.93v-22.1h8.93ZM85.41,147.48c1.17,0,2.16-.42,2.96-1.27.99-1.05,1.48-2.6,1.48-4.64s-.49-3.57-1.48-4.6c-.79-.82-1.78-1.23-2.96-1.23h-2.53v11.75h2.53Z"/>
        <path class="cls-1" d="M103.25,149.73c-2.13-2.21-3.2-4.92-3.2-8.11s1.07-5.94,3.2-8.15c2.17-2.25,4.88-3.37,8.14-3.37s5.97,1.12,8.14,3.37c2.13,2.21,3.19,4.93,3.19,8.15s-1.06,5.9-3.19,8.11c-2.18,2.27-4.89,3.4-8.14,3.4s-5.97-1.13-8.14-3.4ZM114.19,146.08c.9-.95,1.35-2.45,1.35-4.5,0-3.7-1.38-5.54-4.15-5.54s-4.15,1.85-4.15,5.54,1.38,5.61,4.15,5.61c1.16,0,2.1-.37,2.8-1.11Z"/>
        <path class="cls-1" d="M146.08,147.89c-.42,1.07-1.1,2.02-2.02,2.87-1.73,1.58-3.92,2.37-6.59,2.37-3.3,0-6.04-1.12-8.23-3.36-2.15-2.2-3.23-4.92-3.23-8.15s1.06-5.93,3.19-8.14c2.18-2.26,4.93-3.39,8.27-3.39,2.65,0,4.83.77,6.55,2.31.9.81,1.59,1.78,2.08,2.9l-5.12,2.91c-.88-1.46-2.02-2.18-3.43-2.18-2.9,0-4.35,1.85-4.35,5.54s1.45,5.61,4.35,5.61c1.4,0,2.54-.74,3.43-2.21l5.11,2.91Z"/>
        <path class="cls-1" d="M166.83,130.34v13.44c0,3.14-.83,5.49-2.5,7.04-1.47,1.38-3.53,2.08-6.16,2.08-2.86,0-5.04-.8-6.56-2.39-1.52-1.59-2.28-3.88-2.28-6.87v-13.29h6.4v13.29c0,1.6.2,2.72.61,3.36.36.57.97.86,1.83.86.78,0,1.33-.22,1.64-.66.41-.58.62-1.72.62-3.41v-13.44h6.4Z"/>
        <path class="cls-1" d="M198.55,152.67h-6.4v-13.36l-4.44,13.36h-6.84l-4.27-13.16v13.16h-6.4v-22.1h10.37l3.76,14.14,4.1-14.14h10.13v22.1Z"/>
        <path class="cls-1" d="M208.32,135.91v3.03h8.82v5.34h-8.82v3.06h10.42v5.33h-16.83v-22.1h16.83v5.34h-10.42Z"/>
        <path class="cls-1" d="M242.88,130.57v22.1h-9.52l-4.89-14.07v14.07h-6.4v-22.1h10.19l4.23,13.76v-13.76h6.4Z"/>
        <path class="cls-1" d="M263.96,135.91h-5.7v16.76h-6.4v-16.76h-5.7v-5.34h17.81v5.34Z"/>
        <path class="cls-1" d="M275.03,147.87h-4.68l-1.1,4.8h-7.69l7.29-22.1h7.43l7.59,22.1h-7.69l-1.16-4.8ZM272.62,137.74l-1.07,4.79h2.21l-1.14-4.79Z"/>
        <path class="cls-1" d="M305.42,152.67h-7.12c-1.16-2.72-1.94-4.4-2.35-5.05-.72-1.14-1.52-1.79-2.38-1.97v7.02h-6.4v-22.1h8.36c3.06,0,5.34.56,6.83,1.67,1.59,1.18,2.38,3.04,2.38,5.58,0,3.32-1.23,5.51-3.7,6.55.76.68,2.22,3.45,4.39,8.31ZM297.27,135.59c-.44-.22-1.16-.33-2.16-.33h-1.55v5.13h1.88c.97,0,1.67-.13,2.09-.38.58-.36.87-1.07.87-2.12,0-1.16-.38-1.92-1.14-2.3Z"/>
        <path class="cls-1" d="M319.83,143.89v8.78h-6.42v-8.96l-8-13.15h7.79l3.37,7.69,3.6-7.69h7.78l-8.12,13.32Z"/>
      </g>
    </g>
  </g>
</svg>