<?xml version="1.0" encoding="UTF-8"?>
<svg id="Layer_2" data-name="Layer 2" xmlns="http://www.w3.org/2000/svg" viewBox="0 0 420.48 158.65">
  <defs>
    <style>
      .cls-1 {
        fill: #fff;
      }
    </style>
  </defs>
  <g id="Layer_1-2" data-name="Layer 1">
    <g>
      <path class="cls-1" d="M420.47,78.57c.1-20.45-8.06-38.88-24.48-55.3C380.39,7.66,362.36-.1,341.91,0c-20.45.1-38.98,8.56-55.5,25.08-16.62,16.62-24.88,34.95-24.58,55,.3,20.05,8.26,37.87,23.87,53.49,16.42,16.42,34.65,24.78,54.69,25.08,20.04.3,38.48-7.86,55.1-24.48,16.52-16.52,24.88-35.15,24.98-55.6Z"/>
      <g>
        <path class="cls-1" d="M231.76,49.94c-.17-1.34-.5-2.63-.99-3.86-.49-1.22-1.22-2.38-2.2-3.48-.99-1.1-2.29-2.23-3.92-3.37-.2.01-.47.05-.79.12-2,.48-4.25,2.31-4.72,5.03-.36,2.11.2,4.71,1.84,5.5,1.87.9,3.53,2.16,4.95,3.8,1.44,1.63,2.14,3.59,2.14,5.88,0,.98-.45,2.02-1.34,3.12-.89,1.1-1.98,2.12-3.25,3.06-1.27.95-2.61,1.72-4.04,2.33-1.44.61-2.63.92-3.61.92h-4.9c-1.39,0-2.9-.36-4.54-1.1-1.63-.73-3.23-1.67-4.78-2.81-1.55-1.15-2.97-2.4-4.29-3.74-1.3-1.35-2.32-2.59-3.06-3.73.57-1.15,1.23-2.29,1.96-3.43.73-1.14,1.41-2.36,2.02-3.67.61-1.3,1.13-2.74,1.59-4.29.45-1.55.66-3.35.66-5.39s-.24-3.98-.73-6.05c-.49-2.08-1.25-3.98-2.27-5.7-1.02-1.71-2.31-3.14-3.86-4.29-1.55-1.13-3.35-1.7-5.39-1.7-2.45,0-4.69.73-6.73,2.21-2.04,1.46-3.77,3.3-5.2,5.5-1.42,2.21-2.53,4.58-3.31,7.11-.77,2.53-1.17,4.86-1.17,6.98,0,1.87.15,3.38.44,4.52.28,1.15.79,2.16,1.53,3.06.73.9,1.73,1.78,3,2.63,1.27.86,2.84,1.9,4.71,3.13-.17.49-.89,1.32-2.2,2.51-1.3,1.19-2.8,2.38-4.47,3.61-1.67,1.23-3.33,2.31-4.96,3.25-1.63.94-2.86,1.41-3.67,1.41h-3.91c-1.39,0-2.13-.32-2.2-.98-.08-.66-.21-1.47-.38-2.45-3.67-5.64-8.07-11.12-13.22-16.47-5.14-5.35-10.74-9.74-16.77-13.17,1.87-4,3.55-8.6,5.01-13.82,1.48-5.22,2.2-10.54,2.2-15.92,0,0,.06-.52.03-1.7-.03-.85-.1-1.36-.42-1.84-.14-.22-.28-.43-.47-.51-.66-.29-1.96.87-3.24,2.75-.83.96-1.65,1.91-2.48,2.87-.23.81-.21,1.44-.15,1.85.1.74.34.92.57,1.99.15.69.18,1.23.21,1.62.05.88-.04,1.54-.04,1.92,0,3.35-.4,6.63-1.17,9.85-.78,3.23-2.02,6.26-3.73,9.12-1.97-.74-4.01-1.27-6.13-1.59-2.12-.32-4.29-.49-6.48-.49-4.17,0-8.43.55-12.79,1.65-4.37,1.1-8.66,2.57-12.86,4.4-4.2,1.84-8.21,3.98-11.99,6.43-3.8,2.46-7.23,5.03-10.29,7.72-3.06,2.69-5.66,5.43-7.77,8.2-2.13,2.78-3.6,5.39-4.41,7.84-.33.32-.84.53-1.53.61-.7.07-1.37.12-2.02.12h-5.03c-3.51,0-6.26-1.11-8.26-3.36-2.01-2.25-3.52-4.96-4.54-8.15-1.02-3.18-1.65-6.53-1.89-10.04-.25-3.51-.36-6.57-.36-9.19,0-1.72-.21-3.82-.61-6.31-.42-2.48-1.01-4.88-1.78-7.17-.78-2.28-1.72-4.23-2.82-5.87-1.1-1.63-2.34-2.45-3.74-2.45-.06,0-.6.01-1.17.26-3.06,1.33-4.86,8.62-2.25,12.23.36.5.53.78,1.83,2.21.74.81,1.55,1.93,2.46,3.36.89,1.44,1.79,3.74,2.69,6.92-1.97,2.12-4.07,3.98-6.31,5.58-2.24,1.59-4.68,3.25-7.29,4.95-1.63,1.06-3.1,2.07-4.4,3.01-1.31.94-2.43,2.02-3.37,3.25-.94,1.22-1.67,2.68-2.21,4.34-.53,1.67-.79,3.78-.79,6.31,0,3.63,1.1,6.27,3.3,7.93,2.21,1.65,4.78,2.48,7.72,2.48,2.28,0,4.26-.35,5.94-1.04,1.67-.7,3.16-1.59,4.46-2.69,1.31-1.1,2.49-2.39,3.55-3.86,1.06-1.46,2.12-3.02,3.18-4.65,1.39,3.27,3.69,6.1,6.92,8.51,3.23,2.4,7.17,3.61,11.82,3.61h19.46c6.78,0,13.64-.02,20.58-.06,6.93-.04,13.84-.1,20.69-.18,6.86-.08,13.5-.17,19.95-.25.49.49,2,1.21,4.54,2.14,2.53.94,5.54,1.41,9.05,1.41,2.7,0,5.19-.63,7.47-1.89,2.29-1.27,4.09-2.8,5.39-4.59.74.81,1.59,1.45,2.57,1.9,1.37.63,2.65.94,3.12,1.04,3.07.65,6.3.2,6.43.18,2.16-.32,3.69-.87,5.32-1.58,2.9-1.27,5.56-2.76,7.96-4.47,2.41-1.72,4.43-3.4,6.06-5.08,1.63-1.67,2.77-2.92,3.42-3.74.25.73,1.06,1.93,2.45,3.61,1.39,1.68,3.16,3.37,5.33,5.08,2.15,1.72,4.57,3.23,7.22,4.54,2.65,1.3,5.41,1.96,8.26,1.96h.49c.89-.04,1.76-.12,2.58-.25,2.5-.39,4.68-1.15,6.54-2.32,2.5-1.55,4.49-3.53,6-5.94,1.51-2.4,2.59-5.04,3.25-7.89.66-2.86.98-5.63.98-8.32,0-1.63-.08-3.12-.24-4.47ZM24.44,59.65c-.32,1.23-.67,2.01-.87,2.4-.78,1.51-1.8,2.8-3.06,3.86-1.27,1.06-2.73,1.88-4.41,2.45-1.67.57-3.36.87-5.08.87-.42,0-1.08-.17-2.02-.49-.95-.33-1.41-.86-1.41-1.59.17-1.14,1.06-2.45,2.7-3.92,1.63-1.47,3.43-2.91,5.39-4.35,1.96-1.43,3.84-2.77,5.63-4.04,1.8-1.27,2.99-2.31,3.56-3.12.47,3.79-.03,6.49-.41,7.94ZM97.45,68.61c-1.47.17-3.45.26-5.94.3-2.49.04-5.14.08-7.96.12-2.82.04-5.67.06-8.57.06h-7.9c-1.14,0-2.29-.02-3.43-.06-1.13-.04-2.08-.1-2.81-.18,2.61-3.68,5.92-7.17,9.91-10.48,3.99-3.31,8.32-6.22,12.98-8.75,4.65-2.53,9.49-4.54,14.5-6,5.02-1.47,9.9-2.21,14.64-2.21,2.85,0,5.71.33,8.57.98-1.31,2.45-2.92,4.9-4.84,7.35-1.92,2.45-3.96,4.81-6.13,7.04-2.16,2.25-4.39,4.37-6.67,6.37-2.29,2.01-4.41,3.82-6.37,5.45ZM145.01,64.94c-2.16.49-4.69.89-7.59,1.23-2.89.32-6.01.6-9.36.85-3.35.24-6.51.45-9.49.61-2.99.17-5.62.28-7.89.36-2.29.08-3.88.17-4.78.25,3.1-3.51,6.37-7.19,9.79-11.03,3.43-3.83,6.81-8.32,10.16-13.46,2.78,1.06,5.37,2.42,7.78,4.1,2.4,1.67,4.59,3.43,6.54,5.26,1.97,1.84,3.69,3.65,5.2,5.45,1.52,1.79,2.8,3.35,3.86,4.65-.66.66-2.06,1.23-4.22,1.72ZM192.89,44.55c-.29.87-.63,1.68-1.04,2.46-.42.77-.84,1.44-1.29,2.02-.45.57-.79.85-1.04.85h-1.34l-8.82-8.69v-1.1c0-.57.23-1.1.67-1.59.45-.49,1-.92,1.66-1.29.65-.37,1.34-.66,2.08-.85.74-.21,1.43-.31,2.08-.31,1.8,0,3.49.59,5.09,1.78,1.59,1.18,2.38,2.67,2.38,4.46,0,.66-.15,1.41-.43,2.27Z"/>
        <g>
          <path class="cls-1" d="M30.16,99.45v2.3h.58c1.61,0,2.81.13,3.6.37,1.34.42,2.01,1.97,2.01,4.63v17.81l-24.09-25.12H.11v2.3c1.9,0,3.47.43,4.72,1.29v27.05c0,1.44-.4,2.44-1.21,2.99-.65.48-1.74.72-3.28.72h-.34v2.3h14.24v-2.3c-1.53,0-2.72-.14-3.57-.43-1.52-.5-2.27-1.95-2.27-4.35v-22.27l28.29,29.52h3.22v-31.54c0-1.28.52-2.15,1.55-2.59.65-.27,1.74-.4,3.28-.4h.58v-2.3h-15.16Z"/>
          <path class="cls-1" d="M87.31,103.55c-3.92-3.48-8.97-5.22-15.17-5.22-6.6,0-12.01,1.89-16.25,5.67-4.23,3.78-6.34,8.58-6.34,14.39,0,3.36.85,6.45,2.56,9.27,1.88,3.1,4.6,5.48,8.17,7.11,3.23,1.46,6.8,2.19,10.74,2.19,3.39,0,6.47-.53,9.24-1.58,3.95-1.48,7.08-3.83,9.38-7.05,2.36-3.3,3.54-7.05,3.54-11.25,0-5.53-1.96-10.03-5.87-13.51ZM83.11,126.83c-1.96,5.04-5.54,7.55-10.73,7.55-4.19,0-7.57-1.74-10.13-5.23-2.61-3.52-3.92-8.06-3.92-13.62,0-2.89.52-5.45,1.56-7.7,2.11-4.64,5.73-6.95,10.84-6.95,4.26,0,7.65,1.84,10.15,5.51,2.37,3.47,3.55,7.73,3.55,12.79,0,2.78-.44,5.32-1.33,7.64Z"/>
          <path class="cls-1" d="M138.22,145.38c-1.28-.84-3.14-2.4-5.55-4.67-2.32-2.18-4.2-3.7-5.64-4.59,4.47-.98,8.2-3.16,11.19-6.53,3.15-3.55,4.71-7.74,4.71-12.58,0-3.61-.89-6.83-2.67-9.67-1.88-2.99-4.54-5.28-7.97-6.85-3.12-1.44-6.59-2.16-10.39-2.16-6.5,0-11.89,1.87-16.17,5.6-4.28,3.73-6.42,8.48-6.42,14.26s2.25,10.5,6.76,14.07c2.01,1.61,4.52,2.84,7.51,3.69,1.34.38,3.08,1.4,5.21,3.05l6.19,4.86c4.83,3.76,9.64,5.64,14.42,5.64,1.21,0,2.31-.12,3.31-.34l1-2.28c-2.16-.02-3.99-.52-5.49-1.5ZM122.08,134.45c-2.77,0-5.21-.79-7.33-2.38-4.44-3.31-6.66-8.82-6.66-16.52,0-2.89.51-5.45,1.53-7.7,2.11-4.64,5.72-6.95,10.82-6.95,4.54,0,8.05,2.01,10.53,6.03,2.15,3.52,3.23,7.56,3.23,12.1,0,2.68-.42,5.2-1.24,7.55-1.86,5.25-5.49,7.87-10.87,7.87Z"/>
          <path class="cls-1" d="M186.25,98.45h-1.9c-.73.67-1.67,1.01-2.82,1.01h-28.08c-.75,0-1.32-.06-1.7-.17-.21-.06-.59-.33-1.13-.83h-1.9l-1.07,11.02h2.39c.4-2.23.81-3.8,1.21-4.71.42-1,1.13-1.66,2.14-1.97.61-.19,1.62-.29,3.03-.29h6.98v26.9c0,2.94-1.52,4.41-4.55,4.41h-1.98v2.3h21.24v-2.3h-1.41c-1.84,0-3.13-.28-3.85-.84-.84-.63-1.27-1.82-1.27-3.57v-26.9h6.95c1.6,0,2.77.15,3.52.46.9.39,1.6,1.34,2.1,2.86.19.6.45,1.81.78,3.64h2.39l-1.07-11.02Z"/>
          <path class="cls-1" d="M228.18,132.23c-.69-.71-1.38-1.95-2.07-3.72l-11.77-29.96h-8.72l.64,1.73-10.07,28.12c-.63,1.78-1.29,3.06-1.96,3.83-.96,1.05-2.23,1.58-3.82,1.58h-.89v2.3h15.63v-2.3h-.75c-2.65,0-4.23-.32-4.75-.98-.25-.31-.37-.73-.37-1.27,0-.57.15-1.29.46-2.16l2.47-6.91h12.89l2.79,6.82c.36.9.55,1.66.55,2.27,0,.44-.09.81-.26,1.09-.44.75-1.52,1.12-3.25,1.12h-2.07v2.3h19.16v-2.3c-1.63-.11-2.91-.64-3.83-1.58ZM203.37,119.25l4.95-13.78,5.41,13.78h-10.36Z"/>
        </g>
      </g>
    </g>
  </g>
</svg>