<?xml version="1.0" encoding="UTF-8"?>
<svg id="Layer_2" data-name="Layer 2" xmlns="http://www.w3.org/2000/svg" viewBox="0 0 256.23 278.72">
  <defs>
    <style>
      .cls-1 {
        fill: #fff;
      }
    </style>
  </defs>
  <g id="Layer_1-2" data-name="Layer 1">
    <g>
      <g>
        <path class="cls-1" d="M184.07.5c-8.32-2.27-15.58,3.51-20.41,9.72-.44.57-.86,1.16-1.27,1.76-.06.01-.11.01-.18.03-28.39,9.43-58.54,11.78-88.06,7.37-2.26-.34-5.6,7.26-6.42,8.83-.36.69-4.79,10.19-3.6,10.36,29.66,4.44,59.85,1.95,88.4-7.4-.49,9.18,6.72,16.36,16.25,14.97,11.86-1.74,18.7-15.53,22.26-25.81,2.53-7.29,1.73-17.47-6.97-19.84ZM174.14,26.95c-3.83-.57-7.74-2.97-9.86-6.38,6.37-2.68,14.4-.96,16.99,5.74-2.28.77-4.72,1-7.13.64Z"/>
        <path class="cls-1" d="M169.73,64.82c1.87,6.28,7.28,10.63,14.04,12.05,1.29.27-3.22,9.65-3.59,10.36-1.06,2.04-3.78,8.61-6.43,8.84-36.26,3-72.67,4.02-109.04,3.06-.97-.02,3.24-9.69,3.59-10.36.94-1.8,3.95-8.9,6.43-8.83,27.98.74,55.99.31,83.93-1.31.09-4.24,1.65-8.42,3.44-12.4,3.18-7.07,7.89-17.52,15.84-20.19,4.84-1.63,9.86-.02,13.57,3.36,1.63,1.49-2.89,9-3.6,10.36-.41.79-5.33,9.83-6.42,8.83-2.43-2.22-5.55-3.84-8.84-4.03-1-.06-1.98.04-2.93.25Z"/>
        <path class="cls-1" d="M81.89,63.98c7.97,18.87,10.83,39.31,9.72,59.74-.08,1.41,1.53-.32,1.59-.38,1.44-1.32,2.7-3.74,3.64-5.38,2.03-3.52,4.95-8.11,5.18-12.34,1.14-20.88-1.98-41.57-10.11-60.83-.27-.64-2.8,2.72-2.47,2.27-1.5,2.03-2.79,4.33-3.96,6.56-1.21,2.31-4.77,7.6-3.6,10.36h0Z"/>
        <path class="cls-1" d="M191.91,126.73c-.2-11.53-.32-23.05-.38-34.58-.01-2.08-5.02,5.38-5.24,5.76-1.92,3.34-5.2,8.26-5.18,12.34.05,9.96.15,19.92.3,29.88.06,4.02.17,8.04.19,12.06-5.21,1.27-11.1.5-16.32.45-9.94-.1-19.89-.08-29.83.03-2.53.03-5.44,6.95-6.42,8.83-.35.67-4.48,10.37-3.6,10.36,11.35-.13,22.69-.12,34.04.02,4.6.06,9.48.42,13.98-.81,4.55-1.25,7.34-4.84,9.83-8.73,3.89-6.09,7.49-13.1,8.41-20.4.63-5.03.3-10.16.22-15.21Z"/>
        <path class="cls-1" d="M173.53,122.44c-2.1-3.22-4.21-6.43-6.31-9.65-1.77-2.71-3.43-6.2-5.99-8.25-6.83-5.45-12.59,8.1-14.71,12.53-1.1,2.3-2.16,4.64-2.83,7.09-1.52.17-3.07.22-4.54.32-21.61,1.4-43.34,1.5-64.99,1.75-2.53.03-5.44,6.95-6.42,8.83-.35.67-4.48,10.37-3.6,10.36,19.57-.22,39.16-.49,58.71-1.41,4.77-.22,10.04-.07,14.67-1.43,6.27-1.84,9.46-8.72,12.18-14.21.68-1.37,1.36-2.79,1.95-4.24,1.45,1.35,2.5,3.19,3.58,4.83,2.76,4.22,5.52,8.44,8.28,12.67.6.92,6.07-8.15,6.42-8.83,1.18-2.26,2.31-4.59,3.13-7.01.3-.89,1.04-2.47.47-3.35Z"/>
        <path class="cls-1" d="M74.12,164.1c3.4,1.88,6.33,4.4,8.71,7.5.63.82,5.15-6.91,5.46-7.51.99-1.92,1.99-3.89,2.66-5.96.23-.72.93-2.16.4-2.85-2.39-3.1-5.31-5.62-8.71-7.5-1.33-.73-5.01,6.63-5.46,7.51-.99,1.92-1.99,3.89-2.66,5.96-.16.48-1.02,2.51-.4,2.85h0Z"/>
        <path class="cls-1" d="M94.64,164.01c3.4,1.88,6.33,4.4,8.71,7.5.63.82,5.15-6.91,5.46-7.51.99-1.92,1.99-3.89,2.66-5.96.23-.72.93-2.16.4-2.85-2.39-3.1-5.31-5.62-8.71-7.5-1.33-.73-5.01,6.63-5.46,7.51-.99,1.92-1.99,3.89-2.66,5.96-.16.48-1.02,2.51-.4,2.85h0Z"/>
      </g>
      <g>
        <g>
          <path class="cls-1" d="M19.11,246.32c.74,0,1.38-.28,1.91-.83.53-.55.79-1.22.79-2s-.26-1.44-.77-1.98c-.52-.54-1.16-.81-1.93-.81s-1.41.27-1.93.81c-.52.54-.77,1.2-.77,1.98s.26,1.48.77,2.02c.52.54,1.16.81,1.93.81Z"/>
          <path class="cls-1" d="M14.58,245.49c.53-.55.8-1.22.8-2s-.26-1.44-.78-1.98c-.52-.54-1.16-.81-1.93-.81s-1.41.27-1.93.81c-.52.54-.78,1.2-.78,1.98s.26,1.48.78,2.02c.52.54,1.16.81,1.93.81s1.38-.28,1.91-.83Z"/>
          <path class="cls-1" d="M34.02,221.06c.77-1.92,1.15-4.07,1.15-6.48v-14.98h-5.76v14.98c0,2.4-.01,4.09-.04,5.06-.21-.03-.52-.04-.91-.04h-8.19v5.26h8.19c1.09.03,1.95.28,2.58.77.64.49.95,1.12.95,1.9,0,1.51-.91,2.73-2.72,3.66-1.81.93-4.25,1.4-7.29,1.4-3.97,0-7.53-.81-10.67-2.43-3.14-1.62-5.48-3.87-7.01-6.76l-4.29,2.1c1.54,3.94,4.28,7.06,8.23,9.35,3.95,2.29,8.53,3.44,13.75,3.44,3.13,0,5.86-.44,8.19-1.32,2.33-.88,4.13-2.12,5.4-3.74,1.27-1.62,1.91-3.52,1.91-5.71,0-1.4-.3-2.66-.89-3.76-.6-1.11-1.45-2.01-2.56-2.71Z"/>
          <path class="cls-1" d="M256.23,222.2c0-2.35-.29-4.51-.87-6.5-.58-1.98-1.58-3.54-2.98-4.68-1.4-1.13-3.3-1.7-5.68-1.7-3.42,0-5.84,1.12-7.27,3.36-1.43,2.24-2.19,5.26-2.27,9.07-.9.43-2.04.65-3.42.65-.05,0-.09.03-.14.04h-6.06c1.99-2.16,2.98-4.63,2.98-7.41,0-2.29-.8-4.07-2.38-5.34s-3.81-1.9-6.68-1.9-6.27.7-9.98,2.11l-1.51,4.01c1.38,3.51,3.1,6.33,5.17,8.46-.4.03-1.02.04-1.87.04H53.45c-1.72,0-2.9-.28-3.54-.85-.64-.57-.95-1.61-.95-3.12v-18.82h-5.96v18.82c0,3.24.85,5.63,2.54,7.19,1.63,1.49,4.14,2.26,7.51,2.32h0s5.92.01,5.92.01h153.11c3.44,0,6.53-.51,9.26-1.54,2.68,1.03,5.95,1.54,9.82,1.54h2.58c2.44,0,4.42-.53,5.96-1.58.95.76,2.05,1.32,3.3,1.68,1.24.36,2.48.55,3.7.55,2.12,0,4.13-.53,6.04-1.58s3.07-2.66,3.5-4.82ZM224.28,219.5c-.77.93-2.01,1.64-3.74,2.12-2.38-1.73-4.01-4.24-4.89-7.53,1.85-.86,3.76-1.3,5.72-1.3,1.46,0,2.5.28,3.12.83.62.55.93,1.34.93,2.37,0,1.4-.38,2.57-1.15,3.5ZM250.35,221.75c-.32.57-.82.99-1.51,1.28-.69.28-1.4.42-2.15.42s-1.46-.14-2.15-.42c-.69-.28-1.19-.71-1.51-1.28-.27-4.97.95-7.45,3.66-7.45s3.92,2.48,3.66,7.45Z"/>
        </g>
        <g>
          <polygon class="cls-1" points="14.08 268.89 6.29 253.23 0 253.23 0 278.72 5.08 278.72 5.08 261.5 12.23 276.13 15.87 276.13 22.98 261.5 22.98 278.72 28.06 278.72 28.06 253.23 21.8 253.23 14.08 268.89"/>
          <path class="cls-1" d="M77.35,253.23l-10.87,25.49h5.83l1.97-4.95h11.58l1.97,4.95h6.04l-10.69-25.49h-5.83ZM76.14,269.14l3.97-9.9,3.93,9.9h-7.9Z"/>
          <path class="cls-1" d="M140.23,253.23l-10.87,25.49h5.83l1.97-4.95h11.58l1.97,4.95h6.04l-10.69-25.49h-5.83ZM139.02,269.14l3.97-9.9,3.93,9.9h-7.9Z"/>
          <polygon class="cls-1" points="200.75 253.23 195.1 253.23 195.1 278.72 211.48 278.72 211.48 273.7 200.75 273.7 200.75 253.23"/>
          <rect class="cls-1" x="250.58" y="253.23" width="5.65" height="25.49"/>
        </g>
      </g>
    </g>
  </g>
</svg>