<?xml version="1.0" encoding="UTF-8"?>
<svg id="Layer_2" data-name="Layer 2" xmlns="http://www.w3.org/2000/svg" xmlns:xlink="http://www.w3.org/1999/xlink" viewBox="0 0 301.38 156.37">
  <defs>
    <style>
      .cls-1 {
        fill: url(#radial-gradient);
      }

      .cls-2 {
        fill: #fff;
      }
    </style>
    <radialGradient id="radial-gradient" cx="150.69" cy="76.54" fx="150.69" fy="76.54" r="119.51" gradientUnits="userSpaceOnUse">
      <stop offset="0" stop-color="#fff"/>
      <stop offset=".14" stop-color="#fff" stop-opacity=".97"/>
      <stop offset=".36" stop-color="#fff" stop-opacity=".88"/>
      <stop offset=".63" stop-color="#fff" stop-opacity=".73"/>
      <stop offset=".94" stop-color="#fff" stop-opacity=".53"/>
      <stop offset=".98" stop-color="#fff" stop-opacity=".5"/>
    </radialGradient>
  </defs>
  <g id="Layer_1-2" data-name="Layer 1">
    <g>
      <g>
        <path class="cls-2" d="M144.06,143.59c0-.33-.18-.63-.54-.84-.45.15-.75.51-.84,1.13-.09.51-.15.99-.21,1.49-.36.99-.63,1.7-.84,2.18-.09.36-.18.63-.21.81-.18.21-.6.93-1.25,2.15-.57,1.1-.99,1.67-1.25,1.76l-.24-.36c-.09-.39-.15-.72-.12-.93.21-2.18.3-3.28.3-3.32.12-.12.21-.36.24-.75l.06-.84c.15,0,.24-.21.24-.6,0-.75-.21-1.1-.66-1.1-.48,0-.93.33-1.31.95l-.78,1.55-.57.96c-.24.45-.36.78-.36,1.04-.27.6-.45.96-.6,1.05-.15.27-.27.57-.39.84-.21.39-.39.6-.54.63-.12-.03-.21-.18-.24-.39-.15-.69-.24-1.91-.24-3.64,0-.45.18-1.52.18-2,0-.42-.18-.63-.57-.63-.69,0-1.41,1.01-1.49,1.13-.24.35-.61.99-.75,1.95.02.74.04,1.48.06,2.23h.12c.03.18.06.42.06.75,0,1.82.27,3.26.78,4.27,0,.87.24,1.28.75,1.28.39,0,.69-.21.96-.6.21-.33.39-.69.57-1.04.45-.75.69-1.25.69-1.58.24-.21.48-.6.72-1.13s.45-.93.63-1.13l.09.06s0,.03.03.06v.06l-.12,1.11c-.03.12.06.42.06.51,0,1.82.36,2.75,1.1,2.75.96,0,1.97-.87,3.05-2.63.57-1.13,1.16-2.27,1.73-3.43,1.13-2.24,1.7-4.15,1.7-5.76Z"/>
        <path class="cls-2" d="M147.73,141.59c.06.24.3.36.75.36.12,0,.45-.06.6-.06,1.1-.66,1.73-1.31,1.82-1.97.18-.3.33-.95.45-1.94-.09-.27-.24-.39-.45-.39-.36,0-.72.06-1.08.21-.45.18-.69.42-.75.72-.81.15-1.58,1.28-1.58,2.15,0,.3.09.57.3.84l-.06.09Z"/>
        <path class="cls-2" d="M173.17,149.78s-.15.06-.18.06c-.36.36-.78.57-1.28.63l-.12-.06c-.54,0-.92-.27-1.19-.78-.09-.21-.21-.72-.42-1.52-.15-.57-.33-.93-.54-1.02-1.05,0-1.67.24-1.88.75-1.43,3.32-2.39,4.96-2.9,4.96l-.18-.51s.09-.6.3-1.7c.15-.72.21-1.28.21-1.73.12-.33.63-.96,1.49-1.94,1.05-1.16,1.64-1.82,1.79-2.03,1.22-1.7,2.03-2.87,2.42-3.46.93-1.46,1.49-2.78,1.73-3.88.39-.45.57-1.02.57-1.64.24-.24.36-.78.36-1.58,0-.57-.3-.87-.93-.87-.21-.24-.36-.36-.48-.36-.33,0-.93.36-1.79,1.1-.48.42-1.07,1.08-1.76,1.94l-1.31,1.64-.45.81c-.39.63-.69,1.11-.9,1.4l-.69,1.34c-.9,1.64-1.76,4.3-2.57,7.91-.07.11-.21.26-.36.43-.01,0-.01-.02-.03-.02-.45.39-.81.66-1.1.87-.36.36-.72.72-1.05,1.1-.45.45-.9.66-1.31.66-.09-.15-.15-.33-.15-.54,0-.75.33-2.36.99-4.9.63-2.42.99-3.7,1.13-3.88.39-.09.78-.18,1.1-.21.15-.03.21-.12.21-.27,0-.45.12-1.55.12-1.94,0-.24-.48-.48-.48-.75.33-.81.48-1.37.48-1.64,0-.54-.33-.84-.96-.93-.36.18-.75.72-1.17,1.64-.39.84-.81,1.28-1.31,1.34-.09-.03-.21-.09-.36-.12l-.6.12c-.15-.09-1.2-.12-3.2-.12-.48,0-.78.03-.87.12-.24.18-.36.84-.36,1.97,0,.27.42.48,1.28.57,1.23-.03,2.39,0,3.43.06,0,.3-.51,1.25-1.55,2.84-.99,1.52-1.67,2.48-2.06,2.9l-1.02,1.02c-.09.11-.15.23-.21.34v-.14c-.44.06-.83.36-1.1.93-.24.03-.84.33-1.1.42-.51-.12-.84-.45-1.02-1.02-.09-.3-.18-.84-.21-1.64-.03-.69-.12-1.16-.24-1.37-.33-.57-.93-.87-1.82-.87-.21.12-.42.36-.63.75-.24.15-.54.42-.93.84-.36.39-.57.72-.66.93-.6.48-1.05.9-1.34,1.22,0,.01,0,.02,0,.03-.37.33-.68.63-.87.84-.09.33-.45.75-1.07,1.28-.63.54-.96.99-1.05,1.34.03.12.09.21.12.24l.12.06c.33-.09.84-.39,1.55-.87.75-.51,1.22-.87,1.49-1.13.04-.04.05-.08.08-.12l.42-.33c.9-.9,1.43-1.34,1.58-1.34.21,0,.39.21.6.6.24.48.39.75.45.81.27.72.51,1.22.78,1.52.33.39.84.66,1.49.81,1.57-.39,2.61-1.01,3.14-1.85.01.07.01.13.03.21,1.04-.99,2.3-2.3,3.79-3.94l.06.21c-.66,1.34-.99,3.34-.99,5.94,0,.63.48,1.17,1.46,1.58.3-.03.75-.36,1.34-.96l1.25-1.19c1-.74,1.66-1.36,2.04-1.86.1-.08.2-.18.26-.32-.09,2.69.36,4.03,1.34,4.03.21,0,.54-.03.93-.12.69-.51,1.34-1.28,1.97-2.33,0-.18.45-.78,1.34-1.79.15,0,.54.42,1.16,1.22.87.33,1.37.51,1.52.51.12,0,.39-.06.84-.21.45-.15.75-.27.87-.36.63-.39,1.02-.69,1.1-.9.12-.21.18-.69.18-1.43,0-.24-.09-.36-.24-.36ZM166.64,143.15c.45-1.02.66-1.61.66-1.82.51-.54.75-.96.75-1.28.15-.15.72-.84,1.64-2.12.81-1.1,1.31-1.67,1.52-1.67h.06s0,.03.03.06v.06c0,.51-.18,1.1-.51,1.79-.33.54-.63,1.08-.93,1.64l-.84,1.67c-.15.06-.24.15-.33.24-.78,1.37-1.7,2.57-2.75,3.58l-.06-.09c.03-.3.3-.99.75-2.06Z"/>
        <path class="cls-2" d="M216.47,141.59c.06.24.3.36.75.36.12,0,.45-.06.6-.06,1.1-.66,1.73-1.31,1.82-1.97.18-.3.33-.95.45-1.94-.09-.27-.24-.39-.45-.39-.36,0-.72.06-1.08.21-.45.18-.69.42-.75.72-.81.15-1.58,1.28-1.58,2.15,0,.3.09.57.3.84l-.06.09Z"/>
        <path class="cls-2" d="M262.85,149.78c-.15,0-.33.15-.57.42-.24.27-.42.42-.54.45-1.1.9-2.21,1.34-3.34,1.34-.39,0-.81-.15-1.22-.48-.27-.21-.42-.54-.51-1.04l.12-.39c.48-.36.81-.66.99-.9.36-.15.95-.66,1.76-1.49.81-.87,1.22-1.43,1.25-1.76.21-.09.3-.48.3-1.17,0-.63-.09-.99-.3-1.04-.33-.36-.78-.54-1.34-.54-.78,0-1.22.21-1.37.6-.84.42-1.46.93-1.88,1.49-.36.21-.81.9-1.37,2.12-.57,1.19-.84,2-.84,2.45,0,.02,0,.04,0,.06l-.06-.06c-.57.57-1.07.87-1.46.87-.63,0-1.1-.72-1.1-1.35,0-.09.06-.39.18-.92-.09-.9-.3-1.34-.69-1.34-1.04,0-1.91.54-2.57,1.64-.36.18-.9.63-1.61,1.34-.63.63-1.2,1.02-1.73,1.17l-.06-.06c.09-.21.33-.63.36-.78,1.05-1.05,1.61-1.7,1.76-1.97.45-.27.78-.63,1.04-1.1.21-.09.42-.27.66-.6.27-.33.48-.54.63-.57.69-.57,1.13-1.02,1.34-1.4.81-.27,1.22-.78,1.22-1.52-.21-.42-.45-.63-.72-.63-.51,0-.96.12-1.28.33l-1.79,1.16c-.45.3-1.19.93-2.3,1.88-1.16,1.05-1.85,1.76-2.03,2.09-.97.68-1.57,1.3-1.86,1.88,0-.09.01-.18.01-.3l-.27.09c-.45.63-.9.96-1.31.96-.48,0-.99-.57-1.49-1.7-.51-1.17-.93-1.73-1.25-1.73-1.1,0-2.27.63-3.43,1.91-.45.48-.72.75-.81.78,0-.51.09-1.22.3-2.15.21-.92.33-1.64.33-2.12,0-.9-.24-1.34-.69-1.34s-.93.21-1.4.6c-.36.39-.72.75-1.1,1.1-1.94,1.88-3.05,2.84-3.28,2.84h-.06l-.06-.09c.03-.15.12-.6.33-1.34.15-.54.21-.99.21-1.34,0-.39-.03-.66-.09-.81-.12-.21-.36-.3-.72-.3-.57,0-1.02.18-1.34.54-.72.75-1.25,1.28-1.58,1.67l-1.4,1.34c-.46.46-.8.87-1.04,1.26-.4.09-.75.38-.99.89-.24.03-.84.33-1.1.42-.51-.12-.84-.45-1.02-1.02-.09-.3-.18-.84-.21-1.64-.03-.69-.12-1.16-.24-1.37-.33-.57-.93-.87-1.82-.87-.21.12-.42.36-.63.75-.24.15-.54.42-.92.84-.36.39-.57.72-.66.93-.6.48-1.05.9-1.34,1.22,0,.02,0,.03,0,.04-.49.45-.94.7-1.28.7-.63,0-1.1-.72-1.1-1.35,0-.09.06-.39.18-.92-.09-.9-.3-1.34-.69-1.34-1.04,0-1.91.54-2.57,1.64-.36.18-.9.63-1.61,1.34-.63.63-1.2,1.02-1.73,1.17l-.06-.06c.09-.21.33-.63.36-.78,1.05-1.05,1.61-1.7,1.76-1.97.45-.27.78-.63,1.04-1.1.21-.09.42-.27.66-.6.27-.33.48-.54.63-.57.69-.57,1.13-1.02,1.34-1.4.81-.27,1.22-.78,1.22-1.52-.21-.42-.45-.63-.72-.63-.51,0-.96.12-1.28.33l-1.79,1.16c-.45.3-1.19.93-2.3,1.88-1.16,1.05-1.85,1.76-2.03,2.09-.88.61-1.44,1.18-1.76,1.72-.01,0-.02-.01-.03-.01-.03,0-.15.06-.18.06-.36.36-.78.57-1.28.63l-.12-.06c-.54,0-.92-.27-1.19-.78-.09-.21-.21-.72-.42-1.52-.15-.57-.33-.93-.54-1.02-1.05,0-1.67.24-1.88.75-1.43,3.32-2.39,4.96-2.9,4.96l-.18-.51s.09-.6.3-1.7c.15-.72.21-1.28.21-1.73.12-.33.63-.96,1.49-1.94,1.05-1.16,1.64-1.82,1.79-2.03,1.22-1.7,2.03-2.87,2.42-3.46.93-1.46,1.49-2.78,1.73-3.88.39-.45.57-1.02.57-1.64.24-.24.36-.78.36-1.58,0-.57-.3-.87-.93-.87-.21-.24-.36-.36-.48-.36-.33,0-.93.36-1.79,1.1-.48.42-1.07,1.08-1.76,1.94l-1.31,1.64-.45.81c-.39.63-.69,1.11-.9,1.4l-.69,1.34c-.9,1.64-1.76,4.3-2.57,7.91-.09.13-.25.31-.44.52-.02-.01-.04-.04-.06-.04l-.12.12c-.09.39-.6.9-1.55,1.52-.69.42-1.37.84-2.06,1.22-.06.03-.3.09-.75.15-.48-.09-.96-.15-1.46-.21-.21-.09-.42-.45-.6-1.07.12-.63.18-1.37.57-1.76.12-.12.66-.48,1.61-1.11.72-.48,1.16-.9,1.31-1.25,1.64-.78,2.45-1.49,2.45-2.15,0-.36-.09-.78-.27-1.28-.54,0-.99.06-1.37.21-.51.21-1.61.9-3.28,2.12-1.76,1.28-2.63,2.06-2.63,2.33-.78.45-1.43.95-2,1.52v1.73s.03.09.06.18c.15-.15.36-.33.69-.57.27,1.34.48,2.12.6,2.27.51.63,1.73,1.22,2.57,1.22s1.61-.18,2.36-.51c.69-.3,1.55-.78,2.54-1.43.72-.48,1.21-.88,1.52-1.2-.05,2.5.4,3.77,1.35,3.77.21,0,.54-.03.93-.12.69-.51,1.34-1.28,1.97-2.33,0-.18.45-.78,1.34-1.79.15,0,.54.42,1.16,1.22.87.33,1.37.51,1.52.51.12,0,.39-.06.84-.21.45-.15.75-.27.87-.36.46-.28.78-.52.96-.7.09.06.14.13.14.23-.18.39-.3.78-.36,1.1.15.99.6,1.46,1.4,1.46.15-.03.3-.09.51-.18.69-.24,1.13-.42,1.28-.54.48-.33.81-.66.95-.99.39-.21.9-.66,1.46-1.34l.21-.06c.27-.21.96-.96,1.34-1.17.15.54.27,1.08.39,1.61.27.87.75,1.31,1.49,1.31.09,0,.24-.03.45-.06.15.03.27.09.36.12.51-.06,1.05-.3,1.55-.72.29-.22.51-.43.65-.66,0,.01,0,.02,0,.03l.81-.63c.9-.9,1.43-1.34,1.58-1.34.21,0,.39.21.6.6.24.48.39.75.45.81.27.72.51,1.22.78,1.52.33.39.84.66,1.49.81,1.61-.39,2.66-1.04,3.18-1.91.25-.09.67-.48,1.27-1.22.69-.84,1.19-1.25,1.52-1.25l.06.12c0,.51-.18,1.28-.57,2.3-.36.99-.54,1.76-.54,2.3,0,.27.18.45.57.54l.54-.12c.39-.33,1.13-1.07,2.24-2.27,1.13-1.23,1.79-1.97,1.94-2.27.27,0,.6-.21.99-.63.39-.45.72-.66.96-.66h.24v.18c0,.63-.21,1.55-.63,2.78-.39,1.22-.6,2.15-.6,2.81.15.36.36.54.63.54.51,0,1.28-.66,2.39-1.94,1.22-1.46,2.18-2.36,2.81-2.63.51,0,1.13.45,1.88,1.34.75.87,1.46,1.37,2.21,1.46.81-.27,1.31-.45,1.46-.54.49-.25.77-.53.87-.84.07.05.11.12.11.21-.18.39-.3.78-.36,1.1.15.99.6,1.46,1.4,1.46.15-.03.3-.09.51-.18.69-.24,1.13-.42,1.28-.54.48-.33.81-.66.95-.99.39-.21.9-.66,1.46-1.34l.21-.06c.27-.21.96-.96,1.34-1.17.15.54.27,1.08.39,1.61.27.87.75,1.31,1.49,1.31.09,0,.24-.03.45-.06.15.03.27.09.36.12.51-.06,1.05-.3,1.55-.72.6-.45.9-.9.9-1.37.04-.06.06-.12.08-.18.03.24.07.48.13.69.09.33.33.9.72,1.7.75.66,1.52.99,2.27.99-.03,0,.24-.06.81-.15.81-.15,1.34-.27,1.61-.42l1.61-1.02,1.46-.9c.24-.24.36-.75.36-1.49,0-.42-.06-.63-.18-.63ZM257.42,146.67c.39-.45.75-.69,1.1-.69.09.09.12.18.12.3,0,.39-.48,1.07-.87,1.22-.15.33-.42.51-.84.57l-.21-.12c.09-.42.33-.84.69-1.28ZM194.5,143.15c.45-1.02.66-1.61.66-1.82.51-.54.75-.96.75-1.28.15-.15.72-.84,1.64-2.12.81-1.1,1.31-1.67,1.52-1.67h.06s0,.03.03.06v.06c0,.51-.18,1.1-.51,1.79-.33.54-.63,1.08-.93,1.64l-.84,1.67c-.15.06-.24.15-.33.24-.78,1.37-1.7,2.57-2.75,3.58l-.06-.09c.03-.3.3-.99.75-2.06Z"/>
      </g>
      <g>
        <path class="cls-2" d="M65.21,100.12c-4.59,0-8.36-.63-11.32-1.88-2.96-1.25-5.08-2.9-6.35-4.94-1.27-2.04-1.7-4.21-1.28-6.5.08-.37.28-.7.59-.97.31-.27.66-.41,1.03-.41h11.88c.67,0,1.16.09,1.47.28.31.19.66.45,1.03.78.33.29.7.55,1.09.78s.86.4,1.41.5c.54.1,1.15.16,1.81.16,1.42,0,2.58-.16,3.5-.47.92-.31,1.44-.74,1.56-1.28.13-.5-.02-.92-.44-1.25-.42-.33-1.19-.63-2.31-.91-1.13-.27-2.69-.53-4.69-.78-3.21-.46-5.9-1.3-8.07-2.53-2.17-1.23-3.7-2.86-4.59-4.91-.9-2.04-1.03-4.44-.41-7.19.88-4.25,3.13-7.56,6.75-9.94,3.63-2.38,8.27-3.56,13.94-3.56,2.83,0,5.41.41,7.72,1.22,2.31.81,4.29,1.88,5.94,3.19,1.65,1.31,2.86,2.72,3.66,4.22.79,1.5,1.06,2.94.81,4.31-.04.38-.23.7-.56.97-.33.27-.67.41-1,.41h-12.5c-.58,0-1.03-.08-1.34-.25-.31-.17-.64-.42-.97-.75-.17-.21-.5-.45-1-.72-.5-.27-1.19-.41-2.06-.41-1.04,0-1.83.16-2.38.47-.54.31-.88.74-1,1.28-.08.38.03.73.34,1.06.31.34.94.63,1.88.88.94.25,2.32.5,4.16.75,4.08.5,7.26,1.37,9.54,2.63,2.27,1.25,3.78,2.87,4.53,4.85.75,1.98.83,4.32.25,7.03-.96,4.54-3.34,7.99-7.13,10.35-3.79,2.36-8.96,3.53-15.5,3.53Z"/>
        <path class="cls-2" d="M91.22,99.49c-.46,0-.82-.17-1.09-.5s-.36-.73-.28-1.19l8.63-40.39c.08-.46.32-.85.72-1.19s.82-.5,1.28-.5h17.69c2.67,0,5.14.31,7.41.94,2.27.62,4.21,1.57,5.81,2.84,1.6,1.27,2.74,2.87,3.41,4.78.67,1.92.73,4.17.19,6.75-1.08,5.17-3.31,8.93-6.69,11.29-3.38,2.35-8.05,3.53-14.01,3.53h-5.63l-2.56,11.94c-.08.46-.32.85-.72,1.19s-.82.5-1.28.5h-12.88ZM110.78,74.3h4.38c.67,0,1.37-.26,2.09-.78.73-.52,1.24-1.39,1.53-2.6.13-.54.16-1.08.09-1.62s-.26-1-.59-1.37c-.34-.38-.88-.56-1.63-.56h-4.38l-1.5,6.94Z"/>
        <path class="cls-2" d="M154.48,100.12c-2.75,0-5.35-.36-7.78-1.06-2.44-.71-4.54-1.77-6.32-3.19s-3.06-3.18-3.88-5.28c-.81-2.1-.99-4.55-.53-7.35.29-1.71.64-3.52,1.06-5.44.42-1.92.83-3.77,1.25-5.56,1.38-5.46,3.91-9.68,7.6-12.66,3.69-2.98,8.91-4.47,15.66-4.47,2.75,0,5.34.37,7.78,1.13,2.44.75,4.54,1.86,6.31,3.31,1.77,1.46,3.06,3.25,3.88,5.38.81,2.12.99,4.56.53,7.31-.29,1.79-.65,3.65-1.06,5.56-.42,1.92-.83,3.73-1.25,5.44-1.42,5.59-3.96,9.8-7.63,12.63-3.67,2.84-8.88,4.25-15.63,4.25ZM155.86,87.93c1.38,0,2.56-.41,3.56-1.22,1-.81,1.71-2.09,2.13-3.84.46-1.79.88-3.56,1.25-5.31.38-1.75.71-3.48,1-5.19.33-1.75.16-3.03-.53-3.84s-1.7-1.22-3.03-1.22-2.5.41-3.5,1.22-1.73,2.09-2.19,3.84c-.42,1.71-.81,3.44-1.19,5.19s-.73,3.52-1.06,5.31c-.29,1.75-.12,3.03.53,3.84.64.81,1.66,1.22,3.03,1.22Z"/>
        <path class="cls-2" d="M182.56,99.49c-.46,0-.81-.17-1.06-.5-.25-.33-.34-.73-.25-1.19l8.56-40.39c.08-.46.33-.85.75-1.19s.85-.5,1.31-.5h18.51c6,0,10.4,1.36,13.19,4.06,2.79,2.71,3.69,6.42,2.69,11.13-.58,2.79-1.73,5.22-3.44,7.28-1.71,2.06-3.67,3.72-5.88,4.97l4.63,14.25c.04.13.07.23.09.31.02.08,0,.21-.03.38-.08.37-.29.7-.63.97s-.69.41-1.06.41h-12.82c-.83,0-1.41-.21-1.72-.62-.31-.42-.51-.77-.59-1.06l-2.81-11.94h-2.56l-2.56,11.94c-.08.46-.33.85-.75,1.19-.42.33-.85.5-1.31.5h-12.25ZM201.94,73.98h4.56c.96,0,1.75-.32,2.38-.97.62-.64,1.02-1.38,1.19-2.22.17-.83.1-1.62-.19-2.35-.29-.73-.96-1.09-2-1.09h-4.57l-1.37,6.63Z"/>
        <path class="cls-2" d="M236.07,99.49c-.46,0-.82-.17-1.09-.5s-.36-.73-.28-1.19l6.13-28.63h-10.38c-.46,0-.82-.17-1.09-.5s-.36-.73-.28-1.19l2.19-10.07c.08-.46.32-.85.72-1.19s.82-.5,1.28-.5h36.64c.46,0,.82.17,1.1.5.27.33.36.73.28,1.19l-2.19,10.07c-.08.46-.32.85-.72,1.19s-.82.5-1.28.5h-10.38l-6.13,28.63c-.08.46-.32.85-.72,1.19s-.82.5-1.28.5h-12.5Z"/>
      </g>
      <path class="cls-1" d="M294.97,95.23c-3.54,0-6.41-2.87-6.41-6.41v-13.1c0-3.54,2.87-6.41,6.41-6.41s6.41,2.87,6.41,6.41v13.1c0,3.54-2.87,6.41-6.41,6.41ZM272.52,109.01v-26.74c0-3.54-2.87-6.41-6.41-6.41s-6.41,2.87-6.41,6.41v26.74c0,3.54,2.87,6.41,6.41,6.41s6.41-2.87,6.41-6.41ZM157.1,124.29v-12.64c0-3.54-2.87-6.41-6.41-6.41s-6.41,2.87-6.41,6.41v12.64c0,3.54,2.87,6.41,6.41,6.41s6.41-2.87,6.41-6.41ZM128.25,134.11v-34c0-3.54-2.87-6.41-6.41-6.41s-6.41,2.87-6.41,6.41v34c0,3.54,2.87,6.41,6.41,6.41s6.41-2.87,6.41-6.41ZM99.39,143.39v-31.74c0-3.54-2.87-6.41-6.41-6.41s-6.41,2.87-6.41,6.41v31.74c0,3.54,2.87,6.41,6.41,6.41s6.41-2.87,6.41-6.41ZM70.54,146.66v-35.01c0-3.54-2.87-6.41-6.41-6.41s-6.41,2.87-6.41,6.41v35.01c0,3.54,2.87,6.41,6.41,6.41s6.41-2.87,6.41-6.41ZM41.68,134.11v-30.01c0-3.54-2.87-6.41-6.41-6.41s-6.41,2.87-6.41,6.41v30.01c0,3.54,2.87,6.41,6.41,6.41s6.41-2.87,6.41-6.41ZM301.38,51.71v-8.65c0-3.54-2.87-6.41-6.41-6.41s-6.41,2.87-6.41,6.41v8.65c0,3.54,2.87,6.41,6.41,6.41s6.41-2.87,6.41-6.41ZM272.52,44.77v-11.61c0-3.54-2.87-6.41-6.41-6.41s-6.41,2.87-6.41,6.41v11.61c0,3.54,2.87,6.41,6.41,6.41s6.41-2.87,6.41-6.41ZM243.67,44.77v-14.81c0-3.54-2.87-6.41-6.41-6.41s-6.41,2.87-6.41,6.41v14.81c0,3.54,2.87,6.41,6.41,6.41s6.41-2.87,6.41-6.41ZM214.81,44.77v-11.61c0-3.54-2.87-6.41-6.41-6.41s-6.41,2.87-6.41,6.41v11.61c0,3.54,2.87,6.41,6.41,6.41s6.41-2.87,6.41-6.41ZM185.96,44.77v-3.43c0-3.54-2.87-6.41-6.41-6.41s-6.41,2.87-6.41,6.41v3.43c0,3.54,2.87,6.41,6.41,6.41s6.41-2.87,6.41-6.41ZM157.1,44.77v-14.81c0-3.54-2.87-6.41-6.41-6.41s-6.41,2.87-6.41,6.41v14.81c0,3.54,2.87,6.41,6.41,6.41s6.41-2.87,6.41-6.41ZM128.25,44.77V15.14c0-3.54-2.87-6.41-6.41-6.41s-6.41,2.87-6.41,6.41v29.62c0,3.54,2.87,6.41,6.41,6.41s6.41-2.87,6.41-6.41ZM99.39,44.77V6.41c0-3.54-2.87-6.41-6.41-6.41s-6.41,2.87-6.41,6.41v38.35c0,3.54,2.87,6.41,6.41,6.41s6.41-2.87,6.41-6.41ZM70.54,44.77V6.41c0-3.54-2.87-6.41-6.41-6.41s-6.41,2.87-6.41,6.41v38.35c0,3.54,2.87,6.41,6.41,6.41s6.41-2.87,6.41-6.41ZM41.68,78.45V20.06c0-3.54-2.87-6.41-6.41-6.41s-6.41,2.87-6.41,6.41v58.39c0,3.54,2.87,6.41,6.41,6.41s6.41-2.87,6.41-6.41ZM12.82,99.49v-47.79c0-3.54-2.87-6.41-6.41-6.41s-6.41,2.87-6.41,6.41v47.79c0,3.54,2.87,6.41,6.41,6.41s6.41-2.87,6.41-6.41Z"/>
      <g>
        <path class="cls-2" d="M168.84,117.97c-.13,0-.23-.04-.3-.13-.07-.09-.1-.2-.07-.32l2.3-10.56h-3.6c-.14,0-.25-.05-.32-.13-.07-.09-.1-.2-.07-.33l.31-1.41c.03-.14.09-.25.21-.34.11-.09.23-.13.36-.13h9.93c.14,0,.25.04.32.13.07.09.09.2.07.34l-.31,1.41c-.03.13-.09.24-.2.33-.1.09-.23.13-.37.13h-3.6l-2.3,10.56c-.03.13-.09.23-.19.32-.1.09-.23.13-.37.13h-1.79Z"/>
        <path class="cls-2" d="M186.92,117.97c-.17,0-.28-.06-.34-.19-.06-.13-.05-.25.03-.38l7.36-12.31c.08-.13.18-.24.3-.33s.28-.14.48-.14h2.26c.19,0,.34.05.43.14s.14.21.16.33l2.02,12.31c.03.18,0,.32-.09.42-.08.1-.2.15-.34.15h-1.65c-.17,0-.29-.04-.38-.12s-.14-.19-.17-.31l-.43-2.25h-5.78l-1.42,2.33c-.06.09-.15.17-.25.25-.1.08-.23.11-.39.11h-1.79ZM191.93,113.09h4.44l-.93-5.9-3.5,5.9Z"/>
        <path class="cls-2" d="M213.85,117.97c-.14,0-.25-.04-.32-.13-.07-.09-.09-.2-.07-.32l2.71-12.45c.03-.13.09-.23.2-.32.1-.09.23-.13.37-.13h1.79c.14,0,.25.04.32.13.07.09.09.2.07.32l-2.32,10.63h6.17c.14,0,.25.05.32.13.07.09.09.2.07.34l-.29,1.34c-.03.13-.09.23-.19.32-.1.09-.23.13-.37.13h-8.45Z"/>
        <path class="cls-2" d="M237.09,117.97c-.14,0-.25-.04-.32-.13-.07-.09-.09-.2-.07-.32l2.71-12.43c.03-.14.09-.25.18-.34.1-.09.22-.13.36-.13h1.73c.14,0,.25.04.32.13.07.09.09.2.07.34l-.95,4.35,5.06-4.49c.06-.06.16-.14.29-.22.13-.08.3-.12.52-.12h1.99c.19,0,.31.08.36.24s0,.3-.11.41l-6.48,5.92,4.32,6.15c.12.16.12.31,0,.45-.11.13-.24.2-.38.2h-1.89c-.21,0-.36-.04-.46-.11s-.17-.15-.22-.23l-3.68-5.13-1.09,5.02c-.03.13-.09.23-.18.32-.1.09-.22.13-.36.13h-1.73Z"/>
      </g>
    </g>
  </g>
</svg>