<?xml version="1.0" encoding="UTF-8"?>
<svg id="Layer_2" data-name="Layer 2" xmlns="http://www.w3.org/2000/svg" viewBox="0 0 340.37 88.26">
  <defs>
    <style>
      .cls-1 {
        fill: #fff;
      }
    </style>
  </defs>
  <g id="Layer_1-2" data-name="Layer 1">
    <g>
      <path class="cls-1" d="M324.36,38.94c-.28.46-1.32,2.79-.4,10.4.99,8.28,3.98,20.18,8.89,35.39l-8.52-9.76-1.11,13.28c-5.73-17.71-8.9-30.84-9.69-40.12-.51-6.05-.48-14.51,5.61-18.05,2.2-1.28,4.5-1.44,6.33-1.57,2.06-.14,2.74-.27,3.29-.82,1.51-1.52,1.83-5.38.62-7.25-.96-1.47-4.05-3.12-8.81-3.46-5.71-.42-11.22,1.21-13.72,4.06-3.42,3.89-1.21,11.51,1.14,19.56,2.95,10.16,6.3,21.68-1.12,30.26-7.34,8.49-21.02,9.31-29.19,4.74-7.15-4-11.7-12.98-12.48-24.63-.71-10.67,1.6-22.66,6.7-34.9l-2.47-.83,13.51-15.26,1.54,20.32-2.84-.96c-10.49,24.66-6.33,43.2,1.03,47.32,4.36,2.44,12.68,1.87,16.44-2.5,3.77-4.36,1.47-12.3-.98-20.7-2.87-9.88-6.13-21.08,1.01-29.2,5.56-6.32,15.1-8.02,22.16-7.51,7.61.55,13.68,3.51,16.66,8.11,3.84,5.92,2.95,15.1-1.93,20.04-3.35,3.39-7.28,3.65-9.87,3.83-.58.04-1.43.1-1.82.19Z"/>
      <path class="cls-1" d="M23.49,35.13v-4.73h-9.36v-15.25h-4.97v15.25H0v4.73h9.17v25.09c0,3.63.9,6.39,2.72,8.29,1.82,1.9,4.32,2.84,7.53,2.84h.43c.62,0,1.32-.05,2.12-.16.56-.07,1.07-.11,1.52-.11v-4.84c-.4-.03-.79-.02-1.18.04-.38.05-.63.09-.74.11-.69.11-1.24.16-1.64.16h-.51c-1.9,0-3.25-.47-4.06-1.43-.82-.94-1.22-2.58-1.22-4.91v-25.09h9.36Z"/>
      <path class="cls-1" d="M49.12,29.99c-5.39,0-9.45,1.47-12.17,4.4V15.06h-4.96v55.81h4.96v-19.82c0-5.71,1.01-9.84,3.01-12.39,2-2.56,5.06-3.83,9.17-3.83,2.72,0,4.88.41,6.45,1.22,1.58.82,2.7,2.11,3.39,3.91.68,1.79,1.02,4.2,1.02,7.25v23.66h4.93v-24.02c0-11.24-5.25-16.86-15.78-16.86Z"/>
      <path class="cls-1" d="M109.74,50.7c0-4.37-.86-8.13-2.6-11.25-1.73-3.12-4-5.47-6.79-7.05-2.78-1.57-5.77-2.36-8.94-2.36s-6.13.78-8.91,2.34c-2.79,1.56-5.05,3.9-6.77,7.01-1.71,3.11-2.58,6.84-2.58,11.19,0,3.98.79,7.54,2.38,10.69,1.59,3.15,3.8,5.6,6.64,7.37,2.84,1.76,6.07,2.64,9.67,2.64h.77c3.79,0,7.15-.97,10.09-2.93,2.94-1.94,5.15-4.59,6.64-7.92l-4.44-2c-1.2,2.62-2.82,4.61-4.89,5.98-2.05,1.38-4.52,2.06-7.4,2.06h-.77c-2.61,0-4.92-.56-6.9-1.7-1.99-1.13-3.57-2.77-4.73-4.91-1.16-2.13-1.84-4.64-2.02-7.52h31.51c.03-.37.04-.92.04-1.64ZM78.23,47.66c.38-2.8,1.21-5.2,2.52-7.19,1.3-1.98,2.9-3.48,4.78-4.49,1.88-1,3.87-1.5,5.94-1.5s4.02.5,5.91,1.5c1.88,1.01,3.48,2.49,4.78,4.46,1.3,1.98,2.13,4.38,2.48,7.22h-26.43Z"/>
      <path class="cls-1" d="M161.07,31.4l-6.72,24.1-7.12-24.1h-8.57l-7.13,24.26-6.64-24.26h-10.57l12.17,39.47h9.05l7.44-25.38,7.61,25.38h8.89l12.25-39.47h-10.65Z"/>
      <path class="cls-1" d="M208.12,34.62c-3.23-2.69-7.96-4.02-14.22-4.02-3.42,0-6.57.49-9.46,1.5-2.9,1.01-5.73,2.61-8.47,4.82l5.04,6.8c1.65-1.49,3.56-2.65,5.71-3.48,2.15-.83,4.28-1.24,6.38-1.24,3.37,0,5.86.57,7.49,1.72,1.62,1.15,2.44,2.89,2.44,5.24v.24l-13.14.72c-2.19.11-4.04.32-5.56.63-1.52.31-2.89.82-4.13,1.54-1.6.88-2.85,2.15-3.77,3.79-.9,1.64-1.35,3.58-1.35,5.82,0,2.48.63,4.71,1.88,6.69,1.25,1.97,3.03,3.51,5.31,4.62,2.28,1.11,4.91,1.66,7.86,1.66,2.25,0,4.54-.42,6.88-1.28,2.33-.85,4.17-2.09,5.5-3.72.16-.2.37-.47.64-.84v5.04h9.81v-24.9c0-4.89-1.61-8.67-4.84-11.35ZM203.03,54.62c0,1.77-.46,3.34-1.39,4.71-.92,1.38-2.24,2.44-3.96,3.2s-3.76,1.14-6.11,1.14c-1.98,0-3.55-.45-4.72-1.37-1.18-.9-1.77-2.1-1.77-3.6s.53-2.54,1.6-3.28c.5-.42,1.09-.7,1.74-.82.65-.11,1.62-.22,2.9-.3l11.69-.72v1.04Z"/>
      <path class="cls-1" d="M248,31.32l-9.89,24.5-9.89-24.5h-10.49l15.14,37.47-2.52,6.29c-.4,1.04-1.2,1.56-2.4,1.56-.88,0-1.86-.27-2.93-.8l-4.56,9.37c.67.37,1.31.69,1.96.95l.48.21c1.76.75,3.51,1.12,5.24,1.12,2.42,0,4.61-.74,6.54-2.22,1.94-1.49,3.49-3.66,4.67-6.55l19.1-47.41h-10.45Z"/>
    </g>
  </g>
</svg>