<?xml version="1.0" encoding="UTF-8"?>
<svg id="Layer_2" data-name="Layer 2" xmlns="http://www.w3.org/2000/svg" xmlns:xlink="http://www.w3.org/1999/xlink" viewBox="0 0 270.86 184.16">
  <defs>
    <style>
      .cls-1 {
        fill: url(#linear-gradient);
      }

      .cls-2 {
        fill: #fff;
      }
    </style>
    <linearGradient id="linear-gradient" x1="135.43" y1="184.16" x2="135.43" y2="0" gradientUnits="userSpaceOnUse">
      <stop offset=".07" stop-color="#fff" stop-opacity="0"/>
      <stop offset=".29" stop-color="#fff" stop-opacity="0"/>
      <stop offset=".42" stop-color="#fff" stop-opacity=".04"/>
      <stop offset=".52" stop-color="#fff" stop-opacity=".1"/>
      <stop offset=".61" stop-color="#fff" stop-opacity=".17"/>
      <stop offset=".7" stop-color="#fff" stop-opacity=".27"/>
      <stop offset=".77" stop-color="#fff" stop-opacity=".4"/>
      <stop offset=".84" stop-color="#fff" stop-opacity=".54"/>
      <stop offset=".91" stop-color="#fff" stop-opacity=".71"/>
      <stop offset=".97" stop-color="#fff" stop-opacity=".9"/>
      <stop offset="1" stop-color="#fff"/>
    </linearGradient>
  </defs>
  <g id="Layer_1-2" data-name="Layer 1">
    <g>
      <path class="cls-1" d="M269.02,9.9h1.84V0H0v9.9h1.85c2.41,0,4.37,1.96,4.37,4.37v7.52c0,2.41-1.96,4.37-4.37,4.37H0v157.99h270.86V26.17h-1.84c-2.41,0-4.37-1.96-4.37-4.37v-7.52c0-2.41,1.96-4.37,4.37-4.37ZM33.41,21.8c0,2.41-1.96,4.37-4.37,4.37h-4.72c-2.41,0-4.37-1.96-4.37-4.37v-7.52c0-2.41,1.96-4.37,4.37-4.37h4.72c2.41,0,4.37,1.96,4.37,4.37v7.52ZM60.6,21.8c0,2.41-1.96,4.37-4.37,4.37h-4.72c-2.41,0-4.37-1.96-4.37-4.37v-7.52c0-2.41,1.96-4.37,4.37-4.37h4.72c2.41,0,4.37,1.96,4.37,4.37v7.52ZM87.79,21.8c0,2.41-1.96,4.37-4.37,4.37h-4.72c-2.41,0-4.37-1.96-4.37-4.37v-7.52c0-2.41,1.96-4.37,4.37-4.37h4.72c2.41,0,4.37,1.96,4.37,4.37v7.52ZM114.97,21.8c0,2.41-1.96,4.37-4.37,4.37h-4.72c-2.41,0-4.37-1.96-4.37-4.37v-7.52c0-2.41,1.96-4.37,4.37-4.37h4.72c2.41,0,4.37,1.96,4.37,4.37v7.52ZM142.16,21.8c0,2.41-1.96,4.37-4.37,4.37h-4.72c-2.41,0-4.37-1.96-4.37-4.37v-7.52c0-2.41,1.96-4.37,4.37-4.37h4.72c2.41,0,4.37,1.96,4.37,4.37v7.52ZM169.35,21.8c0,2.41-1.96,4.37-4.37,4.37h-4.72c-2.41,0-4.37-1.96-4.37-4.37v-7.52c0-2.41,1.96-4.37,4.37-4.37h4.72c2.41,0,4.37,1.96,4.37,4.37v7.52ZM196.54,21.8c0,2.41-1.96,4.37-4.37,4.37h-4.72c-2.41,0-4.37-1.96-4.37-4.37v-7.52c0-2.41,1.96-4.37,4.37-4.37h4.72c2.41,0,4.37,1.96,4.37,4.37v7.52ZM223.73,21.8c0,2.41-1.96,4.37-4.37,4.37h-4.72c-2.41,0-4.37-1.96-4.37-4.37v-7.52c0-2.41,1.96-4.37,4.37-4.37h4.72c2.41,0,4.37,1.96,4.37,4.37v7.52ZM250.92,21.8c0,2.41-1.96,4.37-4.37,4.37h-4.72c-2.41,0-4.37-1.96-4.37-4.37v-7.52c0-2.41,1.96-4.37,4.37-4.37h4.72c2.41,0,4.37,1.96,4.37,4.37v7.52Z"/>
      <g>
        <polygon class="cls-2" points="47.21 71.51 38.52 62.83 29.84 71.51 38.52 80.27 47.21 71.51"/>
        <polygon class="cls-2" points="164.14 71.51 155.46 62.83 146.77 71.51 155.46 80.27 164.14 71.51"/>
        <path class="cls-2" d="M37.55,84.55l-7.03,7.15,5.04,11c1.33,2.94,1.99,5.02,1.99,6.22H10.38v-55.64L0,63.66v85.67h48.61v-37.49c0-2.36-1.39-7.14-4.16-14.33-2.78-7.19-5.08-11.51-6.9-12.96Z"/>
        <polygon class="cls-2" points="199.57 171.5 211.63 183.66 223.69 171.5 211.63 159.44 199.57 171.5"/>
        <polygon class="cls-2" points="173.52 171.5 185.58 183.66 197.64 171.5 185.58 159.44 173.52 171.5"/>
        <path class="cls-2" d="M266.76,89.15l-16.04,8.58c1.37,3.48,2.05,6.32,2.05,8.52,0,2.53-.87,3.79-2.61,3.79-1.12,0-2.05-.44-2.8-1.31l-4.1-6.28c-.75-.99-1.43-1.49-2.05-1.49-.66,0-1.35.5-2.05,1.49l-1.37,3.79c-1.12,2.53-2.76,3.79-4.91,3.79-2.49,0-4.36-1.6-5.63-4.79-1.26-3.19-2.62-4.79-4.07-4.79-.79.12-1.82,1.6-3.11,4.41-.66,1.41-1.4,2.44-2.21,3.08-.81.64-1.69.96-2.64.96h-13.74c-1.74,0-3.29-1.55-4.66-4.66l-2.3-5.97c-1.16,2.65-1.95,4.52-2.36,5.59-.21.54-.46,1.18-.75,1.93-1.08,2.07-2.36,3.11-3.85,3.11h-25.36c-1.74,0-3.29-1.55-4.66-4.66l-2.3-5.97c-1.16,2.65-1.95,4.52-2.36,5.59-.21.54-.46,1.18-.75,1.93-1.08,2.07-2.36,3.11-3.85,3.11h-18.71c0-4.85-1.31-8.93-3.92-12.25-2.82-3.56-6.4-5.35-10.76-5.35s-9.18,2.38-13.86,7.15c-2.24,2.28-4.91,5.76-8.02,10.44h-16.35v-55.64l-10.38,10.38v85.67h36.62c.99,0,1.71-.27,2.14-.81.44-.54,1.27-2.03,2.52-4.48,1.53,2.86,2.38,4.37,2.55,4.54.46.5,1.2.75,2.24.75h35.12l2.18.06c.58-.04,1.06-.31,1.43-.81l2.36-4.04,3.05,4.1c.5.5,1.1.75,1.8.75l1.68-.06h26.79l2.18.06c.58-.04,1.06-.31,1.43-.81l2.36-4.04,3.17,4.1c.5.5,1.14.75,1.93.75l1.68-.06h11.75c2.69,0,4.29-.14,4.79-.43l1.68-2.42c1.24,1.41,2.24,2.24,2.98,2.49s2.67.37,5.78.37h11.44c4.23,0,6.84-.54,7.83-1.62l3.05-4.29,2.74,4.41c.79,1.04,2.11,1.55,3.98,1.55l1.49-.06h1.74c4.85,0,7.87-.27,9.08-.81,2.03-.99,3.05-3.4,3.05-7.21v-23.81l-4.1-28.35ZM115.94,114.08c-1.12,0-2.59-.85-4.41-2.55-1.82-1.7-2.74-3.23-2.74-4.6,0-.79.3-1.51.9-2.18.6-.66,1.25-.99,1.96-.99,1.28,0,2.56.85,3.82,2.55,1.26,1.7,1.9,3.71,1.9,6.03,0,1.16-.48,1.74-1.43,1.74Z"/>
        <g>
          <path class="cls-2" d="M5.33,182.14c-3.36-2.03-5.33-5.78-5.33-10.58,0-2.42.47-4.53,1.4-6.35,1.87-3.65,5.36-5.78,9.74-5.78h.5c2.2,0,4.16.5,5.85,1.52,2.15,1.28,3.71,3.28,4.58,5.81l-4.88,1.83c-1.17-2.86-2.88-4.11-5.58-4.11h-.5c-1.2,0-2.2.25-3.1.83-1.85,1.13-2.78,3.2-2.78,6.25,0,1.52.25,2.75.73,3.83.97,2.13,2.73,3.23,5.15,3.23h.5c1.27,0,2.28-.27,3.16-.85,1.13-.73,1.92-1.8,2.37-3.33l4.96,1.8c-.18.55-.43,1.13-.7,1.63-1.88,3.65-5.36,5.78-9.76,5.78h-.5c-2.18,0-4.13-.5-5.81-1.52Z"/>
          <path class="cls-2" d="M24.64,159.94h5.2v23.22h-5.2v-23.22Z"/>
          <path class="cls-2" d="M33.97,159.94h5.08l8.43,13.69v-13.69h5.2v23.22h-5.11l-8.39-13.71v13.71h-5.2v-23.22Z"/>
          <path class="cls-2" d="M56.79,159.94h15.07v4.8h-9.88v4.15h9.18v4.76h-9.18v4.71h9.88v4.8h-15.07v-23.22Z"/>
          <path class="cls-2" d="M74.72,159.94h6.95l5.06,13.97,5.05-13.97h6.95v23.22h-5.2v-13.72l-4.43,11.79h-4.71l-4.46-11.88v13.81h-5.2v-23.22Z"/>
          <path class="cls-2" d="M110.11,159.94h3.83l9.33,23.22h-5.68l-1.87-5.1h-7.36l-1.9,5.1h-5.68l9.33-23.22ZM113.95,173.28l-1.88-5.13-1.92,5.13h3.8Z"/>
          <path class="cls-2" d="M125.32,159.94h5.08l8.43,13.69v-13.69h5.2v23.22h-5.11l-8.39-13.71v13.71h-5.2v-23.22Z"/>
          <path class="cls-2" d="M155.41,159.94h3.83l9.33,23.22h-5.68l-1.87-5.1h-7.36l-1.9,5.1h-5.68l9.33-23.22ZM159.26,173.28l-1.88-5.13-1.92,5.13h3.8Z"/>
        </g>
        <polygon class="cls-2" points="226.72 176.44 227.04 184.16 270.86 171.94 270.04 162.4 226.72 176.44"/>
      </g>
    </g>
  </g>
</svg>