<?xml version="1.0" encoding="UTF-8"?>
<svg id="Layer_2" data-name="Layer 2" xmlns="http://www.w3.org/2000/svg" viewBox="0 0 398.06 96.38">
  <defs>
    <style>
      .cls-1 {
        fill: #fff;
      }
    </style>
  </defs>
  <g id="Layer_1-2" data-name="Layer 1">
    <g>
      <path class="cls-1" d="M147.77,53.12c.83-1.17,1.42-2.36,1.77-3.57.16-.55.28-1.07.36-1.59.3.07.61.15.88.2.83.16,1.42.24,1.77.24h13.08c1.18-3.42,1.77-6.48,1.75-9.18-.02-2.7-.38-5.14-1.08-7.31-.7-2.17-1.53-4.17-2.49-5.99l-6.9,7.05c1.12,1.41,2.04,2.8,2.78,4.17.73,1.37,1.23,2.62,1.49,3.74h-9.3c-.35,0-.81-.03-1.37-.1-.56-.06-1.25-.2-2.06-.41-.81-.21-1.77-.53-2.88-.96-1.1-.43-2.37-1-3.81-1.7l-3.12,6.52c1.34.64,2.33,1.15,2.97,1.53.64.38,1.05.7,1.25.93s.29.5.29.79c0,.48-.16.97-.48,1.49-.32.51-.89.99-1.73,1.44-.83.45-1.98.81-3.45,1.08-1.47.27-3.36.41-5.66.41-1.66,0-3.1-.15-4.31-.46-1.21-.3-2.22-.76-3.02-1.37-.8-.61-1.39-1.35-1.77-2.23-.38-.88-.58-1.88-.58-3,0-.93.1-1.87.31-2.83.21-.96.5-2,.89-3.12l-6.62-2.06c-.8,1.66-1.38,3.39-1.75,5.18-.37,1.79-.55,3.34-.55,4.65,0,2.27.39,4.21,1.17,5.82.78,1.61,1.9,2.93,3.36,3.95,1.45,1.02,3.18,1.77,5.18,2.25,2,.48,4.21.72,6.64.72,3.13,0,5.8-.29,8-.86,2.2-.57,4.04-1.33,5.51-2.28,1.47-.94,2.62-2,3.45-3.16Z"/>
      <polygon class="cls-1" points="135.16 72.32 139.95 67.19 134.92 62.11 130.78 66.5 126.44 62.11 121.69 67.19 126.73 72.32 130.82 67.89 135.16 72.32"/>
      <polygon class="cls-1" points="160.66 51.09 155.82 56.17 160.9 61.29 165.69 56.17 160.66 51.09"/>
      <polygon class="cls-1" points="214.77 16.77 209.74 11.64 204.9 16.77 209.98 21.85 214.77 16.77"/>
      <path class="cls-1" d="M245.47,48.88c1.11-.37,2.13-.97,3.04-1.81.39.24.79.47,1.22.66,1.04.45,2.24.67,3.62.67h14.76V12.93h-7.72v27.94h-5.18c-.83,0-1.55-.08-2.16-.24-.61-.16-1.16-.53-1.65-1.1-.5-.58-1.02-1.45-1.56-2.64-.99-2.33-2-4.19-3.02-5.58-1.02-1.39-2.13-2.4-3.31-3.04-1.18-.64-2.51-.96-3.98-.96-.89,0-1.77.14-2.64.43-.86.29-1.72.75-2.56,1.39-.85.64-1.7,1.49-2.56,2.56-.86,1.07-1.76,2.37-2.68,3.91-.64,1.05-1.19,1.93-1.65,2.61-.46.69-.89,1.22-1.27,1.61-.38.38-.74.66-1.08.81-.34.16-.69.24-1.08.24h-4.74c-.16,0-.34,0-.53.02-.19.02-.38.06-.58.12.54-.7,1.03-1.46,1.46-2.28.43-.81.77-1.66,1.03-2.54.25-.88.38-1.78.38-2.71,0-1.76-.5-3.19-1.51-4.31-1.01-1.12-2.36-1.95-4.05-2.49-1.69-.54-3.58-.82-5.66-.82-1.18,0-2.52.11-4.03.34-1.5.22-2.98.52-4.43.89-1.45.37-2.72.79-3.81,1.27v9.35l3.47,3.15c-.35,0-.71.02-1.12.02h-6.61c-.96,0-1.72-.09-2.28-.26-.56-.18-1.03-.49-1.41-.93-.38-.45-.8-1.05-1.25-1.82l-6.04-10.54-6.14,7.52,4.01,5.15c.24.34.48.66.71.96.53.69.96,1.41,1.29,2.16.34.75.5,1.67.5,2.76,0,1.31-.38,2.52-1.13,3.64-.75,1.12-1.79,2.01-3.12,2.66-1.33.65-2.85.98-4.58.98-.77,0-1.58-.07-2.44-.22-.86-.14-1.93-.41-3.21-.79l-2.4,4.84c1.41,1.18,2.98,2.09,4.72,2.73,1.74.64,3.33.96,4.77.96,2.14,0,4-.35,5.58-1.05,1.58-.7,2.92-1.63,4.03-2.78,1.1-1.15,1.99-2.39,2.66-3.71.67-1.33,1.16-2.63,1.46-3.91.11-.47.18-.9.25-1.33.25.07.49.15.75.21,1.01.21,2.09.31,3.24.31h4.79c2.17,0,4.31-.14,6.4-.41,1.87-.24,3.55-.57,5.05-.98.26.1.52.23.78.31,1.12.37,2.29.63,3.52.79,1.23.16,2.56.25,4,.26,1.44.02,3.05.02,4.84.02h1.68c.83-.01,1.57-.08,2.21-.22.67-.14,1.29-.39,1.87-.74.57-.35,1.15-.84,1.73-1.46.2-.21.4-.47.6-.72.51.47,1.09.92,1.77,1.37,1.17.77,2.48,1.41,3.93,1.92,1.45.51,2.96.82,4.51.91,1.55.1,3.05-.1,4.51-.57ZM212.88,37.09c-.3.57-.72,1.15-1.25,1.73-.53.57-1.13,1.15-1.8,1.73-.26-.26-.52-.54-.79-.86-.27-.32-.58-.64-.93-.96l-4.41-4.65c.93-.26,1.98-.44,3.16-.55,1.18-.11,2.17-.17,2.97-.17.86,0,1.55.11,2.06.34.51.22.88.5,1.1.84.22.34.34.65.34.93,0,.51-.15,1.05-.46,1.63ZM238.71,42.1c-1.2-.37-2.24-.77-3.11-1.22-.56-.29-1.02-.55-1.39-.8.82-1.33,1.54-2.37,2.16-3.13.62-.77,1.17-1.32,1.65-1.65.48-.34.86-.5,1.15-.5.51,0,.99.25,1.44.74.45.5.91,1.21,1.39,2.13.48.93,1.02,2.03,1.63,3.31.28.61.62,1.23,1,1.85-.69.05-1.37.05-2.05,0-1.37-.11-2.66-.35-3.86-.72Z"/>
      <rect class="cls-1" x="274.73" y="12.93" width="7.72" height="35.47"/>
      <path class="cls-1" d="M361.94,44.88c1.26-.62,2.44-1.22,3.52-1.8.83-.46,1.6-.86,2.31-1.23.4,1.22.94,2.27,1.62,3.15.89,1.15,2.03,2.01,3.4,2.56,1.37.56,3.04.84,4.99.84h10.21V12.93h-2.4v33.07h-7.81c-1.6,0-2.94-.21-4.03-.62-1.09-.41-1.97-1.08-2.64-1.99-.51-.69-.93-1.55-1.25-2.57.13-.06.27-.13.39-.18,1.28-.57,2.6-.99,3.98-1.25l-.05-2.3c-1.28-.06-2.61-.4-4-1.01-1.39-.61-2.8-1.32-4.22-2.13-1.42-.81-2.84-1.62-4.27-2.42-1.42-.8-2.84-1.47-4.24-2.01-1.41-.54-2.78-.82-4.12-.82s-2.47.22-3.57.67c-1.1.45-2.1,1.12-3,2.01-.89.9-1.66,2.01-2.3,3.36l2.01,1.01c.77-1.57,1.72-2.73,2.85-3.5,1.13-.77,2.44-1.15,3.91-1.15,1.09,0,2.34.3,3.76.89,1.42.59,2.91,1.31,4.46,2.16,1.55.85,3.06,1.66,4.53,2.44,1.47.78,2.78,1.37,3.93,1.75-.57.22-1.16.47-1.75.74-.59.27-1.2.57-1.82.89-.62.32-1.3.69-2.04,1.1-1.09.61-2.23,1.2-3.43,1.77-1.2.58-2.58,1.1-4.15,1.58-1.57.48-3.4.86-5.51,1.15-2.11.29-4.62.43-7.53.43h-5.56V12.93h-2.4v33.07h-7.43c-.42,0-.81-.08-1.2-.24-.38-.16-.78-.47-1.2-.93-.42-.46-.86-1.18-1.34-2.16-.48-.97-1.02-2.26-1.63-3.86-.8-2.17-1.54-3.88-2.23-5.13-.69-1.25-1.38-2.13-2.08-2.66-.7-.53-1.5-.79-2.4-.79-.67,0-1.42.19-2.25.57-.83.38-1.78.96-2.85,1.73-1.07.77-2.29,1.74-3.67,2.92-1.18,1.05-2.14,2.07-2.88,3.04-.74.98-1.27,1.93-1.61,2.88-.33.94-.5,1.93-.5,2.95,0,1.66.12,3.45.36,5.37.24,1.92.49,3.96.77,6.14.27,2.17.48,4.44.62,6.81.14,2.36.15,4.81.02,7.33l2.25.1c.19-2.4.22-4.78.1-7.14-.13-2.37-.33-4.65-.6-6.85-.27-2.2-.53-4.3-.77-6.28-.24-1.98-.36-3.8-.36-5.46,0-.86.14-1.67.41-2.42.09-.25.2-.5.33-.75.1.24.23.48.41.72.19.26.45.56.77.91.93.96,1.89,1.8,2.9,2.52,1.01.72,2.01,1.33,3.02,1.82,1.01.5,2,.88,2.97,1.15.97.27,1.91.41,2.8.41s1.71-.1,2.44-.31c.73-.21,1.44-.51,2.11-.91.42-.25.83-.55,1.22-.87.06.06.11.14.17.2.58.62,1.17,1.05,1.8,1.27.62.22,1.32.34,2.08.34h15.39c3.04,0,5.69-.17,7.96-.5,2.27-.34,4.23-.77,5.9-1.29,1.66-.53,3.12-1.1,4.38-1.73ZM319.96,46.17c-1.29.24-2.66.15-4.1-.26-1.44-.41-2.94-1.18-4.51-2.3-1.48-1.06-3.02-2.44-4.62-4.13.61-.75,1.41-1.54,2.41-2.39,1.18-1.02,2.22-1.86,3.12-2.52.89-.65,1.66-1.14,2.3-1.46.64-.32,1.18-.48,1.63-.48.48,0,.93.21,1.37.62.43.42.91,1.13,1.44,2.13.53,1.01,1.13,2.4,1.8,4.19.67,1.89,1.3,3.4,1.89,4.55.13.25.25.48.38.7-.98.68-2.01,1.14-3.11,1.34Z"/>
      <rect class="cls-1" x="395.66" y="12.93" width="2.4" height="35.47"/>
      <polygon class="cls-1" points="112.77 80.47 117.79 80.47 117.79 96.14 119.05 96.14 119.05 80.47 124.09 80.47 124.09 79.24 112.77 79.24 112.77 80.47"/>
      <polygon class="cls-1" points="138.79 87.09 128.51 87.09 128.51 79.24 127.25 79.24 127.25 96.14 128.51 96.14 128.51 88.34 138.79 88.34 138.79 96.14 140.05 96.14 140.05 79.24 138.79 79.24 138.79 87.09"/>
      <polygon class="cls-1" points="145.16 96.14 154.92 96.14 154.92 94.91 146.42 94.91 146.42 88.03 153.66 88.03 153.66 86.8 146.42 86.8 146.42 80.47 155.04 80.47 155.04 79.24 145.16 79.24 145.16 96.14"/>
      <path class="cls-1" d="M174.06,87.1l-4.83-7.85h-3.69v16.9h4.03v-5.12c0-1.61-.04-2.99-.11-4.14-.02-.27-.05-.54-.07-.81l3.78,5.94h1.64l3.92-6.07c-.03.36-.07.72-.09,1.08-.07,1.18-.11,2.51-.11,3.99v5.12h4.01v-16.9h-3.57l-4.9,7.85Z"/>
      <path class="cls-1" d="M200.67,81.34c-.78-.79-1.7-1.4-2.76-1.83-1.06-.43-2.22-.65-3.48-.65s-2.44.22-3.51.65c-1.07.43-2,1.05-2.78,1.83-.78.79-1.39,1.72-1.82,2.79-.44,1.07-.65,2.24-.65,3.51s.22,2.42.65,3.49c.43,1.07,1.04,2,1.82,2.78.78.78,1.71,1.39,2.78,1.82,1.07.43,2.24.65,3.51.65s2.41-.22,3.48-.65c1.06-.43,1.98-1.05,2.76-1.83.78-.79,1.39-1.71,1.82-2.78.44-1.06.65-2.22.65-3.48s-.22-2.44-.65-3.51c-.43-1.07-1.04-2-1.82-2.79ZM198.63,89.57c-.23.6-.54,1.11-.95,1.54-.41.43-.89.77-1.44,1.01-.55.24-1.15.36-1.81.36-.89,0-1.67-.21-2.35-.63-.68-.42-1.22-.99-1.62-1.73-.4-.73-.59-1.56-.59-2.5,0-.71.11-1.36.34-1.95.23-.6.54-1.11.95-1.56.41-.44.89-.78,1.45-1.03.56-.24,1.16-.36,1.82-.36s1.26.12,1.81.36c.55.24,1.03.58,1.44,1.03.41.44.73.96.95,1.56.23.6.34,1.25.34,1.95s-.11,1.34-.34,1.93Z"/>
      <path class="cls-1" d="M216.88,89.49c.87-.49,1.56-1.15,2.06-1.99.51-.84.76-1.79.76-2.85s-.25-1.97-.76-2.79c-.51-.81-1.19-1.45-2.06-1.92-.87-.47-1.85-.7-2.94-.7h-7.65v16.9h3.93v-5.91h2.13l3.32,5.91,4.71.02-3.78-6.54c.09-.05.19-.08.28-.13ZM210.22,82.7h2.99c.5,0,.93.09,1.29.28.36.18.64.44.84.76.2.32.3.7.3,1.13s-.08.79-.25,1.11c-.17.32-.41.58-.72.76-.31.18-.68.28-1.1.28h-3.36v-4.32Z"/>
      <path class="cls-1" d="M237.21,81.34c-.78-.79-1.7-1.4-2.76-1.83-1.06-.43-2.22-.65-3.48-.65s-2.44.22-3.51.65c-1.07.43-2,1.05-2.78,1.83-.78.79-1.39,1.72-1.82,2.79-.44,1.07-.65,2.24-.65,3.51s.22,2.42.65,3.49c.43,1.07,1.04,2,1.82,2.78.78.78,1.71,1.39,2.78,1.82,1.07.43,2.24.65,3.51.65s2.41-.22,3.48-.65c1.06-.43,1.98-1.05,2.76-1.83.78-.79,1.39-1.71,1.82-2.78.44-1.06.65-2.22.65-3.48s-.22-2.44-.65-3.51c-.43-1.07-1.04-2-1.82-2.79ZM235.17,89.57c-.23.6-.54,1.11-.95,1.54-.41.43-.89.77-1.44,1.01-.55.24-1.15.36-1.81.36-.89,0-1.67-.21-2.35-.63-.68-.42-1.22-.99-1.62-1.73-.4-.73-.59-1.56-.59-2.5,0-.71.11-1.36.34-1.95.23-.6.54-1.11.95-1.56.41-.44.89-.78,1.45-1.03.56-.24,1.16-.36,1.82-.36s1.26.12,1.81.36c.55.24,1.03.58,1.44,1.03.41.44.73.96.95,1.56.23.6.34,1.25.34,1.95s-.11,1.34-.34,1.93Z"/>
      <path class="cls-1" d="M247.34,84.09c.42-.43.91-.76,1.48-.99.57-.23,1.18-.34,1.82-.34.76,0,1.44.15,2.06.46.62.31,1.18.73,1.68,1.28l2.53-2.87c-.48-.58-1.06-1.07-1.73-1.48-.67-.41-1.39-.72-2.16-.93-.77-.21-1.56-.31-2.37-.31-1.27,0-2.45.22-3.54.65-1.09.43-2.03,1.05-2.84,1.83-.81.79-1.43,1.71-1.87,2.78-.44,1.06-.66,2.22-.66,3.48s.21,2.44.64,3.51c.43,1.07,1.03,2,1.81,2.78.78.78,1.71,1.38,2.78,1.81,1.07.43,2.24.64,3.51.64.84,0,1.66-.1,2.47-.3.81-.2,1.55-.48,2.22-.83.67-.35,1.19-.75,1.58-1.18l-2-3.19c-.29.32-.64.61-1.04.87-.4.26-.83.45-1.29.59-.46.14-.94.21-1.44.21-.76,0-1.44-.11-2.06-.34-.62-.23-1.15-.55-1.59-.98-.44-.43-.78-.94-1.01-1.54-.23-.6-.35-1.28-.35-2.02s.12-1.43.36-2.03c.24-.59.57-1.11.99-1.54Z"/>
      <path class="cls-1" d="M264.07,84.09c.42-.43.91-.76,1.48-.99.57-.23,1.18-.34,1.82-.34.76,0,1.44.15,2.06.46.62.31,1.18.73,1.68,1.28l2.53-2.87c-.48-.58-1.06-1.07-1.73-1.48-.67-.41-1.39-.72-2.16-.93-.77-.21-1.56-.31-2.37-.31-1.27,0-2.45.22-3.54.65-1.09.43-2.03,1.05-2.84,1.83-.81.79-1.43,1.71-1.87,2.78-.44,1.06-.66,2.22-.66,3.48s.21,2.44.64,3.51c.43,1.07,1.03,2,1.81,2.78.78.78,1.71,1.38,2.78,1.81,1.07.43,2.24.64,3.51.64.84,0,1.66-.1,2.47-.3.81-.2,1.55-.48,2.22-.83.67-.35,1.19-.75,1.58-1.18l-2-3.19c-.29.32-.64.61-1.04.87-.4.26-.83.45-1.29.59-.46.14-.94.21-1.44.21-.76,0-1.44-.11-2.06-.34-.62-.23-1.15-.55-1.59-.98-.44-.43-.78-.94-1.01-1.54-.23-.6-.35-1.28-.35-2.02s.12-1.43.36-2.03c.24-.59.57-1.11.99-1.54Z"/>
      <path class="cls-1" d="M280.87,79.24l-6.69,16.9h4.06l1.21-3.23h6.2l1.21,3.23h4.15l-6.64-16.9h-3.5ZM280.62,89.77l.8-2.15c.15-.4.29-.79.42-1.17.14-.38.27-.76.4-1.15.12-.35.22-.69.32-1.04.1.33.2.66.3,1.01.13.42.26.82.4,1.21.14.39.26.75.37,1.09l.82,2.2h-3.85Z"/>
      <path class="cls-1" d="M304.4,83.27c0,1.11.01,2.09.04,2.94.02.85.08,1.67.16,2.45.04.43.09.88.15,1.35l-7.94-10.77h-3.69v16.9h4.03v-5.55c0-.48,0-.92-.02-1.32-.02-.39-.04-.82-.07-1.28-.03-.46-.08-1.01-.15-1.65-.02-.23-.05-.5-.08-.77l7.85,10.57h3.74v-16.9h-4.01v4.03Z"/>
      <path class="cls-1" d="M331.59,81.62c-.72-.75-1.55-1.33-2.51-1.75-.96-.42-1.98-.63-3.08-.63h-6.18v16.9h6.18c1.09,0,2.12-.21,3.08-.63.96-.42,1.79-1.01,2.51-1.76.72-.76,1.27-1.65,1.68-2.68.4-1.03.6-2.16.6-3.38s-.2-2.37-.6-3.4c-.4-1.03-.96-1.92-1.68-2.67ZM332.08,90.59c-.35.89-.82,1.65-1.44,2.29-.61.64-1.32,1.14-2.14,1.5-.81.35-1.69.53-2.62.53h-4.8v-14.43h4.8c.93,0,1.81.18,2.62.53.81.35,1.52.85,2.14,1.5.61.64,1.09,1.41,1.44,2.29.35.89.52,1.85.52,2.9s-.17,2.01-.52,2.9Z"/>
      <path class="cls-1" d="M346.61,88.68c.72-.45,1.28-1.07,1.69-1.86.41-.79.62-1.67.62-2.66s-.21-1.82-.62-2.56c-.41-.74-.97-1.32-1.69-1.74-.72-.42-1.54-.63-2.47-.63h-6.45v16.9h1.26v-6.78h5.1l3.95,6.78h1.52l-4.05-6.96c.41-.11.79-.28,1.14-.5ZM338.94,80.47h5.12c.71,0,1.33.15,1.86.46.53.31.94.74,1.24,1.29.3.56.45,1.19.45,1.92,0,.77-.14,1.46-.41,2.06-.27.6-.66,1.07-1.16,1.41-.5.34-1.07.51-1.71.51h-5.38v-7.65Z"/>
      <polygon class="cls-1" points="353.11 96.14 362.86 96.14 362.86 94.91 354.37 94.91 354.37 88.03 361.61 88.03 361.61 86.8 354.37 86.8 354.37 80.47 362.98 80.47 362.98 79.24 353.11 79.24 353.11 96.14"/>
      <path class="cls-1" d="M371.65,79.24l-6.49,16.9h1.35l1.92-5.07h7.86l1.93,5.07h1.4l-6.49-16.9h-1.47ZM373.59,83.96c.12.36.21.6.25.71l1.96,5.14h-6.9l1.93-5.09c.08-.21.19-.51.34-.91.15-.39.31-.82.48-1.29.18-.47.34-.92.49-1.35.08-.22.15-.41.21-.59.08.22.17.45.26.7.18.47.35.95.53,1.42.18.47.33.89.45,1.25Z"/>
      <path class="cls-1" d="M390.4,89.71l-6.53-10.46h-1.16v16.9h1.26v-10.96c0-.93-.01-1.78-.04-2.55-.01-.39-.06-.77-.09-1.15l6.14,9.76h.8l6.15-9.73c-.03.4-.07.79-.09,1.19-.03.78-.05,1.62-.05,2.52v10.91h1.28v-16.9h-1.11l-6.55,10.46Z"/>
      <path class="cls-1" d="M62.63,36.81L50.67,0l-11.96,36.81H0l31.32,22.75-11.96,36.81,31.32-22.75,31.32,22.75-11.96-36.81,31.32-22.75h-38.71ZM50.67,18.73l5.88,18.08h-11.75l5.88-18.08ZM17.81,42.6h19.02l-3.63,11.18-15.38-11.18ZM30.36,81.23l5.88-18.08,9.51,6.91-15.38,11.18ZM38.12,57.36l4.79-14.75h15.51l4.79,14.75-12.55,9.12-12.55-9.12ZM70.98,81.23l-15.38-11.18,9.51-6.91,5.88,18.09ZM68.14,53.78l-3.63-11.18h19.02l-15.38,11.18Z"/>
    </g>
  </g>
</svg>