<?xml version="1.0" encoding="UTF-8"?>
<svg id="Layer_2" data-name="Layer 2" xmlns="http://www.w3.org/2000/svg" viewBox="0 0 398.06 83.68">
  <defs>
    <style>
      .cls-1 {
        fill: #fff;
      }
    </style>
  </defs>
  <g id="Layer_1-2" data-name="Layer 1">
    <g>
      <g>
        <path class="cls-1" d="M312.52,60.09v-14.6h-5.52v-3.81h5.52v-9.16h3.93v9.16h5.64v3.81h-5.64v14.6c0,3.59,1.21,3.56,5.64,3.09v3.69c-5.69,1.41-9.58-1.01-9.58-6.78Z"/>
        <path class="cls-1" d="M328.95,34.45c1.34,0,2.45,1.04,2.45,2.4s-1.11,2.4-2.45,2.4-2.4-1.09-2.4-2.4,1.09-2.4,2.4-2.4ZM327.05,41.68h3.93v25.29h-3.93v-25.29Z"/>
        <path class="cls-1" d="M338.63,41.68h3.93v1.58c1.48-1.21,3.34-1.81,5.35-1.81,3.04,0,5.39,1.16,6.85,3.51,1.61-2.28,3.98-3.51,6.95-3.51,6.33,0,8.54,4.97,8.54,11.23v14.28h-3.98v-14.18c0-1.68-.15-3.07-.49-4.31-.64-2.3-1.61-3.19-4.23-3.19-.94,0-1.63.2-2.45.74-1.68,1.14-2.7,3.27-2.7,7.3v13.63h-3.96v-14.7c0-5.3-1.29-6.98-4.65-6.98-.92,0-1.58.22-2.45.79-1.68,1.19-2.72,3.56-2.72,8.14v12.74h-3.98v-25.29Z"/>
        <path class="cls-1" d="M375.11,54.3c0-17.59,24.28-17.05,22.89,1.53h-18.88c.49,4.75,3.29,7.52,7.72,7.52h.42c3.56,0,5.79-1.73,7.15-4.97l3.56,1.58c-1.81,4.38-5.72,7.25-10.71,7.25h-.42c-6.88,0-11.73-5.39-11.73-12.92ZM393.94,52.07c-1.61-9.45-13.12-9.43-14.72,0h14.72Z"/>
      </g>
      <path class="cls-1" d="M73.22,0v1.33c.35,0,.7.02,1.05.06l41.9,5.17c2.24.28,4.24,1.41,5.62,3.19,1.39,1.78,2,3.99,1.72,6.23l-7.28,58.95c-.52,4.23-4.12,7.41-8.37,7.41-.35,0-.7-.02-1.05-.06l-41.9-5.17c-4.62-.57-7.92-4.79-7.35-9.42l7.27-58.95c.52-4.23,4.12-7.41,8.37-7.41V0M73.22,0c-4.87,0-9.08,3.63-9.69,8.58l-7.28,58.95c-.66,5.36,3.15,10.24,8.51,10.9l41.9,5.17c.41.05.81.07,1.21.07,4.87,0,9.08-3.63,9.69-8.58l7.28-58.95c.66-5.36-3.15-10.24-8.51-10.9L74.43.07C74.02.02,73.62,0,73.22,0h0Z"/>
      <path class="cls-1" d="M66.79,61.89c1.42.18,2.53.28,3.35.3.81.03,1.42-.14,1.83-.49.4-.36.69-.95.87-1.77.17-.82.36-2.01.55-3.57l4.66-37.75-.81-1.04-4.9-.6.15-1.21,14.26,1.76,16.41,36.32,3.29-26.68c.19-1.51.29-2.68.32-3.49.03-.81-.08-1.41-.32-1.8-.24-.39-.63-.64-1.17-.76-.54-.11-1.28-.23-2.23-.35l-1.56-.19.15-1.21,12.84,1.58-.15,1.21-1.63-.2c-.95-.12-1.71-.19-2.28-.21-.57-.02-1.02.13-1.35.45-.33.32-.58.88-.75,1.67-.17.8-.35,1.95-.54,3.46l-5.01,40.59-3.55-.44-20.27-45.29-4.09,33.14c-.23,1.89-.39,3.35-.47,4.37-.08,1.02.03,1.78.33,2.27.3.49.85.82,1.64.99s1.95.35,3.46.54l-.15,1.21-13.06-1.61.15-1.21Z"/>
      <path class="cls-1" d="M61.5,9.19C60.97,3.8,56.17-.11,50.79.45L8.79,4.68C3.41,5.22-.51,10.01.05,15.4l5.97,59.1c.53,5.36,5.33,9.27,10.69,8.74l42.02-4.24c5.36-.56,9.27-5.36,8.74-10.71l-5.97-59.1ZM18.31,67.36l-.13-1.2,3.54-.37-4.53-45.01-3.57.35-.11-1.2,35.63-3.6,1.25,11.65-1.2.13c-.64-2.58-1.52-4.5-2.64-5.81s-2.4-2.21-3.86-2.72c-1.47-.48-3.09-.69-4.88-.59-1.79.13-3.7.27-5.73.48l-6.26.64,2.11,20.97,1.87-.19c1.47-.13,2.74-.32,3.86-.53,1.09-.19,2-.61,2.69-1.2.72-.59,1.2-1.47,1.47-2.64.27-1.15.32-2.72.19-4.72l1.12-.11,1.81,17.93-1.12.11c-.24-1.81-.56-3.22-.99-4.26-.4-1.01-.93-1.79-1.55-2.27-.64-.51-1.36-.77-2.19-.88-.83-.08-1.76-.05-2.8.05l-4.18.4,2.21,21.93,6.9-.69c2.16-.24,4.18-.51,6.05-.8,1.87-.32,3.44-.93,4.74-1.84,1.31-.93,2.27-2.29,2.9-4.08.61-1.79.77-4.26.45-7.43l1.23-.13,1.41,14.02-35.71,3.6Z"/>
      <g>
        <path class="cls-1" d="M161.74,36.77h-1.31c-.22-1.61-.58-3.18-1.08-4.71-.5-1.53-1.15-2.88-1.93-4.06-.79-1.18-1.75-2.12-2.88-2.81-1.13-.7-2.44-1.05-3.93-1.05-2.4,0-4.3.71-5.69,2.13-1.4,1.42-2.45,3.17-3.17,5.27-.72,2.09-1.19,4.33-1.41,6.71-.22,2.38-.35,4.53-.39,6.44v1.24c0,.87.03,1.93.1,3.17.07,1.24.23,2.62.49,4.12s.62,2.98,1.08,4.42,1.06,2.72,1.8,3.83c.74,1.11,1.64,2.01,2.68,2.68,1.05.68,2.27,1.01,3.66,1.01,1.96,0,3.64-.59,5.04-1.77,1.4-1.18,2.09-3.08,2.09-5.69v-10.86h-3.86v-1.11h15.31v1.11h-3.79l-.13,19.24c-.52-1.13-.99-1.85-1.41-2.16-.42-.3-.84-.46-1.28-.46-.13,0-.36.03-.69.1-.33.07-.81.27-1.44.62-.63.35-1.34.65-2.13.92-1.27.52-2.56.97-3.89,1.34-1.33.37-2.72.56-4.15.56-2.71,0-5.15-.52-7.33-1.57-2.18-1.05-4.06-2.53-5.63-4.45-1.57-1.92-2.78-4.2-3.63-6.84-.85-2.64-1.28-5.57-1.28-8.8,0-3.01.43-5.91,1.28-8.7.85-2.79,2.06-5.24,3.63-7.36,1.57-2.12,3.44-3.81,5.59-5.07,2.16-1.26,4.55-1.9,7.16-1.9,1.05,0,2.01.17,2.88.52.87.35,1.7.73,2.49,1.15.79.41,1.53.8,2.22,1.15.7.35,1.42.52,2.16.52.61,0,1-.21,1.18-.62.17-.41.28-.93.33-1.54h1.24v13.28Z"/>
        <path class="cls-1" d="M202.5,51.95v14.46h-32.26v-1.11h4.12V23.88h-4.12v-1.11h16.1v1.11h-4.58v41.42h7.66c2.01,0,3.76-.1,5.27-.29,1.5-.2,2.76-.73,3.76-1.6,1-.87,1.76-2.2,2.26-3.99.5-1.79.75-4.27.75-7.46h1.05Z"/>
        <path class="cls-1" d="M205.84,22.77h16.29v1.11h-4.71v41.42h4.71v1.11h-16.29v-1.11h4.12V23.88h-4.12v-1.11Z"/>
        <path class="cls-1" d="M227.3,50.84h.98c.17,2.22.52,4.24,1.05,6.05.52,1.81,1.28,3.37,2.26,4.68.98,1.31,2.21,2.32,3.7,3.04,1.48.72,3.25,1.08,5.3,1.08,1.26,0,2.41-.2,3.44-.59,1.02-.39,1.87-.95,2.55-1.67.68-.72,1.1-1.44,1.28-2.16.17-.72.26-1.32.26-1.8,0-.61-.09-1.24-.26-1.9-.35-1.26-1.19-2.29-2.52-3.08-1.33-.79-2.89-1.59-4.68-2.42-1.53-.7-3.09-1.46-4.68-2.29-1.59-.83-3.06-1.86-4.42-3.11-1.35-1.24-2.45-2.74-3.3-4.48-.85-1.74-1.28-3.88-1.28-6.41,0-.39.01-.83.03-1.31.02-.48.08-.96.16-1.44.48-3.53,1.68-6.16,3.6-7.88,1.92-1.72,4.51-2.67,7.79-2.85h.39c1.66,0,3.08.29,4.25.88s2.16,1.17,2.94,1.73c.74.61,1.35.92,1.83.92.61,0,.98-.29,1.11-.88.13-.59.2-1.15.2-1.67h1.05v13.15h-1.11c-.31-1.92-.72-3.67-1.24-5.27-.52-1.59-1.21-2.94-2.06-4.06-.85-1.11-1.89-1.97-3.11-2.58-1.22-.61-2.68-.92-4.38-.92-1.13,0-2.22.15-3.27.46-1.05.31-1.95.77-2.72,1.41-.76.63-1.33,1.41-1.7,2.32-.37.92-.56,1.92-.56,3.01v.72c.09,1.18.39,2.19.92,3.04.52.85,1.2,1.59,2.03,2.22.83.63,1.77,1.19,2.81,1.67,1.05.48,2.14.94,3.27,1.37,1.44.57,2.89,1.21,4.35,1.93,1.46.72,2.81,1.61,4.06,2.68,1.24,1.07,2.29,2.37,3.14,3.89.85,1.53,1.38,3.38,1.6,5.56v.79c0,1.7-.27,3.32-.82,4.84-.55,1.53-1.35,2.88-2.42,4.06-1.07,1.18-2.36,2.08-3.86,2.72-1.5.63-3.13.95-4.87.95s-3.21-.25-4.51-.75c-1.31-.5-2.44-.99-3.4-1.47-.52-.3-1.01-.56-1.47-.75s-.91-.29-1.34-.29c-.48,0-.82.35-1.01,1.05-.2.7-.32,1.31-.36,1.83h-.98v-16.03Z"/>
        <path class="cls-1" d="M268.19,44.82v20.48h4.25v1.11h-15.97v-1.11h3.93l-.33-41.42h-3.6v-1.11h15.97v1.11h-4.25v19.56h17.73v-19.56h-4.12v-1.11h15.96v1.11h-4.12v41.42h4.12v1.11h-15.96v-1.11h4.12v-20.48h-17.73Z"/>
      </g>
    </g>
  </g>
</svg>