<?xml version="1.0" encoding="UTF-8"?>
<svg id="Layer_2" data-name="Layer 2" xmlns="http://www.w3.org/2000/svg" xmlns:xlink="http://www.w3.org/1999/xlink" viewBox="0 0 308.74 191.34">
  <defs>
    <style>
      .cls-1 {
        fill: url(#linear-gradient);
      }

      .cls-2 {
        fill: #fff;
      }
    </style>
    <linearGradient id="linear-gradient" x1="154.37" y1="191.34" x2="154.37" y2="44.37" gradientUnits="userSpaceOnUse">
      <stop offset="0" stop-color="#fff"/>
      <stop offset=".09" stop-color="#fff" stop-opacity=".9"/>
      <stop offset=".33" stop-color="#fff" stop-opacity=".65"/>
      <stop offset=".55" stop-color="#fff" stop-opacity=".46"/>
      <stop offset=".74" stop-color="#fff" stop-opacity=".32"/>
      <stop offset=".9" stop-color="#fff" stop-opacity=".23"/>
      <stop offset="1" stop-color="#fff" stop-opacity=".2"/>
    </linearGradient>
  </defs>
  <g id="Layer_1-2" data-name="Layer 1">
    <g>
      <g>
        <polygon class="cls-2" points="40.48 18.08 37.48 15.41 34.9 18.2 38.05 20.69 40.48 18.08"/>
        <path class="cls-2" d="M64.81,31.67c.12-2.41.18-4.46.18-6.16,0-2.65-1.03-5.79-3.09-9.43l-.97,1.15c-.57,1.03-.85,1.82-.85,2.37,0,.18.03.31.09.39,2.14,3.34,3.22,5.64,3.22,6.92,0,.51-.13.87-.39,1.09-.93.77-2.6,1.59-5.01,2.46-6.98,2.55-15.01,3.82-24.09,3.82-4.33,0-8.79-.43-13.38-1.3-3.07-.59-6.23-1.39-9.46-2.4-4.31-1.33-7.22-2.64-8.74-3.91-1.19-.99-1.94-1.31-2.25-.97-.12.12-.09.37.09.76l.52,1.09c.24.38.72,1.69,1.43,3.91.87,2.67,1.56,4.57,2.06,5.7.91,2.06,1.81,3.35,2.7,3.85,7.2,4.13,16.01,6.19,26.42,6.19,6.01,0,11.41-.56,16.2-1.67,2.89-.69,5.58-1.62,8.07-2.79,3.38-1.6,5.56-3.33,6.55-5.19.28-.53.52-2.49.7-5.89Z"/>
        <path class="cls-2" d="M82.92,26.33c.02-3.09-1.35-5.57-4.1-7.43-.08-.06-.17-.09-.27-.09-.53,0-1.35.63-2.49,1.88-.65.73-1.12,1.45-1.43,2.15-.79,1.84-1.18,3.77-1.18,5.79,0,1.29.15,2.72.45,4.28.24,1.29.44,2.04.61,2.24.75.93,1.95,1.36,3.61,1.3l.88-.03,1.12-.03c.44-.02.67.06.67.24l-.09.24c-1.01,1.88-2.6,3.65-4.76,5.31-1.38,1.03-2.43,1.69-3.15,1.97-.87.36-2.05.55-3.55.55h-.3c-.18,0-1.2-.08-3.06-.24l-1.06-.06-.39-.03c-.3-.02-.46.04-.46.18,0,.4.95,1.02,2.85,1.85,2.02.91,3.57,1.33,4.64,1.27,2.55-.14,5.08-1.66,7.58-4.55,2.22-2.59,3.5-5.11,3.82-7.55l.06-9.25ZM78.25,24.97c-1.52,0-2.34-.3-2.46-.91-.06-.36.12-.77.55-1.23.43-.46.83-.71,1.21-.77.4-.06.93.17,1.56.68s.95.99.93,1.41c0,.55-.6.82-1.79.82Z"/>
        <polygon class="cls-2" points="191.4 5.28 188.98 8.04 192.13 10.44 194.56 7.86 191.4 5.28"/>
        <polygon class="cls-2" points="191.92 2.82 188.82 0 186.4 2.97 189.49 5.46 191.92 2.82"/>
        <path class="cls-2" d="M187.85,14.08c-.16-.02-.46.47-.88,1.46-.34.77-.52,1.33-.52,1.67,0,.08.01.15.03.21l1.52,2.55c.83,1.4,1.24,2.45,1.24,3.15,0,.34-.12.59-.36.73-.69.38-1.67.62-2.94.7l-1.97.15h-78.05v.09h-1.15c-1.58,0-3.02-.12-4.34-.36-1.74-.32-2.97-.88-3.7-1.67-.04-.04-.12-.08-.24-.12-.61.06-.91.97-.91,2.73,0,.61.11,1.01.33,1.21.44.28.94,1.99,1.49,5.13.47,2.61.7,4.29.7,5.04l-.12.55c-.89,2.12-2.58,4.14-5.07,6.04-2.35,1.8-4.39,2.79-6.13,2.97-.14.02-.39.06-.76.12h-1.18c-.63,0-1.23-.05-1.82-.15l-1.7-.27c-.26,0-.43.14-.49.42-.06.34.7.9,2.28,1.67,1.74.85,3.38,1.27,4.91,1.27,3.56,0,6.67-2.36,9.34-7.07.87-1.54,1.66-3.28,2.37-5.22.04-.1.34-.16.91-.18l2.28-.09,3,.09h0s.09,0,.09,0h81.09v-.53c.76-.19,1.41-.42,1.91-.72.55-.32.97-.98,1.27-1.96.3-.98.46-4.84.46-11.57,0-3.7-.96-6.38-2.88-8.04Z"/>
        <polygon class="cls-2" points="183.45 8.19 186.58 10.68 188.98 8.04 185.85 5.22 183.45 8.19"/>
        <path class="cls-2" d="M201.53,14.96c-.04.24-.15.5-.33.76-.47.61-.7.98-.7,1.12,0,.18.08.36.24.55l2.91-1.27c1.05-.46,2.47-.7,4.25-.7.61,0,.91-.56.91-1.67,0-.28-.04-.46-.12-.53-.08-.07-.31-.11-.7-.11-.1,0-.24.02-.43.06l-2.15.03-.61-.03-.18-.06c-.26-.04-.68-.26-1.26-.67-.58-.4-.8-.68-.68-.82.65-.59,1.13-.88,1.46-.88.18,0,.41.08.7.24l.85.52c.06.02.13.03.21.03.32,0,.65-.2.99-.59.33-.39.5-.76.5-1.11l-.12-.42c-.32-.51-.83-.76-1.52-.76l-.82.12-.85.24c-.59.38-1.08.73-1.49,1.03-1.46,1.05-2.18,1.99-2.18,2.82,0,.45.22.86.67,1.24.3.28.45.57.45.85Z"/>
        <path class="cls-2" d="M308.59,26l-.27-2.12c-.08-.79-.13-1.25-.15-1.4-.2-1.54-.73-3-1.58-4.4-.53-.85-1.13-1.27-1.82-1.27-.89,0-1.81.56-2.76,1.67l-2.82,3.31c-.89,1.07-1.6,1.77-2.12,2.09-.75.51-1.69.76-2.82.76-.06,0-.16.02-.3.06h-79.3v.09c-1.02.08-1.66.11-1.91.09l-.67-.03c-.08,0-.16-.03-.24-.09-.16-.93-.7-1.98-1.61-3.16-.99-1.33-1.95-2.11-2.88-2.34-.57-.06-1.5.65-2.79,2.12-.61.71-1.06,1.41-1.37,2.09-.2.45-.47,1.24-.79,2.4-.28.97-.42,2.15-.42,3.55,0,1.27.14,2.69.42,4.25.22,1.27.41,2.01.58,2.21.36.49.92.84,1.67,1.06.61.18,1.26.25,1.97.21l1.3-.06,1-.06c.28,0,.49.04.61.12.12.08.14.2.06.36-.97,1.82-2.6,3.57-4.88,5.25-1.82,1.33-3.29,2.11-4.4,2.34-.47.1-.95.17-1.46.21-.26.02-.52.03-.76.03h-.64c-.75,0-1.43-.04-2.03-.12l-2.12-.33-.39-.03c-.36-.02-.55.06-.55.24,0,.69,1.18,1.39,3.55,2.09,2.04.61,3.54.91,4.49.91,3.66,0,6.7-2.05,9.13-6.16.51-.81,1.3-2.37,2.4-4.67.08-.16.52-.25,1.3-.27l2.4-.12h77.08c.06.06.18.09.36.09.25,0,.51-.04.79-.09h1.97v-.75c1.2-.64,2.2-1.52,2.97-2.65.08-.06.83.26,2.25.97,1.7.83,3.08,1.24,4.16,1.24l1-.12c.32-.08.63-.21.91-.39.79-.51,1.19-.91,1.21-1.21.28-2.08.43-3.75.43-5.01,0-.95-.05-1.94-.15-2.97ZM208.6,25.39c-1.29,0-2.32-.06-3.06-.18-.61-.16-.95-.38-1.03-.67-.1-.34.1-.75.59-1.23.5-.47.95-.75,1.35-.83l.27-.06c.4,0,.85.34,1.35,1.02.5.68.74,1.23.74,1.65-.02.2-.09.3-.21.3ZM305.6,23.45s-.11.06-.23.06c-.59,0-1.36-.19-2.34-.58-1.11-.44-1.67-.91-1.67-1.4s.78-.91,2.34-1.21c.34-.06.78.4,1.3,1.4.43.77.64,1.29.64,1.58,0,.06-.01.11-.05.15Z"/>
      </g>
      <path class="cls-1" d="M128.82,70.36c-.05-.49.11-.94.46-1.34,1.37-1.65,2.72-3.3,4.06-4.92s2.69-3.24,4.06-4.84c1.01-1.26,2.04-2.48,3.08-3.68,1.04-1.2,2.07-2.45,3.08-3.77.42-.45.93-.71,1.54-.75.61-.04,1.14.14,1.6.55l11.69,11.46c.34.41.53.87.58,1.36.05.49-.08.97-.38,1.43-2.44,2.91-4.85,5.79-7.22,8.64-2.38,2.85-4.76,5.71-7.14,8.56-.42.46-.91.69-1.49.71-.58.02-1.1-.18-1.55-.6l-11.69-11.46c-.4-.41-.62-.87-.67-1.36ZM192.03,131.51c.02.44.03.89.02,1.35-.06,2.78-.3,5.53-.73,8.25-.43,2.72-1.02,5.46-1.78,8.23-1.25,4.38-3.03,8.41-5.34,12.08s-5.14,6.95-8.51,9.84c-3.19,2.66-6.73,5.13-10.64,7.4-3.9,2.27-7.96,4.15-12.17,5.63-4.27,1.48-8.6,2.7-13,3.65-4.4.96-8.87,1.62-13.4,1.99-2.03.13-4.01.24-5.92.32-1.92.08-3.8.1-5.66.06-2.44-.05-4.74-.18-6.91-.4-2.17-.22-4.24-.49-6.21-.82-3.93-.72-7.11-2.03-9.54-3.93-2.43-1.91-3.96-4.29-4.6-7.14-.27-1.16-.43-2.28-.5-3.36s-.09-2.13-.07-3.18c.04-1.86.21-3.72.5-5.6.3-1.88.79-3.8,1.46-5.76.91-2.76,1.97-5.47,3.16-8.14-5.41.94-10.67,1.64-15.77,2.11-2.36,5.49-5.26,10.67-8.74,15.53-6.8,9.38-15.26,15.79-25.36,19.24-5.26,1.75-10.12,2.58-14.58,2.49-4.06-.08-7.96-1.06-11.69-2.93v.09c-3.62-1.87-6.46-4.81-8.53-8.83-2.07-4.01-3.36-8.9-3.88-14.65-.05-.41-.07-.87-.06-1.39l.03-1.39c.11-5.51,1.58-12.08,4.4-19.71,2.82-7.63,6.79-15.92,11.9-24.87,1.08-1.72,2.26-2.57,3.53-2.54.17,0,.36.02.56.05.2.03.48.11.82.23,1.09.6,1.62,1.6,1.59,2.99,0,.46-.06.96-.16,1.48-.1.52-.3,1.13-.6,1.82-.73,1.49-1.56,3.12-2.49,4.87-.94,1.75-1.94,3.66-3.03,5.73-1.03,1.89-1.95,3.82-2.77,5.77-.82,1.96-1.49,3.94-1.99,5.96-.56,2.02-.86,4.04-.91,6.07-.03,1.62.11,3.13.43,4.53.64,2.91,2.85,5.22,6.65,6.92,1.73.33,3.43.58,5.08.76,1.65.18,3.23.28,4.74.31,2.55.05,5.09-.11,7.62-.5,2.53-.38,5.02-.93,7.47-1.63,7.36-2.4,13.66-5.64,18.91-9.71l-3.34-75.87,13.47-20.61c.6-.86,1.37-1.16,2.32-.91.95.25,1.48.9,1.57,1.95l2.82,67.33c0,.12,0,.2.04.26.03.06.04.15.04.26.05.29.07.63.07,1l-.02.91.14,1.92-.09.35c0,.17-.02.35-.02.52,4.12-.3,7.68-.59,10.69-.87,4.8-.45,8.36-.89,10.69-1.31.97-1.07,1.94-2.13,2.91-3.19-.07-.2-.12-.42-.14-.67l-2.53-55.92,13.38-20.53c.6-.86,1.37-1.16,2.32-.91.95.25,1.48.9,1.57,1.95l2.53,55.92-4.52,6.94c5.12-5.17,10.49-10.3,16.09-15.41,2.89-2.61,7.28-4.47,13.17-5.57.82-.16,1.53-.26,2.14-.31.61-.04,1.2-.06,1.79-.05,4.29.09,7.77,1.75,10.43,5,2.37,3.12,3.53,6.25,3.47,9.38-.05,2.26-.67,4.48-1.88,6.66v-.09c-1.38,2.53-2.77,4.86-4.14,7.01-1.38,2.15-2.81,4.19-4.3,6.14-4.53,5.89-10.02,10.85-16.49,14.9-6.46,4.05-13.9,7.2-22.3,9.47-4.55,1.22-8.98,2.29-13.31,3.24-.16,1.05-.28,2.06-.3,3.01-.07,3.25.76,5.67,2.46,7.27,4.72,4.56,11.79,6.76,21.19,6.61,4.88-.13,9.76-.63,14.65-1.49,4.89-.86,9.91-2.13,15.05-3.83,4.61-1.53,8.37-2.86,11.26-3.99,2.89-1.13,4.96-2.15,6.2-3.05.09-4.35.07-9.08-.06-14.19-.13-5.11-.36-10.83-.7-17.16l-1.42-33.01,13.57-21.22c.3-.4.67-.67,1.1-.8.44-.14.86-.16,1.26-.06.4.1.76.32,1.07.67.31.35.46.79.45,1.31l2.26,60.53c0,.41,0,.83.02,1.26ZM125.18,116.93c-2.48,2.07-4.87,4.24-7.18,6.51,4.83-.89,9.47-1.91,13.9-3.07,4.43-1.16,8.64-2.62,12.62-4.4-.11-.47-.3-1.02-.58-1.66-.73-1.35-2.21-2.39-4.46-3.14-1.04-.31-1.94-.47-2.69-.49-1.16-.02-2.39.27-3.67.88-2.82,1.51-5.46,3.3-7.94,5.37ZM239.63,45.74c-.28-.32-.63-.53-1.03-.63-.41-.1-.83-.07-1.26.06-.44.14-.81.43-1.11.89l-13.47,20.44,3.47,73.96c.1,1.05.6,1.7,1.53,1.95.92.25,1.68-.08,2.28-1l13.55-20.44-3.47-73.96c-.05-.52-.21-.95-.5-1.27ZM305.11,130.68c.06,2.32-.24,4.25-.9,5.81-.68,1.56-1.38,3.02-2.1,4.39l-1.09,1.98v-.09c-.96,1.73-1.81,3.24-2.52,4.57-.72,1.32-1.35,2.39-1.89,3.18-1.2,1.84-2.29,3.49-3.28,4.99-.99,1.48-1.72,2.55-2.19,3.17-3.71,5.33-9.15,10.41-16.33,15.26-4.28,2.86-8.76,5.37-13.47,7.54-.9.41-1.82-.52-1.37-1.41l12.27-24.32c.44-.86,1.16-1.54,2.05-1.93.58-.26,1.15-.52,1.73-.79,3.04-1.42,6.11-2.94,9.23-4.56l-.34-.18h.09c-3.17-1.22-6.53-2.29-10.08-3.2-3.55-.91-7.23-1.79-11.04-2.62l-6.23-1.51c-2.54-.81-3.02-2.85-1.44-6.12v.09c1.58-3.79,3.46-7.64,5.62-11.55.67-1.2,1.34-2.48,2.04-3.82.69-1.35,1.43-2.69,2.21-4.01.24-.34.57-.62,1.01-.85.44-.23.89-.27,1.35-.15l1.93.5.8-1.75c.12-.17.32-.4.62-.69.29-.28.53-.42.7-.42,1.22-.44,2.58-.9,4.03-1.4,1.46-.49,3.04-1.04,4.74-1.64,1.22-.49,2.46-1.09,3.69-1.75,1.24-.68,2.32-1.32,3.27-1.93-.11-.64-.33-1.6-.69-2.89-.34-1.28-.73-2.94-1.16-4.99l-1.13-4.29c-.88.74-1.91,1.35-3.08,1.86-1.17.49-2.49.96-3.94,1.4-1.41.38-2.77.55-4.1.53-1.11-.02-2.13-.16-3.08-.41-.95-.26-1.88-.62-2.8-1.11-1.2-.55-2.08-1.39-2.64-2.54-.56-1.14-.85-2.49-.88-4.06v-.53c.06-2.43.6-4.57,1.62-6.4l3.17-6.11h-.09c1.32-2.59,2.7-5.18,4.11-7.8,1.42-2.61,3.07-5.11,4.99-7.51,2.2-2.86,4.64-4.25,7.31-4.2,1.5.03,3.18.67,5.01,1.92,1.89,1.38,3.56,2.98,5,4.8,1.44,1.83,2.72,3.89,3.84,6.17,1.22,2.64,2.18,5.43,2.88,8.37.69,2.94,1.06,6.1,1.11,9.47l-.02,1.57c-.06,2.95-.4,5.83-1.01,8.64-.6,2.8-1.46,5.55-2.56,8.26l.09-.09c-1.04,2.93-2.49,5.96-4.36,9.09-1.33,2.26-2.65,4.31-3.96,6.19,1.09.34,2.17.69,3.26,1.06,2.97,1.05,5.57,2.44,7.8,4.16,1.47,1.31,2.22,2.87,2.26,4.66ZM288.29,105.88c0-.05-.01-.1-.04-.13-.02-.03-.04-.08-.04-.13v.34c0-.05.03-.09.09-.09ZM219.82,161.29c1.32.45,2.73.81,4.24,1.11,1.18.23,1.83,1.51,1.29,2.59l-11.4,22.59c-.41.82-1.38,1.19-2.25.88-1.65-.59-3.21-1.3-4.67-2.14-7.96-4.68-12.47-10.98-13.54-18.9-.15-1.16-.25-2.33-.28-3.52s-.03-2.45-.01-3.79c.05-2.61.31-5.33.77-8.17.46-2.83,1.13-5.58,2-8.22,1.24-3.8,2.72-7.7,4.46-11.71,1.73-4,3.64-7.71,5.75-11.15,2.11-3.61,4.09-6.87,5.98-9.76,1.88-2.89,3.55-5.28,4.97-7.17.54-.57,1.2-.98,2.02-1.22.82-.24,1.55-.24,2.18.01.63.24,1.05.7,1.28,1.36.21.68.02,1.61-.58,2.83h.09c-.85,1.78-1.83,3.69-2.94,5.73-1.12,2.04-2.36,4.25-3.75,6.67-1.32,2.29-2.49,4.62-3.53,6.97-1.03,2.36-1.98,4.75-2.84,7.17-1.24,3.75-1.89,7.27-1.96,10.58-.01.58-.01,1.1.01,1.56.02.47.05.93.11,1.4.32,4.13,2.42,7.77,6.31,10.93,1.71,1.42,3.8,2.55,6.29,3.38ZM246.49,65.72l11.69,11.46c.46.41.98.61,1.55.6.58-.02,1.08-.25,1.49-.71,2.38-2.85,4.76-5.71,7.13-8.56,2.38-2.85,4.79-5.73,7.22-8.64.3-.46.42-.93.38-1.43-.05-.49-.24-.95-.58-1.36l-11.69-11.46c-.46-.41-.99-.6-1.6-.55-.61.05-1.12.3-1.54.75-1.01,1.31-2.04,2.57-3.08,3.77-1.04,1.2-2.06,2.43-3.08,3.68-1.37,1.6-2.72,3.21-4.06,4.84s-2.69,3.27-4.06,4.92c-.36.4-.51.85-.46,1.34.05.49.27.95.67,1.36ZM262.69,160.1c-5.01.89-10.2,1.78-15.59,2.69-5.38.91-11.07,1.82-17.07,2.75-.29.05-.6.19-.92.42-.32.23-.55.45-.67.68l-10.5,20.07c-.42.8-.39,1.54.09,2.22.48.68,1.19.94,2.12.78l15.11-2.48,17.64-2.95c.18-.06.42-.2.75-.42.32-.23.55-.45.67-.68l10.59-20.06c.48-.8.47-1.54-.04-2.22-.51-.68-1.23-.94-2.16-.78Z"/>
    </g>
  </g>
</svg>