<?xml version="1.0" encoding="UTF-8"?>
<svg id="Layer_2" data-name="Layer 2" xmlns="http://www.w3.org/2000/svg" viewBox="0 0 350.33 262.3">
  <defs>
    <style>
      .cls-1, .cls-2 {
        fill: #fff;
      }

      .cls-2 {
        stroke: #000;
        stroke-miterlimit: 10;
        stroke-width: .93px;
      }
    </style>
  </defs>
  <g id="Layer_1-2" data-name="Layer 1">
    <g>
      <g>
        <path class="cls-1" d="M190.86,262.3c-19.23-21.71-30.09-51.71-29.71-81.16.25-19.03,6.21-37.49,8.17-56.09,3.49-27.69,2.25-54.51.2-82.92,8.75,17.07,14.09,35.87,16.36,55.19,1.74,14.51,1.46,29.35-.49,43.86-1.88,13.64-5.75,27.57-6.77,40.75-2.21,27.49,3.28,53.5,12.23,80.36h0Z"/>
        <path class="cls-1" d="M131.35,105.91c14.4-7.02,30.21-.81,35.84,14.23-14.07,8.28-31.22,1.38-35.84-14.23h0Z"/>
        <path class="cls-1" d="M109.98,178.44c17.95-5.47,39.3,2.94,48.57,19.29-18.7,6.78-39.56-1.61-48.57-19.29h0Z"/>
        <path class="cls-1" d="M223.98,124.45c-3.7,15.85-20.41,23.74-34.95,16.29,4.74-15.34,20.16-22.46,34.95-16.29h0Z"/>
        <path class="cls-1" d="M229.24,185.49c-7.96,18.17-28.31,27.77-47.37,22.09,8.3-16.86,29.12-26.5,47.37-22.09h0Z"/>
      </g>
      <g>
        <path class="cls-1" d="M48.75,251.24c-4.23,3.28-7.8,4.92-10.72,4.92-1.46,0-2.23-.29-2.55-.48-1.48-.88-1.89-2.65-2.11-3.55-.69-2.84-1.72-6.38-3.08-10.85-4.39.01-8.79.03-13.18.04-2.34,4.53-3.5,8.01-3.5,10.43,0,.72.17,1.5.5,2.34-2.56,1.28-5.16,1.92-7.8,1.92-2.23,0-3.82-.39-4.8-1.17-1-.81-1.5-2.17-1.5-4.09,0-2.09,2.07-7.18,6.22-15.27,6.26-12.26,11.07-22.37,14.43-30.32-.89-1.75-1.67-3.02-2.34-3.8,3.39-1.89,6.63-2.84,9.72-2.84,2.61,0,4.71.68,6.3,2.04.14.12.43.34.79.69,2.2,2.08,3.14,4.67,3.55,5.98,1.65,5.34,1.71,12.39,1.71,12.39s.19,22.85,5.16,27.44c.11.1.83.74,1.63,1.75.76.95,1.27,1.83,1.58,2.43ZM28.99,231.72c-.81-5.83-1.62-11.66-2.43-17.49-1.82,5.83-3.64,11.66-5.45,17.49h7.88Z"/>
        <path class="cls-1" d="M114.74,256.09c-2.71,0-4.93-1.59-6.92-3.46-3.87-3.63-10.13-10.55-16-22.82l-.08,4.38c0,9.18.81,15.64,2.42,19.4-3.5,1.72-7.02,2.59-10.55,2.59-2.67,0-4.53-.61-5.59-1.84-1.06-1.22-1.59-3.29-1.59-6.22,0-1.03.17-4.49.5-10.39.31-5.92.46-11.3.46-16.14,0-9.98-.78-16.82-2.34-20.52,3.67-1.61,7.1-2.42,10.3-2.42,2.75,0,4.69.54,5.8,1.63,1.08,1.06,1.63,2.91,1.63,5.55,0-.72-.32,5.23-.96,17.85,12.96-11.9,20.29-20.44,21.98-25.61,7.12,1.92,10.68,4.57,10.68,7.97,0,1.7-1.61,4.17-4.84,7.42-2.08,2.11-6.69,6.26-13.81,12.43,1.34,3.58,3.91,8.9,8.91,13.73,1.83,1.77,3.67,3.16,5.35,4.25,1.23.5,2.47,1,3.7,1.5-1.5,7.15-4.52,10.72-9.05,10.72Z"/>
        <path class="cls-1" d="M274.9,250.91c0,2-.65,3.39-1.96,4.17-1.22.72-3.31,1.08-6.26,1.08-.78,0-13.21-.11-15.05-.17-1.81-.06-3.24-.08-4.3-.08-3.75,0-7.37.04-10.85.13l-4.8.13c-1.61,0-2.73-.28-3.34-.83-.61-.58-.92-1.68-.92-3.3,0-.53.21-3.91.63-10.14.39-6.23.58-12.19.58-17.89,0-11.54-.83-19.21-2.5-23.02,3.78-1.67,7.33-2.5,10.64-2.5,2.61,0,4.44.56,5.46,1.67,1.03,1.11,1.54,3.05,1.54,5.8,0,.67-.17,4.56-.5,11.68-.36,7.12-.54,13.92-.54,20.4,0,3.34.03,5.9.08,7.67,4.17.22,6.62.33,7.34.33,4.67,0,19.66-.63,22.72-2.04,1.34,2.59,2,4.9,2,6.93Z"/>
        <path class="cls-1" d="M350.33,248.37c0,5.2-5.35,7.8-16.06,7.8-9.9,0-17.87-2.67-23.9-8.01-5.92-5.26-8.88-12.14-8.88-20.65,0-9.23,3.89-16.89,11.68-22.98,6.56-5.14,14.92-7.72,25.07-7.72,7.67,0,11.51,1.93,11.51,5.8,0,2.2-1.02,4.91-3.04,8.13-2.98-1.45-6.4-2.17-10.26-2.17-5.87,0-10.57,1.64-14.1,4.92-3.53,3.28-5.3,7.62-5.3,13.01s1.7,9.69,5.09,12.97c3.37,3.23,7.76,4.84,13.18,4.84,4.06,0,8.01-1.13,11.85-3.38,2.11,2.64,3.17,5.12,3.17,7.42Z"/>
      </g>
      <path class="cls-2" d="M298.12,186.7c-5.29-7.81-9.61-16-12.83-24.32-.89-2.25-1.59-4.55-2.33-6.98-1.37-4.49-2.78-9.14-5.43-13.35-3.76-6.5-9.39-11.81-14.92-16.58-.87-.74-1.72-1.47-2.58-2.21-4.52-3.88-9.2-7.9-14.26-11.38-.42-.29-.88-.6-1.37-.92-1.32-.87-2.81-1.86-3.68-2.72-.01-.01-.02-.02-.03-.03-.97-.93-2.23-2.72-2.71-3.4-2.64-3.83-3.37-8.28-3.93-12.89-.55-4.13-1.54-8.06-2.85-11.4,0-.01-.01-.03-.02-.04-2.98-7.21-6.67-12.58-11.28-16.44,0,0-.02-.02-.03-.02-.67-.54-1.34-1.06-1.98-1.57-2.71-2.11-5.28-4.11-6.94-6.92-.02-.03-.04-.06-.05-.09-2.94-4.52-4.37-9.65-5.88-15.08-.3-1.08-.6-2.16-.92-3.25,0-.01,0-.02,0-.03-2.36-7.74-5.95-15.46-10.98-23.6-.27-.44-.69-1.09-1.09-1.71-.32-.49-.63-.97-.84-1.31-3.07-4.84-8.87-10-15.97-10-1.87,0-3.72.37-5.48,1.11-4.42,1.77-7.66,5.56-10.03,8.33-5.79,6.45-8.61,14.49-11.34,22.26-.55,1.57-1.12,3.2-1.7,4.76-.74,2-1.39,4.04-2.01,6.02-1.42,4.52-2.77,8.78-5.19,12.5-.02.03-.04.06-.05.09-1.67,2.81-4.24,4.81-6.95,6.93-.65.5-1.31,1.02-1.98,1.56-.01,0-.02.02-.03.02-4.6,3.85-8.29,9.23-11.28,16.43,0,.01-.01.03-.02.04-1.31,3.34-2.3,7.27-2.85,11.37-.57,4.64-1.3,9.09-3.95,12.93-1.48,2.15-2.86,3.83-4.76,5.03-.01,0-.03.02-.04.03-2.41,1.58-5.9,3.98-8.9,6.41-3.59,2.89-7.08,5.89-10.46,8.79l-.45.39c-5.53,4.77-11.16,10.07-14.92,16.58-2.65,4.22-4.07,8.86-5.43,13.36-.74,2.43-1.44,4.73-2.32,6.96-3.23,8.34-7.55,16.52-12.84,24.33-.74,1.1-.48,2.58.59,3.36.43.32.94.47,1.44.47.73,0,1.45-.33,1.94-.95,7.93-10.18,13.87-20.77,17.66-31.47,0-.01,0-.02.01-.03,1.58-4.66,2.98-8.51,5.35-11.95.01-.02.03-.04.04-.06,3.66-5.66,8.86-10.09,13.89-14.15l.29-.23c3.5-2.8,7.11-5.69,10.68-8.36,1.8-1.33,3.67-2.63,5.55-3.86l1.46-.93,1.02-.65c.14-.09.27-.17.41-.27h0c2.31-1.38,4.69-3.57,6.37-5.84,2.66-3.33,4.62-7.14,5.66-11.02.59-2.12.93-4.17,1.25-6.15.07-.41.14-.82.21-1.22,0-.02,0-.03,0-.05.94-6.28,3.32-12.06,7.05-17.17,0-.01.02-.02.03-.04,1.72-2.45,4.1-4.26,6.61-6.17.98-.74,1.99-1.51,2.98-2.33,0,0,.02-.02.03-.02,2.04-1.75,3.97-3.96,5.58-6.39,1.47-2.26,2.73-4.62,3.78-7.05.72-1.66,1.38-3.67,1.97-5.45.18-.55.36-1.09.53-1.6,1.87-5.69,4.06-11.74,7.1-19.63,2.07-5.43,5.91-10.82,10.54-14.78.96-.81,1.93-1.21,2.96-1.21,2.17,0,4.83,1.92,6.77,4.89l.51.78c1.06,1.63,2.16,3.32,3.08,4.94,3.73,6.4,6.4,12.33,8.19,18.13.4,1.3.77,2.61,1.16,4,.93,3.31,1.88,6.73,3.36,10.01,1.08,2.47,2.39,4.89,3.75,6.97,2.63,4.1,6.19,7.08,8.71,8.85,3.25,2.27,5.59,4.6,7.39,7.34,3.23,4.81,5.3,10.17,6.18,15.93,0,.02,0,.03,0,.05.07.4.14.81.21,1.22.33,1.98.67,4.03,1.26,6.17.85,3.2,2.35,6.37,4.44,9.4.02.02.03.05.05.07,1.25,1.67,2.5,3.29,4,4.69,1.48,1.41,3.31,2.55,4.92,3.56.53.33,1.03.64,1.5.95,5,3.25,9.79,7.08,14.43,10.78.7.56,1.41,1.12,2.11,1.69,5,4.04,10.21,8.47,13.87,14.14.01.02.03.04.04.06,2.36,3.44,3.76,7.28,5.35,11.95,0,.01,0,.02.01.03,3.79,10.7,9.73,21.29,17.66,31.47.48.62,1.21.95,1.94.95.5,0,1.01-.15,1.44-.47,1.07-.78,1.33-2.26.59-3.36Z"/>
    </g>
  </g>
</svg>