<?xml version="1.0" encoding="UTF-8"?>
<svg id="Layer_2" data-name="Layer 2" xmlns="http://www.w3.org/2000/svg" viewBox="0 0 329.96 219.24">
  <defs>
    <style>
      .cls-1 {
        fill: #fff;
      }
    </style>
  </defs>
  <g id="Layer_1-2" data-name="Layer 1">
    <g>
      <g>
        <path class="cls-1" d="M162.33,108.13c-.54-.08-1.01-.26-1.42-.53-.4-.27-.77-.58-1.08-.93-.32-.35-.63-.72-.94-1.1-.3-.38-.63-.75-.97-1.09-.34-.34-.73-.62-1.16-.85-.43-.22-.94-.34-1.52-.36-.28.58-.47,1.18-.6,1.8-.12.62-.19,1.25-.21,1.88-.04,1.27.1,2.57.42,3.89.31,1.33.7,2.66,1.14,4,.44,1.34.89,2.67,1.35,3.99.46,1.32.81,2.59,1.06,3.82.15.64.21,1.21.2,1.7-.01.49-.11.87-.3,1.14-.18.27-.45.46-.81.59-.35.13-.79.22-1.29.26-.51.05-1.09.07-1.75.08l-1.06-.03c-.21,0-.4,0-.59.02h-.11c-.68-.02-1.32-.09-1.92-.22-.6-.12-1.14-.3-1.63-.52-.49-.23-.9-.51-1.23-.86-.33-.35-.55-.76-.65-1.24-.11-.4-.16-.75-.15-1.03.01-.42.09-.84.25-1.26.15-.42.31-.84.48-1.27.17-.43.32-.87.48-1.31s.24-.9.25-1.37l-.02-.46c-.14-1.7-.66-3.13-1.57-4.3-.91-1.17-2.06-2.1-3.45-2.81-1.39-.71-2.94-1.23-4.63-1.56-1.7-.33-3.39-.52-5.08-.57-.33,0-.65-.02-.95-.03-.31,0-.61,0-.92,0-2.89.06-5.89.28-8.98.67-3.09.38-6.23.81-9.42,1.27-3.19.46-6.39.9-9.61,1.3-3.22.4-6.42.65-9.6.75-.83.02-1.66.04-2.51.05-.85.01-1.71,0-2.58-.02-1.08-.03-2.16-.1-3.24-.22-1.08-.11-2.12-.28-3.13-.51-1-.23-1.97-.53-2.88-.91-.92-.38-1.77-.85-2.55-1.41.66-1.04,1.54-1.9,2.63-2.57,1.09-.67,2.29-1.26,3.6-1.75,1.31-.49,2.67-.94,4.1-1.33,1.42-.39,2.81-.82,4.16-1.28.25-.6.48-1.24.69-1.92.21-.68.32-1.43.34-2.25.01-.42,0-.9-.07-1.45-1.25-.01-2.58.12-4,.38s-2.84.66-4.25,1.17c-1.42.51-2.79,1.15-4.13,1.9-1.34.75-2.55,1.59-3.63,2.53-1.08.93-2.01,1.95-2.77,3.05-.76,1.1-1.27,2.26-1.54,3.5-.08.35-.14.69-.17,1.02-.03.33-.05.65-.06.95-.05,1.65.33,3.02,1.12,4.13.79,1.1,1.88,1.99,3.26,2.67,1.38.67,2.99,1.16,4.83,1.46,1.84.3,3.77.48,5.79.53,1.41.04,2.85.03,4.31-.02,1.46-.05,2.9-.14,4.31-.25,1.42-.11,2.79-.24,4.12-.38,1.33-.14,2.58-.28,3.73-.41,1.82-.21,3.64-.41,5.47-.61,1.83-.2,3.63-.38,5.4-.55,1.77-.17,3.49-.34,5.15-.49,1.66-.15,3.24-.31,4.72-.48,1.49-.17,2.9-.33,4.23-.5,1.33-.16,2.59-.24,3.76-.23h.32c.45.02,1.02.05,1.71.09.69.04,1.42.12,2.18.22.76.1,1.52.24,2.28.4.76.16,1.44.36,2.05.61.6.24,1.1.52,1.47.84.38.32.56.69.55,1.11,0,.35-.15.66-.41.92-.27.26-.61.49-1.04.69s-.92.37-1.46.52c-.55.15-1.1.29-1.67.41-3.7.93-7.54,1.65-11.55,2.16-4,.51-8.1.88-12.29,1.12-4.19.24-8.45.35-12.78.35-4.33,0-8.64-.07-12.94-.19-.42-.01-.85-.02-1.29-.04-.43-.01-.86-.05-1.28-.11l-17.17-.48-1.76-.23c.33-.74.6-1.45.82-2.11.22-.67.34-1.39.36-2.16.02-.68-.06-1.48-.25-2.41-.66-1.76-1.75-3.13-3.29-4.1s-3.34-1.49-5.41-1.55c-.33,0-.66,0-.99,0-.33.02-.67.04-1.02.08-1.3.15-2.49.48-3.57.97-1.08.5-2.09,1.11-3.02,1.84-.92.73-1.79,1.52-2.59,2.38s-1.57,1.73-2.31,2.62c-.74.88-1.48,1.74-2.21,2.57-.73.83-1.48,1.56-2.25,2.19-.54-.18-.99-.45-1.37-.82-.38-.36-.68-.75-.9-1.17-.22-.42-.38-.84-.48-1.25-.09-.41-.14-.75-.13-1.01.01-.49.16-1.01.43-1.56.28-.55.57-1.12.88-1.72.31-.6.6-1.23.88-1.88.28-.65.42-1.32.44-2,.01-.52-.06-.99-.21-1.42h-.42c-1.48-.05-3.07.12-4.76.51-1.69.39-3.39.89-5.11,1.5-.79.33-1.52.66-2.21,1-.69.33-1.34.75-1.94,1.25-.82.68-1.4,1.36-1.75,2.02-.35.66-.53,1.37-.55,2.12-.02.66.05,1.33.19,2,.15.68.3,1.35.47,2.02.17.68.33,1.35.47,2.03.15.67.21,1.34.19,2,0,.38-.06.74-.14,1.09-.11.52-.39,1.04-.86,1.58-.46.54-1.02,1.07-1.68,1.59-.66.52-1.39,1.02-2.19,1.49-.8.47-1.6.9-2.4,1.29-.8.39-1.57.73-2.31,1.03-.74.3-1.37.53-1.89.71-1.4.43-2.75.82-4.04,1.16-1.29.34-2.54.7-3.74,1.08-1.2.38-2.35.79-3.44,1.24-1.09.45-2.14,1-3.15,1.66,2.22.53,4.5.83,6.85.9,1.71.05,3.43-.04,5.14-.26,1.71-.22,3.35-.59,4.92-1.1,1.57-.51,3.03-1.18,4.38-2.01,1.35-.83,2.53-1.84,3.54-3.02,1.01-1.18,1.81-2.54,2.41-4.06.6-1.52.92-3.25.97-5.18.05-1.72-.15-3.6-.58-5.66.48-.36.97-.7,1.47-1,.5-.3,1.06-.56,1.68-.78.28,0,.54-.08.78-.28,0,0,.01,0,.02-.02.51-.17,1.03-.31,1.56-.42.82-.16,1.64-.29,2.46-.39-.04,1.29,0,2.56.12,3.81.12,1.25.35,2.43.69,3.55.34,1.11.84,2.14,1.47,3.08.63.93,1.43,1.73,2.4,2.4.09.07.14.19.13.36l-.68,6.61c-.01.4,0,.78.04,1.15.04.36.12.68.26.94.58-.67.94-1.32,1.06-1.95.12-.63.24-1.23.33-1.79s.28-1.09.54-1.59c.26-.5.81-.95,1.64-1.35,2.47-.02,4.77-.15,6.89-.37,2.12-.22,4.19-.46,6.21-.72,2.02-.26,4.02-.52,6-.77,1.98-.25,4.07-.41,6.26-.49l12.83.36c3.31.09,6.72.17,10.23.22,3.5.05,7.03.06,10.58.02,3.55-.04,7.11-.15,10.67-.33,3.56-.18,7.03-.46,10.43-.84,3.4-.37,6.68-.86,9.87-1.45,3.18-.59,6.19-1.33,9.04-2.22.04.1.08.18.12.25.03.07.07.14.12.22.2.4.38.76.55,1.06.17.3.34.57.51.83.17.25.36.49.58.72.22.23.49.48.81.75,1.03.87,2.21,1.55,3.54,2.02,1.33.47,2.74.73,4.25.77h.07s1.06.03,1.06.03l.56.02c.51.01.97-.03,1.38-.14,0,0,0,0,0,0,1.16-.19,2.18-.6,3.06-1.23,1.35-.96,2.17-2.44,2.49-4.43.09-.63.14-1.27.16-1.9.02-.61,0-1.24-.04-1.89-.04-.65-.11-1.3-.21-1.96-.08-.52-.2-1.01-.35-1.47-.15-.46-.3-.92-.45-1.37-.15-.45-.29-.9-.4-1.35-.12-.45-.17-.91-.16-1.38,0-.09,0-.18,0-.26,0-.08.02-.18.04-.3.09-.61.27-1.17.54-1.68.27-.51.55-1,.82-1.46.27-.46.52-.92.75-1.37.22-.45.34-.94.36-1.45,0-.28-.02-.58-.1-.9-.07-.32-.2-.65-.38-.98ZM62.27,123.77c-.97.54-2.04.98-3.23,1.34-1.19.35-2.45.61-3.78.78-1.33.16-2.65.23-3.94.19-.87-.02-1.72-.09-2.55-.21-.83-.12-1.62-.28-2.37-.49.27-1.05.79-2.03,1.58-2.94.79-.91,1.73-1.7,2.84-2.37,1.1-.67,2.29-1.2,3.57-1.57,1.28-.38,2.55-.55,3.79-.51,1.36.04,2.62.36,3.77.97,1.15.61,2.03,1.59,2.65,2.95-.58.71-1.36,1.34-2.33,1.88Z"/>
        <path class="cls-1" d="M178.5,123.41c-.36-1.8-.78-3.59-1.24-5.38-.47-1.79-.91-3.59-1.33-5.4-.42-1.81-.66-3.62-.73-5.44.12-.26.32-.42.6-.49.27-.07.55-.15.82-.22.27-.07.52-.18.73-.31.22-.14.33-.4.34-.8l.04-.1c.08-.35.12-.68.13-.98.04-1.41-.2-2.65-.72-3.73-.52-1.07-1.18-2.04-1.96-2.91-.79-.87-1.62-1.67-2.49-2.4-.87-.73-1.65-1.45-2.34-2.15-.16-.17-.33-.26-.52-.26-.12,0-.24.04-.36.13-.12.09-.24.19-.36.31-.05.02-.09.08-.13.17-.04.09-.08.26-.14.51-.05.25-.11.6-.17,1.07-.06.47-.12,1.09-.19,1.86v.39c-.05,1.27.06,2.53.31,3.78.25,1.25.55,2.5.9,3.75.35,1.24.73,2.47,1.13,3.67.4,1.2.73,2.37.98,3.5.33,1.49.71,3,1.14,4.53.43,1.53.83,3.03,1.21,4.51.38,1.48.73,2.91,1.04,4.28.31,1.37.54,2.64.67,3.79.06.45.1.91.12,1.38.02.47.09.93.21,1.38.12.45.3.89.56,1.32.26.43.65.82,1.18,1.16.36-.93.61-1.85.77-2.77.15-.91.25-1.83.27-2.74.05-1.81-.1-3.61-.47-5.41Z"/>
      </g>
      <g>
        <path class="cls-1" d="M129.29,201.23c-1.14-1.88-3.67,1.79-4.21,2.62-.93,1.41-3.42,5.47-2.3,7.33,4.75,7.85,14.11,10.08,21.48,4.28,5.82-4.59,12.87-15.8,6.69-22.59-3.76-4.13-9.68-5.94-14.49-8.52-2.1-1.12-4.5-2.42-5.96-4.35-.24-.32-.54-1.03-.76-1.57,6.2-4.44,14.72-1.98,18.78,3.68,1.27,1.77,3.59-1.67,4.21-2.62.86-1.31,1.59-2.77,2.04-4.27.23-.77.77-2.34.26-3.06-3.54-4.93-9.5-8.06-15.63-6.85-4.69.93-8.71,3.98-11.61,7.69-2.89,3.7-5.91,9.26-4.97,14.14,1.01,5.21,7.19,7.77,11.44,9.83,3.86,1.88,10.67,4.22,12.13,8.85-1.62,1.03-3.14,1.81-5.18,2.03-4.9.54-9.47-2.59-11.92-6.64ZM147.36,205.19c.12-.28.48-.36,0,0h0ZM146.63,206.92c0,.14-.02.26-.1.31-.03.03.01-.11.1-.31ZM128.35,179.62c-.04.43-.44.37.14-.16.04-.04.12-.11.22-.19-.22.57-.41.94-.36.35ZM129.34,177.63s0,0-.02.02c-.57-.42.54-.14.02-.02Z"/>
        <path class="cls-1" d="M1.09,216.05h24.91c3.09,0,7.51-10.96,4.61-10.96H6.78v-38.75c0-2.72-2.78-.21-3.48.64-1.67,2.04-3.3,5.03-3.3,7.76v40.03c0,.79.3,1.28,1.09,1.28Z"/>
        <path class="cls-1" d="M71.64,217.2c8.98,3.71,23.06-.38,23.29-11.81.11-5.33,0-10.68,0-16.01,0-.79-.3-1.28-1.09-1.28h-7.64c-3.09,0-7.51,10.96-4.61,10.96h6.55v7.93c-3.33.89-6.86.84-10.18-.4-5.25-1.97-9.37-6.21-11.58-11.31-1.09-2.53-1.65-5.17-1.59-7.92.02-.99.17-2.09.39-3,.16-.68.31-1.09.4-1.3.1-.25.2-.5.31-.74.02-.04.04-.09.07-.14.14-.21.49-.78.52-.85.12-.15.6-.76.65-.82.67-.75,1.6-1.58,2.53-2.19,2.06-1.37,4.38-2.2,6.87-2.28,5.01-.15,9.78,3.35,12.73,7.07,1.34,1.69,3.55-1.61,4.21-2.62.86-1.31,1.59-2.77,2.04-4.27.22-.74.79-2.39.26-3.06-5.1-6.45-12.74-10.27-20.7-6.44-4.69,2.25-8.42,6.49-11.12,10.85-3.17,5.13-5.44,10.88-5.88,16.93-.68,9.33,4.76,19.08,13.54,22.71Z"/>
        <path class="cls-1" d="M183.48,218.22c2.22-1.17,3.93-4.81,4.58-7.07,2.81-9.67,5.62-19.34,8.44-29.02,4.29,12.17,8.58,24.34,12.87,36.52.75,2.12,3.85-2.07,4.21-2.62,1.17-1.78,3.1-5.06,2.3-7.33-5.07-14.38-10.13-28.75-15.2-43.13-.52-1.47-2.52.51-2.91.94-1.51,1.63-2.72,3.82-3.34,5.94-4.12,14.17-8.24,28.34-12.36,42.51-.37,1.28-.9,4.46,1.41,3.25Z"/>
        <path class="cls-1" d="M266.51,188.13c-.02.22-.03.4-.04.55-1,.78-3.28,1.95-3.51,2.06-1.67.77-3.03,3.45-3.73,4.95-.54,1.16-1.9,3.87-1.11,5.19,3.54,5.92,7.09,11.85,10.63,17.77,1.13,1.89,3.67-1.79,4.21-2.62.94-1.42,3.42-5.46,2.3-7.33-2.71-4.53-5.42-9.06-8.13-13.59,1.61-2.02,2.93-4.28,3.97-6.6,2.12-4.7,3.16-10.33.84-15.16-4.3-8.96-15.27-9.72-23.71-6.85-3.17,1.08-5.69,6.51-5.69,9.68v41.69c0,2.72,2.78.21,3.48-.64,1.67-2.04,3.3-5.03,3.3-7.76v-33.34c4.86-.61,9.9.16,13.53,3.6,2.2,2.09,3.87,5.29,3.65,8.39ZM266.92,188.09c.05.08-.03.22-.2.38.07-.26.14-.46.2-.38Z"/>
      </g>
      <g>
        <path class="cls-1" d="M285.6,40.45c0,.89-.34,1.44-1.22,1.44-9.86,0-19.71,0-29.57,0-1.66,0-3.52-3.26-4.13-4.3-1.14-1.94-2.27-4.27-2.27-6.58v-3.9c-2.79,0-5.59,0-8.38,0-1.66,0-3.52-3.26-4.13-4.3-1.14-1.94-2.27-4.28-2.27-6.58,0-1.3,0-2.6,0-3.9-2.39,0-4.77,0-7.16,0v13.35c0,.89-.34,1.44-1.22,1.44-4.52,0-9.04,0-13.56,0,0,4.45,0,8.9,0,13.35,0,.89-.34,1.44-1.22,1.44-4.93,0-9.86,0-14.78,0-3.48,0-8.44-12.32-5.18-12.32,4.52,0,9.04,0,13.56,0,0-4.45,0-8.9,0-13.35,0-.89.34-1.44,1.22-1.44,4.52,0,9.04,0,13.56,0V1.44c0-.89.34-1.44,1.22-1.44,4.93,0,9.86,0,14.78,0,1.66,0,3.52,3.26,4.13,4.3,1.14,1.94,2.27,4.27,2.27,6.58v3.9c2.79,0,5.59,0,8.38,0,1.66,0,3.52,3.26,4.13,4.3,1.14,1.94,2.27,4.28,2.27,6.58,0,1.3,0,2.6,0,3.9,7.31,0,14.63,0,21.94,0,0-4.45,0-8.9,0-13.35,0-.89.34-1.44,1.22-1.44,4.52,0,9.04,0,13.56,0V1.44C292.76.55,293.1,0,293.98,0c4.93,0,9.86,0,14.78,0,1.66,0,3.52,3.26,4.13,4.3,1.2,2.04,2.1,4.21,2.27,6.58.49,6.85.98,13.69,1.47,20.54,1.18,16.52,2.36,33.04,3.54,49.56,1.42,19.91,2.84,39.82,4.27,59.73,1.23,17.21,2.46,34.43,3.69,51.64.41,5.68.81,11.36,1.22,17.03.19,2.68.58,5.42.58,8.11,0,.12.02.24.03.36.22,3.12-3.23.11-3.91-.72-1.99-2.43-3.49-5.57-3.71-8.72-.49-6.85-.98-13.69-1.47-20.54-1.18-16.52-2.36-33.04-3.54-49.56-1.42-19.91-2.84-39.82-4.27-59.73-1.23-17.21-2.46-34.43-3.69-51.64-.35-4.87-.77-9.75-1.14-14.62-2.61,0-5.23,0-7.84,0,0,4.45,0,8.9,0,13.35,0,.89-.34,1.44-1.22,1.44-4.52,0-9.04,0-13.56,0,0,4.45,0,8.9,0,13.35Z"/>
        <path class="cls-1" d="M273.82,107.37c.41-4.08.31-8.17-.43-12.21-.31-1.71-.7-3.18-1.33-5.02-.05-.13-.07-.21-.09-.26-.04-.1-.09-.21-.15-.35-.17-.41-.35-.81-.51-1.22-.05-.11-.08-.21-.12-.3-.02-.04-.04-.09-.07-.14-.3-.59-.61-1.18-.93-1.76-.04-.08-.07-.14-.1-.18-.05-.07-.1-.14-.16-.23-.25-.37-.49-.74-.73-1.11-.09-.13-.15-.23-.21-.32-.03-.04-.09-.11-.18-.23-.33-.43-.67-.86-1.01-1.28-.92-1.11-2.13-2.36-3.57-3.63-2.85-2.52-6.19-4.58-9.64-6.17-7.1-3.27-15.19-4.52-22.96-3.98-9.5.67-18.64,4.43-26.19,10.17-2.17,1.65-9.46-9.92-6.48-12.19,14.93-11.34,35.08-13.55,52.07-5.61,18.69,8.74,30.55,30.09,30.64,50.39.03,6.74-1.31,13.4-3.85,19.58,2.59,0,5.18,0,7.77,0,1.66,0,3.52,3.26,4.13,4.3,1.14,1.94,2.27,4.28,2.27,6.58,0,15.27,0,30.54,0,45.81,0,2.21,0,4.41,0,6.62,0,3.05-3.13.23-3.91-.72-1.88-2.29-3.71-5.66-3.71-8.72,0-13.85,0-27.7,0-41.55-4.78,0-9.55,0-14.33,0-1.84,0-3.93-3.83-4.6-5.09-.71-1.33-2.78-5.18-1.65-6.66,5.41-7.11,9.11-15.6,10.01-24.53Z"/>
      </g>
    </g>
  </g>
</svg>